<svg width="1146" height="1146" viewBox="0 0 1146 1146" fill="none" xmlns="http://www.w3.org/2000/svg">
<path d="M562.664 1135.91L562.484 1145.9C562.151 1145.9 561.818 1145.89 561.485 1145.88L561.682 1135.89C562.009 1135.9 562.337 1135.9 562.664 1135.91ZM584.515 1145.88C584.182 1145.89 583.849 1145.9 583.516 1145.9L583.337 1135.91C583.664 1135.9 583.991 1135.9 584.318 1135.89L584.515 1145.88ZM551.885 1135.61L551.516 1145.6C551.184 1145.59 550.853 1145.58 550.521 1145.57L550.907 1135.57C551.233 1135.59 551.559 1135.6 551.885 1135.61ZM595.479 1145.57C595.147 1145.58 594.815 1145.59 594.483 1145.6L594.116 1135.61C594.442 1135.6 594.768 1135.59 595.094 1135.57L595.479 1145.57ZM541.126 1135.11L540.568 1145.1C540.235 1145.08 539.902 1145.06 539.568 1145.04L540.143 1135.06C540.47 1135.08 540.798 1135.09 541.126 1135.11ZM605.857 1135.06L606.432 1145.04C606.098 1145.06 605.764 1145.08 605.431 1145.1L604.875 1135.11C605.203 1135.1 605.53 1135.08 605.857 1135.06ZM530.338 1134.41L529.591 1144.38C529.259 1144.35 528.927 1144.33 528.596 1144.3L529.36 1134.33C529.686 1134.36 530.012 1134.38 530.338 1134.41ZM617.403 1144.3C617.072 1144.33 616.74 1144.35 616.408 1144.38L615.662 1134.41C615.988 1134.38 616.315 1134.36 616.641 1134.33L617.403 1144.3ZM519.607 1133.5L518.671 1143.46C518.341 1143.43 518.011 1143.39 517.681 1143.36L518.635 1133.41C518.959 1133.44 519.283 1133.47 519.607 1133.5ZM628.318 1143.36C627.989 1143.39 627.659 1143.43 627.329 1143.46L626.861 1138.48L626.394 1133.5C626.718 1133.47 627.042 1133.44 627.366 1133.41L628.318 1143.36ZM508.873 1132.39L508.309 1137.36L507.746 1142.32C507.415 1142.29 507.084 1142.25 506.753 1142.21L507.896 1132.28C508.222 1132.31 508.548 1132.35 508.873 1132.39ZM639.247 1142.21C638.916 1142.25 638.584 1142.29 638.253 1142.32L637.128 1132.39C637.454 1132.35 637.779 1132.31 638.104 1132.28L639.247 1142.21ZM498.16 1131.07L496.844 1140.98C496.514 1140.94 496.185 1140.89 495.855 1140.85L497.188 1130.94C497.512 1130.98 497.836 1131.03 498.16 1131.07ZM648.812 1130.94L650.145 1140.85C649.815 1140.89 649.486 1140.94 649.156 1140.98L647.841 1131.07C648.164 1131.03 648.488 1130.98 648.812 1130.94ZM487.511 1129.55L486.005 1139.44C485.675 1139.39 485.346 1139.34 485.017 1139.29L486.539 1129.4C486.863 1129.45 487.187 1129.5 487.511 1129.55ZM660.983 1139.28C660.654 1139.33 660.325 1139.39 659.995 1139.44L658.49 1129.55C658.814 1129.5 659.137 1129.45 659.461 1129.4L660.983 1139.28ZM476.839 1127.82L475.99 1132.75L475.991 1132.75L475.143 1137.68C474.815 1137.62 474.487 1137.56 474.159 1137.5L475.872 1127.65C476.194 1127.71 476.517 1127.77 476.839 1127.82ZM670.129 1127.65L671.841 1137.5C671.513 1137.56 671.185 1137.62 670.857 1137.68L669.162 1127.82C669.484 1127.77 669.807 1127.71 670.129 1127.65ZM466.233 1125.89L464.349 1135.71C464.023 1135.65 463.697 1135.58 463.371 1135.52L465.272 1125.71C465.593 1125.77 465.913 1125.83 466.233 1125.89ZM682.629 1135.52C682.303 1135.58 681.977 1135.65 681.651 1135.71L679.768 1125.89C680.088 1125.83 680.408 1125.77 680.728 1125.71L682.629 1135.52ZM455.67 1123.76L454.632 1128.65L454.633 1128.65L453.596 1133.54C453.269 1133.47 452.943 1133.4 452.617 1133.33L454.708 1123.55C455.028 1123.62 455.349 1123.69 455.67 1123.76ZM691.292 1123.55L693.382 1133.33C693.056 1133.4 692.73 1133.47 692.403 1133.54L691.367 1128.65L690.331 1123.76C690.651 1123.69 690.972 1123.62 691.292 1123.55ZM445.129 1121.42L442.867 1131.16C442.543 1131.08 442.219 1131 441.896 1130.93L444.175 1121.2C444.493 1121.27 444.811 1121.34 445.129 1121.42ZM701.826 1121.2L704.104 1130.93C703.78 1131 703.457 1131.08 703.133 1131.16L702.002 1126.29L700.871 1121.42C701.189 1121.34 701.508 1121.27 701.826 1121.2ZM434.664 1118.88L432.215 1128.57C431.893 1128.49 431.572 1128.41 431.25 1128.33L433.717 1118.64C434.032 1118.72 434.348 1118.8 434.664 1118.88ZM712.284 1118.64L714.749 1128.33C714.428 1128.41 714.107 1128.49 713.785 1128.57L711.337 1118.88C711.653 1118.8 711.969 1118.72 712.284 1118.64ZM424.224 1116.14L421.588 1125.78C421.267 1125.69 420.945 1125.6 420.624 1125.52L423.277 1115.88C423.593 1115.96 423.908 1116.05 424.224 1116.14ZM725.375 1125.52C725.054 1125.6 724.733 1125.69 724.412 1125.78L721.776 1116.14C722.092 1116.05 722.408 1115.96 722.724 1115.88L725.375 1125.52ZM413.849 1113.19L411.026 1122.78C410.708 1122.69 410.389 1122.6 410.07 1122.5L412.909 1112.92C413.222 1113.01 413.535 1113.1 413.849 1113.19ZM734.51 1117.71L735.929 1122.5C735.61 1122.6 735.291 1122.69 734.973 1122.78L732.152 1113.19C732.465 1113.1 732.778 1113.01 733.091 1112.92L734.51 1117.71ZM403.544 1110.05L400.538 1119.59C400.22 1119.49 399.902 1119.39 399.584 1119.29L402.607 1109.76C402.919 1109.86 403.232 1109.96 403.544 1110.05ZM743.394 1109.76L746.415 1119.29C746.098 1119.39 745.78 1119.49 745.462 1119.59L742.456 1110.05C742.768 1109.96 743.081 1109.86 743.394 1109.76ZM393.278 1106.71L390.088 1116.18C389.772 1116.08 389.457 1115.97 389.142 1115.87L392.349 1106.39C392.658 1106.5 392.969 1106.6 393.278 1106.71ZM756.857 1115.87C756.543 1115.97 756.227 1116.08 755.912 1116.18L754.317 1111.45L752.723 1106.71C753.032 1106.6 753.342 1106.5 753.651 1106.39L756.857 1115.87ZM383.1 1103.17L379.727 1112.58C379.414 1112.47 379.101 1112.36 378.789 1112.25L382.179 1102.84C382.485 1102.95 382.793 1103.06 383.1 1103.17ZM767.21 1112.25C766.898 1112.36 766.585 1112.47 766.272 1112.58L762.901 1103.17C763.208 1103.06 763.515 1102.95 763.822 1102.84L767.21 1112.25ZM372.979 1099.44L369.426 1108.78C369.114 1108.66 368.803 1108.54 368.492 1108.42L372.062 1099.09C372.367 1099.2 372.673 1099.32 372.979 1099.44ZM777.507 1108.42C777.196 1108.54 776.885 1108.66 776.574 1108.78L774.798 1104.11L773.021 1099.44C773.327 1099.32 773.633 1099.2 773.938 1099.09L777.507 1108.42ZM362.934 1095.51L359.2 1104.78C358.892 1104.66 358.584 1104.53 358.275 1104.41L362.024 1095.14C362.327 1095.26 362.631 1095.38 362.934 1095.51ZM787.725 1104.41C787.416 1104.53 787.108 1104.66 786.8 1104.78L784.934 1100.14L783.067 1095.51C783.37 1095.38 783.673 1095.26 783.976 1095.14L787.725 1104.41ZM352.979 1091.39L351.022 1095.99L351.023 1095.99L349.067 1100.59C348.761 1100.46 348.454 1100.33 348.147 1100.2L352.075 1091C352.376 1091.13 352.677 1091.26 352.979 1091.39ZM797.852 1100.2C797.545 1100.33 797.238 1100.46 796.932 1100.59L793.021 1091.39C793.323 1091.26 793.625 1091.13 793.926 1091L797.852 1100.2ZM343.084 1087.07L338.997 1096.19C338.693 1096.06 338.389 1095.92 338.085 1095.78L342.189 1086.67C342.487 1086.8 342.786 1086.94 343.084 1087.07ZM807.914 1095.78C807.611 1095.92 807.308 1096.06 807.004 1096.19L802.917 1087.07C803.215 1086.94 803.514 1086.8 803.812 1086.67L807.914 1095.78ZM333.289 1082.57L329.208 1091.23L329.026 1091.61C328.726 1091.47 328.424 1091.33 328.124 1091.19L332.403 1082.15C332.698 1082.29 332.994 1082.43 333.289 1082.57ZM817.875 1091.19C817.575 1091.33 817.273 1091.47 816.973 1091.61L812.712 1082.57C813.007 1082.43 813.302 1082.29 813.597 1082.15L817.875 1091.19ZM323.577 1077.88L319.142 1086.84C318.843 1086.69 318.544 1086.54 318.246 1086.39L322.698 1077.44C322.991 1077.59 323.284 1077.73 323.577 1077.88ZM827.753 1086.39C827.455 1086.54 827.156 1086.69 826.857 1086.84L822.423 1077.88C822.716 1077.73 823.01 1077.59 823.303 1077.44L827.753 1086.39ZM313.955 1073L309.348 1081.87C309.052 1081.72 308.757 1081.57 308.462 1081.41L313.086 1072.55C313.375 1072.7 313.665 1072.85 313.955 1073ZM837.537 1081.41C837.242 1081.56 836.948 1081.72 836.652 1081.87L832.045 1073C832.335 1072.85 832.625 1072.7 832.915 1072.55L837.537 1081.41ZM304.439 1067.94L299.662 1076.73C299.369 1076.57 299.078 1076.41 298.785 1076.25L303.577 1067.47C303.864 1067.63 304.152 1067.79 304.439 1067.94ZM847.214 1076.25C846.921 1076.4 846.63 1076.57 846.337 1076.73L843.949 1072.33L841.562 1067.94C841.849 1067.79 842.136 1067.63 842.423 1067.47L847.214 1076.25ZM295.007 1062.69L290.062 1071.38C289.773 1071.22 289.484 1071.05 289.195 1070.89L294.154 1062.21C294.438 1062.37 294.723 1062.53 295.007 1062.69ZM856.804 1070.89C856.515 1071.05 856.226 1071.22 855.937 1071.38L850.994 1062.69C851.278 1062.53 851.562 1062.37 851.846 1062.21L856.804 1070.89ZM285.686 1057.27L280.879 1065.36L280.576 1065.87C280.29 1065.7 280.004 1065.53 279.719 1065.36L284.844 1056.77C285.124 1056.94 285.405 1057.11 285.686 1057.27ZM866.28 1065.36C865.995 1065.53 865.709 1065.7 865.424 1065.87L860.314 1057.27C860.595 1057.11 860.876 1056.94 861.156 1056.77L866.28 1065.36ZM276.469 1051.67L271.195 1060.17C270.912 1059.99 270.629 1059.81 270.347 1059.64L275.636 1051.15C275.913 1051.33 276.191 1051.5 276.469 1051.67ZM870.364 1051.15L875.653 1059.64C875.37 1059.81 875.087 1059.99 874.804 1060.17L869.531 1051.67C869.809 1051.5 870.087 1051.33 870.364 1051.15ZM267.357 1045.89L264.639 1050.09L264.64 1050.09L261.922 1054.29C261.643 1054.1 261.364 1053.92 261.085 1053.74L266.535 1045.36C266.809 1045.54 267.083 1045.72 267.357 1045.89ZM879.465 1045.36L884.915 1053.74C884.636 1053.92 884.356 1054.1 884.077 1054.29L881.36 1050.09L878.643 1045.89C878.917 1045.72 879.191 1045.54 879.465 1045.36ZM258.366 1039.95L255.567 1044.09L255.568 1044.09L252.771 1048.23C252.494 1048.05 252.219 1047.86 251.943 1047.67L257.554 1039.4C257.824 1039.58 258.095 1039.76 258.366 1039.95ZM894.056 1047.67C893.78 1047.86 893.505 1048.05 893.229 1048.23L887.634 1039.95C887.905 1039.76 888.176 1039.58 888.446 1039.4L894.056 1047.67ZM249.48 1033.82L243.728 1042C243.455 1041.81 243.184 1041.62 242.912 1041.42L248.679 1033.26C248.946 1033.45 249.213 1033.64 249.48 1033.82ZM903.087 1041.42C902.815 1041.62 902.544 1041.81 902.271 1042L896.52 1033.82C896.787 1033.64 897.054 1033.45 897.321 1033.26L903.087 1041.42ZM240.719 1027.54L234.812 1035.6C234.543 1035.4 234.275 1035.21 234.007 1035.01L239.929 1026.96C240.192 1027.15 240.455 1027.34 240.719 1027.54ZM911.992 1035.01C911.724 1035.21 911.457 1035.4 911.188 1035.6L908.235 1031.57L905.281 1027.54C905.545 1027.34 905.809 1027.15 906.072 1026.96L911.992 1035.01ZM232.078 1021.08L226.018 1029.03C225.753 1028.83 225.488 1028.63 225.224 1028.43L231.298 1020.48C231.558 1020.68 231.818 1020.88 232.078 1021.08ZM920.775 1028.43C920.511 1028.63 920.246 1028.83 919.981 1029.03L913.923 1021.08C914.183 1020.88 914.442 1020.68 914.702 1020.48L920.775 1028.43ZM223.56 1014.46L217.35 1022.29C217.089 1022.09 216.827 1021.88 216.566 1021.67L222.792 1013.85C223.048 1014.05 223.304 1014.26 223.56 1014.46ZM926.32 1017.76L929.433 1021.67C929.173 1021.88 928.911 1022.09 928.65 1022.29L925.546 1018.38L922.44 1014.46C922.696 1014.26 922.952 1014.05 923.208 1013.85L926.32 1017.76ZM215.173 1007.68L208.813 1015.4C208.557 1015.18 208.3 1014.97 208.044 1014.76L214.417 1007.06C214.669 1007.26 214.921 1007.47 215.173 1007.68ZM937.955 1014.76C937.699 1014.97 937.442 1015.18 937.186 1015.4L930.827 1007.68C931.079 1007.47 931.331 1007.26 931.583 1007.06L937.955 1014.76ZM206.913 1000.74L200.407 1008.33C200.154 1008.12 199.903 1007.9 199.65 1007.68L206.169 1000.1C206.417 1000.31 206.665 1000.53 206.913 1000.74ZM946.349 1007.68C946.096 1007.9 945.845 1008.12 945.592 1008.33L942.34 1004.54L939.087 1000.74C939.335 1000.53 939.583 1000.31 939.831 1000.1L946.349 1007.68ZM198.789 993.645L192.141 1001.11C191.892 1000.89 191.644 1000.67 191.396 1000.45L198.057 992.992C198.3 993.21 198.545 993.427 198.789 993.645ZM954.604 1000.45C954.355 1000.67 954.108 1000.89 953.859 1001.11L950.536 997.379L947.212 993.645C947.456 993.427 947.7 993.209 947.943 992.991L954.604 1000.45ZM190.801 986.396L184.012 993.734C183.768 993.509 183.523 993.283 183.279 993.057L190.082 985.729C190.321 985.952 190.561 986.174 190.801 986.396ZM962.72 993.057C962.476 993.283 962.231 993.509 961.987 993.734L958.595 990.066L955.199 986.396C955.439 986.174 955.679 985.951 955.919 985.729L962.72 993.057ZM182.952 978.995L176.024 986.204C175.784 985.973 175.543 985.744 175.304 985.513L182.245 978.315C182.48 978.542 182.716 978.769 182.952 978.995ZM963.755 978.315L970.695 985.513C970.456 985.744 970.214 985.973 969.975 986.203L963.048 978.995C963.284 978.769 963.52 978.542 963.755 978.315ZM175.246 971.448L168.182 978.523C167.946 978.288 167.712 978.053 167.477 977.817L174.553 970.754C174.784 970.985 175.015 971.217 175.246 971.448ZM978.523 977.817C978.288 978.053 978.053 978.287 977.817 978.522L974.287 974.986L970.754 971.447C970.985 971.216 971.217 970.985 971.448 970.754L978.523 977.817ZM167.685 963.755L160.486 970.695C160.255 970.456 160.026 970.214 159.796 969.975L167.005 963.048C167.231 963.284 167.458 963.52 167.685 963.755ZM986.204 969.975C985.973 970.215 985.744 970.456 985.513 970.695L978.315 963.755C978.542 963.52 978.769 963.284 978.995 963.048L986.204 969.975ZM160.271 955.919L152.942 962.72C152.716 962.476 152.49 962.231 152.265 961.987L159.604 955.199C159.826 955.439 160.049 955.679 160.271 955.919ZM993.734 961.987C993.509 962.231 993.283 962.476 993.057 962.72L989.394 959.32L985.729 955.918C985.952 955.679 986.174 955.439 986.396 955.199L993.734 961.987ZM153.009 947.943L145.553 954.604C145.331 954.355 145.109 954.108 144.888 953.859L152.355 947.212C152.573 947.456 152.791 947.7 153.009 947.943ZM1001.11 953.858C1000.89 954.107 1000.67 954.355 1000.45 954.604L992.992 947.943C993.21 947.7 993.427 947.455 993.645 947.211L1001.11 953.858ZM145.899 939.831L138.317 946.349C138.1 946.096 137.883 945.845 137.666 945.592L145.261 939.087C145.473 939.335 145.686 939.583 145.899 939.831ZM1000.74 939.087L1008.33 945.592C1008.12 945.845 1007.9 946.096 1007.68 946.349L1000.1 939.831C1000.31 939.583 1000.53 939.335 1000.74 939.087ZM138.944 931.583L131.239 937.955C131.027 937.699 130.814 937.442 130.603 937.186L138.319 930.827C138.527 931.079 138.736 931.331 138.944 931.583ZM1015.4 937.186C1015.18 937.442 1014.97 937.699 1014.76 937.955L1007.06 931.583C1007.26 931.331 1007.47 931.079 1007.68 930.827L1015.4 937.186ZM132.15 923.208L128.236 926.32L128.237 926.321L124.324 929.433C124.117 929.173 123.912 928.911 123.706 928.65L131.541 922.44C131.744 922.696 131.947 922.952 132.15 923.208ZM1014.46 922.44L1022.29 928.649C1022.09 928.91 1021.88 929.172 1021.67 929.433L1013.85 923.208C1014.05 922.952 1014.26 922.696 1014.46 922.44ZM125.516 914.702L117.573 920.775C117.371 920.511 117.17 920.246 116.969 919.981L124.92 913.923C125.118 914.183 125.317 914.442 125.516 914.702ZM1029.03 919.981C1028.83 920.246 1028.63 920.511 1028.43 920.775L1020.48 914.702C1020.68 914.442 1020.88 914.182 1021.08 913.922L1029.03 919.981ZM119.045 906.072L110.988 911.992C110.791 911.724 110.595 911.457 110.398 911.188L118.465 905.281C118.658 905.545 118.851 905.809 119.045 906.072ZM1035.6 911.188C1035.4 911.456 1035.21 911.724 1035.01 911.992L1026.96 906.071C1027.15 905.808 1027.34 905.545 1027.54 905.281L1035.6 911.188ZM112.741 897.321L104.574 903.087C104.382 902.815 104.189 902.544 103.997 902.271L112.177 896.52C112.365 896.787 112.553 897.054 112.741 897.321ZM1042 902.271C1041.81 902.544 1041.62 902.815 1041.42 903.087L1033.26 897.321C1033.45 897.054 1033.64 896.787 1033.82 896.52L1042 902.271ZM106.603 888.446L98.3252 894.056C98.1383 893.78 97.9511 893.505 97.7646 893.229L106.053 887.634C106.236 887.905 106.419 888.176 106.603 888.446ZM1044.09 890.432L1048.23 893.229C1048.05 893.505 1047.86 893.78 1047.67 894.056L1039.4 888.446C1039.58 888.176 1039.76 887.905 1039.95 887.634L1044.09 890.432ZM100.64 879.465L92.2559 884.915C92.0746 884.636 91.8947 884.356 91.7139 884.077L100.106 878.643C100.284 878.917 100.462 879.191 100.64 879.465ZM1050.09 881.36L1054.29 884.077C1054.1 884.356 1053.92 884.635 1053.74 884.914L1045.36 879.465C1045.54 879.191 1045.72 878.917 1045.89 878.643L1050.09 881.36ZM94.8467 870.364L86.3613 875.653C86.185 875.37 86.0098 875.087 85.834 874.804L94.3281 869.531C94.5006 869.809 94.6738 870.087 94.8467 870.364ZM1060.17 874.804C1059.99 875.087 1059.81 875.37 1059.64 875.652L1055.4 873.009L1051.15 870.364C1051.33 870.087 1051.5 869.809 1051.67 869.531L1060.17 874.804ZM89.2295 861.156L80.6436 866.28C80.4733 865.995 80.3035 865.709 80.1338 865.424L88.7275 860.314C88.8945 860.595 89.0621 860.876 89.2295 861.156ZM1065.87 865.423C1065.7 865.709 1065.53 865.995 1065.36 866.28L1056.77 861.156C1056.94 860.876 1057.11 860.595 1057.27 860.314L1065.87 865.423ZM83.792 851.846L75.1104 856.804C74.9453 856.515 74.7798 856.226 74.6152 855.937L83.3057 850.994C83.4673 851.278 83.6299 851.562 83.792 851.846ZM1071.38 855.937C1071.22 856.226 1071.05 856.515 1070.89 856.804L1062.21 851.846C1062.37 851.562 1062.53 851.277 1062.69 850.993L1071.38 855.937ZM78.5283 842.423L69.7539 847.214C69.5942 846.921 69.4327 846.63 69.2734 846.337L78.0586 841.562C78.2148 841.849 78.3716 842.136 78.5283 842.423ZM1076.73 846.337C1076.57 846.63 1076.41 846.921 1076.25 847.214L1067.47 842.423C1067.63 842.136 1067.79 841.848 1067.94 841.561L1076.73 846.337ZM73.4541 832.915L64.5879 837.537C64.4342 837.242 64.2802 836.948 64.127 836.652L73.002 832.045C73.1525 832.335 73.3031 832.625 73.4541 832.915ZM1081.87 836.651C1081.72 836.947 1081.57 837.242 1081.41 837.537L1076.98 835.227L1072.55 832.914C1072.7 832.625 1072.85 832.335 1073 832.045L1081.87 836.651ZM68.5596 823.303L59.6045 827.753C59.4564 827.455 59.3107 827.156 59.1631 826.857L68.123 822.423C68.2682 822.716 68.414 823.01 68.5596 823.303ZM1086.84 826.857C1086.69 827.156 1086.54 827.455 1086.39 827.753L1081.92 825.528L1077.44 823.302C1077.59 823.009 1077.73 822.716 1077.88 822.423L1086.84 826.857ZM63.8496 813.597L59.3301 815.735L59.3311 815.736L54.8125 817.875C54.6703 817.575 54.5294 817.273 54.3877 816.973L63.4316 812.712C63.5707 813.007 63.7101 813.302 63.8496 813.597ZM1091.61 816.973C1091.47 817.273 1091.33 817.575 1091.19 817.875L1086.67 815.736L1082.15 813.597C1082.29 813.302 1082.43 813.006 1082.57 812.711L1091.61 816.973ZM59.332 803.812L50.2148 807.914C50.0783 807.611 49.9417 807.308 49.8057 807.004L58.9307 802.917C59.0643 803.215 59.1979 803.514 59.332 803.812ZM1096.19 807.002C1096.06 807.306 1095.92 807.61 1095.78 807.914L1091.23 805.863L1086.67 803.811C1086.8 803.513 1086.94 803.214 1087.07 802.916L1096.19 807.002ZM54.9971 793.926L45.8027 797.852C45.6718 797.545 45.5406 797.238 45.4102 796.932L54.6123 793.021C54.7404 793.323 54.8685 793.625 54.9971 793.926ZM1095.99 794.977L1100.59 796.932C1100.46 797.239 1100.33 797.545 1100.2 797.852L1091 793.925C1091.13 793.624 1091.26 793.323 1091.39 793.021L1095.99 794.977ZM50.8613 783.976L41.5928 787.725C41.4681 787.416 41.342 787.108 41.2178 786.8L50.4941 783.067C50.6161 783.37 50.7389 783.673 50.8613 783.976ZM1104.78 786.799C1104.66 787.107 1104.53 787.415 1104.41 787.724L1099.77 785.851L1095.14 783.976C1095.26 783.673 1095.38 783.369 1095.51 783.066L1104.78 786.799ZM46.9141 773.938L37.5742 777.507C37.4554 777.196 37.3351 776.885 37.2168 776.574L46.5645 773.021C46.6807 773.327 46.7973 773.633 46.9141 773.938ZM1108.78 776.574C1108.66 776.886 1108.54 777.196 1108.42 777.507L1103.76 775.724L1099.09 773.938C1099.2 773.633 1099.32 773.327 1099.44 773.021L1108.78 776.574ZM43.1592 763.822L33.751 767.21C33.6385 766.898 33.5261 766.585 33.4141 766.272L42.8281 762.901C42.9381 763.208 43.0487 763.515 43.1592 763.822ZM1112.58 766.272C1112.47 766.585 1112.36 766.898 1112.25 767.21L1107.55 765.517L1102.84 763.821C1102.95 763.515 1103.06 763.207 1103.17 762.9L1112.58 766.272ZM39.6055 753.651L30.1338 756.857C30.0272 756.543 29.9224 756.227 29.8164 755.912L39.292 752.723C39.3962 753.032 39.5007 753.342 39.6055 753.651ZM1116.18 755.911C1116.08 756.227 1115.97 756.542 1115.87 756.857L1111.13 755.255L1106.39 753.651C1106.5 753.342 1106.6 753.031 1106.71 752.722L1116.18 755.911ZM36.2432 743.394L31.4756 744.904L31.4766 744.905L26.7109 746.415C26.6103 746.098 26.5113 745.78 26.4111 745.462L35.9463 742.456C36.0448 742.768 36.1442 743.081 36.2432 743.394ZM1119.59 745.461C1119.49 745.779 1119.39 746.097 1119.29 746.415L1109.76 743.393C1109.86 743.081 1109.96 742.768 1110.05 742.456L1119.59 745.461ZM33.084 733.091L28.2891 734.51L28.29 734.511L23.4971 735.929C23.4028 735.61 23.3096 735.291 23.2158 734.973L32.8076 732.152C32.8997 732.465 32.9914 732.778 33.084 733.091ZM1122.78 734.973C1122.69 735.291 1122.6 735.61 1122.5 735.929L1112.92 733.091C1113.01 732.778 1113.1 732.465 1113.19 732.151L1122.78 734.973ZM30.124 722.724L20.4834 725.375C20.3951 725.054 20.3075 724.733 20.2197 724.412L29.8643 721.776C29.9505 722.092 30.0372 722.408 30.124 722.724ZM1125.78 724.411C1125.69 724.732 1125.6 725.054 1125.52 725.375L1120.7 724.05L1115.88 722.723C1115.96 722.407 1116.05 722.092 1116.14 721.776L1125.78 724.411ZM27.3594 712.284L22.5127 713.517L22.5137 713.518L17.6709 714.749C17.5891 714.428 17.507 714.107 17.4258 713.785L27.1191 711.337C27.1989 711.653 27.2791 711.969 27.3594 712.284ZM1128.57 713.784C1128.49 714.106 1128.41 714.427 1128.33 714.749L1118.64 712.283C1118.72 711.968 1118.8 711.652 1118.88 711.336L1128.57 713.784ZM24.8047 701.826L15.0703 704.104C14.9946 703.78 14.918 703.457 14.8428 703.133L24.582 700.871C24.6559 701.189 24.7302 701.508 24.8047 701.826ZM1131.16 703.132C1131.08 703.456 1131 703.78 1130.93 704.104L1121.2 701.825C1121.27 701.507 1121.34 701.189 1121.42 700.871L1131.16 703.132ZM22.4463 691.292L17.5557 692.337L17.5566 692.338L12.6689 693.382C12.5992 693.056 12.5282 692.73 12.459 692.403L22.2412 690.331C22.3091 690.651 22.3778 690.972 22.4463 691.292ZM1133.54 692.403C1133.47 692.73 1133.4 693.056 1133.33 693.382L1123.55 691.292C1123.62 690.972 1123.69 690.651 1123.76 690.33L1133.54 692.403ZM20.2939 680.728L10.4785 682.629C10.4154 682.303 10.3507 681.977 10.2881 681.651L20.1084 679.768C20.1698 680.088 20.232 680.408 20.2939 680.728ZM1135.71 681.65C1135.65 681.976 1135.58 682.302 1135.52 682.628L1135.34 682.594L1130.62 681.679L1125.71 680.728C1125.77 680.407 1125.83 680.087 1125.89 679.767L1135.71 681.65ZM18.3457 670.129L8.49512 671.841C8.43811 671.513 8.37872 671.185 8.32227 670.857L18.1787 669.162C18.2342 669.484 18.2897 669.807 18.3457 670.129ZM1132.75 670.009L1137.68 670.857C1137.62 671.185 1137.56 671.512 1137.5 671.84L1127.65 670.128C1127.71 669.806 1127.77 669.483 1127.82 669.161L1132.75 670.009ZM16.5967 659.461L6.71875 660.983H6.71484C6.66409 660.654 6.6127 660.325 6.5625 659.995L16.4473 658.49C16.4966 658.814 16.5468 659.137 16.5967 659.461ZM1139.44 659.994C1139.39 660.324 1139.34 660.653 1139.29 660.982L1129.4 659.461C1129.45 659.137 1129.5 658.813 1129.55 658.489L1139.44 659.994ZM15.0596 648.812L5.14941 650.145C5.1051 649.815 5.06134 649.486 5.01758 649.156L14.9297 647.841C14.9727 648.164 15.016 648.488 15.0596 648.812ZM1140.98 649.155C1140.94 649.485 1140.89 649.814 1140.85 650.144L1130.94 648.812C1130.98 648.488 1131.03 648.164 1131.07 647.84L1140.98 649.155ZM13.7227 638.104L3.78906 639.247C3.75092 638.916 3.71335 638.584 3.67578 638.253L13.6113 637.128C13.6482 637.454 13.6852 637.779 13.7227 638.104ZM1142.32 638.253C1142.29 638.584 1142.25 638.915 1142.21 639.246L1137.24 638.676L1132.28 638.104C1132.31 637.778 1132.35 637.452 1132.39 637.127L1142.32 638.253ZM12.5908 627.366L2.63672 628.318C2.60514 627.989 2.57399 627.659 2.54297 627.329L12.498 626.394C12.5285 626.718 12.5598 627.042 12.5908 627.366ZM1143.46 627.328C1143.43 627.658 1143.39 627.988 1143.36 628.318L1138.39 627.843L1133.41 627.365C1133.44 627.041 1133.47 626.717 1133.5 626.393L1143.46 627.328ZM11.666 616.641L1.69531 617.403C1.6699 617.072 1.64594 616.74 1.62109 616.408L11.5918 615.662C11.6162 615.988 11.641 616.315 11.666 616.641ZM1144.38 616.408C1144.35 616.74 1144.33 617.072 1144.3 617.403L1134.33 616.64C1134.36 616.314 1134.38 615.988 1134.41 615.662L1144.38 616.408ZM10.9424 605.857L0.958984 606.432C0.939794 606.098 0.92194 605.764 0.90332 605.431L10.8867 604.875C10.905 605.203 10.9235 605.53 10.9424 605.857ZM1145.1 605.431C1145.08 605.764 1145.06 606.097 1145.04 606.431L1140.05 606.145L1135.06 605.857C1135.08 605.53 1135.09 605.202 1135.11 604.874L1145.1 605.431ZM10.4258 595.094L0.432617 595.479C0.419825 595.147 0.408713 594.815 0.396484 594.483L10.3887 594.116C10.4007 594.442 10.4132 594.768 10.4258 595.094ZM1145.6 594.483C1145.59 594.815 1145.58 595.146 1145.57 595.478L1140.57 595.286L1135.57 595.093C1135.59 594.767 1135.6 594.441 1135.61 594.115L1145.6 594.483ZM10.1113 584.318L0.114258 584.515C0.107695 584.182 0.101698 583.849 0.0957031 583.516L10.0928 583.337C10.0987 583.664 10.1049 583.991 10.1113 584.318ZM1145.9 583.515C1145.9 583.848 1145.89 584.181 1145.88 584.514L1140.89 584.417L1135.89 584.318C1135.9 583.991 1135.9 583.663 1135.91 583.336L1145.9 583.515ZM0 573C0 572.833 0.000833691 572.666 0.000976562 572.499L10 572.508V573.493L0.000976562 573.501C0.000833619 573.334 0 573.167 0 573ZM1146 573.5L1141 573.497L1136 573.492V572.507L1146 572.498C1146 572.665 1146 572.833 1146 573C1146 573.167 1146 573.333 1146 573.5ZM5.1123 561.583L10.1113 561.682C10.1049 562.009 10.0987 562.337 10.0928 562.664L0.0957031 562.484C0.101698 562.151 0.107695 561.818 0.114258 561.485L5.1123 561.583ZM1145.88 561.484C1145.89 561.817 1145.9 562.15 1145.9 562.483L1135.91 562.663C1135.9 562.336 1135.9 562.009 1135.89 561.682L1145.88 561.484ZM5.42871 550.714L10.4258 550.907C10.4132 551.233 10.4007 551.559 10.3887 551.885L0.396484 551.516C0.408702 551.184 0.419837 550.853 0.432617 550.521L5.42871 550.714ZM1145.57 550.521C1145.58 550.852 1145.59 551.184 1145.6 551.516L1135.61 551.884C1135.6 551.558 1135.59 551.232 1135.57 550.906L1145.57 550.521ZM5.95117 539.855L10.9424 540.143C10.9235 540.47 10.905 540.798 10.8867 541.126L0.90332 540.568C0.921922 540.235 0.939812 539.902 0.958984 539.568L5.95117 539.855ZM1145.04 539.567C1145.06 539.901 1145.08 540.235 1145.1 540.568L1135.11 541.125C1135.1 540.797 1135.08 540.47 1135.06 540.143L1145.04 539.567ZM11.666 529.36C11.641 529.686 11.6162 530.012 11.5918 530.338L1.62109 529.591C1.64594 529.259 1.6699 528.927 1.69531 528.596L11.666 529.36ZM1144.3 528.596C1144.33 528.927 1144.35 529.259 1144.38 529.591L1134.41 530.338C1134.38 530.012 1134.36 529.685 1134.33 529.359L1144.3 528.596ZM7.61328 518.157L12.5908 518.635C12.5598 518.959 12.5285 519.283 12.498 519.607L2.54297 518.671C2.57402 518.341 2.60511 518.011 2.63672 517.681L7.61328 518.157ZM1143.36 517.681C1143.39 518.01 1143.43 518.34 1143.46 518.67L1138.48 519.139L1138.48 519.138L1133.5 519.606C1133.47 519.282 1133.44 518.958 1133.41 518.634L1143.36 517.681ZM8.75586 507.324L13.7227 507.896C13.6852 508.222 13.6482 508.548 13.6113 508.873L3.67578 507.746C3.71332 507.415 3.75096 507.084 3.78906 506.753L8.75586 507.324ZM1142.21 506.752C1142.25 507.083 1142.29 507.415 1142.32 507.746L1132.39 508.872C1132.35 508.546 1132.31 508.221 1132.28 507.896L1142.21 506.752ZM15.0596 497.188C15.016 497.512 14.9727 497.836 14.9297 498.16L5.01758 496.844C5.06134 496.514 5.1051 496.185 5.14941 495.855L15.0596 497.188ZM1140.85 495.854C1140.89 496.184 1140.94 496.513 1140.98 496.843L1131.07 498.159C1131.03 497.836 1130.98 497.512 1130.94 497.188L1140.85 495.854ZM16.5967 486.539C16.5468 486.863 16.4966 487.187 16.4473 487.511L6.56152 486.005C6.61172 485.675 6.66311 485.346 6.71387 485.017L16.5967 486.539ZM1139.28 485.016C1139.33 485.345 1139.39 485.674 1139.44 486.004L1129.55 487.51C1129.5 487.186 1129.45 486.863 1129.4 486.539L1139.28 485.016ZM18.3457 475.872C18.2897 476.194 18.2332 476.517 18.1777 476.839L13.251 475.99L8.32324 475.143L8.32227 475.142C8.37865 474.814 8.4372 474.487 8.49414 474.159L18.3457 475.872ZM1137.5 474.158C1137.56 474.486 1137.62 474.814 1137.68 475.142L1127.82 476.838C1127.77 476.516 1127.71 476.193 1127.65 475.871L1137.5 474.158ZM15.3848 464.321L20.2939 465.272C20.2319 465.593 20.1699 465.913 20.1084 466.233L10.2881 464.349C10.3507 464.023 10.4154 463.697 10.4785 463.371L15.3848 464.321ZM1135.71 464.348L1125.89 466.232C1125.83 465.912 1125.77 465.592 1125.71 465.272L1135.52 463.37C1135.58 463.696 1135.65 464.022 1135.71 464.348ZM22.4463 454.708C22.3778 455.028 22.3092 455.349 22.2412 455.67L17.3496 454.632L12.459 453.596C12.5282 453.269 12.5992 452.943 12.6689 452.617L22.4463 454.708ZM1133.54 453.596L1128.65 454.633L1128.65 454.632L1123.76 455.669C1123.69 455.349 1123.62 455.028 1123.55 454.708L1133.33 452.617C1133.4 452.943 1133.47 453.269 1133.54 453.596ZM24.8047 444.175C24.7303 444.493 24.6559 444.811 24.582 445.129L14.8428 442.867C14.918 442.543 14.9945 442.219 15.0703 441.896L24.8047 444.175ZM1131.16 442.866L1126.29 443.998L1126.29 443.997L1121.42 445.129C1121.34 444.811 1121.27 444.492 1121.2 444.174L1130.93 441.896C1131 442.219 1131.08 442.542 1131.16 442.866ZM27.3594 433.717C27.279 434.032 27.1989 434.348 27.1191 434.664L17.4258 432.215C17.5071 431.893 17.5891 431.572 17.6709 431.25L27.3594 433.717ZM1128.57 432.214L1118.88 434.663C1118.8 434.347 1118.72 434.031 1118.64 433.716L1128.33 431.25C1128.41 431.571 1128.49 431.892 1128.57 432.214ZM25.3027 421.95L30.123 423.277C30.0363 423.593 29.9505 423.908 29.8643 424.224L20.2197 421.588C20.3075 421.267 20.395 420.945 20.4834 420.624L25.3027 421.95ZM1125.78 421.587L1116.14 424.224C1116.05 423.908 1115.96 423.592 1115.88 423.276L1125.52 420.624C1125.6 420.945 1125.69 421.266 1125.78 421.587ZM33.084 412.909C32.9913 413.222 32.8997 413.535 32.8076 413.849L23.2158 411.026C23.3096 410.708 23.4028 410.389 23.4971 410.07L33.084 412.909ZM1122.78 411.026L1113.19 413.848C1113.1 413.535 1113.01 413.222 1112.92 412.909L1122.5 410.07C1122.6 410.389 1122.69 410.708 1122.78 411.026ZM36.2422 402.607C36.1432 402.919 36.0447 403.232 35.9463 403.544L26.4111 400.538C26.5114 400.22 26.6102 399.902 26.7109 399.584L36.2422 402.607ZM1119.59 400.537L1110.05 403.544C1109.96 403.232 1109.86 402.919 1109.76 402.606L1119.29 399.584C1119.39 399.901 1119.49 400.219 1119.59 400.537ZM30.1338 389.142L34.8701 390.745L39.6055 392.349C39.5007 392.658 39.3963 392.969 39.292 393.278L29.8154 390.088C29.9125 389.799 30.0089 389.511 30.1064 389.223L30.1338 389.142ZM1115.87 389.142C1115.97 389.456 1116.08 389.772 1116.18 390.087L1111.45 391.683L1111.45 391.682L1106.71 393.277C1106.6 392.968 1106.5 392.658 1106.39 392.349L1115.87 389.142ZM38.4541 380.483L43.1582 382.179C43.0477 382.485 42.9381 382.793 42.8281 383.1L33.4141 379.727C33.5261 379.414 33.6385 379.101 33.751 378.789L38.4541 380.483ZM1112.25 378.789C1112.36 379.101 1112.47 379.414 1112.58 379.727L1103.17 383.099C1103.06 382.792 1102.95 382.485 1102.84 382.178L1112.25 378.789ZM42.2432 370.276L46.9131 372.062C46.7963 372.367 46.6797 372.673 46.5635 372.979L37.2168 369.426L37.2158 369.425C37.3342 369.113 37.4553 368.803 37.5742 368.492L42.2432 370.276ZM1108.42 368.492C1108.54 368.803 1108.66 369.114 1108.78 369.425L1104.11 371.202L1104.11 371.201L1099.44 372.979C1099.32 372.673 1099.2 372.367 1099.09 372.062L1108.42 368.492ZM46.2256 360.149L50.8613 362.024C50.7389 362.327 50.6161 362.631 50.4941 362.934L41.2178 359.2C41.3419 358.892 41.4671 358.584 41.5918 358.275L46.2256 360.149ZM1104.78 359.199L1100.14 361.066L1100.14 361.065L1095.51 362.933C1095.38 362.63 1095.26 362.327 1095.14 362.024L1104.41 358.274C1104.53 358.583 1104.66 358.891 1104.78 359.199ZM54.9971 352.075C54.8685 352.376 54.7403 352.677 54.6123 352.979L50.0107 351.022L45.4102 349.067C45.5406 348.761 45.6718 348.454 45.8027 348.147L54.9971 352.075ZM1100.59 349.067L1091.39 352.979C1091.26 352.677 1091.13 352.375 1091 352.074L1100.2 348.147C1100.33 348.454 1100.46 348.761 1100.59 349.067ZM54.7725 340.137L59.332 342.189C59.1979 342.487 59.0643 342.786 58.9307 343.084L49.8057 338.997C49.9419 338.693 50.0781 338.389 50.2148 338.085L54.7725 340.137ZM1096.19 338.995L1091.63 341.039L1091.63 341.038L1087.07 343.083C1086.94 342.785 1086.8 342.486 1086.67 342.188L1095.78 338.085C1095.92 338.388 1096.06 338.692 1096.19 338.995ZM59.3311 330.264L63.8496 332.403C63.71 332.698 63.5708 332.994 63.4316 333.289L54.3877 329.026C54.5294 328.726 54.6703 328.425 54.8125 328.124L59.3311 330.264ZM1091.61 329.026L1087.09 331.157L1087.09 331.156L1082.57 333.288C1082.43 332.993 1082.29 332.698 1082.15 332.403L1091.19 328.124C1091.33 328.424 1091.47 328.726 1091.61 329.026ZM64.082 320.472L68.5596 322.698C68.414 322.991 68.2682 323.284 68.123 323.577L59.1631 319.142C59.3107 318.843 59.4563 318.544 59.6045 318.246L64.082 320.472ZM1086.39 318.246C1086.54 318.544 1086.69 318.843 1086.84 319.142L1077.88 323.577C1077.73 323.284 1077.59 322.99 1077.44 322.697L1086.39 318.246ZM69.0205 310.773L73.4541 313.086C73.3031 313.375 73.1524 313.665 73.002 313.955L64.127 309.348C64.2803 309.052 64.434 308.757 64.5879 308.462L69.0205 310.773ZM1081.41 308.462C1081.56 308.757 1081.72 309.052 1081.87 309.347L1073 313.955C1072.85 313.665 1072.7 313.375 1072.55 313.085L1081.41 308.462ZM78.5283 303.577C78.3715 303.864 78.2149 304.152 78.0586 304.439L69.2734 299.662C69.4326 299.369 69.5933 299.078 69.7529 298.785L78.5283 303.577ZM1076.73 299.662L1072.33 302.051L1072.33 302.05L1067.94 304.438C1067.79 304.151 1067.63 303.864 1067.47 303.577L1076.25 298.785C1076.4 299.078 1076.57 299.369 1076.73 299.662ZM83.791 294.154C83.6289 294.438 83.4673 294.723 83.3057 295.007L74.6152 290.062C74.7798 289.773 74.9453 289.484 75.1104 289.195L83.791 294.154ZM1071.38 290.063L1062.69 295.006C1062.53 294.722 1062.37 294.438 1062.21 294.154L1070.89 289.195C1071.05 289.484 1071.22 289.773 1071.38 290.063ZM89.2295 284.844C89.0621 285.124 88.8944 285.405 88.7275 285.686L80.1338 280.576C80.3037 280.29 80.4731 280.004 80.6436 279.719L89.2295 284.844ZM1065.87 280.575L1057.27 285.686C1057.11 285.405 1056.94 285.124 1056.77 284.844L1065.36 279.719C1065.53 280.004 1065.7 280.29 1065.87 280.575ZM90.6035 272.991L94.8467 275.636C94.6737 275.913 94.5006 276.191 94.3281 276.469L85.834 271.195C86.0096 270.912 86.1843 270.629 86.3604 270.347L90.6035 272.991ZM1060.17 271.195L1051.67 276.469C1051.5 276.191 1051.33 275.913 1051.15 275.636L1059.64 270.346C1059.81 270.629 1059.99 270.912 1060.17 271.195ZM92.2559 261.085L100.64 266.535C100.462 266.809 100.284 267.083 100.106 267.357L91.7139 261.922C91.8569 261.701 91.9992 261.479 92.1426 261.259L92.2559 261.085ZM1053.74 261.084C1053.92 261.363 1054.1 261.643 1054.29 261.922L1045.89 267.357C1045.72 267.083 1045.54 266.809 1045.36 266.535L1053.74 261.084ZM106.603 257.554C106.419 257.824 106.236 258.095 106.053 258.366L97.7646 252.771C97.951 252.494 98.1383 252.219 98.3252 251.943L106.603 257.554ZM1047.67 251.943C1047.86 252.219 1048.05 252.494 1048.23 252.771L1039.95 258.366C1039.76 258.095 1039.58 257.824 1039.4 257.554L1047.67 251.943ZM112.741 248.679C112.553 248.946 112.364 249.213 112.176 249.48L103.997 243.728C104.189 243.455 104.382 243.184 104.574 242.912L112.741 248.679ZM1042 243.728L1033.82 249.48C1033.64 249.213 1033.45 248.946 1033.26 248.679L1041.42 242.912C1041.62 243.184 1041.81 243.455 1042 243.728ZM119.045 239.929C118.851 240.192 118.658 240.455 118.465 240.719L110.397 234.812C110.594 234.543 110.791 234.275 110.988 234.007L119.045 239.929ZM1035.6 234.811L1031.57 237.765L1031.57 237.764L1027.54 240.719C1027.34 240.455 1027.15 240.191 1026.96 239.928L1035.01 234.007C1035.21 234.275 1035.4 234.542 1035.6 234.811ZM125.516 231.298C125.317 231.558 125.118 231.818 124.92 232.078L116.969 226.018C117.17 225.753 117.371 225.488 117.573 225.224L125.516 231.298ZM1029.03 226.018L1021.08 232.077C1020.88 231.817 1020.68 231.558 1020.48 231.298L1028.43 225.224C1028.63 225.488 1028.83 225.753 1029.03 226.018ZM132.15 222.792C131.947 223.048 131.744 223.304 131.541 223.56L123.705 217.35C123.912 217.089 124.117 216.827 124.324 216.566L132.15 222.792ZM1022.29 217.349L1018.38 220.454L1018.38 220.453L1014.46 223.56C1014.26 223.304 1014.05 223.048 1013.85 222.792L1021.67 216.566C1021.88 216.826 1022.09 217.088 1022.29 217.349ZM138.943 214.417C138.735 214.669 138.527 214.921 138.319 215.173L130.603 208.813C130.814 208.557 131.026 208.3 131.238 208.044L138.943 214.417ZM1014.76 208.044C1014.97 208.301 1015.18 208.557 1015.4 208.813L1007.68 215.173C1007.47 214.921 1007.26 214.669 1007.06 214.417L1014.76 208.044ZM145.899 206.169C145.686 206.417 145.473 206.665 145.261 206.913L137.666 200.407C137.883 200.154 138.1 199.903 138.317 199.65L145.899 206.169ZM1008.33 200.407L1004.54 203.66L1004.54 203.659L1000.74 206.913C1000.53 206.665 1000.31 206.417 1000.1 206.169L1007.68 199.65C1007.9 199.903 1008.12 200.154 1008.33 200.407ZM153.008 198.057C152.79 198.3 152.573 198.545 152.355 198.789L144.888 192.141C145.109 191.892 145.331 191.644 145.553 191.396L153.008 198.057ZM1001.11 192.14L997.379 195.464L997.378 195.463L993.645 198.788C993.427 198.544 993.209 198.3 992.991 198.057L1000.45 191.396C1000.67 191.644 1000.89 191.891 1001.11 192.14ZM156.606 186.68L160.271 190.082C160.048 190.321 159.826 190.561 159.604 190.801L152.265 184.012C152.49 183.768 152.716 183.523 152.942 183.279L156.606 186.68ZM993.734 184.012L986.396 190.801C986.174 190.561 985.951 190.321 985.729 190.081L993.057 183.279C993.283 183.523 993.509 183.768 993.734 184.012ZM167.685 182.245C167.458 182.48 167.231 182.716 167.005 182.952L159.795 176.024C160.026 175.784 160.255 175.543 160.486 175.304L167.685 182.245ZM986.203 176.024L978.995 182.952C978.769 182.716 978.542 182.48 978.315 182.245L985.513 175.304C985.744 175.543 985.973 175.785 986.203 176.024ZM175.246 174.553C175.015 174.784 174.783 175.015 174.552 175.246L167.476 168.182C167.711 167.946 167.946 167.712 168.182 167.477L175.246 174.553ZM977.817 167.476C978.053 167.711 978.287 167.946 978.522 168.182L971.447 175.246C971.216 175.015 970.985 174.783 970.754 174.552L977.817 167.476ZM182.952 167.005C182.716 167.231 182.48 167.458 182.245 167.685L175.304 160.486C175.543 160.255 175.784 160.026 176.024 159.796L182.952 167.005ZM970.695 160.486L963.755 167.685C963.52 167.458 963.284 167.231 963.048 167.005L969.975 159.795C970.215 160.026 970.456 160.255 970.695 160.486ZM190.801 159.604C190.561 159.826 190.321 160.049 190.081 160.271L183.279 152.942C183.523 152.716 183.768 152.49 184.012 152.265L190.801 159.604ZM962.72 152.942L959.32 156.606L959.319 156.605L955.918 160.271C955.679 160.048 955.439 159.826 955.199 159.604L961.987 152.265C962.231 152.49 962.476 152.716 962.72 152.942ZM198.788 152.355C198.544 152.573 198.3 152.791 198.057 153.009L191.396 145.553C191.644 145.331 191.891 145.109 192.14 144.888L198.788 152.355ZM954.604 145.553L947.943 153.008C947.7 152.79 947.455 152.573 947.211 152.355L953.858 144.888C954.107 145.109 954.355 145.331 954.604 145.553ZM206.913 145.261C206.665 145.473 206.417 145.686 206.169 145.899L199.65 138.317C199.903 138.1 200.155 137.882 200.407 137.666L206.913 145.261ZM946.349 138.317L939.831 145.899C939.583 145.686 939.335 145.473 939.087 145.261L945.592 137.666C945.845 137.883 946.096 138.1 946.349 138.317ZM215.173 138.319C214.921 138.527 214.669 138.736 214.417 138.944L208.044 131.239C208.301 131.027 208.557 130.814 208.813 130.603L215.173 138.319ZM937.186 130.603C937.442 130.814 937.699 131.026 937.955 131.238L931.583 138.943C931.331 138.735 931.079 138.527 930.827 138.319L937.186 130.603ZM220.454 127.622L223.56 131.541C223.304 131.744 223.048 131.947 222.792 132.15L216.566 124.324C216.826 124.117 217.088 123.912 217.349 123.706L220.454 127.622ZM929.433 124.324L923.208 132.15C922.952 131.947 922.696 131.744 922.44 131.541L928.649 123.705C928.91 123.912 929.172 124.117 929.433 124.324ZM232.077 124.92C231.817 125.118 231.558 125.317 231.298 125.516L225.224 117.573C225.488 117.371 225.753 117.17 226.018 116.969L232.077 124.92ZM920.775 117.573L914.702 125.516C914.442 125.317 914.182 125.118 913.922 124.92L919.981 116.969C920.246 117.17 920.511 117.371 920.775 117.573ZM240.719 118.465C240.455 118.658 240.191 118.851 239.928 119.045L234.007 110.988C234.275 110.791 234.542 110.595 234.811 110.398L240.719 118.465ZM911.992 110.988L906.071 119.045C905.808 118.851 905.545 118.658 905.281 118.465L911.188 110.397C911.456 110.594 911.724 110.791 911.992 110.988ZM249.48 112.177C249.213 112.365 248.946 112.553 248.679 112.741L242.912 104.574C243.184 104.382 243.455 104.189 243.728 103.997L249.48 112.177ZM903.087 104.574L897.321 112.741C897.054 112.553 896.787 112.364 896.52 112.176L902.271 103.997C902.544 104.189 902.815 104.382 903.087 104.574ZM258.366 106.053C258.095 106.236 257.824 106.419 257.554 106.603L251.943 98.3252C252.219 98.1383 252.494 97.951 252.771 97.7646L258.366 106.053ZM893.229 97.7646C893.505 97.951 893.78 98.1383 894.056 98.3252L888.446 106.603C888.176 106.419 887.905 106.236 887.634 106.053L893.229 97.7646ZM267.357 100.106C267.083 100.284 266.809 100.462 266.535 100.64L261.084 92.2559C261.363 92.0746 261.643 91.8947 261.922 91.7139L267.357 100.106ZM884.077 91.7139C884.356 91.8945 884.635 92.0747 884.914 92.2559L879.465 100.64C879.191 100.462 878.917 100.284 878.643 100.106L884.077 91.7139ZM276.469 94.3281C276.191 94.5006 275.913 94.6738 275.636 94.8467L270.346 86.3613C270.629 86.185 270.912 86.0098 271.195 85.834L276.469 94.3281ZM875.652 86.3604L870.364 94.8467C870.087 94.6737 869.809 94.5006 869.531 94.3281L874.804 85.834C875.087 86.0096 875.37 86.1843 875.652 86.3604ZM285.686 88.7275C285.405 88.8945 285.124 89.0621 284.844 89.2295L279.719 80.6436C280.004 80.4733 280.29 80.3036 280.575 80.1338L285.686 88.7275ZM866.28 80.6436L861.156 89.2295C860.876 89.0621 860.595 88.8944 860.314 88.7275L865.423 80.1338C865.709 80.3037 865.995 80.4731 866.28 80.6436ZM295.006 83.3057C294.722 83.4673 294.438 83.6299 294.154 83.792L289.195 75.1104C289.484 74.9453 289.773 74.7798 290.062 74.6152L295.006 83.3057ZM856.804 75.1104L851.846 83.791C851.562 83.6289 851.277 83.4673 850.993 83.3057L855.937 74.6152C856.226 74.7798 856.515 74.9453 856.804 75.1104ZM302.051 73.666L304.438 78.0586C304.151 78.2148 303.864 78.3716 303.577 78.5283L298.785 69.7539C299.078 69.5942 299.369 69.4327 299.662 69.2734L302.051 73.666ZM847.214 69.7529L842.423 78.5283C842.136 78.3715 841.848 78.2149 841.561 78.0586L846.337 69.2734C846.63 69.4326 846.921 69.5933 847.214 69.7529ZM313.955 73.002C313.665 73.1525 313.375 73.3031 313.085 73.4541L308.462 64.5879C308.757 64.4342 309.052 64.2802 309.347 64.127L313.955 73.002ZM836.651 64.127C836.947 64.2803 837.242 64.434 837.537 64.5879L832.914 73.4541C832.625 73.3031 832.335 73.1524 832.045 73.002L836.651 64.127ZM323.577 68.123C323.284 68.2682 322.99 68.414 322.697 68.5596L318.246 59.6045C318.544 59.4564 318.843 59.3107 319.142 59.1631L323.577 68.123ZM826.857 59.1631C827.156 59.3107 827.455 59.4563 827.753 59.6045L823.302 68.5596C823.009 68.414 822.716 68.2682 822.423 68.123L826.857 59.1631ZM333.288 63.4316C332.993 63.5707 332.698 63.7101 332.403 63.8496L328.124 54.8125C328.424 54.6703 328.726 54.5294 329.026 54.3877L333.288 63.4316ZM817.875 54.8125L813.597 63.8496C813.302 63.71 813.006 63.5708 812.711 63.4316L816.973 54.3877C817.273 54.5294 817.575 54.6703 817.875 54.8125ZM343.083 58.9307C342.785 59.0643 342.486 59.1979 342.188 59.332L338.085 50.2148C338.388 50.0783 338.692 49.9417 338.995 49.8057L343.083 58.9307ZM807.914 50.2148L803.811 59.332C803.513 59.1979 803.214 59.0643 802.916 58.9307L807.002 49.8057C807.306 49.9419 807.61 50.0781 807.914 50.2148ZM352.979 54.6123C352.677 54.7404 352.375 54.8685 352.074 54.9971L348.147 45.8027C348.454 45.6718 348.761 45.5406 349.067 45.4102L352.979 54.6123ZM797.852 45.8027L793.925 54.9971C793.624 54.8685 793.323 54.7403 793.021 54.6123L796.932 45.4102C797.238 45.5406 797.545 45.6718 797.852 45.8027ZM362.933 50.4941C362.63 50.6161 362.327 50.7389 362.024 50.8613L358.274 41.5928C358.583 41.4681 358.891 41.342 359.199 41.2178L362.933 50.4941ZM787.724 41.5918L783.976 50.8613C783.673 50.7389 783.369 50.6161 783.066 50.4941L786.799 41.2178C787.107 41.3419 787.415 41.4671 787.724 41.5918ZM369.425 37.2168L371.202 41.8906L372.979 46.5645C372.673 46.6807 372.367 46.7973 372.062 46.9141L368.492 37.5742C368.802 37.456 369.11 37.3365 369.42 37.2188L369.425 37.2168ZM776.574 37.2158C776.886 37.3342 777.196 37.4553 777.507 37.5742L775.724 42.2432L775.723 42.2422L773.938 46.9131C773.633 46.7963 773.327 46.6797 773.021 46.5635L776.574 37.2158ZM383.099 42.8281C382.792 42.9381 382.485 43.0487 382.178 43.1592L378.789 33.751C379.101 33.6385 379.414 33.5261 379.727 33.4141L383.099 42.8281ZM766.272 33.4141C766.585 33.5261 766.898 33.6385 767.21 33.751L763.821 43.1582C763.515 43.0477 763.207 42.9381 762.9 42.8281L766.272 33.4141ZM393.277 39.292C392.968 39.3962 392.658 39.5007 392.349 39.6055L389.142 30.1338C389.456 30.0272 389.772 29.9224 390.087 29.8164L393.277 39.292ZM755.911 29.8154C756.227 29.9216 756.542 30.0271 756.857 30.1338L753.651 39.6055C753.342 39.5007 753.031 39.3963 752.722 39.292L755.911 29.8154ZM403.544 35.9463C403.232 36.0448 402.919 36.1442 402.606 36.2432L399.584 26.7109C399.901 26.6103 400.219 26.5113 400.537 26.4111L403.544 35.9463ZM746.415 26.7109L743.393 36.2422C743.081 36.1432 742.768 36.0447 742.456 35.9463L745.461 26.4111C745.779 26.5114 746.097 26.6102 746.415 26.7109ZM413.848 32.8076C413.535 32.8997 413.222 32.9914 412.909 33.084L410.07 23.4971C410.389 23.4028 410.708 23.3096 411.026 23.2158L413.848 32.8076ZM735.929 23.4971L733.091 33.084C732.778 32.9913 732.465 32.8997 732.151 32.8076L734.973 23.2158C735.291 23.3096 735.61 23.4028 735.929 23.4971ZM424.224 29.8643C423.908 29.9505 423.592 30.0372 423.276 30.124L420.624 20.4834C420.945 20.3951 421.266 20.3075 421.587 20.2197L424.224 29.8643ZM725.375 20.4834L724.05 25.3027L724.049 25.3018L722.723 30.123C722.407 30.0363 722.092 29.9505 721.776 29.8643L724.411 20.2197C724.732 20.3075 725.054 20.395 725.375 20.4834ZM434.663 27.1191C434.347 27.1989 434.031 27.2791 433.716 27.3594L432.482 22.5127L431.25 17.6709C431.571 17.5891 431.892 17.507 432.214 17.4258L434.663 27.1191ZM714.749 17.6709L712.283 27.3594C711.968 27.279 711.652 27.1989 711.336 27.1191L713.784 17.4258C714.106 17.5071 714.427 17.5891 714.749 17.6709ZM445.129 24.582C444.811 24.6559 444.492 24.7302 444.174 24.8047L441.896 15.0703C442.219 14.9946 442.542 14.918 442.866 14.8428L445.129 24.582ZM704.104 15.0703L701.825 24.8047C701.507 24.7303 701.189 24.6559 700.871 24.582L703.132 14.8428C703.456 14.918 703.78 14.9945 704.104 15.0703ZM455.669 22.2412C455.349 22.3091 455.028 22.3778 454.708 22.4463L453.662 17.5557L452.617 12.6689C452.943 12.5992 453.269 12.5282 453.596 12.459L455.669 22.2412ZM693.382 12.6689L691.292 22.4463C690.972 22.3778 690.651 22.3092 690.33 22.2412L692.403 12.459C692.73 12.5282 693.056 12.5992 693.382 12.6689ZM466.232 20.1084C465.912 20.1698 465.592 20.232 465.272 20.2939L463.37 10.4785C463.696 10.4154 464.022 10.3507 464.348 10.2881L466.232 20.1084ZM682.628 10.4785L680.728 20.2939C680.407 20.2319 680.087 20.1699 679.767 20.1084L681.65 10.2881C681.976 10.3507 682.302 10.4154 682.628 10.4785ZM475.143 8.32324L476.838 18.1787C476.516 18.2342 476.193 18.2897 475.871 18.3457L474.158 8.49512C474.486 8.43811 474.814 8.37872 475.142 8.32227L475.143 8.32324ZM670.857 8.32227C671.185 8.37865 671.512 8.4372 671.84 8.49414L670.128 18.3457C669.806 18.2897 669.483 18.2332 669.161 18.1777L670.857 8.32227ZM487.51 16.4473C487.186 16.4966 486.863 16.5468 486.539 16.5967L485.016 6.71484C485.345 6.66409 485.674 6.6127 486.004 6.5625L487.51 16.4473ZM659.994 6.56152C660.324 6.61172 660.653 6.66311 660.982 6.71387L659.461 16.5967C659.137 16.5468 658.813 16.4966 658.489 16.4473L659.994 6.56152ZM498.159 14.9297C497.836 14.9727 497.512 15.016 497.188 15.0596L495.854 5.14941C496.184 5.1051 496.513 5.06134 496.843 5.01758L498.159 14.9297ZM649.155 5.01758C649.485 5.06134 649.814 5.1051 650.144 5.14941L648.812 15.0596C648.488 15.016 648.164 14.9727 647.84 14.9297L649.155 5.01758ZM508.872 13.6113C508.546 13.6482 508.221 13.6852 507.896 13.7227L506.752 3.78906C507.083 3.75092 507.415 3.71336 507.746 3.67578L508.872 13.6113ZM638.253 3.67578C638.584 3.71332 638.915 3.75096 639.246 3.78906L638.676 8.75586L638.675 8.75488L638.104 13.7227C637.778 13.6852 637.452 13.6482 637.127 13.6113L638.253 3.67578ZM519.606 12.498C519.282 12.5285 518.958 12.5598 518.634 12.5908L517.681 2.63672C518.01 2.60514 518.34 2.57399 518.67 2.54297L519.606 12.498ZM627.328 2.54297C627.658 2.57402 627.988 2.60511 628.318 2.63672L627.843 7.61328L627.842 7.6123L627.365 12.5908C627.041 12.5598 626.717 12.5285 626.393 12.498L627.328 2.54297ZM530.338 11.5918C530.012 11.6162 529.685 11.641 529.359 11.666L528.596 1.69531C528.927 1.6699 529.259 1.64594 529.591 1.62109L530.338 11.5918ZM616.408 1.62109C616.74 1.64594 617.072 1.6699 617.403 1.69531L616.64 11.666C616.314 11.641 615.988 11.6162 615.662 11.5918L616.408 1.62109ZM541.125 10.8867C540.797 10.905 540.47 10.9235 540.143 10.9424L539.567 0.958984C539.901 0.939793 540.235 0.921941 540.568 0.90332L541.125 10.8867ZM605.431 0.90332C605.764 0.921921 606.097 0.939813 606.431 0.958984L605.857 10.9424C605.53 10.9235 605.202 10.905 604.874 10.8867L605.431 0.90332ZM551.884 10.3887C551.558 10.4007 551.232 10.4132 550.906 10.4258L550.521 0.432617C550.852 0.419824 551.184 0.408714 551.516 0.396484L551.884 10.3887ZM594.483 0.396484C594.815 0.408701 595.146 0.419838 595.478 0.432617L595.093 10.4258C594.767 10.4132 594.441 10.4007 594.115 10.3887L594.483 0.396484ZM562.663 10.0928C562.336 10.0987 562.009 10.1049 561.682 10.1113L561.484 0.114258C561.817 0.107695 562.15 0.101698 562.483 0.0957031L562.663 10.0928ZM583.515 0.0957031C583.848 0.101697 584.181 0.107696 584.514 0.114258L584.417 5.1123L584.416 5.11133L584.318 10.1113C583.991 10.1049 583.663 10.0987 583.336 10.0928L583.515 0.0957031Z" fill="#312E2E"/>
<path d="M563.509 785.771L563.048 795.758C562.718 795.743 562.389 795.728 562.06 795.711L562.563 785.725C562.878 785.741 563.194 785.756 563.509 785.771ZM584.94 795.711C584.611 795.728 584.281 795.743 583.951 795.758L583.491 785.77C583.806 785.755 584.122 785.741 584.437 785.725L584.94 795.711ZM553.074 785.034L552.127 794.988C551.798 794.957 551.469 794.924 551.141 794.892L552.132 784.942C552.446 784.974 552.76 785.004 553.074 785.034ZM595.858 794.892C595.53 794.924 595.201 794.957 594.872 794.988L593.926 785.034C594.24 785.004 594.555 784.974 594.869 784.942L595.858 794.892ZM542.691 783.789L541.258 793.685C540.93 793.637 540.603 793.589 540.276 793.54L541.754 783.651C542.066 783.698 542.379 783.744 542.691 783.789ZM605.246 783.651L606.723 793.54C606.396 793.589 606.069 793.637 605.741 793.685L605.025 788.738L604.309 783.789C604.621 783.744 604.934 783.698 605.246 783.651ZM532.385 782.037L530.466 791.85C530.141 791.786 529.816 791.722 529.492 791.657L531.455 781.854C531.765 781.915 532.075 781.976 532.385 782.037ZM617.507 791.657C617.183 791.722 616.858 791.786 616.533 791.85L614.615 782.037C614.925 781.976 615.235 781.915 615.545 781.854L617.507 791.657ZM522.179 779.779L519.778 789.484C519.457 789.405 519.135 789.326 518.814 789.245L521.26 779.549C521.566 779.626 521.872 779.703 522.179 779.779ZM628.185 789.245C627.864 789.326 627.542 789.405 627.221 789.484L626.021 784.633L624.821 779.778C625.128 779.702 625.435 779.626 625.741 779.549L628.185 789.245ZM512.099 777.02L509.22 786.595C508.903 786.499 508.586 786.404 508.27 786.308L511.19 776.744C511.493 776.836 511.796 776.929 512.099 777.02ZM635.81 776.744L638.729 786.308C638.413 786.404 638.096 786.499 637.779 786.595L636.341 781.808L634.902 777.02C635.205 776.929 635.507 776.836 635.81 776.744ZM502.166 773.765L498.818 783.186C498.506 783.075 498.194 782.964 497.883 782.852L501.273 773.445C501.571 773.552 501.868 773.659 502.166 773.765ZM649.116 782.852C648.805 782.964 648.493 783.075 648.181 783.186L644.834 773.765C645.132 773.659 645.429 773.552 645.727 773.445L649.116 782.852ZM492.407 770.022L490.502 774.645L490.503 774.646L488.598 779.268C488.291 779.141 487.985 779.014 487.68 778.887L491.531 769.659C491.823 769.781 492.115 769.902 492.407 770.022ZM659.319 778.887C659.014 779.014 658.708 779.141 658.401 779.268L654.593 770.022C654.885 769.902 655.177 769.781 655.469 769.659L659.319 778.887ZM482.845 765.803L478.583 774.849C478.283 774.707 477.984 774.565 477.685 774.423L481.986 765.396C482.272 765.533 482.558 765.668 482.845 765.803ZM669.314 774.423C669.015 774.565 668.716 774.707 668.416 774.849L664.155 765.803C664.442 765.668 664.728 765.533 665.014 765.396L669.314 774.423ZM473.5 761.116L468.799 769.941C468.506 769.785 468.214 769.629 467.922 769.472L472.663 760.668C472.942 760.818 473.221 760.967 473.5 761.116ZM679.077 769.472C678.785 769.629 678.494 769.786 678.201 769.941L675.851 765.529L673.5 761.116C673.779 760.967 674.058 760.818 674.337 760.668L679.077 769.472ZM464.396 755.976L459.267 764.558C458.982 764.388 458.699 764.217 458.415 764.046L463.583 755.486C463.854 755.65 464.125 755.813 464.396 755.976ZM688.584 764.046C688.301 764.217 688.017 764.388 687.732 764.558L685.168 760.268L682.604 755.976C682.875 755.813 683.146 755.65 683.417 755.486L688.584 764.046ZM455.556 750.394L450.011 758.715C449.735 758.531 449.46 758.345 449.185 758.16L454.767 749.865C455.029 750.042 455.292 750.218 455.556 750.394ZM697.814 758.16C697.539 758.345 697.264 758.53 696.988 758.714L694.217 754.555L691.444 750.394C691.708 750.218 691.971 750.041 692.233 749.864L697.814 758.16ZM446.998 744.384L441.053 752.424C440.786 752.227 440.52 752.029 440.254 751.831L446.235 743.817C446.489 744.007 446.743 744.196 446.998 744.384ZM706.745 751.831C706.479 752.029 706.213 752.227 705.946 752.424L700.002 744.384C700.257 744.196 700.511 744.007 700.765 743.817L706.745 751.831ZM438.744 737.963L432.413 745.702C432.156 745.492 431.899 745.282 431.644 745.071L438.01 737.359C438.254 737.561 438.499 737.762 438.744 737.963ZM708.99 737.359L715.355 745.071C715.1 745.282 714.843 745.492 714.586 745.702L708.256 737.963C708.501 737.762 708.746 737.561 708.99 737.359ZM430.812 731.146L424.111 738.567C423.865 738.345 423.619 738.122 423.374 737.898L430.108 730.507C430.343 730.72 430.577 730.933 430.812 731.146ZM723.625 737.898C723.38 738.122 723.134 738.345 722.888 738.567L716.188 731.146C716.423 730.933 716.657 730.72 716.892 730.507L723.625 737.898ZM423.223 723.949L416.167 731.035C415.932 730.801 415.698 730.567 415.464 730.332L422.551 723.277C422.774 723.502 422.998 723.726 423.223 723.949ZM731.535 730.332C731.301 730.567 731.067 730.801 730.832 731.035L727.305 727.493L723.777 723.949C724.002 723.726 724.226 723.502 724.449 723.277L731.535 730.332ZM415.993 716.392L408.601 723.125C408.377 722.88 408.154 722.634 407.932 722.388L415.354 715.688C415.567 715.923 415.78 716.157 415.993 716.392ZM739.067 722.388C738.845 722.634 738.622 722.88 738.398 723.125L731.007 716.392C731.22 716.157 731.433 715.923 731.646 715.688L739.067 722.388ZM409.141 708.49L401.429 714.855C401.218 714.6 401.007 714.343 400.797 714.086L408.537 707.756C408.738 708.001 408.939 708.246 409.141 708.49ZM746.202 714.086C745.992 714.343 745.782 714.6 745.571 714.855L737.859 708.49C738.061 708.246 738.262 708.001 738.463 707.756L746.202 714.086ZM402.683 700.265L394.669 706.245C394.471 705.979 394.272 705.713 394.075 705.446L402.116 699.502C402.304 699.757 402.493 700.011 402.683 700.265ZM752.924 705.446C752.727 705.713 752.529 705.979 752.331 706.245L744.317 700.265C744.507 700.011 744.696 699.757 744.884 699.502L752.924 705.446ZM396.636 691.733L388.339 697.314C388.154 697.039 387.969 696.764 387.785 696.488L396.106 690.944C396.282 691.208 396.459 691.471 396.636 691.733ZM759.215 696.488C759.031 696.764 758.845 697.039 758.66 697.314L750.365 691.733C750.542 691.471 750.718 691.208 750.894 690.944L759.215 696.488ZM391.014 682.917L386.732 685.5L386.733 685.501L382.453 688.084C382.282 687.801 382.111 687.517 381.941 687.232L390.524 682.104C390.687 682.375 390.85 682.646 391.014 682.917ZM765.058 687.232C764.888 687.517 764.717 687.801 764.546 688.084L755.986 682.917C756.15 682.646 756.313 682.375 756.476 682.104L765.058 687.232ZM385.832 673.837L377.027 678.577C376.87 678.285 376.713 677.994 376.558 677.701L385.384 673C385.533 673.279 385.682 673.558 385.832 673.837ZM770.441 677.7C770.285 677.993 770.129 678.285 769.972 678.577L761.168 673.837C761.318 673.558 761.467 673.279 761.616 673L770.441 677.7ZM381.104 664.514L372.076 668.814C371.934 668.515 371.792 668.216 371.65 667.916L380.697 663.655C380.832 663.942 380.967 664.228 381.104 664.514ZM775.349 667.916C775.207 668.216 775.065 668.515 774.923 668.814L765.896 664.514C766.033 664.228 766.168 663.942 766.303 663.655L775.349 667.916ZM376.841 654.969L367.612 658.819C367.485 658.514 367.358 658.208 367.231 657.901L376.478 654.093C376.598 654.385 376.719 654.677 376.841 654.969ZM775.145 655.997L779.768 657.901C779.641 658.208 779.514 658.514 779.387 658.819L770.159 654.969C770.281 654.677 770.402 654.385 770.522 654.093L775.145 655.997ZM373.055 645.227L368.351 646.921L368.352 646.922L363.647 648.616C363.535 648.305 363.424 647.993 363.313 647.681L372.735 644.334C372.841 644.632 372.948 644.929 373.055 645.227ZM783.686 647.681C783.575 647.993 783.464 648.305 783.352 648.616L778.648 646.922L773.945 645.227C774.052 644.929 774.159 644.632 774.265 644.334L783.686 647.681ZM369.756 635.31L360.191 638.229C360.095 637.913 360 637.596 359.904 637.279L369.48 634.402C369.571 634.705 369.664 635.007 369.756 635.31ZM787.095 637.279C786.999 637.596 786.904 637.913 786.808 638.229L777.244 635.31C777.336 635.007 777.429 634.704 777.52 634.401L787.095 637.279ZM366.951 625.241L357.254 627.685C357.173 627.364 357.094 627.042 357.015 626.721L366.722 624.321C366.798 624.628 366.874 624.935 366.951 625.241ZM789.984 626.721C789.905 627.042 789.826 627.364 789.745 627.685L780.049 625.24C780.126 624.934 780.203 624.628 780.279 624.321L789.984 626.721ZM364.646 615.045L354.842 617.007C354.777 616.683 354.713 616.358 354.649 616.033L354.688 616.026L364.463 614.115C364.524 614.425 364.585 614.735 364.646 615.045ZM792.35 616.033C792.286 616.358 792.222 616.683 792.157 617.007L782.354 615.045C782.415 614.735 782.476 614.425 782.537 614.115L792.35 616.033ZM362.849 604.746L352.959 606.223C352.91 605.896 352.862 605.569 352.814 605.241L362.711 603.809C362.756 604.121 362.802 604.434 362.849 604.746ZM794.185 605.241C794.137 605.569 794.089 605.896 794.04 606.223L784.151 604.746C784.198 604.434 784.244 604.121 784.289 603.809L794.185 605.241ZM361.558 594.369L351.607 595.358C351.575 595.03 351.542 594.701 351.511 594.372L361.466 593.426C361.496 593.74 361.526 594.055 361.558 594.369ZM785.534 593.426L795.488 594.372C795.457 594.701 795.424 595.03 795.392 595.358L794.99 595.319L790.418 594.864L785.442 594.368C785.474 594.054 785.504 593.74 785.534 593.426ZM360.775 583.937L350.788 584.44C350.771 584.111 350.756 583.781 350.741 583.451L360.73 582.991C360.745 583.306 360.759 583.622 360.775 583.937ZM796.258 583.451C796.243 583.781 796.228 584.11 796.211 584.439L791.218 584.188L786.225 583.937C786.241 583.622 786.256 583.306 786.271 582.991L796.258 583.451ZM350.5 573C350.5 572.833 350.501 572.667 350.501 572.5L360.501 572.521C360.501 572.681 360.5 572.841 360.5 573C360.5 573.16 360.501 573.319 360.501 573.479L350.501 573.499C350.501 573.333 350.5 573.166 350.5 573ZM796.498 573.499L786.499 573.479C786.499 573.319 786.5 573.159 786.5 573C786.5 572.84 786.499 572.681 786.499 572.521L796.498 572.5C796.498 572.667 796.5 572.833 796.5 573C796.5 573.166 796.498 573.333 796.498 573.499ZM350.788 561.56L355.782 561.812L360.775 562.063C360.759 562.378 360.744 562.694 360.729 563.009L350.741 562.548L350.788 561.56ZM796.211 561.559C796.228 561.888 796.243 562.218 796.258 562.548L786.27 563.009C786.255 562.694 786.241 562.378 786.225 562.063L796.211 561.559ZM351.607 550.641L356.582 551.136L361.558 551.632C361.526 551.946 361.496 552.26 361.466 552.574L351.511 551.627C351.511 551.62 351.512 551.613 351.513 551.606L351.607 550.641ZM795.392 550.641C795.424 550.969 795.457 551.298 795.488 551.627L785.534 552.574C785.504 552.26 785.474 551.945 785.442 551.631L795.392 550.641ZM362.849 541.254C362.802 541.566 362.756 541.879 362.711 542.191L352.814 540.758C352.862 540.43 352.91 540.103 352.959 539.776L362.849 541.254ZM794.04 539.776C794.089 540.103 794.137 540.43 794.185 540.758L784.289 542.191C784.244 541.879 784.198 541.566 784.151 541.254L794.04 539.776ZM354.842 528.992L364.646 530.955C364.585 531.265 364.524 531.575 364.463 531.885L354.649 529.966C354.685 529.784 354.72 529.602 354.756 529.42L354.842 528.992ZM792.157 528.992C792.222 529.316 792.286 529.641 792.35 529.966L782.537 531.885C782.476 531.575 782.415 531.265 782.354 530.955L792.157 528.992ZM366.951 520.76C366.874 521.066 366.797 521.372 366.721 521.679L357.015 519.278C357.094 518.957 357.173 518.635 357.254 518.314L366.951 520.76ZM789.745 518.314C789.826 518.635 789.905 518.957 789.984 519.278L785.133 520.479L785.132 520.478L780.278 521.679C780.202 521.372 780.126 521.065 780.049 520.759L789.745 518.314ZM369.756 510.69C369.664 510.993 369.571 511.296 369.48 511.599L359.904 508.72C360 508.403 360.095 508.086 360.191 507.77L369.756 510.69ZM786.808 507.77C786.904 508.086 786.999 508.403 787.095 508.72L782.308 510.159L782.307 510.158L777.52 511.598C777.429 511.295 777.336 510.993 777.244 510.69L786.808 507.77ZM363.647 497.383L373.055 500.773C372.948 501.071 372.841 501.368 372.735 501.666L363.313 498.318C363.398 498.081 363.481 497.844 363.566 497.607L363.647 497.383ZM783.352 497.383C783.464 497.694 783.575 498.006 783.686 498.318L774.265 501.666C774.159 501.368 774.052 501.071 773.945 500.773L783.352 497.383ZM376.841 491.031C376.719 491.323 376.598 491.615 376.478 491.907L371.854 490.002L367.231 488.098C367.358 487.791 367.485 487.485 367.612 487.18L376.841 491.031ZM779.387 487.18C779.514 487.485 779.641 487.791 779.768 488.098L770.522 491.907C770.402 491.615 770.281 491.323 770.159 491.031L779.387 487.18ZM381.104 481.486C380.967 481.772 380.832 482.058 380.697 482.345L371.65 478.083C371.792 477.783 371.934 477.484 372.076 477.185L381.104 481.486ZM774.923 477.185C775.065 477.484 775.207 477.783 775.349 478.083L766.303 482.345C766.168 482.058 766.033 481.772 765.896 481.486L774.923 477.185ZM385.832 472.163C385.682 472.442 385.533 472.721 385.384 473L376.558 468.299C376.714 468.006 376.87 467.714 377.027 467.422L385.832 472.163ZM769.972 467.422C770.129 467.714 770.286 468.005 770.441 468.298L766.029 470.649L766.028 470.648L761.616 473C761.467 472.721 761.318 472.442 761.168 472.163L769.972 467.422ZM391.014 463.083C390.85 463.354 390.687 463.625 390.524 463.896L381.941 458.767C382.111 458.482 382.282 458.199 382.453 457.915L391.014 463.083ZM764.546 457.915C764.717 458.199 764.888 458.482 765.058 458.767L760.768 461.332L760.767 461.331L756.476 463.896C756.313 463.625 756.15 463.354 755.986 463.083L764.546 457.915ZM396.635 454.267C396.458 454.529 396.282 454.792 396.106 455.056L387.785 449.512L387.784 449.511C387.968 449.235 388.154 448.96 388.339 448.685L396.635 454.267ZM758.66 448.685C758.845 448.96 759.03 449.235 759.214 449.511L755.055 452.283L755.054 452.282L750.894 455.056C750.718 454.792 750.541 454.529 750.364 454.267L758.66 448.685ZM394.669 439.755L402.683 445.735C402.493 445.989 402.304 446.243 402.116 446.498L394.075 440.553C394.272 440.286 394.47 440.02 394.668 439.754L394.669 439.755ZM752.924 440.553L744.884 446.498C744.696 446.243 744.507 445.989 744.317 445.735L752.331 439.755C752.529 440.021 752.727 440.286 752.924 440.553ZM401.429 431.145L409.141 437.51C408.939 437.754 408.738 437.999 408.537 438.244L400.797 431.913C401.007 431.656 401.217 431.399 401.428 431.144L401.429 431.145ZM745.571 431.144C745.782 431.399 745.992 431.656 746.202 431.913L738.463 438.244C738.262 437.999 738.061 437.754 737.859 437.51L745.571 431.144ZM415.993 429.608C415.78 429.843 415.567 430.077 415.354 430.312L407.932 423.611C408.154 423.365 408.377 423.119 408.601 422.874L415.993 429.608ZM738.398 422.874C738.622 423.119 738.845 423.365 739.067 423.611L731.646 430.312C731.433 430.077 731.22 429.843 731.007 429.608L738.398 422.874ZM419.695 418.507L423.223 422.051C422.998 422.274 422.774 422.498 422.551 422.723L415.464 415.667C415.698 415.432 415.932 415.198 416.167 414.964L419.695 418.507ZM730.832 414.964C731.067 415.198 731.301 415.432 731.535 415.667L727.993 419.195L727.992 419.194L724.449 422.723C724.226 422.498 724.002 422.274 723.777 422.051L730.832 414.964ZM430.812 414.854C430.577 415.067 430.343 415.28 430.108 415.493L423.374 408.101C423.619 407.877 423.865 407.654 424.111 407.432L430.812 414.854ZM722.888 407.432C723.134 407.654 723.38 407.877 723.625 408.101L716.892 415.493C716.657 415.28 716.423 415.067 716.188 414.854L722.888 407.432ZM438.744 408.037C438.499 408.238 438.254 408.439 438.01 408.641L431.645 400.929L431.644 400.928C431.899 400.717 432.156 400.507 432.413 400.297L438.744 408.037ZM714.586 400.297C714.843 400.507 715.1 400.717 715.355 400.928L708.99 408.641C708.746 408.439 708.501 408.238 708.256 408.037L714.586 400.297ZM446.998 401.616C446.743 401.804 446.489 401.993 446.235 402.183L440.255 394.169L440.254 394.168C440.52 393.97 440.786 393.772 441.053 393.575L446.998 401.616ZM706.745 394.168L700.765 402.183C700.511 401.993 700.257 401.804 700.002 401.616L705.946 393.575C706.213 393.772 706.479 393.97 706.745 394.168ZM455.556 395.606C455.292 395.782 455.029 395.959 454.767 396.136L449.185 387.839C449.46 387.654 449.735 387.469 450.011 387.285L455.556 395.606ZM696.988 387.284C697.264 387.468 697.539 387.654 697.814 387.839L692.233 396.135C691.971 395.958 691.708 395.782 691.444 395.606L696.988 387.284ZM464.396 390.024C464.125 390.187 463.854 390.35 463.583 390.514L458.415 381.953C458.699 381.782 458.982 381.611 459.267 381.441L464.396 390.024ZM687.732 381.441C688.017 381.611 688.301 381.782 688.584 381.953L683.417 390.514C683.146 390.35 682.875 390.187 682.604 390.024L687.732 381.441ZM471.149 380.471L473.5 384.884C473.221 385.033 472.942 385.182 472.663 385.332L467.922 376.527C468.214 376.37 468.505 376.213 468.798 376.058L471.149 380.471ZM678.2 376.058C678.493 376.214 678.785 376.37 679.077 376.527L674.337 385.332C674.058 385.182 673.779 385.033 673.5 384.884L678.2 376.058ZM482.845 380.197C482.558 380.332 482.272 380.467 481.986 380.604L477.685 371.576C477.984 371.434 478.283 371.292 478.583 371.15L482.845 380.197ZM668.416 371.15C668.716 371.292 669.015 371.434 669.314 371.576L665.014 380.604C664.728 380.467 664.442 380.332 664.155 380.197L668.416 371.15ZM492.407 375.978C492.115 376.098 491.823 376.219 491.531 376.341L487.68 367.112C487.985 366.985 488.291 366.858 488.598 366.731L492.407 375.978ZM658.401 366.731C658.708 366.858 659.014 366.985 659.319 367.112L655.469 376.341C655.177 376.219 654.885 376.098 654.593 375.978L658.401 366.731ZM502.166 372.235C501.868 372.341 501.571 372.448 501.273 372.555L497.883 363.147C498.194 363.035 498.506 362.924 498.818 362.813L502.166 372.235ZM648.181 362.813C648.493 362.924 648.805 363.035 649.116 363.147L645.727 372.555C645.429 372.448 645.132 372.341 644.834 372.235L648.181 362.813ZM512.098 368.98C511.795 369.071 511.493 369.164 511.19 369.256L508.27 359.691C508.586 359.595 508.903 359.5 509.22 359.404L512.098 368.98ZM637.779 359.404C638.096 359.5 638.413 359.595 638.729 359.691L635.81 369.256C635.507 369.164 635.204 369.071 634.901 368.98L637.779 359.404ZM522.179 366.222C521.872 366.298 521.565 366.374 521.259 366.451L518.814 356.754C519.135 356.673 519.457 356.594 519.778 356.515L522.179 366.222ZM627.221 356.515C627.542 356.594 627.864 356.673 628.185 356.754L625.74 366.451C625.434 366.374 625.128 366.297 624.821 366.221L627.221 356.515ZM532.385 363.963C532.075 364.024 531.765 364.085 531.455 364.146L529.492 354.342C529.816 354.277 530.141 354.213 530.466 354.149L532.385 363.963ZM616.533 354.149C616.858 354.213 617.183 354.277 617.507 354.342L615.545 364.146C615.235 364.085 614.925 364.024 614.615 363.963L616.533 354.149ZM542.691 362.211C542.379 362.256 542.066 362.302 541.754 362.349L540.276 352.459C540.603 352.41 540.93 352.362 541.258 352.314L542.691 362.211ZM605.741 352.314C606.069 352.362 606.396 352.41 606.723 352.459L605.246 362.349C604.934 362.302 604.621 362.256 604.309 362.211L605.741 352.314ZM553.074 360.966C552.76 360.996 552.445 361.026 552.131 361.058L551.141 351.107C551.469 351.075 551.798 351.042 552.127 351.011L553.074 360.966ZM594.872 351.011C595.201 351.042 595.53 351.075 595.858 351.107L594.868 361.058C594.554 361.026 594.24 360.996 593.926 360.966L594.872 351.011ZM563.509 360.23C563.194 360.245 562.878 360.259 562.563 360.275L562.059 350.288C562.388 350.271 562.718 350.256 563.048 350.241L563.509 360.23ZM584.939 350.288L584.437 360.275C584.122 360.259 583.806 360.244 583.491 360.229L583.951 350.241C584.281 350.256 584.61 350.271 584.939 350.288Z" fill="#312E2E"/>
</svg>
