<svg width="335" height="335" viewBox="0 0 335 335" fill="none" xmlns="http://www.w3.org/2000/svg">
<g clip-path="url(#clip0_320_6666)">
<path d="M148.822 324.912L148.239 329.877L148.24 329.878L147.684 334.623L147.657 334.842C147.336 334.804 147.015 334.765 146.694 334.726L147.916 324.803C148.218 324.84 148.52 324.877 148.822 324.912ZM188.304 334.726C187.983 334.765 187.661 334.804 187.34 334.842L186.758 329.878L186.176 324.912C186.478 324.877 186.78 324.84 187.082 324.803L188.304 334.726ZM129.986 321.537L128.807 326.396L127.629 331.253C127.315 331.177 127.002 331.098 126.688 331.021L129.103 321.32C129.397 321.393 129.692 321.466 129.986 321.537ZM208.309 331.021C207.995 331.098 207.682 331.177 207.368 331.253L206.19 326.396L205.012 321.537C205.307 321.466 205.601 321.393 205.896 321.32L208.309 331.021ZM111.704 315.903L108.184 325.261C107.881 325.147 107.578 325.033 107.276 324.917L110.851 315.58C111.135 315.689 111.419 315.796 111.704 315.903ZM227.721 324.917C227.419 325.033 227.116 325.147 226.813 325.261L225.054 320.584L223.294 315.903C223.579 315.796 223.864 315.689 224.147 315.58L227.721 324.917ZM94.2363 308.091L91.9209 312.521L91.9219 312.522L89.6074 316.951C89.3211 316.802 89.0344 316.653 88.749 316.502L93.4297 307.666C93.6981 307.808 93.967 307.95 94.2363 308.091ZM246.248 316.502C245.963 316.653 245.676 316.802 245.39 316.951L243.076 312.522L240.762 308.091C241.031 307.95 241.3 307.808 241.568 307.666L246.248 316.502ZM77.8369 298.221L74.0518 303.729L72.1738 306.459C71.9073 306.276 71.6405 306.093 71.375 305.908L77.0859 297.701C77.3356 297.875 77.5862 298.048 77.8369 298.221ZM263.622 305.908C263.357 306.093 263.09 306.276 262.823 306.459L259.993 302.342L257.161 298.221C257.412 298.048 257.662 297.875 257.912 297.701L263.622 305.908ZM62.7383 286.445L56.126 293.944C55.8836 293.731 55.6415 293.517 55.4004 293.302L62.0557 285.84C62.2826 286.042 62.5102 286.244 62.7383 286.445ZM279.597 293.302C279.356 293.517 279.113 293.731 278.871 293.944L272.26 286.445C272.488 286.244 272.715 286.042 272.942 285.84L279.597 293.302ZM49.1592 272.943L41.6963 279.598C41.4813 279.357 41.2674 279.114 41.0537 278.872L48.5537 272.261C48.7548 272.489 48.9568 272.716 49.1592 272.943ZM293.943 278.872C293.73 279.114 293.516 279.357 293.301 279.598L285.839 272.943C286.041 272.716 286.243 272.489 286.444 272.261L293.943 278.872ZM37.2979 257.913L29.0898 263.623C28.9051 263.358 28.7223 263.091 28.5391 262.824L36.7783 257.162C36.9506 257.413 37.1241 257.663 37.2979 257.913ZM306.458 262.824C306.275 263.091 306.092 263.358 305.907 263.623L297.7 257.913C297.874 257.663 298.047 257.413 298.22 257.162L306.458 262.824ZM27.333 241.569L18.4961 246.249C18.345 245.964 18.1964 245.677 18.0469 245.391L26.9082 240.763C27.0488 241.032 27.1909 241.301 27.333 241.569ZM316.95 245.391C316.801 245.677 316.652 245.964 316.501 246.249L312.084 243.91L307.665 241.569C307.807 241.301 307.949 241.032 308.09 240.763L316.95 245.391ZM19.4189 224.148L10.0811 227.722C9.96548 227.42 9.85119 227.117 9.7373 226.814L19.0957 223.295C19.2028 223.58 19.3103 223.865 19.4189 224.148ZM325.26 226.814C325.146 227.117 325.032 227.42 324.916 227.722L315.579 224.148C315.688 223.865 315.795 223.58 315.902 223.295L325.26 226.814ZM13.6787 205.896L3.97754 208.31C3.89962 207.996 3.82128 207.683 3.74512 207.369L13.4619 205.013C13.5334 205.308 13.6055 205.602 13.6787 205.896ZM326.395 206.191L331.252 207.369C331.176 207.683 331.097 207.996 331.02 208.31L326.171 207.104L321.319 205.896C321.393 205.602 321.465 205.308 321.536 205.013L326.395 206.191ZM10.1963 187.083L0.272461 188.305C0.232931 187.984 0.193971 187.662 0.15625 187.341L10.0869 186.177C10.1224 186.479 10.1591 186.781 10.1963 187.083ZM329.876 186.759L334.841 187.341C334.803 187.662 334.764 187.983 334.725 188.304L329.765 187.694L324.802 187.083C324.839 186.781 324.876 186.479 324.911 186.177L329.876 186.759ZM5.2334 147.306L10.1963 147.917C10.1591 148.219 10.1224 148.521 10.0869 148.823L5.12109 148.24L0.15625 147.658C0.193935 147.337 0.232971 147.016 0.272461 146.695L5.2334 147.306ZM334.841 147.658L329.877 148.241L329.876 148.24L324.911 148.823C324.876 148.521 324.839 148.219 324.802 147.917L334.725 146.694C334.764 147.015 334.803 147.337 334.841 147.658ZM8.82715 127.896L13.6787 129.104C13.6055 129.398 13.5334 129.692 13.4619 129.987L3.74512 127.63C3.82128 127.316 3.89962 127.003 3.97754 126.689L8.82715 127.896ZM331.02 126.689C331.097 127.003 331.176 127.316 331.252 127.63L321.536 129.987C321.465 129.692 321.393 129.398 321.319 129.104L331.02 126.689ZM19.4189 110.852C19.3103 111.135 19.2028 111.42 19.0957 111.705L9.7373 108.185C9.85119 107.882 9.96547 107.579 10.0811 107.277L19.4189 110.852ZM324.916 107.277C325.032 107.579 325.146 107.882 325.26 108.185L320.583 109.945L320.582 109.944L315.902 111.705C315.795 111.42 315.688 111.135 315.579 110.852L324.916 107.277ZM22.9141 91.0898L27.333 93.4307C27.1909 93.6991 27.0488 93.968 26.9082 94.2373L18.0469 89.6084C18.1964 89.3221 18.345 89.0353 18.4961 88.75L22.9141 91.0898ZM316.501 88.75C316.652 89.0353 316.801 89.3221 316.95 89.6084L308.09 94.2373C307.949 93.968 307.807 93.6991 307.665 93.4307L316.501 88.75ZM37.2979 77.0869C37.1241 77.3366 36.9506 77.5872 36.7783 77.8379L28.5391 72.1748C28.7223 71.9082 28.9051 71.6414 29.0898 71.376L37.2979 77.0869ZM305.907 71.376C306.092 71.6414 306.275 71.9082 306.458 72.1748L298.22 77.8379C298.047 77.5872 297.874 77.3366 297.7 77.0869L305.907 71.376ZM49.1592 62.0566C48.9568 62.2836 48.7548 62.5111 48.5537 62.7393L41.0537 56.127C41.2673 55.8846 41.4813 55.6425 41.6963 55.4014L49.1592 62.0566ZM293.301 55.4014C293.516 55.6425 293.73 55.8846 293.943 56.127L286.444 62.7393C286.243 62.5111 286.041 62.2836 285.839 62.0566L293.301 55.4014ZM62.7383 48.5547C62.5102 48.7558 62.2826 48.9578 62.0557 49.1602L55.4004 41.6973C55.6415 41.4823 55.8836 41.2683 56.126 41.0547L62.7383 48.5547ZM278.871 41.0547C279.113 41.2683 279.356 41.4823 279.597 41.6973L272.942 49.1602C272.715 48.9578 272.488 48.7558 272.26 48.5547L278.871 41.0547ZM77.8369 36.7793C77.5862 36.9516 77.3356 37.1251 77.0859 37.2988L71.375 29.0908C71.6405 28.9061 71.9073 28.7233 72.1738 28.54L77.8369 36.7793ZM262.823 28.54C263.09 28.7233 263.357 28.9061 263.622 29.0908L257.912 37.2988C257.662 37.1251 257.412 36.9516 257.161 36.7793L262.823 28.54ZM94.2363 26.9092C93.967 27.0498 93.6981 27.1918 93.4297 27.334L88.749 18.4971C89.0344 18.346 89.3211 18.1974 89.6074 18.0479L94.2363 26.9092ZM245.39 18.0479C245.676 18.1974 245.963 18.346 246.248 18.4971L243.909 22.915L243.908 22.9141L241.568 27.334C241.3 27.1918 241.031 27.0498 240.762 26.9092L245.39 18.0479ZM109.944 14.416L111.704 19.0967C111.419 19.2038 111.135 19.3112 110.851 19.4199L107.276 10.082C107.578 9.96645 107.881 9.85217 108.184 9.73828L109.944 14.416ZM226.813 9.73828C227.116 9.85217 227.419 9.96645 227.721 10.082L224.147 19.4199C223.864 19.3112 223.579 19.2038 223.294 19.0967L226.813 9.73828ZM129.986 13.4629C129.692 13.5344 129.397 13.6065 129.103 13.6797L126.688 3.97852C127.002 3.90059 127.315 3.82226 127.629 3.74609L129.986 13.4629ZM207.368 3.74609C207.682 3.82226 207.995 3.9006 208.309 3.97852L205.896 13.6797C205.601 13.6065 205.307 13.5344 205.012 13.4629L207.368 3.74609ZM148.822 10.0879C148.52 10.1234 148.218 10.1601 147.916 10.1973L146.693 0.273438C147.014 0.233906 147.336 0.19495 147.657 0.157227L148.822 10.0879ZM188.303 0.273438L187.082 10.1973C186.78 10.1601 186.478 10.1234 186.176 10.0879L187.34 0.157227C187.661 0.19491 187.982 0.233949 188.303 0.273438Z" fill="#E1E1E1"/>
</g>
<defs>
<clipPath id="clip0_320_6666">
<rect width="335" height="335" fill="white"/>
</clipPath>
</defs>
</svg>
