<svg width="1379" height="1379" viewBox="0 0 1379 1379" fill="none" xmlns="http://www.w3.org/2000/svg">
<g clip-path="url(#clip0_320_6570)">
<path d="M689.5 1156V1166C689.334 1166 689.168 1166 689.002 1166L689.013 1156C689.175 1156 689.338 1156 689.5 1156ZM689.987 1156L689.992 1161L689.998 1165.58L689.997 1166C689.831 1166 689.666 1166 689.5 1166V1156C689.662 1156 689.825 1156 689.987 1156ZM669.606 1155.58L669.396 1160.58L669.188 1165.57C668.859 1165.56 668.53 1165.55 668.202 1165.53L668.642 1155.54C668.963 1155.56 669.285 1155.57 669.606 1155.58ZM710.797 1165.53C710.469 1165.55 710.14 1165.56 709.812 1165.57L709.394 1155.58C709.715 1155.57 710.037 1155.56 710.358 1155.54L710.797 1165.53ZM649.28 1154.29L648.854 1159.27L648.43 1164.25C648.101 1164.22 647.773 1164.2 647.445 1164.17L648.316 1154.21C648.638 1154.24 648.959 1154.26 649.28 1154.29ZM731.554 1164.17C731.226 1164.2 730.898 1164.22 730.569 1164.25L730.145 1159.27L729.72 1154.29C730.041 1154.26 730.362 1154.24 730.684 1154.21L731.554 1164.17ZM629.039 1152.12L627.756 1162.03C627.429 1161.99 627.101 1161.95 626.774 1161.91L628.078 1151.99C628.398 1152.04 628.719 1152.08 629.039 1152.12ZM752.225 1161.91C751.898 1161.95 751.57 1161.99 751.243 1162.03L749.962 1152.12C750.282 1152.08 750.602 1152.04 750.922 1151.99L752.225 1161.91ZM608.917 1149.07L607.202 1158.92C606.876 1158.86 606.551 1158.8 606.226 1158.75L607.962 1148.9C608.28 1148.96 608.599 1149.01 608.917 1149.07ZM772.773 1158.75C772.448 1158.8 772.123 1158.86 771.798 1158.92L770.94 1153.99L770.083 1149.07C770.401 1149.01 770.72 1148.96 771.038 1148.9L772.773 1158.75ZM588.951 1145.14L586.807 1154.9C586.484 1154.83 586.161 1154.76 585.838 1154.69L588.004 1144.93C588.32 1145 588.635 1145.07 588.951 1145.14ZM793.161 1154.69C792.839 1154.76 792.516 1154.83 792.193 1154.9L791.121 1150.02L790.049 1145.14C790.365 1145.07 790.68 1145 790.996 1144.93L793.161 1154.69ZM569.18 1140.34L566.607 1150C566.288 1149.91 565.969 1149.83 565.649 1149.74L568.241 1140.09C568.554 1140.17 568.867 1140.26 569.18 1140.34ZM813.351 1149.74C813.031 1149.83 812.711 1149.91 812.392 1150L809.82 1140.34C810.133 1140.25 810.446 1140.17 810.759 1140.09L813.351 1149.74ZM549.638 1134.67L546.644 1144.21C546.328 1144.11 546.012 1144.01 545.697 1143.92L548.712 1134.38C549.02 1134.48 549.329 1134.58 549.638 1134.67ZM833.302 1143.92C832.987 1144.01 832.671 1144.11 832.355 1144.21L829.362 1134.67C829.671 1134.58 829.98 1134.48 830.289 1134.38L833.302 1143.92ZM530.358 1128.15L526.947 1137.55C526.638 1137.44 526.328 1137.33 526.019 1137.21L529.449 1127.82C529.752 1127.93 530.055 1128.04 530.358 1128.15ZM852.98 1137.21C852.672 1137.33 852.362 1137.44 852.053 1137.55L850.348 1132.85L848.643 1128.15C848.945 1128.04 849.248 1127.93 849.551 1127.82L852.98 1137.21ZM511.38 1120.79L507.559 1130.03C507.254 1129.9 506.949 1129.78 506.645 1129.65L510.485 1120.42C510.783 1120.54 511.082 1120.67 511.38 1120.79ZM868.515 1120.42L872.354 1129.65C872.05 1129.78 871.745 1129.9 871.44 1130.03L867.621 1120.79C867.919 1120.67 868.217 1120.54 868.515 1120.42ZM492.744 1112.6L488.521 1121.67C488.222 1121.53 487.924 1121.39 487.625 1121.25L491.866 1112.19C492.159 1112.33 492.452 1112.47 492.744 1112.6ZM891.374 1121.25C891.075 1121.39 890.777 1121.53 890.478 1121.67L886.256 1112.6C886.548 1112.47 886.841 1112.33 887.134 1112.19L891.374 1121.25ZM474.486 1103.61L469.871 1112.48C469.578 1112.32 469.287 1112.17 468.994 1112.02L473.627 1103.16C473.913 1103.31 474.2 1103.46 474.486 1103.61ZM905.373 1103.16L910.005 1112.02C909.713 1112.17 909.421 1112.32 909.129 1112.47L906.821 1108.04L904.514 1103.61C904.8 1103.46 905.087 1103.31 905.373 1103.16ZM456.64 1093.82L451.641 1102.48C451.355 1102.31 451.07 1102.15 450.784 1101.98L455.801 1093.33C456.08 1093.49 456.36 1093.66 456.64 1093.82ZM928.216 1101.98C927.93 1102.15 927.644 1102.31 927.358 1102.48L924.859 1098.15L922.36 1093.82C922.64 1093.66 922.92 1093.49 923.199 1093.33L928.216 1101.98ZM439.237 1083.26L433.866 1091.69C433.588 1091.51 433.309 1091.34 433.03 1091.16L438.42 1082.74C438.692 1082.91 438.965 1083.09 439.237 1083.26ZM945.969 1091.16C945.691 1091.34 945.411 1091.51 945.133 1091.69L939.763 1083.26C940.035 1083.09 940.308 1082.91 940.58 1082.74L945.969 1091.16ZM422.312 1071.95L416.578 1080.14C416.308 1079.96 416.037 1079.77 415.767 1079.58L421.518 1071.4C421.782 1071.58 422.047 1071.77 422.312 1071.95ZM963.233 1079.58C962.963 1079.77 962.692 1079.95 962.421 1080.14L956.688 1071.95C956.953 1071.77 957.218 1071.58 957.482 1071.4L963.233 1079.58ZM405.893 1059.92L399.808 1067.86C399.546 1067.66 399.284 1067.45 399.022 1067.25L405.123 1059.33C405.379 1059.53 405.636 1059.72 405.893 1059.92ZM973.877 1059.33L979.977 1067.25C979.715 1067.45 979.454 1067.66 979.192 1067.86L973.107 1059.92C973.364 1059.72 973.621 1059.53 973.877 1059.33ZM390.011 1047.19L383.588 1054.85C383.335 1054.64 383.082 1054.42 382.83 1054.21L389.269 1046.56C389.516 1046.77 389.763 1046.98 390.011 1047.19ZM996.169 1054.21C995.917 1054.42 995.664 1054.64 995.411 1054.85L988.989 1047.19C989.237 1046.98 989.484 1046.77 989.731 1046.56L996.169 1054.21ZM374.696 1033.77L367.947 1041.15C367.704 1040.93 367.46 1040.7 367.217 1040.48L373.981 1033.12C374.219 1033.34 374.458 1033.55 374.696 1033.77ZM1011.78 1040.48C1011.54 1040.7 1011.3 1040.93 1011.05 1041.15L1007.68 1037.46L1004.3 1033.77C1004.54 1033.55 1004.78 1033.34 1005.02 1033.12L1011.78 1040.48ZM359.978 1019.71L352.914 1026.79C352.68 1026.55 352.447 1026.32 352.214 1026.08L359.292 1019.02C359.52 1019.25 359.749 1019.48 359.978 1019.71ZM1026.79 1026.08C1026.55 1026.32 1026.32 1026.55 1026.08 1026.79L1019.02 1019.71C1019.25 1019.48 1019.48 1019.25 1019.71 1019.02L1026.79 1026.08ZM345.883 1005.02L338.519 1011.78C338.295 1011.54 338.073 1011.3 337.851 1011.05L345.228 1004.3C345.446 1004.54 345.664 1004.78 345.883 1005.02ZM1041.15 1011.05C1040.93 1011.3 1040.7 1011.54 1040.48 1011.78L1033.12 1005.02C1033.34 1004.78 1033.55 1004.54 1033.77 1004.3L1041.15 1011.05ZM332.437 989.731L324.788 996.169C324.576 995.917 324.363 995.664 324.151 995.411L331.814 988.989C332.022 989.237 332.229 989.484 332.437 989.731ZM1054.85 995.411C1054.64 995.664 1054.42 995.917 1054.21 996.169L1046.56 989.731C1046.77 989.484 1046.98 989.237 1047.19 988.989L1054.85 995.411ZM319.67 973.877L311.748 979.977C311.547 979.715 311.344 979.454 311.143 979.192L319.079 973.107C319.276 973.364 319.473 973.621 319.67 973.877ZM1067.86 979.192C1067.66 979.454 1067.45 979.715 1067.25 979.977L1059.33 973.877C1059.53 973.621 1059.72 973.364 1059.92 973.107L1067.86 979.192ZM307.604 957.482L299.423 963.233C299.233 962.963 299.044 962.692 298.854 962.421L307.047 956.688C307.232 956.953 307.418 957.218 307.604 957.482ZM1080.14 962.421C1079.96 962.691 1079.77 962.962 1079.58 963.232L1075.49 960.358L1071.4 957.482C1071.58 957.218 1071.77 956.953 1071.95 956.688L1080.14 962.421ZM296.262 940.58L287.839 945.969C287.661 945.691 287.484 945.411 287.307 945.133L295.74 939.763C295.914 940.035 296.088 940.308 296.262 940.58ZM1091.69 945.133C1091.51 945.411 1091.34 945.691 1091.16 945.969L1082.74 940.58C1082.91 940.308 1083.09 940.035 1083.26 939.763L1091.69 945.133ZM285.668 923.199L277.019 928.216C276.853 927.93 276.688 927.644 276.522 927.358L285.183 922.36C285.344 922.64 285.506 922.92 285.668 923.199ZM1102.48 927.358C1102.31 927.644 1102.15 927.929 1101.98 928.215L1097.66 925.708L1093.33 923.199C1093.49 922.92 1093.66 922.64 1093.82 922.36L1102.48 927.358ZM275.843 905.373L271.411 907.689L271.412 907.69L266.983 910.005C266.831 909.713 266.677 909.421 266.524 909.129L275.395 904.514C275.544 904.8 275.693 905.087 275.843 905.373ZM1112.48 909.128C1112.32 909.421 1112.17 909.712 1112.02 910.005L1103.16 905.373C1103.31 905.087 1103.46 904.8 1103.61 904.514L1112.48 909.128ZM266.808 887.134L257.753 891.374C257.613 891.075 257.472 890.777 257.333 890.478L266.397 886.256C266.534 886.548 266.671 886.841 266.808 887.134ZM1121.67 890.478C1121.53 890.777 1121.39 891.075 1121.25 891.374L1112.19 887.134C1112.33 886.841 1112.47 886.548 1112.6 886.256L1121.67 890.478ZM258.58 868.515L249.346 872.354C249.219 872.05 249.095 871.745 248.969 871.44L258.209 867.621C258.332 867.919 258.456 868.217 258.58 868.515ZM1130.03 871.44C1129.9 871.745 1129.78 872.05 1129.65 872.354L1120.42 868.515C1120.54 868.217 1120.67 867.918 1120.79 867.62L1130.03 871.44ZM251.177 849.551L246.479 851.266L246.48 851.267L241.784 852.98C241.671 852.672 241.56 852.362 241.448 852.053L250.847 848.643C250.957 848.945 251.066 849.248 251.177 849.551ZM1137.55 852.052C1137.44 852.361 1137.33 852.671 1137.21 852.98L1127.82 849.551C1127.93 849.248 1128.04 848.945 1128.15 848.642L1137.55 852.052ZM244.618 830.289L235.084 833.302C234.984 832.987 234.886 832.671 234.787 832.355L244.326 829.362C244.423 829.671 244.521 829.98 244.618 830.289ZM1144.21 832.355C1144.11 832.671 1144.01 832.987 1143.92 833.302L1139.15 831.796L1134.38 830.288C1134.48 829.98 1134.58 829.671 1134.67 829.362L1144.21 832.355ZM238.912 810.759L229.258 813.351H229.256C229.17 813.031 229.084 812.711 228.999 812.392L238.662 809.82C238.745 810.133 238.828 810.446 238.912 810.759ZM1150 812.392C1149.91 812.711 1149.83 813.03 1149.74 813.35L1140.09 810.759C1140.17 810.446 1140.26 810.133 1140.34 809.82L1150 812.392ZM234.07 790.996L229.188 792.078L229.189 792.079L224.31 793.161C224.238 792.839 224.167 792.516 224.096 792.193L233.861 790.049C233.931 790.365 234 790.68 234.07 790.996ZM1154.9 792.192C1154.83 792.515 1154.76 792.838 1154.69 793.161L1149.81 792.079L1144.93 790.996C1145 790.68 1145.07 790.365 1145.14 790.049L1154.9 792.192ZM230.1 771.038L220.254 772.773C220.197 772.448 220.14 772.123 220.083 771.798L229.933 770.083C229.988 770.401 230.044 770.72 230.1 771.038ZM1158.92 771.797C1158.86 772.123 1158.8 772.448 1158.75 772.773L1148.9 771.038C1148.96 770.72 1149.01 770.401 1149.07 770.083L1158.92 771.797ZM227.007 750.922L222.048 751.573L222.049 751.574L217.094 752.225C217.051 751.898 217.008 751.57 216.966 751.243L226.881 749.962C226.922 750.282 226.965 750.602 227.007 750.922ZM1162.03 751.243C1161.99 751.57 1161.95 751.898 1161.91 752.225L1156.95 751.574L1151.99 750.922C1152.04 750.602 1152.08 750.281 1152.12 749.961L1162.03 751.243ZM224.792 730.684L219.811 731.118L219.812 731.119L214.832 731.554C214.803 731.226 214.775 730.898 214.747 730.569L224.709 729.72C224.736 730.041 224.764 730.362 224.792 730.684ZM1159.27 730.145L1164.25 730.569C1164.22 730.898 1164.2 731.226 1164.17 731.554L1159.19 731.119L1154.21 730.684C1154.24 730.362 1154.26 730.041 1154.29 729.72L1159.27 730.145ZM223.458 710.358L213.468 710.797C213.453 710.469 213.441 710.14 213.427 709.812L223.416 709.394C223.43 709.715 223.444 710.037 223.458 710.358ZM1160.58 709.603L1165.57 709.812C1165.56 710.14 1165.55 710.469 1165.53 710.797L1155.54 710.358C1155.56 710.037 1155.57 709.715 1155.58 709.394L1160.58 709.603ZM213 689.5C213 689.334 213.001 689.168 213.001 689.002L223 689.013V689.987L213.001 689.997C213.001 689.831 213 689.666 213 689.5ZM1166 689.997L1156 689.987V689.013L1166 689.002C1166 689.168 1166 689.334 1166 689.5C1166 689.666 1166 689.831 1166 689.997ZM223.458 668.642C223.444 668.963 223.43 669.285 223.416 669.606L218.421 669.396L213.427 669.188C213.441 668.859 213.453 668.53 213.468 668.202L223.458 668.642ZM1165.57 669.188L1155.58 669.606C1155.57 669.285 1155.56 668.963 1155.54 668.642L1165.53 668.202C1165.55 668.53 1165.56 668.859 1165.57 669.188ZM224.792 648.316C224.764 648.638 224.736 648.959 224.709 649.28L219.728 648.854L214.747 648.43C214.775 648.101 214.803 647.773 214.832 647.445L224.792 648.316ZM1164.25 648.43L1159.27 648.855L1154.29 649.28C1154.26 648.959 1154.24 648.638 1154.21 648.316L1164.17 647.445C1164.2 647.773 1164.22 648.101 1164.25 648.43ZM222.049 627.426L227.007 628.078C226.965 628.398 226.922 628.719 226.881 629.039L216.966 627.756C217.008 627.429 217.051 627.101 217.094 626.774L222.049 627.426ZM1162.03 627.756L1152.12 629.038C1152.08 628.718 1152.04 628.398 1151.99 628.078L1161.91 626.774C1161.95 627.101 1161.99 627.429 1162.03 627.756ZM230.1 607.962C230.044 608.28 229.988 608.599 229.933 608.917L220.082 607.202C220.139 606.876 220.197 606.551 220.254 606.226L230.1 607.962ZM1158.92 607.201L1153.99 608.06L1149.07 608.917C1149.01 608.599 1148.96 608.28 1148.9 607.962L1158.75 606.226C1158.8 606.551 1158.86 606.876 1158.92 607.201ZM234.07 588.004C234 588.32 233.931 588.635 233.861 588.951L224.096 586.807C224.167 586.484 224.238 586.161 224.31 585.838L234.07 588.004ZM1154.9 586.806L1150.02 587.879V587.878L1145.14 588.951C1145.07 588.635 1145 588.32 1144.93 588.004L1154.69 585.838C1154.76 586.16 1154.83 586.483 1154.9 586.806ZM238.912 568.241C238.828 568.554 238.744 568.867 238.661 569.18L228.999 566.607C229.084 566.288 229.17 565.969 229.256 565.649L238.912 568.241ZM1150 566.607L1140.34 569.18C1140.25 568.867 1140.17 568.554 1140.09 568.241L1149.74 565.648C1149.83 565.968 1149.91 566.288 1150 566.607ZM239.851 547.204L244.618 548.712C244.521 549.02 244.423 549.329 244.326 549.638L234.787 546.644C234.886 546.328 234.984 546.012 235.084 545.697L239.851 547.204ZM1144.21 546.644L1134.67 549.638C1134.58 549.329 1134.48 549.02 1134.38 548.711L1143.92 545.697C1144.01 546.012 1144.11 546.328 1144.21 546.644ZM251.177 529.449C251.066 529.752 250.957 530.055 250.847 530.358L241.447 526.947C241.56 526.638 241.671 526.328 241.784 526.019L251.177 529.449ZM1137.55 526.946L1132.85 528.652L1128.15 530.357C1128.04 530.055 1127.93 529.752 1127.82 529.449L1137.21 526.019C1137.33 526.327 1137.44 526.637 1137.55 526.946ZM249.347 506.646L258.58 510.485C258.456 510.783 258.332 511.082 258.209 511.38L248.969 507.559C249.095 507.254 249.219 506.949 249.346 506.645L249.347 506.646ZM1129.65 506.645C1129.78 506.949 1129.9 507.254 1130.03 507.559L1120.79 511.379C1120.67 511.081 1120.54 510.783 1120.42 510.485L1129.65 506.645ZM266.808 491.866C266.671 492.159 266.534 492.452 266.397 492.744L257.333 488.521C257.472 488.222 257.613 487.924 257.753 487.625L266.808 491.866ZM1121.25 487.625C1121.39 487.924 1121.53 488.222 1121.67 488.521L1112.6 492.744C1112.47 492.452 1112.33 492.159 1112.19 491.866L1121.25 487.625ZM275.843 473.627C275.693 473.913 275.544 474.2 275.395 474.486L266.523 469.871C266.676 469.578 266.83 469.287 266.983 468.994L275.843 473.627ZM1112.47 469.87L1108.04 472.179L1103.61 474.486C1103.46 474.2 1103.31 473.913 1103.16 473.627L1112.02 468.994C1112.17 469.286 1112.32 469.578 1112.47 469.87ZM281.343 453.292L285.668 455.801C285.506 456.08 285.344 456.36 285.183 456.64L276.522 451.641C276.687 451.355 276.853 451.07 277.019 450.784L281.343 453.292ZM1102.48 451.641L1098.15 454.141L1093.82 456.64C1093.66 456.36 1093.49 456.08 1093.33 455.801L1101.98 450.783C1102.15 451.069 1102.31 451.355 1102.48 451.641ZM296.262 438.42C296.088 438.692 295.914 438.965 295.74 439.237L287.307 433.866C287.484 433.588 287.661 433.309 287.839 433.03L296.262 438.42ZM1091.69 433.866L1083.26 439.237C1083.09 438.965 1082.91 438.692 1082.74 438.42L1091.16 433.03C1091.34 433.309 1091.51 433.588 1091.69 433.866ZM307.604 421.518C307.418 421.782 307.231 422.047 307.046 422.312L298.854 416.578C299.044 416.308 299.233 416.037 299.423 415.767L307.604 421.518ZM1079.58 415.766C1079.77 416.036 1079.95 416.307 1080.14 416.578L1071.95 422.312C1071.77 422.047 1071.58 421.782 1071.4 421.518L1079.58 415.766ZM319.67 405.123C319.473 405.379 319.276 405.636 319.079 405.893L311.144 399.808L311.143 399.807C311.344 399.545 311.547 399.284 311.748 399.022L319.67 405.123ZM1067.86 399.807L1059.92 405.893C1059.72 405.636 1059.53 405.379 1059.33 405.123L1067.25 399.022C1067.45 399.284 1067.66 399.545 1067.86 399.807ZM332.438 389.269C332.229 389.516 332.022 389.763 331.814 390.011L324.151 383.588C324.363 383.335 324.576 383.082 324.788 382.83L332.438 389.269ZM1054.85 383.588L1047.19 390.011C1046.98 389.763 1046.77 389.516 1046.56 389.269L1054.21 382.83C1054.42 383.082 1054.64 383.335 1054.85 383.588ZM345.883 373.981C345.664 374.219 345.446 374.458 345.228 374.696L337.851 367.947C338.073 367.704 338.295 367.46 338.519 367.217L345.883 373.981ZM1041.15 367.947L1033.77 374.696C1033.55 374.458 1033.34 374.219 1033.12 373.981L1040.48 367.217C1040.7 367.46 1040.93 367.704 1041.15 367.947ZM359.978 359.292C359.749 359.52 359.52 359.749 359.292 359.978L352.214 352.914C352.447 352.68 352.68 352.447 352.914 352.214L359.978 359.292ZM1026.08 352.214C1026.32 352.447 1026.55 352.68 1026.79 352.914L1019.71 359.978C1019.48 359.749 1019.25 359.52 1019.02 359.292L1026.08 352.214ZM374.696 345.228C374.458 345.446 374.219 345.664 373.981 345.883L367.217 338.519C367.46 338.295 367.704 338.073 367.947 337.851L374.696 345.228ZM1011.78 338.519L1005.02 345.883C1004.78 345.664 1004.54 345.446 1004.3 345.228L1011.05 337.851C1011.3 338.073 1011.54 338.295 1011.78 338.519ZM390.011 331.814C389.763 332.022 389.516 332.229 389.269 332.438L382.83 324.788C383.082 324.576 383.335 324.363 383.588 324.151L390.011 331.814ZM996.169 324.788L989.731 332.438C989.484 332.229 989.237 332.022 988.989 331.814L995.411 324.151C995.664 324.363 995.917 324.576 996.169 324.788ZM399.808 311.144L405.893 319.079C405.636 319.276 405.379 319.473 405.123 319.67L399.022 311.748C399.284 311.547 399.545 311.344 399.807 311.143L399.808 311.144ZM979.977 311.748L973.877 319.67C973.621 319.473 973.364 319.276 973.107 319.079L979.192 311.144C979.454 311.345 979.715 311.547 979.977 311.748ZM422.312 307.047C422.047 307.232 421.782 307.418 421.518 307.604L415.766 299.423C416.036 299.233 416.307 299.044 416.578 298.854L422.312 307.047ZM962.421 298.854C962.691 299.044 962.962 299.233 963.232 299.423L957.482 307.604C957.218 307.418 956.953 307.231 956.688 307.046L962.421 298.854ZM439.237 295.74C438.965 295.914 438.692 296.088 438.42 296.262L433.03 287.839C433.309 287.661 433.588 287.484 433.866 287.307L439.237 295.74ZM945.969 287.839L940.58 296.262C940.308 296.088 940.035 295.914 939.763 295.74L945.133 287.307C945.411 287.484 945.691 287.661 945.969 287.839ZM454.141 280.852L456.64 285.183C456.36 285.344 456.08 285.506 455.801 285.668L450.783 277.019C451.069 276.853 451.355 276.688 451.641 276.522L454.141 280.852ZM928.215 277.019L925.708 281.343L925.707 281.342L923.199 285.668C922.92 285.506 922.64 285.344 922.36 285.183L927.358 276.522C927.644 276.687 927.929 276.853 928.215 277.019ZM472.179 270.959L474.486 275.395C474.2 275.544 473.913 275.693 473.627 275.843L471.31 271.411L468.994 266.983C469.286 266.831 469.578 266.677 469.87 266.524L472.179 270.959ZM910.005 266.983L905.373 275.843C905.087 275.693 904.8 275.544 904.514 275.395L909.128 266.523C909.421 266.676 909.712 266.83 910.005 266.983ZM492.744 266.397C492.452 266.534 492.159 266.671 491.866 266.808L487.625 257.753C487.924 257.613 488.222 257.472 488.521 257.333L492.744 266.397ZM890.478 257.333C890.777 257.472 891.075 257.613 891.374 257.753L887.134 266.808C886.841 266.671 886.548 266.534 886.256 266.397L890.478 257.333ZM511.379 258.209C511.081 258.332 510.783 258.456 510.485 258.58L506.646 249.347L506.645 249.346C506.949 249.219 507.254 249.095 507.559 248.969L511.379 258.209ZM871.44 248.969C871.745 249.095 872.05 249.219 872.354 249.346L868.515 258.58C868.217 258.456 867.918 258.332 867.62 258.209L871.44 248.969ZM530.357 250.847C530.055 250.957 529.752 251.066 529.449 251.177L527.733 246.479L526.019 241.784C526.327 241.671 526.637 241.56 526.946 241.448L530.357 250.847ZM852.98 241.784L849.551 251.177C849.248 251.066 848.945 250.957 848.642 250.847L852.052 241.447C852.361 241.56 852.671 241.671 852.98 241.784ZM549.638 244.326C549.329 244.423 549.02 244.521 548.711 244.618L545.697 235.084C546.012 234.984 546.328 234.886 546.644 234.787L549.638 244.326ZM833.302 235.084L830.288 244.618C829.98 244.521 829.671 244.423 829.362 244.326L832.355 234.787C832.671 234.886 832.987 234.984 833.302 235.084ZM569.18 238.662C568.867 238.745 568.554 238.828 568.241 238.912L565.648 229.256C565.968 229.17 566.288 229.084 566.607 228.999L569.18 238.662ZM813.35 229.256L810.759 238.912C810.446 238.828 810.133 238.744 809.82 238.661L812.392 228.999C812.711 229.084 813.03 229.17 813.35 229.256ZM588.951 233.861C588.635 233.931 588.32 234 588.004 234.07L585.838 224.31C586.16 224.238 586.483 224.167 586.806 224.096L588.951 233.861ZM793.161 224.31L790.996 234.07C790.68 234 790.365 233.931 790.049 233.861L792.192 224.096C792.515 224.167 792.838 224.238 793.161 224.31ZM608.917 229.933C608.599 229.988 608.28 230.044 607.962 230.1L606.226 220.254C606.551 220.197 606.876 220.14 607.201 220.083L608.917 229.933ZM772.773 220.254L771.038 230.1C770.72 230.044 770.401 229.988 770.083 229.933L771.797 220.082C772.123 220.139 772.448 220.197 772.773 220.254ZM629.038 226.881C628.718 226.922 628.398 226.965 628.078 227.007L626.774 217.094C627.101 217.051 627.429 217.008 627.756 216.966L629.038 226.881ZM752.225 217.094L752.046 218.463L750.922 227.007C750.602 226.965 750.281 226.922 749.961 226.881L751.243 216.966C751.57 217.008 751.898 217.051 752.225 217.094ZM649.28 224.709C648.959 224.736 648.638 224.764 648.316 224.792L647.445 214.832C647.773 214.803 648.101 214.775 648.43 214.747L649.28 224.709ZM731.554 214.832L730.684 224.792C730.362 224.764 730.041 224.736 729.72 224.709L730.569 214.747C730.898 214.775 731.226 214.803 731.554 214.832ZM669.606 223.416C669.285 223.43 668.963 223.444 668.642 223.458L668.202 213.468C668.53 213.453 668.859 213.441 669.188 213.427L669.606 223.416ZM710.797 213.468L710.358 223.458C710.037 223.444 709.715 223.43 709.394 223.416L709.812 213.427C710.14 213.441 710.469 213.453 710.797 213.468ZM689.997 213.001L689.987 223H689.013L689.002 213.001C689.168 213.001 689.334 213 689.5 213C689.666 213 689.831 213.001 689.997 213.001Z" fill="#393636"/>
<path d="M689.5 1369V1379C689.334 1379 689.167 1379 689.001 1379L689.008 1369C689.172 1369 689.336 1369 689.5 1369ZM689.992 1369L689.998 1379C689.832 1379 689.666 1379 689.5 1379V1369C689.664 1369 689.828 1369 689.992 1369ZM669.409 1368.71L669.119 1378.7C668.789 1378.69 668.458 1378.68 668.128 1378.67L668.433 1368.68C668.758 1368.69 669.084 1368.7 669.409 1368.71ZM710.567 1368.68L710.87 1378.67C710.54 1378.68 710.21 1378.69 709.88 1378.7L709.591 1368.71C709.916 1368.7 710.242 1368.69 710.567 1368.68ZM648.921 1367.81L648.333 1377.79C648.002 1377.77 647.671 1377.75 647.34 1377.73L647.941 1367.75C648.268 1367.77 648.594 1367.79 648.921 1367.81ZM731.659 1377.73C731.328 1377.75 730.997 1377.77 730.666 1377.79L730.079 1367.81C730.406 1367.79 730.732 1367.77 731.059 1367.75L731.659 1377.73ZM628.437 1366.29L627.551 1376.25C627.222 1376.22 626.894 1376.19 626.565 1376.16L627.467 1366.21C627.79 1366.24 628.114 1366.27 628.437 1366.29ZM752.434 1376.16C752.105 1376.19 751.777 1376.22 751.448 1376.25L750.562 1366.29C750.885 1366.27 751.21 1366.24 751.533 1366.21L752.434 1376.16ZM608.016 1364.17L607.422 1369.13L606.829 1374.09C606.501 1374.05 606.172 1374.02 605.844 1373.98L607.044 1364.05C607.368 1364.09 607.692 1364.13 608.016 1364.17ZM773.155 1373.98C772.827 1374.02 772.498 1374.05 772.169 1374.09L770.984 1364.17C771.308 1364.13 771.632 1364.09 771.956 1364.05L773.155 1373.98ZM587.699 1361.43L586.956 1366.37L586.214 1371.31C585.888 1371.26 585.563 1371.22 585.237 1371.17L586.737 1361.28C587.058 1361.33 587.378 1361.38 587.699 1361.43ZM793.762 1371.17C793.436 1371.22 793.111 1371.26 792.785 1371.31L792.043 1366.37L791.301 1361.43C791.622 1361.38 791.942 1361.33 792.263 1361.28L793.762 1371.17ZM567.423 1358.07L565.638 1367.9C565.313 1367.84 564.988 1367.78 564.663 1367.72L566.462 1357.89C566.782 1357.95 567.102 1358.01 567.423 1358.07ZM814.336 1367.72C814.011 1367.78 813.686 1367.84 813.361 1367.9L811.577 1358.07C811.898 1358.01 812.218 1357.95 812.538 1357.89L814.336 1367.72ZM547.301 1354.1L545.218 1363.88C544.894 1363.81 544.57 1363.74 544.246 1363.67L546.343 1353.89C546.662 1353.96 546.981 1354.03 547.301 1354.1ZM834.753 1363.67C834.429 1363.74 834.105 1363.81 833.781 1363.88L832.74 1358.99L831.699 1354.1C832.019 1354.03 832.338 1353.96 832.657 1353.89L834.753 1363.67ZM527.287 1349.52L524.908 1359.23C524.587 1359.15 524.267 1359.07 523.946 1358.99L526.339 1349.29C526.655 1349.36 526.971 1349.44 527.287 1349.52ZM853.856 1354.14L855.053 1358.99C854.732 1359.07 854.412 1359.15 854.091 1359.23L851.713 1349.52C852.029 1349.44 852.345 1349.36 852.66 1349.29L853.856 1354.14ZM507.424 1344.33L504.75 1353.97C504.431 1353.88 504.112 1353.79 503.794 1353.7L506.481 1344.07C506.795 1344.16 507.11 1344.25 507.424 1344.33ZM875.205 1353.7C874.887 1353.79 874.569 1353.88 874.25 1353.97L871.576 1344.33C871.89 1344.25 872.205 1344.16 872.519 1344.07L875.205 1353.7ZM487.753 1338.55L484.787 1348.1C484.471 1348 484.156 1347.9 483.84 1347.8L486.818 1338.26C487.13 1338.36 487.442 1338.46 487.753 1338.55ZM895.159 1347.8C894.843 1347.9 894.528 1348 894.212 1348.1L892.729 1343.33L891.247 1338.55C891.558 1338.46 891.87 1338.36 892.182 1338.26L895.159 1347.8ZM468.227 1332.16L464.972 1341.61C464.659 1341.51 464.346 1341.4 464.034 1341.29L467.303 1331.84C467.61 1331.95 467.919 1332.06 468.227 1332.16ZM914.965 1341.29C914.653 1341.4 914.34 1341.51 914.027 1341.61L910.773 1332.16C911.081 1332.06 911.39 1331.95 911.697 1331.84L914.965 1341.29ZM448.93 1325.19L445.521 1334.19L445.388 1334.54C445.078 1334.42 444.768 1334.31 444.459 1334.19L448.015 1324.84C448.319 1324.96 448.625 1325.07 448.93 1325.19ZM934.54 1334.19C934.231 1334.31 933.92 1334.42 933.61 1334.54L930.07 1325.19C930.375 1325.07 930.681 1324.96 930.985 1324.84L934.54 1334.19ZM429.849 1317.63L426.026 1326.87C425.721 1326.74 425.415 1326.62 425.11 1326.49L428.947 1317.26C429.248 1317.38 429.548 1317.51 429.849 1317.63ZM953.889 1326.49C953.584 1326.62 953.278 1326.74 952.973 1326.87L949.15 1317.63C949.451 1317.51 949.752 1317.38 950.053 1317.26L953.889 1326.49ZM410.999 1309.49L406.896 1318.61C406.595 1318.47 406.292 1318.34 405.991 1318.2L410.107 1309.09C410.404 1309.22 410.702 1309.36 410.999 1309.49ZM973.008 1318.2C972.707 1318.34 972.404 1318.47 972.103 1318.61L968.001 1309.49C968.298 1309.36 968.596 1309.22 968.893 1309.09L973.008 1318.2ZM392.42 1300.79L388.043 1309.78C387.745 1309.63 387.447 1309.49 387.149 1309.35L391.54 1300.36C391.833 1300.5 392.127 1300.65 392.42 1300.79ZM991.85 1309.35C991.552 1309.49 991.254 1309.63 990.956 1309.78L988.769 1305.29L986.58 1300.79C986.873 1300.65 987.167 1300.51 987.46 1300.36L991.85 1309.35ZM374.097 1291.52L369.449 1300.37C369.157 1300.22 368.864 1300.07 368.571 1299.91L373.232 1291.07C373.52 1291.22 373.808 1291.37 374.097 1291.52ZM1010.43 1299.91C1010.14 1300.07 1009.84 1300.22 1009.55 1300.37L1004.9 1291.52C1005.19 1291.37 1005.48 1291.22 1005.77 1291.07L1010.43 1299.91ZM356.069 1281.71L351.156 1290.41C350.868 1290.25 350.579 1290.09 350.291 1289.93L355.218 1281.23C355.501 1281.39 355.786 1281.55 356.069 1281.71ZM1028.71 1289.93C1028.42 1290.09 1028.13 1290.25 1027.84 1290.41L1022.93 1281.71C1023.21 1281.55 1023.5 1281.39 1023.78 1281.23L1028.71 1289.93ZM338.353 1271.35L333.179 1279.91C332.896 1279.74 332.612 1279.57 332.33 1279.4L337.518 1270.85C337.796 1271.02 338.074 1271.19 338.353 1271.35ZM1046.67 1279.4C1046.39 1279.57 1046.1 1279.74 1045.82 1279.91L1040.65 1271.35C1040.93 1271.19 1041.2 1271.02 1041.48 1270.85L1046.67 1279.4ZM320.944 1260.46L315.514 1268.86C315.236 1268.68 314.958 1268.5 314.681 1268.32L320.124 1259.93C320.397 1260.11 320.671 1260.29 320.944 1260.46ZM1064.32 1268.32C1064.04 1268.5 1063.76 1268.68 1063.49 1268.86L1058.06 1260.46C1058.33 1260.29 1058.6 1260.11 1058.88 1259.93L1064.32 1268.32ZM303.881 1249.06L298.701 1256.56L298.199 1257.28C297.927 1257.1 297.654 1256.91 297.383 1256.72L303.076 1248.5C303.344 1248.69 303.613 1248.87 303.881 1249.06ZM1081.62 1256.72C1081.34 1256.91 1081.07 1257.1 1080.8 1257.28L1077.96 1253.17L1075.12 1249.06C1075.39 1248.87 1075.66 1248.69 1075.92 1248.5L1081.62 1256.72ZM287.166 1237.14L281.239 1245.19C280.973 1245 280.705 1244.8 280.439 1244.61L286.379 1236.56C286.641 1236.75 286.904 1236.95 287.166 1237.14ZM1098.56 1244.61C1098.29 1244.8 1098.03 1245 1097.76 1245.19L1091.83 1237.14C1092.1 1236.95 1092.36 1236.75 1092.62 1236.56L1098.56 1244.61ZM270.815 1224.72L264.649 1232.59C264.389 1232.39 264.127 1232.19 263.867 1231.98L270.046 1224.12C270.302 1224.32 270.559 1224.52 270.815 1224.72ZM1115.13 1231.98C1114.87 1232.19 1114.61 1232.39 1114.35 1232.59L1111.27 1228.66L1108.18 1224.72C1108.44 1224.52 1108.7 1224.32 1108.95 1224.12L1115.13 1231.98ZM254.85 1211.82L248.449 1219.5C248.195 1219.29 247.94 1219.08 247.687 1218.87L254.099 1211.2C254.349 1211.41 254.599 1211.62 254.85 1211.82ZM1124.9 1211.2L1131.31 1218.87C1131.06 1219.08 1130.8 1219.29 1130.55 1219.5L1124.15 1211.82C1124.4 1211.62 1124.65 1211.41 1124.9 1211.2ZM239.274 1198.45L232.646 1205.93C232.399 1205.71 232.15 1205.5 231.903 1205.28L238.543 1197.8C238.787 1198.02 239.03 1198.23 239.274 1198.45ZM1147.1 1205.28C1146.85 1205.5 1146.6 1205.71 1146.35 1205.93L1139.73 1198.45C1139.97 1198.23 1140.21 1198.02 1140.46 1197.8L1147.1 1205.28ZM224.109 1184.61L220.684 1188.25L217.676 1191.45L217.26 1191.89C217.019 1191.67 216.778 1191.44 216.537 1191.21L223.397 1183.94C223.634 1184.16 223.872 1184.39 224.109 1184.61ZM1162.46 1191.21C1162.22 1191.44 1161.98 1191.67 1161.74 1191.89L1158.32 1188.25L1154.89 1184.61C1155.13 1184.39 1155.37 1184.16 1155.6 1183.94L1162.46 1191.21ZM209.367 1170.32L202.302 1177.4C202.068 1177.16 201.834 1176.93 201.601 1176.7L208.676 1169.63C208.906 1169.86 209.137 1170.09 209.367 1170.32ZM1177.4 1176.7C1177.16 1176.93 1176.93 1177.16 1176.7 1177.4L1173.17 1173.86L1169.63 1170.32C1169.86 1170.09 1170.09 1169.86 1170.32 1169.63L1177.4 1176.7ZM195.06 1155.6L191.421 1159.03L187.784 1162.46C187.557 1162.22 187.332 1161.98 187.105 1161.74L194.39 1154.89C194.613 1155.13 194.836 1155.37 195.06 1155.6ZM1188.25 1158.32L1191.89 1161.74C1191.67 1161.98 1191.44 1162.22 1191.21 1162.46L1183.94 1155.6C1184.16 1155.37 1184.39 1155.13 1184.61 1154.89L1188.25 1158.32ZM181.201 1140.46L173.723 1147.1C173.503 1146.85 173.285 1146.6 173.066 1146.35L180.553 1139.73C180.769 1139.97 180.985 1140.21 181.201 1140.46ZM1205.93 1146.35C1205.71 1146.6 1205.5 1146.85 1205.28 1147.1L1201.54 1143.78L1197.8 1140.46C1198.02 1140.21 1198.23 1139.97 1198.45 1139.73L1205.93 1146.35ZM167.802 1124.9L160.128 1131.31C159.916 1131.06 159.706 1130.8 159.494 1130.55L167.176 1124.15C167.384 1124.4 167.593 1124.65 167.802 1124.9ZM1219.5 1130.55C1219.29 1130.8 1219.08 1131.06 1218.87 1131.31L1211.2 1124.9C1211.41 1124.65 1211.62 1124.4 1211.82 1124.15L1219.5 1130.55ZM154.88 1108.95L147.016 1115.13C146.811 1114.87 146.609 1114.61 146.405 1114.35L154.276 1108.18C154.477 1108.44 154.679 1108.7 154.88 1108.95ZM1232.59 1114.35C1232.39 1114.61 1232.19 1114.87 1231.98 1115.13L1224.12 1108.95C1224.32 1108.7 1224.52 1108.44 1224.72 1108.18L1232.59 1114.35ZM142.439 1092.62L134.394 1098.56C134.197 1098.29 134.003 1098.03 133.808 1097.76L141.86 1091.83C142.053 1092.1 142.246 1092.36 142.439 1092.62ZM1245.19 1097.76C1245 1098.03 1244.8 1098.29 1244.61 1098.56L1236.56 1092.62C1236.75 1092.36 1236.95 1092.1 1237.14 1091.83L1245.19 1097.76ZM130.499 1075.92L122.278 1081.62C122.09 1081.34 121.904 1081.07 121.716 1080.8L129.943 1075.12C130.129 1075.39 130.313 1075.66 130.499 1075.92ZM1257.28 1080.8C1257.1 1081.07 1256.91 1081.34 1256.72 1081.62L1248.5 1075.92C1248.69 1075.66 1248.87 1075.39 1249.06 1075.12L1257.28 1080.8ZM119.068 1058.88L110.68 1064.32C110.5 1064.04 110.322 1063.76 110.143 1063.49L118.537 1058.06C118.714 1058.33 118.891 1058.6 119.068 1058.88ZM1268.86 1063.49C1268.68 1063.76 1268.5 1064.04 1268.32 1064.32L1259.93 1058.88C1260.11 1058.6 1260.29 1058.33 1260.46 1058.06L1268.86 1063.49ZM108.151 1041.48L99.6025 1046.67C99.4312 1046.39 99.2617 1046.1 99.0908 1045.82L107.646 1040.65C107.814 1040.93 107.983 1041.2 108.151 1041.48ZM1279.91 1045.82C1279.74 1046.1 1279.57 1046.39 1279.4 1046.67L1270.85 1041.48C1271.02 1041.2 1271.19 1040.93 1271.35 1040.65L1279.91 1045.82ZM97.7734 1023.78L89.0723 1028.71C88.9092 1028.42 88.7476 1028.13 88.585 1027.84L97.292 1022.93C97.4522 1023.21 97.6128 1023.5 97.7734 1023.78ZM1290.41 1027.84C1290.25 1028.13 1290.09 1028.42 1289.93 1028.71L1281.23 1023.78C1281.39 1023.5 1281.55 1023.21 1281.71 1022.93L1290.41 1027.84ZM87.9316 1005.77L83.5068 1008.1L79.085 1010.43C78.931 1010.14 78.7786 1009.84 78.625 1009.55L87.4766 1004.9C87.6279 1005.19 87.7799 1005.48 87.9316 1005.77ZM1300.37 1009.55C1300.22 1009.84 1300.07 1010.14 1299.91 1010.43L1295.49 1008.1L1291.07 1005.77C1291.22 1005.48 1291.37 1005.19 1291.52 1004.9L1300.37 1009.55ZM78.6377 987.46L69.6533 991.85C69.508 991.552 69.3647 991.254 69.2197 990.956L78.209 986.58C78.3518 986.873 78.4945 987.167 78.6377 987.46ZM1309.78 990.956C1309.63 991.254 1309.49 991.552 1309.35 991.85L1300.36 987.46C1300.5 987.167 1300.65 986.873 1300.79 986.58L1309.78 990.956ZM69.9102 968.893L60.7969 973.008C60.6608 972.707 60.5272 972.404 60.3916 972.103L69.5088 968.001C69.6425 968.298 69.776 968.596 69.9102 968.893ZM1318.61 972.103C1318.47 972.404 1318.34 972.707 1318.2 973.008L1309.09 968.893C1309.22 968.596 1309.36 968.298 1309.49 968.001L1318.61 972.103ZM61.7441 950.053L52.5098 953.889C52.383 953.584 52.2581 953.278 52.1318 952.973L61.3701 949.15C61.4945 949.451 61.6193 949.752 61.7441 950.053ZM1326.87 952.973C1326.74 953.278 1326.62 953.584 1326.49 953.889L1317.26 950.053C1317.38 949.752 1317.51 949.452 1317.63 949.151L1326.87 952.973ZM54.1592 930.985L44.8125 934.54C44.6948 934.231 44.5782 933.92 44.4609 933.61L53.8115 930.07C53.927 930.375 54.0433 930.681 54.1592 930.985ZM1334.54 933.611C1334.42 933.921 1334.31 934.231 1334.19 934.54L1324.84 930.985C1324.96 930.681 1325.07 930.375 1325.19 930.07L1334.54 933.611ZM47.1572 911.697L37.707 914.965C37.599 914.653 37.4923 914.34 37.3848 914.027L46.8389 910.773C46.9449 911.081 47.0508 911.39 47.1572 911.697ZM1341.61 914.027C1341.51 914.34 1341.4 914.653 1341.29 914.965L1331.84 911.697C1331.95 911.39 1332.06 911.081 1332.16 910.773L1341.61 914.027ZM40.7393 892.182L31.1943 895.159C31.0958 894.843 30.9975 894.528 30.8994 894.212L40.4482 891.247C40.5449 891.558 40.6421 891.87 40.7393 892.182ZM1348.1 894.212C1348 894.528 1347.9 894.844 1347.8 895.159L1338.26 892.182C1338.36 891.87 1338.46 891.558 1338.55 891.247L1348.1 894.212ZM34.9297 872.519L25.2988 875.205C25.2099 874.886 25.1187 874.569 25.0303 874.25L34.667 871.576C34.7542 871.89 34.8421 872.205 34.9297 872.519ZM1353.97 874.25C1353.88 874.569 1353.79 874.887 1353.7 875.205L1344.07 872.519C1344.16 872.205 1344.25 871.89 1344.33 871.576L1353.97 874.25ZM29.7129 852.66L24.8574 853.856L24.8584 853.857L20.0068 855.053C19.9278 854.732 19.8471 854.412 19.7686 854.091L29.4805 851.713C29.5578 852.029 29.6351 852.345 29.7129 852.66ZM1359.23 854.091C1359.15 854.412 1359.07 854.732 1358.99 855.053L1349.29 852.661C1349.36 852.345 1349.44 852.029 1349.52 851.713L1359.23 854.091ZM25.1055 832.657L20.2148 833.705L20.2158 833.706L15.3301 834.753C15.2607 834.429 15.191 834.105 15.1221 833.781L24.9004 831.699C24.9684 832.019 25.037 832.338 25.1055 832.657ZM1363.88 833.781C1363.81 834.105 1363.74 834.429 1363.67 834.753L1358.78 833.706L1353.89 832.657C1353.96 832.338 1354.03 832.019 1354.1 831.699L1363.88 833.781ZM21.1094 812.538L16.1904 813.437L16.1914 813.438L11.2744 814.336C11.215 814.011 11.1566 813.686 11.0977 813.361L20.9346 811.577C20.9927 811.898 21.0508 812.218 21.1094 812.538ZM1367.9 813.361C1367.84 813.686 1367.78 814.011 1367.72 814.336L1362.81 813.438L1357.89 812.538C1357.95 812.218 1358.01 811.898 1358.07 811.577L1367.9 813.361ZM17.7187 792.263L7.83301 793.762C7.78364 793.436 7.73543 793.111 7.68652 792.785L17.5732 791.301C17.6214 791.622 17.6701 791.942 17.7187 792.263ZM1366.37 792.043L1371.31 792.785C1371.26 793.111 1371.22 793.436 1371.17 793.762L1361.28 792.263C1361.33 791.942 1361.38 791.622 1361.43 791.301L1366.37 792.043ZM14.9512 771.956L5.02344 773.155C4.98369 772.827 4.94651 772.498 4.90723 772.169L14.834 770.984C14.8727 771.308 14.912 771.632 14.9512 771.956ZM1369.13 771.577L1374.09 772.17C1374.05 772.498 1374.02 772.827 1373.98 773.155L1369.01 772.557L1364.05 771.956C1364.09 771.632 1364.13 771.308 1364.17 770.984L1369.13 771.577ZM12.793 751.533L2.83594 752.434C2.80622 752.105 2.77535 751.777 2.74609 751.448L12.7061 750.562C12.7349 750.885 12.7637 751.21 12.793 751.533ZM1376.25 751.448C1376.22 751.777 1376.19 752.105 1376.16 752.434L1366.21 751.533C1366.24 751.21 1366.27 750.886 1366.29 750.563L1376.25 751.448ZM11.25 731.059L1.27148 731.659C1.25152 731.328 1.23141 730.997 1.21191 730.666L11.1914 730.079C11.2106 730.406 11.2303 730.732 11.25 731.059ZM1377.79 730.666C1377.77 730.997 1377.75 731.328 1377.73 731.659L1367.75 731.059C1367.77 730.732 1367.79 730.406 1367.81 730.079L1377.79 730.666ZM1378.7 709.88C1378.69 710.21 1378.68 710.541 1378.67 710.871L1368.68 710.567C1368.69 710.242 1368.7 709.916 1368.71 709.591L1378.7 709.88ZM10.3203 710.567L5.32129 710.719L5.32227 710.72L0.327148 710.87C0.317102 710.54 0.308411 710.21 0.298828 709.88L10.291 709.591C10.3005 709.916 10.3104 710.242 10.3203 710.567ZM0 689.5C0 689.334 0.000858754 689.167 0.000976562 689.001L10 689.008V689.992L0.000976562 689.998C0.000859144 689.832 0 689.666 0 689.5ZM1379 689.998L1369 689.992V689.008L1379 689.001C1379 689.167 1379 689.334 1379 689.5C1379 689.666 1379 689.832 1379 689.998ZM10.3203 668.433C10.3104 668.758 10.3005 669.084 10.291 669.409L0.298828 669.119C0.308421 668.789 0.317091 668.458 0.327148 668.128L10.3203 668.433ZM1378.7 669.119L1368.71 669.409C1368.7 669.084 1368.69 668.758 1368.68 668.433L1378.67 668.129C1378.68 668.459 1378.69 668.789 1378.7 669.119ZM11.25 647.941C11.2303 648.268 11.2106 648.594 11.1914 648.921L1.21191 648.333C1.23141 648.002 1.25152 647.671 1.27148 647.34L11.25 647.941ZM1377.79 648.333L1367.81 648.921C1367.79 648.594 1367.77 648.268 1367.75 647.941L1377.73 647.34C1377.75 647.671 1377.77 648.002 1377.79 648.333ZM1376.25 627.551L1366.29 628.438C1366.27 628.115 1366.24 627.79 1366.21 627.467L1376.16 626.565C1376.19 626.894 1376.22 627.222 1376.25 627.551ZM12.793 627.467C12.7637 627.79 12.7349 628.114 12.7061 628.438L2.74609 627.551C2.77535 627.222 2.80622 626.894 2.83594 626.565L12.793 627.467ZM9.9873 606.443L14.9512 607.044C14.912 607.368 14.8727 607.692 14.834 608.016L9.87012 607.422L4.90723 606.829C4.94647 606.501 4.98373 606.172 5.02344 605.844L9.9873 606.443ZM1373.98 605.844C1374.02 606.172 1374.05 606.501 1374.09 606.83L1364.17 608.016C1364.13 607.692 1364.09 607.368 1364.05 607.044L1373.98 605.844ZM17.7187 586.737C17.6701 587.058 17.6214 587.378 17.5732 587.699L12.6289 586.956L7.68652 586.214C7.73543 585.888 7.78365 585.563 7.83301 585.237L17.7187 586.737ZM1371.31 586.214L1366.37 586.957L1361.43 587.699C1361.38 587.378 1361.33 587.058 1361.28 586.737L1371.17 585.237C1371.22 585.563 1371.26 585.888 1371.31 586.214ZM21.1094 566.462C21.0508 566.782 20.9927 567.102 20.9346 567.423L11.0977 565.638C11.1566 565.313 11.215 564.988 11.2744 564.663L21.1094 566.462ZM1367.9 565.638L1358.07 567.423C1358.01 567.102 1357.95 566.782 1357.89 566.462L1367.72 564.663C1367.78 564.988 1367.84 565.313 1367.9 565.638ZM20.2158 545.294L25.1055 546.343C25.037 546.662 24.9684 546.981 24.9004 547.301L15.1221 545.218C15.1911 544.894 15.2606 544.57 15.3301 544.246L20.2158 545.294ZM1363.88 545.218L1358.99 546.26V546.259L1354.1 547.301C1354.03 546.981 1353.96 546.662 1353.89 546.343L1363.67 544.246C1363.74 544.57 1363.81 544.894 1363.88 545.218ZM29.7129 526.339C29.6351 526.655 29.5578 526.971 29.4805 527.287L19.7686 524.908C19.8471 524.587 19.9278 524.267 20.0068 523.946L29.7129 526.339ZM1359.23 524.908L1349.52 527.287C1349.44 526.971 1349.36 526.655 1349.29 526.34L1358.99 523.946C1359.07 524.267 1359.15 524.587 1359.23 524.908ZM34.9297 506.481C34.8421 506.795 34.7541 507.11 34.667 507.424L25.0312 504.75L25.0303 504.749C25.1187 504.43 25.21 504.112 25.2988 503.794L34.9297 506.481ZM1353.97 504.749L1344.33 507.424C1344.25 507.11 1344.16 506.795 1344.07 506.481L1353.7 503.794C1353.79 504.112 1353.88 504.43 1353.97 504.749ZM40.7393 486.818C40.6421 487.13 40.5449 487.442 40.4482 487.753L30.8994 484.787C30.9975 484.471 31.0958 484.156 31.1943 483.84L40.7393 486.818ZM1347.8 483.84C1347.9 484.156 1348 484.471 1348.1 484.787L1343.33 486.271V486.27L1338.55 487.753C1338.46 487.442 1338.36 487.13 1338.26 486.818L1347.8 483.84ZM47.1572 467.303C47.0508 467.61 46.9449 467.919 46.8389 468.227L37.3848 464.972C37.4923 464.659 37.599 464.346 37.707 464.034L47.1572 467.303ZM1341.29 464.034C1341.4 464.346 1341.51 464.659 1341.61 464.972L1332.16 468.227C1332.06 467.919 1331.95 467.61 1331.84 467.303L1341.29 464.034ZM44.8125 444.46L54.1592 448.015C54.0433 448.319 53.927 448.625 53.8115 448.93L44.4609 445.388C44.5781 445.078 44.6939 444.768 44.8115 444.459L44.8125 444.46ZM1334.19 444.459C1334.31 444.768 1334.42 445.079 1334.54 445.389L1325.19 448.93C1325.07 448.625 1324.96 448.319 1324.84 448.015L1334.19 444.459ZM1326.49 425.11C1326.62 425.415 1326.74 425.721 1326.87 426.026L1317.63 429.85C1317.51 429.549 1317.38 429.248 1317.26 428.947L1326.49 425.11ZM52.5098 425.11L61.7441 428.947C61.6194 429.248 61.4945 429.548 61.3701 429.849L52.1318 426.026L52.5098 425.11ZM69.9102 410.107C69.776 410.404 69.6425 410.702 69.5088 410.999L60.3916 406.896C60.5272 406.595 60.6608 406.292 60.7969 405.991L69.9102 410.107ZM1318.61 406.896L1309.49 410.999C1309.36 410.702 1309.22 410.404 1309.09 410.107L1318.2 405.991C1318.34 406.292 1318.47 406.595 1318.61 406.896ZM78.6387 391.54C78.4954 391.833 78.3518 392.127 78.209 392.42L69.2197 388.043C69.3647 387.745 69.508 387.447 69.6533 387.149L78.6387 391.54ZM1309.78 388.043L1305.29 390.231L1300.79 392.42C1300.65 392.127 1300.51 391.833 1300.36 391.54L1309.35 387.149C1309.49 387.447 1309.63 387.745 1309.78 388.043ZM79.085 368.571L87.9316 373.232C87.7799 373.52 87.6279 373.808 87.4766 374.097L78.625 369.449L79.085 368.571ZM1300.37 369.449L1291.52 374.097C1291.37 373.808 1291.22 373.52 1291.07 373.232L1299.91 368.571C1300.07 368.864 1300.22 369.157 1300.37 369.449ZM97.7734 355.218C97.6129 355.501 97.4531 355.786 97.293 356.069L88.585 351.156C88.7476 350.868 88.9092 350.579 89.0723 350.291L97.7734 355.218ZM1290.41 351.156L1281.71 356.069C1281.55 355.785 1281.39 355.501 1281.23 355.218L1289.93 350.291C1290.09 350.579 1290.25 350.868 1290.41 351.156ZM108.151 337.518C107.983 337.796 107.814 338.074 107.646 338.353L99.0908 333.179C99.2617 332.896 99.4312 332.612 99.6025 332.33L108.151 337.518ZM1279.91 333.179L1271.35 338.353C1271.19 338.074 1271.02 337.796 1270.85 337.518L1279.4 332.33C1279.57 332.612 1279.74 332.896 1279.91 333.179ZM119.068 320.124C118.891 320.397 118.714 320.671 118.537 320.944L110.143 315.514C110.322 315.236 110.5 314.958 110.68 314.681L119.068 320.124ZM1268.86 315.514L1260.46 320.944C1260.29 320.671 1260.11 320.397 1259.93 320.124L1268.32 314.681C1268.5 314.958 1268.68 315.236 1268.86 315.514ZM130.499 303.076C130.313 303.344 130.129 303.613 129.943 303.881L121.716 298.199C121.904 297.927 122.09 297.654 122.278 297.383L130.499 303.076ZM1257.28 298.199L1253.17 301.04V301.039L1249.06 303.881C1248.87 303.613 1248.69 303.344 1248.5 303.076L1256.72 297.383C1256.91 297.654 1257.1 297.927 1257.28 298.199ZM134.395 280.44L142.439 286.379C142.246 286.641 142.053 286.904 141.86 287.166L133.808 281.239C134.003 280.973 134.197 280.705 134.394 280.439L134.395 280.44ZM1245.19 281.239L1237.14 287.166C1236.95 286.904 1236.75 286.641 1236.56 286.379L1244.61 280.44C1244.8 280.706 1245 280.973 1245.19 281.239ZM147.017 263.868L154.88 270.046C154.679 270.302 154.477 270.559 154.276 270.815L146.405 264.649C146.609 264.389 146.811 264.127 147.016 263.867L147.017 263.868ZM1232.59 264.649L1228.66 267.732V267.731L1224.72 270.815C1224.52 270.559 1224.32 270.302 1224.12 270.046L1231.98 263.868C1232.19 264.128 1232.39 264.389 1232.59 264.649ZM167.802 254.099C167.593 254.349 167.384 254.599 167.176 254.85L159.494 248.449C159.706 248.195 159.916 247.94 160.128 247.687L167.802 254.099ZM1218.87 247.687C1219.08 247.94 1219.29 248.195 1219.5 248.449L1211.82 254.85C1211.62 254.599 1211.41 254.349 1211.2 254.099L1218.87 247.687ZM177.462 235.223L181.201 238.543C180.985 238.787 180.769 239.03 180.553 239.274L173.066 232.646C173.285 232.399 173.503 232.15 173.723 231.903L177.462 235.223ZM1205.28 231.903C1205.5 232.15 1205.71 232.399 1205.93 232.646L1198.45 239.274C1198.23 239.03 1198.02 238.787 1197.8 238.543L1205.28 231.903ZM195.06 223.397C194.836 223.634 194.613 223.872 194.39 224.109L190.747 220.684L187.105 217.26C187.332 217.019 187.557 216.778 187.784 216.537L195.06 223.397ZM1191.21 216.537C1191.44 216.778 1191.67 217.019 1191.89 217.26L1188.25 220.685L1184.61 224.109C1184.39 223.872 1184.16 223.634 1183.94 223.397L1191.21 216.537ZM205.834 205.138L209.366 208.676C209.136 208.906 208.906 209.137 208.676 209.367L201.601 202.302C201.834 202.068 202.068 201.834 202.302 201.601L205.834 205.138ZM1176.7 201.601C1176.93 201.834 1177.16 202.068 1177.4 202.302L1173.86 205.834V205.833L1170.32 209.366C1170.09 209.136 1169.86 208.906 1169.63 208.676L1176.7 201.601ZM220.685 190.747L224.109 194.39C223.872 194.613 223.634 194.836 223.397 195.06L219.967 191.421L216.537 187.784C216.778 187.557 217.019 187.332 217.26 187.105L220.685 190.747ZM1161.74 187.105C1161.98 187.332 1162.22 187.557 1162.46 187.784L1155.6 195.06C1155.37 194.836 1155.13 194.613 1154.89 194.39L1161.74 187.105ZM239.274 180.553C239.03 180.769 238.787 180.985 238.543 181.201L231.903 173.723C232.15 173.503 232.399 173.285 232.646 173.066L239.274 180.553ZM1146.35 173.066C1146.6 173.285 1146.85 173.503 1147.1 173.723L1140.46 181.201C1140.21 180.985 1139.97 180.769 1139.73 180.553L1146.35 173.066ZM254.85 167.176C254.599 167.384 254.349 167.593 254.099 167.802L247.687 160.128C247.94 159.916 248.195 159.706 248.449 159.494L254.85 167.176ZM1130.55 159.494C1130.8 159.706 1131.06 159.916 1131.31 160.128L1124.9 167.802C1124.65 167.593 1124.4 167.384 1124.15 167.176L1130.55 159.494ZM267.732 150.34L270.815 154.276C270.559 154.477 270.302 154.679 270.046 154.88L263.868 147.017L263.867 147.016C264.127 146.811 264.389 146.609 264.649 146.405L267.732 150.34ZM1115.13 147.016L1108.95 154.88C1108.7 154.679 1108.44 154.477 1108.18 154.276L1114.35 146.405C1114.61 146.609 1114.87 146.811 1115.13 147.016ZM287.166 141.86C286.904 142.053 286.641 142.246 286.379 142.439L280.44 134.395L280.439 134.394C280.705 134.197 280.973 134.003 281.239 133.808L287.166 141.86ZM1098.56 134.394L1092.62 142.439C1092.36 142.246 1092.1 142.053 1091.83 141.86L1097.76 133.808C1098.03 134.003 1098.29 134.197 1098.56 134.394ZM301.04 125.828L303.881 129.943C303.613 130.129 303.344 130.313 303.076 130.499L297.383 122.278C297.654 122.09 297.927 121.904 298.199 121.716L301.04 125.828ZM1081.62 122.278L1075.92 130.499C1075.66 130.313 1075.39 130.129 1075.12 129.943L1080.8 121.716C1081.07 121.904 1081.34 122.09 1081.62 122.278ZM320.944 118.537C320.671 118.714 320.397 118.891 320.124 119.068L314.681 110.68C314.958 110.5 315.236 110.322 315.514 110.143L320.944 118.537ZM1064.32 110.68L1058.88 119.068C1058.6 118.891 1058.33 118.714 1058.06 118.537L1063.49 110.143C1063.76 110.322 1064.04 110.5 1064.32 110.68ZM338.353 107.646C338.074 107.814 337.796 107.983 337.518 108.151L332.33 99.6025C332.612 99.4312 332.896 99.2618 333.179 99.0908L338.353 107.646ZM1046.67 99.6025L1041.48 108.151C1041.2 107.983 1040.93 107.814 1040.65 107.646L1045.82 99.0908C1046.1 99.2618 1046.39 99.4312 1046.67 99.6025ZM356.069 97.292C355.785 97.4522 355.501 97.6128 355.218 97.7734L350.291 89.0723C350.579 88.9093 350.868 88.7476 351.156 88.585L356.069 97.292ZM1028.71 89.0723L1023.78 97.7734C1023.5 97.6129 1023.21 97.4531 1022.93 97.293L1027.84 88.585C1028.13 88.7476 1028.42 88.9092 1028.71 89.0723ZM374.097 87.4766C373.808 87.6279 373.52 87.7799 373.232 87.9316L370.901 83.5068L368.571 79.085C368.864 78.931 369.157 78.7786 369.449 78.625L374.097 87.4766ZM1010.43 79.085L1005.77 87.9316C1005.48 87.7799 1005.19 87.6279 1004.9 87.4766L1009.55 78.625C1009.84 78.7786 1010.14 78.931 1010.43 79.085ZM991.85 69.6533L987.46 78.6387C987.167 78.4954 986.873 78.3518 986.58 78.209L990.956 69.2197C991.254 69.3647 991.552 69.508 991.85 69.6533ZM392.42 78.209C392.127 78.3518 391.833 78.4945 391.54 78.6377L387.149 69.6533C387.447 69.508 387.745 69.3647 388.043 69.2197L392.42 78.209ZM410.999 69.5088C410.702 69.6425 410.404 69.776 410.107 69.9102L405.991 60.7969C406.292 60.6608 406.595 60.5272 406.896 60.3916L410.999 69.5088ZM973.008 60.7969L968.893 69.9102C968.596 69.776 968.298 69.6425 968.001 69.5088L972.103 60.3916C972.404 60.5272 972.707 60.6608 973.008 60.7969ZM429.85 61.3701C429.549 61.4945 429.248 61.6193 428.947 61.7441L425.11 52.5098C425.415 52.383 425.721 52.2581 426.026 52.1318L429.85 61.3701ZM953.889 52.5098L950.053 61.7441C949.752 61.6194 949.452 61.4945 949.151 61.3701L952.973 52.1318C953.278 52.2581 953.584 52.383 953.889 52.5098ZM448.93 53.8115C448.625 53.927 448.319 54.0433 448.015 54.1592L444.46 44.8125L444.459 44.8115C444.768 44.6938 445.079 44.5782 445.389 44.4609L448.93 53.8115ZM933.611 44.4609C933.921 44.5781 934.231 44.6939 934.54 44.8115L930.985 54.1592C930.681 54.0433 930.375 53.927 930.07 53.8115L933.611 44.4609ZM468.227 46.8389C467.919 46.9449 467.61 47.0508 467.303 47.1572L464.034 37.707C464.346 37.599 464.659 37.4923 464.972 37.3848L468.227 46.8389ZM914.027 37.3848C914.34 37.4923 914.653 37.599 914.965 37.707L911.697 47.1572C911.39 47.0508 911.081 46.9449 910.773 46.8389L914.027 37.3848ZM486.271 35.6729L487.753 40.4482C487.442 40.5449 487.13 40.6421 486.818 40.7393L483.84 31.1943C484.156 31.0958 484.471 30.9975 484.787 30.8994L486.271 35.6729ZM894.212 30.8994C894.528 30.9975 894.844 31.0958 895.159 31.1943L892.182 40.7393C891.87 40.6421 891.558 40.5449 891.247 40.4482L894.212 30.8994ZM504.75 25.0313L507.424 34.667C507.11 34.7542 506.795 34.8421 506.481 34.9297L503.794 25.2988C504.112 25.21 504.43 25.1187 504.749 25.0303L504.75 25.0313ZM875.205 25.2988L872.519 34.9297C872.205 34.8421 871.89 34.7541 871.576 34.667L874.25 25.0313C874.569 25.1197 874.887 25.21 875.205 25.2988ZM527.287 29.4805C526.971 29.5578 526.655 29.6351 526.34 29.7129L523.946 20.0068C524.267 19.9278 524.587 19.8471 524.908 19.7686L527.287 29.4805ZM855.053 20.0068L852.661 29.7129C852.345 29.6351 852.029 29.5578 851.713 29.4805L854.091 19.7686C854.412 19.8471 854.732 19.9278 855.053 20.0068ZM547.301 24.9004C546.981 24.9684 546.662 25.037 546.343 25.1055L544.246 15.3301C544.57 15.2607 544.894 15.191 545.218 15.1221L547.301 24.9004ZM834.753 15.3301L832.657 25.1055C832.338 25.037 832.019 24.9684 831.699 24.9004L833.781 15.1221C834.105 15.1911 834.429 15.2606 834.753 15.3301ZM567.423 20.9346C567.102 20.9927 566.782 21.0508 566.462 21.1094L564.663 11.2744C564.988 11.215 565.313 11.1566 565.638 11.0977L567.423 20.9346ZM814.336 11.2744L812.538 21.1094C812.218 21.0508 811.898 20.9927 811.577 20.9346L813.361 11.0977C813.686 11.1566 814.011 11.215 814.336 11.2744ZM587.699 17.5732C587.378 17.6214 587.058 17.6701 586.737 17.7188L585.237 7.83301C585.563 7.78364 585.888 7.73543 586.214 7.68652L587.699 17.5732ZM793.762 7.83301L792.263 17.7188C791.942 17.6701 791.622 17.6214 791.301 17.5732L792.785 7.68652C793.111 7.73543 793.436 7.78365 793.762 7.83301ZM608.016 14.834C607.692 14.8727 607.368 14.912 607.044 14.9512L605.844 5.02344C606.172 4.98369 606.501 4.94651 606.83 4.90723L608.016 14.834ZM772.17 4.90723C772.498 4.94647 772.827 4.98373 773.155 5.02344L772.557 9.9873L772.556 9.98633L771.956 14.9512C771.632 14.912 771.308 14.8727 770.984 14.834L772.17 4.90723ZM628.438 12.7061C628.115 12.7349 627.79 12.7637 627.467 12.793L626.565 2.83594C626.894 2.80622 627.222 2.77535 627.551 2.74609L628.438 12.7061ZM752.434 2.83594L751.533 12.793C751.21 12.7637 750.886 12.7349 750.562 12.7061L751.448 2.74609C751.777 2.77535 752.105 2.80622 752.434 2.83594ZM648.921 11.1914C648.594 11.2106 648.268 11.2303 647.941 11.25L647.34 1.27148C647.671 1.25152 648.002 1.23141 648.333 1.21191L648.921 11.1914ZM731.659 1.27148L731.059 11.25C730.732 11.2303 730.406 11.2106 730.079 11.1914L730.666 1.21191C730.997 1.23141 731.328 1.25152 731.659 1.27148ZM669.409 10.291C669.084 10.3005 668.758 10.3104 668.433 10.3203L668.129 0.327148C668.459 0.317102 668.789 0.308411 669.119 0.298828L669.409 10.291ZM710.871 0.327148L710.567 10.3203C710.242 10.3104 709.916 10.3005 709.591 10.291L709.88 0.298828C710.21 0.30842 710.541 0.317091 710.871 0.327148ZM689.998 0.000976563L689.992 10H689.008L689.001 0.000976563C689.167 0.000858683 689.334 0 689.5 0C689.666 0 689.832 0.000859215 689.998 0.000976563Z" fill="#312E2E"/>
</g>
<defs>
<clipPath id="clip0_320_6570">
<rect width="1379" height="1379" fill="white"/>
</clipPath>
</defs>
</svg>
