<svg width="3481" height="1741" viewBox="0 0 3481 1741" fill="none" xmlns="http://www.w3.org/2000/svg">
<path d="M2.11511e-05 1740L10 1740C9.99997 1740.17 10 1740.33 10 1740.5H2.11511e-05C2.11511e-05 1740.33 -2.64389e-05 1740.16 2.11511e-05 1740ZM3481 1739.99C3481 1740.16 3481 1740.33 3481 1740.5H3471C3471 1740.33 3471 1740.16 3471 1739.99L3481 1739.99ZM0.0381071 1728.92L10.0371 1728.98C10.035 1729.31 10.0333 1729.65 10.0313 1729.98L0.0312712 1729.92C0.0332666 1729.59 0.035922 1729.25 0.0381071 1728.92ZM3480.96 1728.91C3480.96 1729.25 3480.97 1729.58 3480.97 1729.92L3470.97 1729.98C3470.97 1729.64 3470.97 1729.31 3470.96 1728.98L3480.96 1728.91ZM0.144552 1717.85L10.1436 1717.98C10.1393 1718.31 10.1349 1718.65 10.1309 1718.98L0.131857 1718.86C0.135939 1718.52 0.140282 1718.19 0.144552 1717.85ZM3480.86 1717.85C3480.86 1718.18 3480.86 1718.52 3480.87 1718.85L3470.87 1718.98C3470.87 1718.64 3470.86 1718.31 3470.86 1717.98L3480.86 1717.85ZM0.319357 1706.81L10.3174 1707C10.3111 1707.33 10.305 1707.66 10.2988 1708L0.300802 1707.81C0.306964 1707.48 0.313007 1707.14 0.319357 1706.81ZM3480.68 1706.8C3480.69 1707.14 3480.69 1707.47 3480.7 1707.81L3470.7 1707.99C3470.7 1707.66 3470.69 1707.32 3470.68 1706.99L3480.68 1706.8ZM0.563498 1695.78L10.5606 1696.03C10.5522 1696.36 10.5434 1696.69 10.5352 1697.03L0.538107 1696.78C0.546343 1696.45 0.555074 1696.11 0.563498 1695.78ZM3480.44 1695.77C3480.44 1696.11 3480.45 1696.44 3480.46 1696.77L3470.46 1697.02C3470.46 1696.69 3470.45 1696.36 3470.44 1696.02L3480.44 1695.77ZM0.875998 1684.76L10.8701 1685.08C10.8597 1685.41 10.8501 1685.74 10.8399 1686.07L0.844748 1685.76C0.855046 1685.43 0.865512 1685.1 0.875998 1684.76ZM3480.12 1684.76C3480.13 1685.09 3480.14 1685.43 3480.16 1685.76L3470.16 1686.07C3470.15 1685.74 3470.14 1685.41 3470.13 1685.07L3480.12 1684.76ZM1.25588 1673.77L11.249 1674.15C11.2366 1674.48 11.2242 1674.81 11.2119 1675.14L1.21877 1674.77C1.23113 1674.43 1.24333 1674.1 1.25588 1673.77ZM3479.74 1673.76C3479.76 1674.1 3479.77 1674.43 3479.78 1674.76L3469.79 1675.13C3469.78 1674.8 3469.76 1674.47 3469.75 1674.14L3479.74 1673.76ZM1.70412 1662.79L11.6944 1663.23C11.6798 1663.56 11.6657 1663.89 11.6514 1664.22L1.66018 1663.79C1.6746 1663.46 1.68952 1663.12 1.70412 1662.79ZM3479.3 1662.79C3479.31 1663.12 3479.33 1663.45 3479.34 1663.78L3469.35 1664.22C3469.33 1663.89 3469.32 1663.56 3469.31 1663.23L3479.3 1662.79ZM2.21975 1651.83L12.2071 1652.33C12.1905 1652.66 12.1736 1652.99 12.1572 1653.32L2.16994 1652.83C2.18641 1652.49 2.20309 1652.16 2.21975 1651.83ZM3478.78 1651.83C3478.8 1652.16 3478.81 1652.49 3478.83 1652.82L3468.84 1653.32C3468.83 1652.99 3468.81 1652.66 3468.79 1652.33L3478.78 1651.83ZM2.80861 1640.78L12.793 1641.34C12.7742 1641.68 12.7559 1642.01 12.7373 1642.34L2.75295 1641.78C2.77166 1641.45 2.78971 1641.11 2.80861 1640.78ZM3478.19 1640.78C3478.21 1641.11 3478.23 1641.44 3478.25 1641.78L3468.26 1642.34C3468.24 1642 3468.23 1641.67 3468.21 1641.34L3478.19 1640.78ZM3.46779 1629.74L13.4483 1630.36C13.4274 1630.7 13.4064 1631.03 13.3858 1631.36L3.40529 1630.74C3.4261 1630.41 3.4468 1630.07 3.46779 1629.74ZM3477.53 1629.73C3477.55 1630.07 3477.57 1630.4 3477.59 1630.74L3467.61 1631.36C3467.59 1631.03 3467.57 1630.69 3467.55 1630.36L3477.53 1629.73ZM4.19436 1618.71L14.1709 1619.4C14.148 1619.74 14.1253 1620.07 14.1026 1620.4L4.126 1619.71C4.14887 1619.38 4.1713 1619.05 4.19436 1618.71ZM3476.8 1618.71C3476.83 1619.04 3476.85 1619.38 3476.87 1619.71L3466.9 1620.4C3466.87 1620.06 3466.85 1619.73 3466.83 1619.4L3476.8 1618.71ZM4.99026 1607.71L14.9619 1608.46C14.937 1608.79 14.9115 1609.12 14.8867 1609.46L4.91506 1608.71C4.94001 1608.38 4.96512 1608.04 4.99026 1607.71ZM3476.01 1607.71C3476.03 1608.04 3476.06 1608.37 3476.08 1608.71L3466.11 1609.45C3466.09 1609.12 3466.06 1608.79 3466.04 1608.46L3476.01 1607.71ZM5.85354 1596.72L15.8203 1597.54C15.7933 1597.87 15.7661 1598.2 15.7393 1598.53L5.77248 1597.72C5.79949 1597.39 5.82634 1597.06 5.85354 1596.72ZM3475.15 1596.72C3475.17 1597.05 3475.2 1597.39 3475.23 1597.72L3465.26 1598.53C3465.23 1598.2 3465.21 1597.87 3465.18 1597.54L3475.15 1596.72ZM6.78518 1585.76L16.7471 1586.63C16.718 1586.96 16.6881 1587.3 16.6592 1587.63L6.69729 1586.75C6.72634 1586.42 6.75594 1586.09 6.78518 1585.76ZM3474.21 1585.75C3474.24 1586.09 3474.27 1586.42 3474.3 1586.75L3464.34 1587.62C3464.31 1587.29 3464.28 1586.96 3464.25 1586.63L3474.21 1585.75ZM7.7842 1574.81L17.7403 1575.75C17.7091 1576.08 17.6774 1576.41 17.6465 1576.74L7.69045 1575.8C7.72156 1575.47 7.75291 1575.14 7.7842 1574.81ZM3473.22 1574.81C3473.25 1575.14 3473.28 1575.47 3473.31 1575.8L3463.35 1576.74C3463.32 1576.41 3463.29 1576.08 3463.26 1575.75L3473.22 1574.81ZM8.85061 1563.88L18.8008 1564.89C18.7677 1565.21 18.7342 1565.54 18.7012 1565.87L8.751 1564.88C8.78415 1564.55 8.81727 1564.21 8.85061 1563.88ZM3472.15 1563.88C3472.18 1564.21 3472.22 1564.54 3472.25 1564.87L3462.3 1565.87C3462.27 1565.54 3462.23 1565.21 3462.2 1564.88L3472.15 1563.88ZM9.99416 1552.88L19.9375 1553.95C19.902 1554.28 19.8664 1554.61 19.8311 1554.94L9.88772 1553.88C9.92326 1553.55 9.95843 1553.22 9.99416 1552.88ZM3471 1552.88C3471.04 1553.22 3471.08 1553.55 3471.11 1553.88L3461.17 1554.94C3461.13 1554.61 3461.1 1554.28 3461.06 1553.95L3471 1552.88ZM11.208 1541.89L21.1436 1543.02C21.106 1543.35 21.0687 1543.68 21.0313 1544.01L11.0947 1542.89C11.1324 1542.56 11.1702 1542.23 11.208 1541.89ZM3469.79 1541.89C3469.83 1542.22 3469.87 1542.56 3469.91 1542.89L3459.97 1544.01C3459.93 1543.68 3459.89 1543.35 3459.86 1543.02L3469.79 1541.89ZM12.4893 1530.92L22.418 1532.11C22.3784 1532.44 22.3392 1532.77 22.2998 1533.1L12.3701 1531.92C12.4098 1531.59 12.4494 1531.25 12.4893 1530.92ZM3468.51 1530.92C3468.55 1531.25 3468.59 1531.58 3468.63 1531.92L3458.7 1533.1C3458.66 1532.77 3458.62 1532.44 3458.58 1532.11L3468.51 1530.92ZM13.8389 1519.97L23.7598 1521.23C23.7181 1521.56 23.6763 1521.89 23.6348 1522.22L13.7129 1520.97C13.7546 1520.64 13.797 1520.3 13.8389 1519.97ZM3467.16 1519.97C3467.2 1520.3 3467.24 1520.63 3467.29 1520.96L3457.37 1522.21C3457.32 1521.88 3457.28 1521.55 3457.24 1521.22L3467.16 1519.97ZM15.2559 1509.04L25.169 1510.36C25.1253 1510.69 25.0816 1511.02 25.0381 1511.35L15.124 1510.04C15.1678 1509.71 15.2119 1509.37 15.2559 1509.04ZM3465.74 1509.04C3465.79 1509.37 3465.83 1509.7 3465.88 1510.03L3455.96 1511.35C3455.92 1511.02 3455.87 1510.69 3455.83 1510.36L3465.74 1509.04ZM16.7403 1498.14L26.6446 1499.52C26.5988 1499.84 26.5534 1500.17 26.5078 1500.5L16.6026 1499.13C16.6484 1498.8 16.6943 1498.47 16.7403 1498.14ZM3464.26 1498.13C3464.31 1498.46 3464.35 1498.79 3464.4 1499.13L3454.49 1500.5C3454.45 1500.17 3454.4 1499.84 3454.36 1499.51L3464.26 1498.13ZM18.292 1487.25L28.1875 1488.69C28.1398 1489.02 28.0915 1489.35 28.044 1489.68L18.1485 1488.24C18.1963 1487.91 18.244 1487.58 18.292 1487.25ZM3462.71 1487.25C3462.76 1487.58 3462.8 1487.91 3462.85 1488.24L3452.96 1489.67C3452.91 1489.35 3452.86 1489.02 3452.81 1488.69L3462.71 1487.25ZM19.9112 1476.39L29.7969 1477.89C29.7471 1478.22 29.6971 1478.55 29.6475 1478.87L19.7608 1477.37C19.8106 1477.04 19.8611 1476.71 19.9112 1476.39ZM3461.09 1476.38C3461.14 1476.71 3461.19 1477.04 3461.24 1477.37L3451.35 1478.87C3451.3 1478.54 3451.25 1478.22 3451.2 1477.89L3461.09 1476.38ZM21.6094 1465.46L31.4863 1467.03C31.4341 1467.36 31.3812 1467.69 31.3291 1468.01L21.4522 1466.45C21.5045 1466.12 21.5569 1465.79 21.6094 1465.46ZM3459.39 1465.46C3459.44 1465.79 3459.5 1466.12 3459.55 1466.45L3449.67 1468.01C3449.62 1467.68 3449.57 1467.36 3449.51 1467.03L3459.39 1465.46ZM23.378 1454.55L33.2442 1456.18C33.1899 1456.51 33.1352 1456.84 33.0811 1457.16L23.2139 1455.54C23.2683 1455.21 23.3234 1454.88 23.378 1454.55ZM3457.62 1454.55C3457.68 1454.88 3457.73 1455.21 3457.79 1455.54L3447.92 1457.16C3447.86 1456.83 3447.81 1456.51 3447.76 1456.18L3457.62 1454.55ZM25.2129 1443.66L35.0684 1445.35C35.0121 1445.68 34.9565 1446.01 34.9004 1446.34L25.044 1444.65C25.1004 1444.32 25.1563 1443.99 25.2129 1443.66ZM3455.79 1443.66C3455.84 1443.99 3455.9 1444.32 3455.96 1444.65L3446.1 1446.33C3446.04 1446.01 3445.99 1445.68 3445.93 1445.35L3455.79 1443.66ZM27.1162 1432.79L36.96 1434.55C36.9017 1434.88 36.8443 1435.2 36.7862 1435.53L26.9405 1433.78C26.9989 1433.45 27.0576 1433.12 27.1162 1432.79ZM3453.88 1432.79C3453.94 1433.12 3454 1433.45 3454.06 1433.78L3444.21 1435.53C3444.16 1435.2 3444.1 1434.88 3444.04 1434.55L3453.88 1432.79ZM29.086 1421.95L38.919 1423.77C38.8586 1424.1 38.7984 1424.42 38.7383 1424.75L28.9043 1422.94C28.9648 1422.61 29.0253 1422.28 29.086 1421.95ZM3451.91 1421.95C3451.97 1422.28 3452.04 1422.61 3452.1 1422.93L3442.26 1424.75C3442.2 1424.42 3442.14 1424.09 3442.08 1423.77L3451.91 1421.95ZM31.1221 1411.13L40.9444 1413.01C40.882 1413.34 40.819 1413.66 40.7569 1413.99L30.9346 1412.11C30.9971 1411.79 31.0594 1411.46 31.1221 1411.13ZM3449.88 1411.13C3449.94 1411.46 3450 1411.79 3450.07 1412.11L3440.24 1413.99C3440.18 1413.66 3440.12 1413.34 3440.06 1413.01L3449.88 1411.13ZM33.2256 1400.34L43.0352 1402.28C42.9708 1402.6 42.906 1402.93 42.8418 1403.25L33.0322 1401.32C33.0968 1400.99 33.1609 1400.66 33.2256 1400.34ZM3447.77 1400.34C3447.84 1400.66 3447.9 1400.99 3447.97 1401.32L3438.16 1403.25C3438.09 1402.93 3438.03 1402.6 3437.96 1402.28L3447.77 1400.34ZM35.3955 1389.56L45.1924 1391.57C45.126 1391.89 45.0594 1392.22 44.9932 1392.54L35.1953 1390.54C35.262 1390.22 35.3287 1389.89 35.3955 1389.56ZM3445.6 1389.56C3445.67 1389.89 3445.74 1390.22 3445.8 1390.54L3436.01 1392.54C3435.94 1392.22 3435.87 1391.89 3435.81 1391.57L3445.6 1389.56ZM3443.35 1378.74C3443.42 1379.06 3443.49 1379.39 3443.56 1379.72L3433.77 1381.78C3433.71 1381.46 3433.64 1381.13 3433.57 1380.8L3443.35 1378.74ZM37.6485 1378.73L47.4326 1380.8C47.3638 1381.13 47.2943 1381.45 47.2256 1381.78L37.4414 1379.72C37.5105 1379.39 37.5792 1379.06 37.6485 1378.73ZM39.9688 1367.93L49.7393 1370.06C49.6684 1370.39 49.5971 1370.71 49.5264 1371.04L39.7549 1368.91C39.826 1368.59 39.8975 1368.26 39.9688 1367.93ZM3441.03 1367.93C3441.1 1368.26 3441.17 1368.59 3441.25 1368.91L3431.47 1371.04C3431.4 1370.71 3431.33 1370.39 3431.26 1370.06L3441.03 1367.93ZM3438.65 1357.15C3438.72 1357.48 3438.79 1357.81 3438.86 1358.13L3429.11 1360.32C3429.03 1360 3428.96 1359.67 3428.89 1359.35L3438.65 1357.15ZM42.3555 1357.15L52.1114 1359.35C52.0385 1359.67 51.9663 1360 51.8936 1360.32L42.1358 1358.13C42.2089 1357.81 42.2822 1357.48 42.3555 1357.15ZM3436.19 1346.4C3436.27 1346.73 3436.34 1347.05 3436.42 1347.38L3426.67 1349.63C3426.6 1349.3 3426.52 1348.98 3426.45 1348.66L3436.19 1346.4ZM44.8086 1346.4L54.5508 1348.66C54.4759 1348.98 54.4009 1349.3 54.3262 1349.63L44.5821 1347.38C44.6572 1347.05 44.7333 1346.73 44.8086 1346.4ZM3433.67 1335.67C3433.75 1336 3433.83 1336.32 3433.9 1336.65L3424.17 1338.96C3424.1 1338.64 3424.02 1338.31 3423.95 1337.99L3433.67 1335.67ZM47.3272 1335.67L57.0557 1337.99C56.9788 1338.31 56.9019 1338.64 56.8252 1338.96L47.0957 1336.65C47.1728 1336.32 47.2499 1336 47.3272 1335.67ZM3431.09 1324.97C3431.17 1325.3 3431.25 1325.62 3431.33 1325.94L3421.61 1328.32C3421.53 1328 3421.45 1327.67 3421.37 1327.35L3431.09 1324.97ZM49.9131 1324.97L59.626 1327.35C59.5471 1327.67 59.4683 1327.99 59.3897 1328.32L49.6748 1325.94C49.754 1325.62 49.8338 1325.29 49.9131 1324.97ZM3428.44 1314.3C3428.52 1314.62 3428.6 1314.94 3428.68 1315.26L3418.98 1317.7C3418.9 1317.38 3418.82 1317.06 3418.74 1316.74L3428.44 1314.3ZM52.5645 1314.29L62.2617 1316.74C62.1809 1317.06 62.1002 1317.38 62.0196 1317.7L52.3203 1315.26C52.4015 1314.94 52.4831 1314.62 52.5645 1314.29ZM3425.72 1303.63C3425.8 1303.96 3425.88 1304.28 3425.97 1304.61L3416.28 1307.1C3416.2 1306.78 3416.12 1306.46 3416.03 1306.14L3425.72 1303.63ZM55.2842 1303.63L64.9658 1306.13C64.8825 1306.46 64.799 1306.78 64.7158 1307.1L55.0332 1304.6C55.1168 1304.28 55.2004 1303.96 55.2842 1303.63ZM3422.92 1292.94C3423 1293.26 3423.09 1293.59 3423.17 1293.91L3413.51 1296.47C3413.42 1296.15 3413.34 1295.83 3413.25 1295.5L3422.92 1292.94ZM58.085 1292.94L67.751 1295.5C67.6657 1295.82 67.5803 1296.15 67.4951 1296.47L57.8281 1293.91C57.9138 1293.59 57.9991 1293.26 58.085 1292.94ZM3420.05 1282.27C3420.14 1282.6 3420.22 1282.92 3420.31 1283.24L3410.66 1285.86C3410.57 1285.54 3410.49 1285.22 3410.4 1284.9L3420.05 1282.27ZM60.9522 1282.27L70.6006 1284.9C70.5133 1285.22 70.426 1285.54 70.3389 1285.86L60.6885 1283.24C60.7762 1282.92 60.8643 1282.59 60.9522 1282.27ZM3417.12 1271.63C3417.21 1271.96 3417.3 1272.28 3417.39 1272.6L3407.75 1275.28C3407.66 1274.96 3407.57 1274.64 3407.48 1274.32L3417.12 1271.63ZM63.8838 1271.63L73.5166 1274.32C73.4273 1274.64 73.3372 1274.96 73.2481 1275.28L63.6153 1272.6C63.7049 1272.28 63.794 1271.95 63.8838 1271.63ZM3414.12 1261.02C3414.21 1261.34 3414.3 1261.67 3414.39 1261.99L3404.78 1264.73C3404.69 1264.41 3404.6 1264.09 3404.5 1263.77L3414.12 1261.02ZM66.8819 1261.02L76.4971 1263.77C76.4058 1264.09 76.3148 1264.41 76.2237 1264.73L66.6074 1261.98C66.6991 1261.66 66.79 1261.34 66.8819 1261.02ZM3411.06 1250.44C3411.15 1250.76 3411.24 1251.08 3411.34 1251.4L3401.74 1254.21C3401.65 1253.89 3401.55 1253.57 3401.46 1253.25L3411.06 1250.44ZM69.9453 1250.44L79.542 1253.25C79.4487 1253.56 79.3558 1253.88 79.2627 1254.2L69.6641 1251.4C69.7577 1251.08 69.8516 1250.76 69.9453 1250.44ZM3407.93 1239.88C3408.02 1240.2 3408.12 1240.52 3408.21 1240.84L3398.63 1243.71C3398.54 1243.39 3398.44 1243.07 3398.35 1242.75L3407.93 1239.88ZM73.0742 1239.88L82.6524 1242.75C82.5571 1243.07 82.4623 1243.39 82.3672 1243.7L72.7871 1240.84C72.8827 1240.52 72.9785 1240.2 73.0742 1239.88ZM3404.73 1229.35C3404.83 1229.67 3404.93 1229.99 3405.03 1230.31L3395.46 1233.24C3395.37 1232.92 3395.27 1232.6 3395.17 1232.29L3404.73 1229.35ZM76.2666 1229.35L85.8272 1232.28C85.73 1232.6 85.6331 1232.92 85.5362 1233.23L75.9737 1230.31C76.0712 1229.99 76.1689 1229.67 76.2666 1229.35ZM3401.47 1218.83C3401.57 1219.15 3401.67 1219.47 3401.77 1219.79L3392.23 1222.78C3392.13 1222.46 3392.03 1222.14 3391.93 1221.82L3401.47 1218.83ZM79.5322 1218.83L89.0733 1221.82C88.9736 1222.14 88.8739 1222.46 88.7744 1222.77L79.2315 1219.79C79.3316 1219.47 79.432 1219.15 79.5322 1218.83ZM3398.13 1208.3C3398.23 1208.62 3398.33 1208.94 3398.43 1209.26L3388.91 1212.3C3388.81 1211.99 3388.71 1211.67 3388.61 1211.35L3398.13 1208.3ZM82.8731 1208.3L92.3955 1211.35C92.2939 1211.67 92.1923 1211.98 92.0908 1212.3L82.5674 1209.25C82.6694 1208.93 82.7709 1208.61 82.8731 1208.3ZM3394.72 1197.8C3394.83 1198.12 3394.93 1198.43 3395.03 1198.75L3385.53 1201.86C3385.43 1201.55 3385.32 1201.23 3385.22 1200.91L3394.72 1197.8ZM86.2793 1197.79L95.7822 1200.91C95.6787 1201.23 95.575 1201.54 95.4717 1201.86L85.9668 1198.75C86.0708 1198.43 86.1751 1198.11 86.2793 1197.79ZM3391.25 1187.33C3391.36 1187.64 3391.46 1187.96 3391.57 1188.28L3382.08 1191.45C3381.98 1191.13 3381.87 1190.82 3381.77 1190.5L3391.25 1187.33ZM89.75 1187.32L99.2324 1190.5C99.127 1190.81 99.0214 1191.13 98.916 1191.44L89.4326 1188.27C89.5386 1187.96 89.6439 1187.64 89.75 1187.32ZM3387.72 1176.88C3387.82 1177.2 3387.93 1177.51 3388.04 1177.83L3378.58 1181.06C3378.47 1180.75 3378.36 1180.43 3378.25 1180.12L3387.72 1176.88ZM93.2852 1176.88L102.747 1180.12C102.64 1180.43 102.532 1180.74 102.425 1181.06L92.9619 1177.83C93.0698 1177.51 93.1771 1177.19 93.2852 1176.88ZM3384.12 1166.47C3384.23 1166.78 3384.34 1167.1 3384.45 1167.41L3375 1170.71C3374.89 1170.39 3374.79 1170.08 3374.68 1169.77L3384.12 1166.47ZM96.8848 1166.46L106.326 1169.76C106.217 1170.07 106.107 1170.39 105.998 1170.7L96.5547 1167.41C96.6646 1167.1 96.7748 1166.78 96.8848 1166.46ZM3380.45 1156.08C3380.57 1156.4 3380.68 1156.71 3380.79 1157.03L3371.37 1160.38C3371.26 1160.07 3371.14 1159.75 3371.03 1159.44L3380.45 1156.08ZM100.548 1156.08L109.968 1159.44C109.856 1159.75 109.745 1160.06 109.634 1160.38L100.213 1157.02C100.325 1156.71 100.436 1156.4 100.548 1156.08ZM3376.73 1145.73C3376.84 1146.05 3376.95 1146.36 3377.07 1146.67L3367.67 1150.08C3367.55 1149.77 3367.44 1149.46 3367.33 1149.15L3376.73 1145.73ZM104.275 1145.73L113.674 1149.15C113.561 1149.46 113.447 1149.77 113.334 1150.08L103.934 1146.67C104.047 1146.35 104.162 1146.04 104.275 1145.73ZM3372.92 1135.38C3373.04 1135.69 3373.16 1136 3373.27 1136.32L3363.89 1139.79C3363.78 1139.48 3363.66 1139.17 3363.55 1138.85L3372.92 1135.38ZM108.078 1135.37L117.454 1138.85C117.338 1139.16 117.222 1139.47 117.106 1139.79L107.729 1136.31C107.845 1136 107.962 1135.69 108.078 1135.37ZM3369.05 1125.04C3369.17 1125.35 3369.29 1125.66 3369.41 1125.97L3360.05 1129.51C3359.93 1129.19 3359.81 1128.88 3359.7 1128.57L3369.05 1125.04ZM111.95 1125.03L121.305 1128.57C121.187 1128.88 121.069 1129.19 120.951 1129.5L111.596 1125.97C111.714 1125.66 111.832 1125.34 111.95 1125.03ZM3365.11 1114.72C3365.23 1115.04 3365.36 1115.35 3365.48 1115.66L3356.14 1119.25C3356.02 1118.94 3355.9 1118.63 3355.78 1118.32L3365.11 1114.72ZM115.887 1114.72L125.218 1118.32C125.098 1118.63 124.979 1118.94 124.859 1119.25L115.526 1115.66C115.646 1115.34 115.767 1115.03 115.887 1114.72ZM3361.12 1104.45C3361.24 1104.76 3361.36 1105.07 3361.48 1105.38L3352.17 1109.03C3352.05 1108.72 3351.93 1108.41 3351.81 1108.1L3361.12 1104.45ZM119.887 1104.44L129.194 1108.1C129.073 1108.41 128.951 1108.72 128.83 1109.02L119.521 1105.37C119.642 1105.06 119.765 1104.75 119.887 1104.44ZM3357.05 1094.2C3357.18 1094.51 3357.3 1094.82 3357.42 1095.13L3348.14 1098.84C3348.01 1098.53 3347.89 1098.22 3347.77 1097.91L3357.05 1094.2ZM123.949 1094.19L133.233 1097.91C133.11 1098.22 132.987 1098.53 132.864 1098.83L123.577 1095.12C123.701 1094.81 123.825 1094.5 123.949 1094.19ZM3352.93 1083.98C3353.05 1084.29 3353.18 1084.6 3353.3 1084.91L3344.04 1088.68C3343.92 1088.37 3343.79 1088.06 3343.67 1087.76L3352.93 1083.98ZM128.075 1083.98L137.336 1087.75C137.211 1088.06 137.085 1088.37 136.96 1088.67L127.697 1084.91C127.823 1084.6 127.949 1084.29 128.075 1083.98ZM3348.74 1073.8C3348.87 1074.11 3348.99 1074.42 3349.12 1074.72L3339.88 1078.55C3339.76 1078.24 3339.63 1077.94 3339.5 1077.63L3348.74 1073.8ZM132.264 1073.79L141.5 1077.63C141.373 1077.93 141.246 1078.24 141.119 1078.55L131.88 1074.72C132.008 1074.41 132.136 1074.1 132.264 1073.79ZM3344.49 1063.65C3344.62 1063.95 3344.75 1064.26 3344.88 1064.57L3335.66 1068.46C3335.53 1068.15 3335.4 1067.85 3335.28 1067.54L3344.49 1063.65ZM136.515 1063.64L145.726 1067.54C145.597 1067.84 145.468 1068.15 145.339 1068.45L136.125 1064.57C136.255 1064.26 136.385 1063.95 136.515 1063.64ZM3340.16 1053.49C3340.29 1053.8 3340.42 1054.1 3340.55 1054.41L3331.37 1058.36C3331.23 1058.05 3331.1 1057.75 3330.97 1057.44L3340.16 1053.49ZM140.845 1053.49L150.031 1057.44C149.9 1057.74 149.768 1058.05 149.637 1058.35L140.448 1054.41C140.58 1054.1 140.713 1053.79 140.845 1053.49ZM3335.76 1043.36C3335.9 1043.67 3336.03 1043.98 3336.17 1044.28L3327 1048.29C3326.87 1047.98 3326.74 1047.68 3326.6 1047.37L3335.76 1043.36ZM145.237 1043.36L154.398 1047.37C154.265 1047.67 154.132 1047.98 153.999 1048.28L144.836 1044.28C144.97 1043.97 145.103 1043.67 145.237 1043.36ZM3331.31 1033.27C3331.44 1033.57 3331.58 1033.88 3331.72 1034.19L3322.58 1038.25C3322.44 1037.94 3322.31 1037.64 3322.17 1037.34L3331.31 1033.27ZM149.693 1033.27L158.828 1037.33C158.693 1037.64 158.558 1037.94 158.423 1038.24L149.285 1034.18C149.421 1033.88 149.557 1033.57 149.693 1033.27ZM3326.79 1023.21C3326.93 1023.51 3327.07 1023.82 3327.2 1024.12L3318.09 1028.24C3317.96 1027.94 3317.82 1027.64 3317.68 1027.33L3326.79 1023.21ZM154.211 1023.21L163.32 1027.33C163.183 1027.63 163.046 1027.94 162.909 1028.24L153.798 1024.12C153.936 1023.81 154.073 1023.51 154.211 1023.21ZM3322.21 1013.18C3322.35 1013.49 3322.49 1013.79 3322.63 1014.09L3313.54 1018.27C3313.41 1017.97 3313.27 1017.67 3313.13 1017.37L3322.21 1013.18ZM158.79 1013.18L167.873 1017.36C167.734 1017.66 167.595 1017.97 167.456 1018.27L158.371 1014.09C158.511 1013.79 158.65 1013.48 158.79 1013.18ZM3317.57 1003.19C3317.71 1003.49 3317.85 1003.8 3318 1004.1L3308.94 1008.33C3308.8 1008.03 3308.66 1007.73 3308.51 1007.43L3317.57 1003.19ZM163.431 1003.19L172.486 1007.43C172.346 1007.73 172.205 1008.03 172.064 1008.33L163.006 1004.09C163.147 1003.79 163.289 1003.49 163.431 1003.19ZM3312.87 993.234C3313.01 993.535 3313.16 993.837 3313.3 994.138L3304.27 998.432C3304.13 998.132 3303.98 997.833 3303.84 997.533L3312.87 993.234ZM168.133 993.23L177.161 997.529C177.019 997.829 176.877 998.128 176.734 998.428L167.702 994.135C167.845 993.833 167.989 993.532 168.133 993.23ZM3308.1 983.303C3308.25 983.604 3308.39 983.905 3308.54 984.206L3299.54 988.557C3299.39 988.257 3299.25 987.958 3299.1 987.658L3308.1 983.303ZM172.899 983.299L181.901 987.655C181.756 987.955 181.612 988.254 181.467 988.554L172.463 984.203C172.608 983.902 172.754 983.6 172.899 983.299ZM3303.26 973.38C3303.41 973.68 3303.56 973.98 3303.7 974.28L3294.73 978.688C3294.58 978.39 3294.43 978.091 3294.29 977.793L3303.26 973.38ZM177.74 973.377L186.714 977.79C186.567 978.088 186.42 978.387 186.273 978.686L177.298 974.277C177.445 973.977 177.593 973.677 177.74 973.377ZM3298.36 963.493C3298.51 963.792 3298.66 964.092 3298.81 964.391L3289.86 968.855C3289.71 968.558 3289.56 968.261 3289.42 967.964L3298.36 963.493ZM182.642 963.49L191.587 967.961C191.438 968.258 191.29 968.555 191.142 968.853L182.193 964.388C182.343 964.089 182.492 963.789 182.642 963.49ZM3293.4 953.642C3293.55 953.94 3293.7 954.238 3293.85 954.536L3284.93 959.059C3284.78 958.762 3284.63 958.465 3284.48 958.169L3293.4 953.642ZM187.604 953.64L196.521 958.166C196.37 958.462 196.22 958.758 196.069 959.055L187.15 954.533C187.301 954.235 187.452 953.937 187.604 953.64ZM3288.38 943.827C3288.53 944.124 3288.68 944.421 3288.83 944.718L3279.94 949.296C3279.79 949.001 3279.64 948.705 3279.49 948.41L3288.38 943.827ZM192.626 943.824L201.514 948.407C201.361 948.702 201.21 948.998 201.058 949.293L192.167 944.715C192.32 944.418 192.473 944.121 192.626 943.824ZM3283.29 934.048C3283.45 934.343 3283.6 934.639 3283.76 934.935L3274.9 939.57C3274.74 939.276 3274.59 938.982 3274.43 938.688L3283.29 934.048ZM197.709 934.045L206.567 938.685C206.413 938.979 206.259 939.273 206.105 939.567L197.244 934.933C197.399 934.637 197.554 934.341 197.709 934.045ZM3278.15 924.305C3278.31 924.599 3278.46 924.894 3278.62 925.188L3269.79 929.88C3269.63 929.587 3269.48 929.294 3269.32 929.001L3278.15 924.305ZM202.852 924.302L211.681 928.998C211.525 929.291 211.369 929.584 211.213 929.877L202.382 925.187C202.538 924.892 202.695 924.596 202.852 924.302ZM3272.95 914.599C3273.11 914.892 3273.26 915.186 3273.42 915.479L3264.62 920.227C3264.46 919.935 3264.31 919.642 3264.15 919.351L3272.95 914.599ZM208.055 914.596L216.854 919.348C216.696 919.64 216.537 919.932 216.38 920.224L207.579 915.477C207.737 915.183 207.896 914.889 208.055 914.596ZM3267.68 904.912C3267.84 905.205 3268 905.499 3268.16 905.792L3259.39 910.595C3259.23 910.303 3259.07 910.011 3258.91 909.72L3267.68 904.912ZM213.325 904.909L222.094 909.718C221.934 910.009 221.774 910.3 221.614 910.592L212.843 905.79C213.003 905.497 213.164 905.202 213.325 904.909ZM3262.34 895.252C3262.5 895.544 3262.66 895.837 3262.83 896.129L3254.09 900.987C3253.93 900.697 3253.76 900.406 3253.6 900.115L3262.34 895.252ZM218.662 895.25L227.399 900.113C227.238 900.404 227.076 900.694 226.915 900.984L218.175 896.126C218.337 895.834 218.5 895.542 218.662 895.25ZM3256.94 885.63C3257.11 885.921 3257.27 886.212 3257.44 886.503L3248.73 891.417C3248.56 891.128 3248.4 890.838 3248.24 890.549L3256.94 885.63ZM224.058 885.628L232.765 890.547C232.601 890.836 232.438 891.126 232.274 891.415L223.564 886.501C223.729 886.21 223.893 885.919 224.058 885.628ZM3251.49 876.045C3251.65 876.335 3251.82 876.625 3251.99 876.915L3243.31 881.884C3243.14 881.596 3242.98 881.308 3242.81 881.02L3251.49 876.045ZM229.513 876.043L238.188 881.018C238.022 881.306 237.857 881.594 237.692 881.882L229.015 876.913C229.181 876.623 229.347 876.333 229.513 876.043ZM3245.97 866.499C3246.14 866.788 3246.31 867.076 3246.48 867.365L3237.83 872.389C3237.67 872.102 3237.5 871.814 3237.33 871.527L3245.97 866.499ZM235.026 866.497L243.67 871.525C243.503 871.812 243.336 872.1 243.169 872.387L234.522 867.363C234.69 867.074 234.858 866.786 235.026 866.497ZM3240.4 856.991C3240.57 857.279 3240.74 857.566 3240.91 857.854L3232.3 862.932C3232.13 862.646 3231.96 862.36 3231.79 862.074L3240.4 856.991ZM240.599 856.989L249.21 862.072C249.041 862.358 248.873 862.645 248.704 862.931L240.089 857.852C240.258 857.564 240.429 857.277 240.599 856.989ZM3234.77 847.521C3234.94 847.808 3235.11 848.094 3235.29 848.38L3226.7 853.514C3226.53 853.229 3226.36 852.944 3226.19 852.659L3234.77 847.521ZM246.229 847.52L254.808 852.657C254.637 852.942 254.467 853.227 254.297 853.512L245.715 848.379C245.886 848.092 246.057 847.806 246.229 847.52ZM3229.08 838.09C3229.26 838.375 3229.43 838.661 3229.6 838.946L3221.05 844.133C3220.88 843.849 3220.71 843.566 3220.54 843.282L3229.08 838.09ZM251.917 838.089L260.464 843.281C260.292 843.565 260.119 843.848 259.947 844.132L251.397 838.944C251.571 838.659 251.744 838.374 251.917 838.089ZM3223.32 828.677C3223.5 828.961 3223.67 829.247 3223.85 829.531L3215.33 834.772C3215.16 834.489 3214.98 834.206 3214.81 833.923L3223.32 828.677ZM257.677 828.676L266.19 833.922C266.016 834.205 265.841 834.488 265.667 834.771L257.151 829.529C257.327 829.245 257.502 828.96 257.677 828.676ZM3217.51 819.303C3217.68 819.586 3217.86 819.87 3218.04 820.153L3209.55 825.449C3209.38 825.167 3209.2 824.885 3209.03 824.604L3217.51 819.303ZM263.494 819.302L271.975 824.602C271.799 824.883 271.622 825.165 271.446 825.447L262.963 820.152C263.14 819.869 263.317 819.585 263.494 819.302ZM3211.63 809.969C3211.81 810.251 3211.99 810.533 3212.17 810.815L3203.72 816.164C3203.54 815.883 3203.36 815.603 3203.18 815.322L3211.63 809.969ZM269.369 809.968L277.815 815.321C277.638 815.602 277.46 815.882 277.282 816.163L268.833 810.814C269.012 810.532 269.19 810.25 269.369 809.968ZM3205.7 800.675C3205.88 800.956 3206.06 801.237 3206.24 801.518L3197.83 806.92C3197.65 806.64 3197.47 806.361 3197.29 806.081L3205.7 800.675ZM275.302 800.673L283.714 806.08C283.534 806.359 283.355 806.639 283.176 806.919L274.761 801.517C274.941 801.236 275.121 800.954 275.302 800.673ZM3199.71 791.42C3199.89 791.7 3200.07 791.98 3200.26 792.26L3191.88 797.715C3191.69 797.437 3191.51 797.158 3191.33 796.88L3199.71 791.42ZM281.292 791.419L289.67 796.879C289.489 797.157 289.307 797.436 289.126 797.714L280.745 792.259C280.927 791.979 281.11 791.699 281.292 791.419ZM3193.66 782.207C3193.85 782.486 3194.03 782.764 3194.21 783.043L3185.87 788.551C3185.69 788.274 3185.5 787.997 3185.32 787.72L3193.66 782.207ZM287.338 782.206L295.681 787.719C295.498 787.996 295.315 788.273 295.132 788.55L286.786 783.042C286.97 782.763 287.154 782.485 287.338 782.206ZM3187.56 773.033C3187.75 773.311 3187.93 773.589 3188.12 773.866L3179.81 779.427C3179.62 779.151 3179.44 778.875 3179.25 778.6L3187.56 773.033ZM293.441 773.033L301.749 778.599C301.564 778.874 301.38 779.15 301.195 779.426L292.884 773.865C293.069 773.588 293.256 773.31 293.441 773.033ZM3181.4 763.896C3181.58 764.172 3181.77 764.449 3181.96 764.726L3173.68 770.339C3173.5 770.064 3173.31 769.789 3173.12 769.514L3181.4 763.896ZM299.605 763.895L307.878 769.513C307.691 769.788 307.504 770.063 307.317 770.338L299.041 764.725C299.229 764.448 299.417 764.171 299.605 763.895ZM3175.17 754.788C3175.36 755.063 3175.55 755.339 3175.74 755.614L3167.5 761.28C3167.31 761.006 3167.12 760.732 3166.93 760.458L3175.17 754.788ZM305.831 754.787L314.068 760.458C313.88 760.732 313.691 761.006 313.503 761.279L305.263 755.613C305.452 755.338 305.642 755.062 305.831 754.787ZM3168.89 745.723C3169.08 745.997 3169.27 746.271 3169.46 746.545L3161.26 752.263C3161.07 751.99 3160.88 751.718 3160.69 751.445L3168.89 745.723ZM312.114 745.722L320.315 751.444C320.125 751.717 319.935 751.989 319.745 752.262L311.541 746.544C311.732 746.27 311.923 745.996 312.114 745.722ZM3162.55 736.699C3162.74 736.972 3162.93 737.245 3163.13 737.518L3154.96 743.287C3154.77 743.016 3154.57 742.744 3154.38 742.473L3162.55 736.699ZM318.453 736.698L326.617 742.472C326.425 742.743 326.234 743.015 326.042 743.286L317.874 737.517C318.067 737.244 318.26 736.971 318.453 736.698ZM324.847 727.717L332.975 733.542C332.781 733.812 332.588 734.083 332.395 734.353L324.264 728.531C324.458 728.26 324.652 727.988 324.847 727.717ZM3156.15 727.718C3156.35 727.989 3156.54 728.261 3156.74 728.532L3148.61 734.353C3148.41 734.083 3148.22 733.813 3148.03 733.543L3156.15 727.718ZM3149.7 718.778C3149.9 719.049 3150.1 719.319 3150.29 719.589L3142.2 725.461C3142 725.192 3141.81 724.923 3141.61 724.654L3149.7 718.778ZM331.296 718.777L339.388 724.654C339.193 724.923 338.998 725.191 338.803 725.46L330.708 719.589C330.904 719.319 331.1 719.048 331.296 718.777ZM3143.2 709.882C3143.4 710.151 3143.6 710.42 3143.79 710.688L3135.74 716.611C3135.54 716.344 3135.34 716.077 3135.15 715.81L3143.2 709.882ZM337.801 709.881L345.855 715.809C345.658 716.076 345.461 716.343 345.265 716.61L337.207 710.688C337.405 710.418 337.603 710.15 337.801 709.881ZM3136.64 701.028C3136.84 701.296 3137.04 701.563 3137.24 701.831L3129.22 707.805C3129.02 707.538 3128.82 707.272 3128.62 707.006L3136.64 701.028ZM344.36 701.027L352.377 707.005C352.179 707.271 351.98 707.537 351.781 707.804L343.762 701.83C343.961 701.562 344.161 701.295 344.36 701.027ZM3130.02 692.208C3130.22 692.475 3130.42 692.742 3130.62 693.009L3122.64 699.032C3122.44 698.767 3122.24 698.502 3122.04 698.236L3130.02 692.208ZM350.98 692.207L358.959 698.236C358.759 698.501 358.558 698.766 358.358 699.031L350.377 693.008C350.578 692.741 350.779 692.474 350.98 692.207ZM3123.34 683.429C3123.55 683.694 3123.75 683.96 3123.95 684.226L3116.01 690.3C3115.81 690.036 3115.6 689.772 3115.4 689.508L3123.34 683.429ZM357.658 683.429L365.598 689.508C365.396 689.771 365.194 690.035 364.992 690.299L357.049 684.225C357.252 683.959 357.455 683.694 357.658 683.429ZM364.389 674.693L372.291 680.822C372.087 681.085 371.883 681.348 371.68 681.61L363.774 675.485C363.979 675.221 364.184 674.957 364.389 674.693ZM3116.61 674.694C3116.82 674.958 3117.02 675.222 3117.23 675.486L3109.32 681.61C3109.12 681.348 3108.91 681.086 3108.71 680.823L3116.61 674.694ZM371.174 666.002L379.037 672.181C378.832 672.442 378.627 672.704 378.422 672.965L370.555 666.79C370.761 666.527 370.967 666.265 371.174 666.002ZM3109.83 666.003C3110.03 666.266 3110.24 666.528 3110.45 666.791L3102.58 672.965C3102.37 672.704 3102.17 672.443 3101.96 672.182L3109.83 666.003ZM3102.99 657.356C3103.2 657.618 3103.4 657.879 3103.61 658.141L3095.78 664.364C3095.58 664.104 3095.37 663.844 3095.16 663.584L3102.99 657.356ZM378.013 657.355L385.837 663.583C385.63 663.843 385.424 664.103 385.217 664.363L377.389 658.14C377.597 657.878 377.805 657.617 378.013 657.355ZM3096.1 648.753C3096.31 649.013 3096.51 649.273 3096.72 649.533L3088.94 655.807C3088.73 655.548 3088.52 655.289 3088.31 655.03L3096.1 648.753ZM384.905 648.753L392.689 655.03C392.481 655.289 392.273 655.547 392.064 655.806L384.276 649.533C384.486 649.273 384.696 649.013 384.905 648.753ZM391.851 640.194L399.596 646.521C399.386 646.778 399.176 647.036 398.966 647.293L391.217 640.971C391.428 640.712 391.639 640.453 391.851 640.194ZM3089.15 640.195C3089.36 640.454 3089.57 640.713 3089.78 640.972L3082.04 647.293C3081.83 647.036 3081.62 646.779 3081.41 646.521L3089.15 640.195ZM3082.15 631.682C3082.36 631.939 3082.58 632.197 3082.79 632.454L3075.08 638.824C3074.87 638.568 3074.66 638.312 3074.45 638.056L3082.15 631.682ZM398.851 631.681L406.555 638.056C406.343 638.311 406.131 638.567 405.92 638.823L398.212 632.453C398.425 632.196 398.638 631.938 398.851 631.681ZM3075.09 623.206C3075.31 623.462 3075.52 623.718 3075.74 623.975L3068.07 630.394C3067.86 630.139 3067.64 629.884 3067.43 629.63L3075.09 623.206ZM405.907 623.206L413.572 629.629C413.359 629.884 413.145 630.138 412.932 630.393L405.264 623.975C405.478 623.719 405.693 623.462 405.907 623.206ZM3067.98 614.777C3068.2 615.032 3068.42 615.286 3068.63 615.541L3061 622.009C3060.79 621.755 3060.57 621.501 3060.36 621.248L3067.98 614.777ZM413.018 614.776L420.641 621.247C420.426 621.5 420.211 621.754 419.996 622.008L412.369 615.541C412.585 615.286 412.801 615.031 413.018 614.776ZM3060.82 606.394C3061.04 606.647 3061.26 606.9 3061.47 607.153L3053.89 613.669C3053.67 613.417 3053.45 613.164 3053.24 612.912L3060.82 606.394ZM420.18 606.393L427.762 612.912C427.545 613.164 427.329 613.416 427.112 613.668L419.526 607.152C419.744 606.899 419.962 606.646 420.18 606.393ZM427.394 598.055L434.935 604.622C434.717 604.872 434.499 605.123 434.281 605.374L426.735 598.811C426.955 598.559 427.174 598.307 427.394 598.055ZM3053.61 598.056C3053.83 598.308 3054.05 598.559 3054.27 598.812L3046.72 605.374C3046.5 605.124 3046.28 604.873 3046.07 604.623L3053.61 598.056ZM434.659 589.764L442.159 596.378C441.94 596.627 441.72 596.877 441.5 597.126L433.996 590.516C434.217 590.265 434.438 590.014 434.659 589.764ZM3046.34 589.765C3046.56 590.015 3046.78 590.266 3047 590.517L3039.5 597.126C3039.28 596.877 3039.06 596.628 3038.84 596.379L3046.34 589.765ZM3039.02 581.52C3039.25 581.769 3039.47 582.018 3039.69 582.268L3032.23 588.925C3032.01 588.677 3031.79 588.428 3031.57 588.181L3039.02 581.52ZM441.977 581.519L449.435 588.181C449.213 588.428 448.993 588.676 448.772 588.924L441.31 582.267C441.532 582.017 441.754 581.768 441.977 581.519ZM449.346 573.321L456.762 580.029C456.539 580.276 456.316 580.522 456.094 580.769L448.673 574.064C448.897 573.817 449.122 573.569 449.346 573.321ZM3031.66 573.321C3031.88 573.569 3032.1 573.818 3032.33 574.065L3024.91 580.769C3024.68 580.522 3024.46 580.276 3024.24 580.029L3031.66 573.321ZM456.767 565.168L464.141 571.923C463.916 572.168 463.692 572.413 463.468 572.658L456.09 565.907C456.315 565.661 456.541 565.414 456.767 565.168ZM3024.23 565.169C3024.46 565.415 3024.69 565.662 3024.91 565.908L3017.53 572.658C3017.31 572.413 3017.08 572.168 3016.86 571.923L3024.23 565.169ZM3016.76 557.062C3016.99 557.306 3017.21 557.552 3017.44 557.797L3010.11 564.594C3009.88 564.35 3009.65 564.106 3009.43 563.862L3016.76 557.062ZM464.24 557.061L471.571 563.861C471.345 564.105 471.119 564.349 470.894 564.593L463.559 557.796C463.786 557.551 464.013 557.305 464.24 557.061ZM471.765 549.001L479.053 555.849C478.825 556.091 478.598 556.333 478.371 556.575L471.078 549.731C471.307 549.488 471.536 549.244 471.765 549.001ZM3009.24 549.002C3009.46 549.245 3009.69 549.489 3009.92 549.732L3002.63 556.575C3002.4 556.333 3002.18 556.091 3001.95 555.849L3009.24 549.002ZM3001.66 540.99C3001.89 541.232 3002.12 541.475 3002.35 541.717L2995.1 548.605C2994.87 548.365 2994.65 548.123 2994.42 547.883L3001.66 540.99ZM479.339 540.989L486.584 547.882C486.355 548.122 486.126 548.364 485.897 548.604L478.648 541.716C478.879 541.474 479.109 541.231 479.339 540.989ZM2994.04 533.026C2994.27 533.267 2994.5 533.507 2994.73 533.748L2987.53 540.683C2987.3 540.443 2987.07 540.204 2986.84 539.965L2994.04 533.026ZM486.964 533.025L494.165 539.964C493.935 540.203 493.704 540.442 493.474 540.682L486.269 533.748C486.5 533.507 486.732 533.266 486.964 533.025ZM2986.36 525.111C2986.6 525.35 2986.83 525.59 2987.06 525.829L2979.9 532.809C2979.67 532.571 2979.44 532.332 2979.21 532.095L2986.36 525.111ZM494.639 525.11L501.796 532.094C501.564 532.332 501.331 532.57 501.1 532.808L493.939 525.828C494.172 525.589 494.405 525.349 494.639 525.11ZM2978.64 517.244C2978.87 517.482 2979.11 517.72 2979.34 517.958L2972.23 524.982C2971.99 524.746 2971.76 524.51 2971.53 524.273L2978.64 517.244ZM502.362 517.244L509.476 524.272C509.242 524.509 509.009 524.745 508.775 524.981L501.658 517.957C501.893 517.719 502.128 517.482 502.362 517.244ZM510.136 509.426L517.204 516.499C516.969 516.734 516.735 516.969 516.5 517.204L509.427 510.135C509.663 509.898 509.899 509.662 510.136 509.426ZM2970.87 509.427C2971.1 509.663 2971.34 509.899 2971.57 510.136L2964.5 517.204C2964.27 516.969 2964.03 516.735 2963.8 516.5L2970.87 509.427ZM2963.04 501.658C2963.28 501.893 2963.52 502.128 2963.76 502.362L2956.73 509.476C2956.49 509.242 2956.25 509.009 2956.02 508.775L2963.04 501.658ZM517.958 501.657L524.982 508.774C524.746 509.008 524.51 509.241 524.273 509.475L517.244 502.361C517.482 502.127 517.72 501.892 517.958 501.657ZM2955.17 493.938C2955.41 494.172 2955.65 494.404 2955.89 494.638L2948.91 501.796C2948.67 501.564 2948.43 501.331 2948.19 501.1L2955.17 493.938ZM525.829 493.938L532.809 501.1C532.571 501.331 532.332 501.563 532.095 501.795L525.111 494.638C525.35 494.404 525.59 494.171 525.829 493.938ZM2947.25 486.269C2947.49 486.5 2947.73 486.732 2947.97 486.964L2941.04 494.165C2940.8 493.935 2940.56 493.704 2940.32 493.474L2947.25 486.269ZM533.749 486.268L540.683 493.473C540.443 493.703 540.204 493.934 539.965 494.164L533.026 486.963C533.267 486.731 533.508 486.499 533.749 486.268ZM2939.28 478.648C2939.53 478.879 2939.77 479.109 2940.01 479.339L2933.12 486.584C2932.88 486.355 2932.64 486.126 2932.4 485.897L2939.28 478.648ZM541.717 478.647L548.605 485.896C548.365 486.125 548.123 486.354 547.883 486.583L540.99 479.339C541.232 479.109 541.475 478.878 541.717 478.647ZM2931.27 471.078C2931.51 471.307 2931.76 471.536 2932 471.765L2925.15 479.053C2924.91 478.825 2924.67 478.597 2924.42 478.37L2931.27 471.078ZM549.732 471.078L556.575 478.37C556.333 478.597 556.091 478.824 555.849 479.052L549.002 471.764C549.245 471.535 549.489 471.307 549.732 471.078ZM557.797 463.559L564.594 470.894C564.35 471.119 564.106 471.345 563.862 471.571L557.062 464.24C557.306 464.013 557.552 463.786 557.797 463.559ZM2923.2 463.559C2923.45 463.786 2923.69 464.013 2923.94 464.24L2917.14 471.571C2916.9 471.345 2916.65 471.119 2916.41 470.894L2923.2 463.559ZM2915.09 456.09C2915.34 456.315 2915.59 456.541 2915.83 456.767L2909.08 464.141C2908.83 463.916 2908.59 463.692 2908.34 463.468L2915.09 456.09ZM565.908 456.089L572.658 463.467C572.413 463.691 572.169 463.915 571.924 464.14L565.169 456.767C565.415 456.541 565.662 456.314 565.908 456.089ZM2906.94 448.673C2907.18 448.897 2907.43 449.121 2907.68 449.345L2900.97 456.762C2900.72 456.539 2900.48 456.315 2900.23 456.093L2906.94 448.673ZM574.065 448.673L580.769 456.093C580.522 456.315 580.276 456.538 580.03 456.761L573.321 449.345C573.569 449.121 573.818 448.897 574.065 448.673ZM582.268 441.309L588.925 448.771C588.677 448.992 588.428 449.213 588.181 449.435L581.52 441.976C581.769 441.753 582.018 441.531 582.268 441.309ZM2898.73 441.31C2898.98 441.532 2899.23 441.754 2899.48 441.977L2892.82 449.435C2892.57 449.213 2892.32 448.992 2892.08 448.771L2898.73 441.31ZM2890.48 433.996C2890.74 434.217 2890.99 434.438 2891.24 434.659L2884.62 442.159C2884.37 441.939 2884.12 441.72 2883.87 441.5L2890.48 433.996ZM590.517 433.996L597.126 441.5C596.877 441.719 596.628 441.939 596.379 442.158L589.765 434.658C590.015 434.437 590.266 434.217 590.517 433.996ZM598.812 426.734L605.374 434.28C605.124 434.498 604.873 434.717 604.623 434.935L598.056 427.393C598.308 427.173 598.559 426.954 598.812 426.734ZM2882.19 426.735C2882.44 426.955 2882.69 427.174 2882.95 427.394L2876.38 434.935C2876.13 434.716 2875.88 434.498 2875.63 434.28L2882.19 426.735ZM607.153 419.525L613.669 427.112C613.417 427.329 613.165 427.545 612.913 427.762L606.394 420.179C606.647 419.961 606.9 419.743 607.153 419.525ZM2873.85 419.526C2874.1 419.744 2874.35 419.962 2874.61 420.18L2868.09 427.762C2867.84 427.545 2867.58 427.329 2867.33 427.112L2873.85 419.526ZM615.541 412.368L622.009 419.995C621.755 420.21 621.501 420.426 621.248 420.641L614.777 413.017C615.032 412.8 615.286 412.584 615.541 412.368ZM2865.46 412.369C2865.71 412.585 2865.97 412.801 2866.22 413.018L2859.75 420.641C2859.5 420.426 2859.25 420.211 2858.99 419.996L2865.46 412.369ZM2857.03 405.264C2857.28 405.478 2857.54 405.693 2857.79 405.907L2851.37 413.572C2851.12 413.359 2850.86 413.145 2850.61 412.932L2857.03 405.264ZM623.975 405.264L630.394 412.932C630.139 413.145 629.884 413.358 629.63 413.571L623.206 405.907C623.462 405.693 623.718 405.478 623.975 405.264ZM632.454 398.211L638.824 405.919C638.568 406.131 638.312 406.343 638.056 406.555L631.682 398.85C631.939 398.637 632.197 398.424 632.454 398.211ZM2848.55 398.211C2848.8 398.424 2849.06 398.638 2849.32 398.851L2842.94 406.555C2842.69 406.343 2842.43 406.131 2842.18 405.92L2848.55 398.211ZM2840.03 391.217C2840.29 391.428 2840.55 391.639 2840.8 391.851L2834.48 399.596C2834.22 399.386 2833.96 399.176 2833.71 398.966L2840.03 391.217ZM640.972 391.217L647.294 398.965C647.037 399.175 646.779 399.385 646.521 399.595L640.195 391.851C640.454 391.639 640.713 391.428 640.972 391.217ZM649.534 384.275L655.807 392.063C655.548 392.272 655.289 392.481 655.03 392.689L648.754 384.904C649.014 384.695 649.274 384.485 649.534 384.275ZM2831.47 384.276C2831.73 384.486 2831.99 384.696 2832.25 384.905L2825.97 392.689C2825.71 392.481 2825.45 392.273 2825.19 392.064L2831.47 384.276ZM2822.86 377.389C2823.12 377.597 2823.38 377.805 2823.64 378.013L2817.42 385.837C2817.16 385.63 2816.9 385.424 2816.64 385.217L2822.86 377.389ZM658.141 377.389L664.364 385.216C664.104 385.423 663.844 385.629 663.584 385.836L657.356 378.013C657.618 377.805 657.879 377.597 658.141 377.389ZM2814.21 370.555C2814.47 370.761 2814.74 370.967 2815 371.174L2808.82 379.037C2808.56 378.832 2808.3 378.627 2808.04 378.422L2814.21 370.555ZM666.791 370.555L672.965 378.421C672.704 378.626 672.443 378.831 672.182 379.036L666.003 371.174C666.266 370.967 666.528 370.761 666.791 370.555ZM2805.51 363.774C2805.78 363.979 2806.04 364.184 2806.31 364.389L2800.18 372.291C2799.92 372.087 2799.65 371.883 2799.39 371.68L2805.51 363.774ZM675.486 363.774L681.61 371.68C681.348 371.883 681.086 372.087 680.823 372.29L674.694 364.389C674.958 364.184 675.222 363.979 675.486 363.774ZM684.226 357.048L690.3 364.991C690.036 365.193 689.772 365.396 689.508 365.598L683.43 357.657C683.695 357.454 683.96 357.251 684.226 357.048ZM2796.78 357.049C2797.04 357.252 2797.31 357.455 2797.57 357.658L2791.49 365.598C2791.23 365.396 2790.96 365.194 2790.7 364.992L2796.78 357.049ZM693.009 350.376L699.032 358.357C698.767 358.558 698.502 358.759 698.236 358.959L692.208 350.98C692.475 350.779 692.742 350.577 693.009 350.376ZM2787.99 350.377C2788.26 350.578 2788.53 350.779 2788.79 350.98L2782.76 358.959C2782.5 358.759 2782.23 358.558 2781.97 358.358L2787.99 350.377ZM701.831 343.761L707.805 351.78C707.538 351.979 707.272 352.178 707.006 352.376L701.028 344.359C701.296 344.16 701.563 343.96 701.831 343.761ZM2779.17 343.762C2779.44 343.961 2779.71 344.161 2779.97 344.36L2774 352.376C2773.73 352.178 2773.46 351.98 2773.2 351.781L2779.17 343.762ZM710.688 337.207L716.611 345.264C716.344 345.46 716.077 345.658 715.81 345.854L709.882 337.8C710.151 337.602 710.42 337.405 710.688 337.207ZM2770.31 337.207C2770.58 337.405 2770.85 337.603 2771.12 337.801L2765.19 345.854C2764.92 345.658 2764.66 345.461 2764.39 345.265L2770.31 337.207ZM2761.41 330.708C2761.68 330.904 2761.95 331.1 2762.22 331.296L2756.35 339.388C2756.08 339.193 2755.81 338.997 2755.54 338.802L2761.41 330.708ZM719.59 330.707L725.461 338.802C725.192 338.997 724.924 339.192 724.655 339.387L718.778 331.296C719.049 331.1 719.319 330.903 719.59 330.707ZM728.532 324.263L734.354 332.395C734.083 332.588 733.813 332.781 733.543 332.975L727.718 324.847C727.989 324.652 728.261 324.457 728.532 324.263ZM2752.47 324.264C2752.74 324.458 2753.01 324.652 2753.28 324.847L2747.46 332.975C2747.19 332.781 2746.92 332.588 2746.65 332.395L2752.47 324.264ZM737.518 317.874L743.287 326.042C743.016 326.234 742.744 326.425 742.473 326.617L736.699 318.452C736.972 318.259 737.245 318.067 737.518 317.874ZM2743.48 317.874C2743.76 318.067 2744.03 318.26 2744.3 318.453L2738.53 326.617C2738.26 326.425 2737.99 326.234 2737.71 326.042L2743.48 317.874ZM2734.46 311.541C2734.73 311.732 2735 311.923 2735.28 312.114L2729.56 320.315C2729.28 320.125 2729.01 319.935 2728.74 319.745L2734.46 311.541ZM746.545 311.54L752.263 319.744C751.99 319.934 751.718 320.124 751.445 320.314L745.723 312.113C745.997 311.922 746.271 311.731 746.545 311.54ZM2725.39 305.263C2725.66 305.452 2725.94 305.642 2726.21 305.831L2720.54 314.068C2720.27 313.88 2719.99 313.691 2719.72 313.503L2725.39 305.263ZM755.614 305.263L761.28 313.503C761.007 313.691 760.733 313.879 760.459 314.067L754.788 305.831C755.063 305.642 755.339 305.452 755.614 305.263ZM764.726 299.041L770.339 307.316C770.064 307.503 769.789 307.69 769.514 307.877L763.896 299.604C764.172 299.417 764.449 299.229 764.726 299.041ZM2716.28 299.041C2716.55 299.229 2716.83 299.417 2717.11 299.604L2711.49 307.877C2711.21 307.69 2710.94 307.504 2710.66 307.317L2716.28 299.041ZM2707.13 292.884C2707.41 293.069 2707.69 293.256 2707.97 293.441L2702.4 301.749C2702.13 301.564 2701.85 301.38 2701.57 301.195L2707.13 292.884ZM773.866 292.883L779.427 301.194C779.151 301.379 778.875 301.563 778.6 301.748L773.034 293.44C773.311 293.255 773.589 293.068 773.866 292.883ZM783.043 286.785L788.551 295.132C788.274 295.315 787.997 295.498 787.72 295.681L782.207 287.337C782.485 287.153 782.764 286.969 783.043 286.785ZM2697.96 286.786C2698.24 286.97 2698.52 287.154 2698.79 287.338L2693.28 295.681C2693 295.498 2692.73 295.315 2692.45 295.132L2697.96 286.786ZM792.26 280.744L797.716 289.125C797.438 289.306 797.159 289.488 796.881 289.669L791.42 281.291C791.7 281.109 791.98 280.926 792.26 280.744ZM2688.74 280.745C2689.02 280.927 2689.3 281.11 2689.58 281.292L2684.12 289.669C2683.84 289.488 2683.56 289.307 2683.29 289.126L2688.74 280.745ZM801.518 274.76L806.92 283.175C806.64 283.354 806.36 283.534 806.081 283.714L800.675 275.302C800.956 275.121 801.237 274.94 801.518 274.76ZM2679.48 274.761C2679.76 274.941 2680.05 275.121 2680.33 275.302L2674.92 283.714C2674.64 283.534 2674.36 283.355 2674.08 283.176L2679.48 274.761ZM810.815 268.832L816.165 277.281C815.884 277.459 815.603 277.638 815.322 277.815L809.969 269.369C810.251 269.19 810.533 269.011 810.815 268.832ZM2670.19 268.833C2670.47 269.012 2670.75 269.19 2671.03 269.369L2665.68 277.815C2665.4 277.638 2665.12 277.46 2664.84 277.282L2670.19 268.833ZM2660.85 262.963C2661.13 263.14 2661.41 263.317 2661.7 263.494L2656.4 271.975C2656.12 271.798 2655.83 271.622 2655.55 271.446L2660.85 262.963ZM820.153 262.962L825.449 271.445C825.167 271.621 824.885 271.798 824.604 271.974L819.303 263.493C819.586 263.316 819.87 263.139 820.153 262.962ZM2651.47 257.151C2651.76 257.326 2652.04 257.501 2652.32 257.677L2647.08 266.19C2646.8 266.016 2646.51 265.841 2646.23 265.667L2651.47 257.151ZM829.531 257.15L834.772 265.666C834.489 265.84 834.206 266.015 833.923 266.189L828.677 257.676C828.961 257.5 829.247 257.326 829.531 257.15ZM2642.06 251.397C2642.34 251.571 2642.63 251.744 2642.91 251.917L2637.72 260.464C2637.44 260.292 2637.15 260.119 2636.87 259.947L2642.06 251.397ZM838.946 251.396L844.134 259.946C843.85 260.118 843.566 260.291 843.282 260.463L838.091 251.916C838.376 251.743 838.661 251.57 838.946 251.396ZM2632.62 245.715C2632.91 245.886 2633.19 246.057 2633.48 246.229L2628.34 254.808C2628.06 254.637 2627.77 254.467 2627.49 254.297L2632.62 245.715ZM848.381 245.714L853.514 254.296C853.229 254.466 852.944 254.636 852.659 254.807L847.521 246.228C847.808 246.056 848.094 245.885 848.381 245.714ZM2623.15 240.089C2623.44 240.258 2623.72 240.429 2624.01 240.599L2618.93 249.21C2618.64 249.041 2618.36 248.873 2618.07 248.704L2623.15 240.089ZM857.854 240.088L862.933 248.702C862.647 248.871 862.36 249.04 862.074 249.209L856.991 240.597C857.279 240.427 857.566 240.257 857.854 240.088ZM2613.64 234.522C2613.93 234.69 2614.21 234.858 2614.5 235.026L2609.47 243.67C2609.19 243.503 2608.9 243.336 2608.61 243.169L2613.64 234.522ZM867.365 234.521L872.389 243.168C872.102 243.335 871.814 243.502 871.527 243.669L866.499 235.025C866.788 234.857 867.076 234.689 867.365 234.521ZM2604.09 229.014C2604.38 229.18 2604.67 229.347 2604.96 229.513L2599.98 238.188C2599.69 238.022 2599.41 237.857 2599.12 237.692L2604.09 229.014ZM876.915 229.013L881.884 237.691C881.596 237.856 881.308 238.021 881.02 238.187L876.046 229.512C876.336 229.346 876.625 229.179 876.915 229.013ZM2594.5 223.564C2594.79 223.729 2595.08 223.893 2595.37 224.058L2590.45 232.765C2590.16 232.601 2589.87 232.438 2589.58 232.274L2594.5 223.564ZM886.503 223.563L891.417 232.272C891.128 232.436 890.838 232.599 890.549 232.763L885.63 224.057C885.921 223.892 886.212 223.728 886.503 223.563ZM2584.87 218.174C2585.17 218.336 2585.46 218.5 2585.75 218.662L2580.89 227.399C2580.6 227.238 2580.31 227.076 2580.02 226.915L2584.87 218.174ZM896.129 218.173L900.987 226.913C900.697 227.075 900.406 227.237 900.115 227.398L895.252 218.66C895.544 218.498 895.837 218.335 896.129 218.173ZM2575.21 212.843C2575.5 213.003 2575.8 213.164 2576.09 213.325L2571.28 222.094C2570.99 221.934 2570.7 221.774 2570.41 221.614L2575.21 212.843ZM905.792 212.842L910.595 221.613C910.303 221.773 910.011 221.933 909.72 222.093L904.912 213.324C905.205 213.163 905.499 213.002 905.792 212.842ZM2565.52 207.579C2565.82 207.737 2566.11 207.896 2566.4 208.055L2561.65 216.853C2561.36 216.695 2561.07 216.537 2560.78 216.38L2565.52 207.579ZM915.479 207.577L920.227 216.379C919.935 216.536 919.642 216.694 919.351 216.852L914.599 208.053C914.892 207.894 915.186 207.736 915.479 207.577ZM2555.81 202.382C2556.11 202.538 2556.4 202.695 2556.7 202.852L2552 211.681C2551.71 211.525 2551.42 211.369 2551.12 211.213L2555.81 202.382ZM925.189 202.381L929.88 211.212C929.587 211.368 929.294 211.523 929.001 211.679L924.305 202.851C924.599 202.694 924.895 202.537 925.189 202.381ZM2546.07 197.244C2546.36 197.399 2546.66 197.554 2546.96 197.709L2542.32 206.567C2542.02 206.413 2541.73 206.259 2541.43 206.105L2546.07 197.244ZM934.936 197.243L939.57 206.104C939.276 206.258 938.982 206.412 938.688 206.566L934.048 197.708C934.344 197.553 934.64 197.398 934.936 197.243ZM2536.29 192.167C2536.58 192.32 2536.88 192.473 2537.18 192.626L2532.59 201.514C2532.3 201.361 2532 201.21 2531.71 201.058L2536.29 192.167ZM944.718 192.166L949.296 201.056C949.001 201.208 948.705 201.36 948.41 201.513L943.827 192.625C944.124 192.472 944.421 192.319 944.718 192.166ZM2526.47 187.15C2526.76 187.301 2527.06 187.452 2527.36 187.604L2522.83 196.521C2522.54 196.37 2522.24 196.22 2521.95 196.069L2526.47 187.15ZM954.536 187.148L959.059 196.068C958.762 196.219 958.465 196.368 958.169 196.519L953.643 187.603C953.94 187.451 954.238 187.3 954.536 187.148ZM2516.61 182.193C2516.91 182.343 2517.21 182.492 2517.51 182.642L2513.04 191.587C2512.74 191.438 2512.44 191.29 2512.15 191.142L2516.61 182.193ZM964.391 182.192L968.855 191.14C968.558 191.288 968.261 191.436 967.964 191.585L963.493 182.641C963.792 182.491 964.092 182.342 964.391 182.192ZM2506.72 177.298C2507.02 177.445 2507.32 177.593 2507.62 177.74L2503.21 186.714C2502.91 186.567 2502.61 186.42 2502.31 186.273L2506.72 177.298ZM974.281 177.296L978.688 186.272C978.39 186.419 978.092 186.565 977.794 186.712L973.38 177.738C973.68 177.591 973.981 177.443 974.281 177.296ZM2496.8 172.463C2497.1 172.608 2497.4 172.754 2497.7 172.899L2493.34 181.901C2493.05 181.756 2492.75 181.612 2492.45 181.467L2496.8 172.463ZM984.206 172.461L988.557 181.465C988.257 181.61 987.958 181.755 987.658 181.899L983.303 172.898C983.604 172.753 983.905 172.606 984.206 172.461ZM2486.87 167.702C2487.17 167.845 2487.47 167.989 2487.77 168.133L2483.47 177.161C2483.17 177.019 2482.87 176.876 2482.57 176.733L2486.87 167.702ZM994.138 167.701L998.432 176.732C998.132 176.875 997.833 177.018 997.533 177.16L993.234 168.131C993.535 167.988 993.837 167.844 994.138 167.701ZM2476.91 163.006C2477.21 163.147 2477.51 163.289 2477.81 163.431L2473.57 172.486C2473.27 172.346 2472.97 172.205 2472.67 172.064L2476.91 163.006ZM1004.1 163.004L1008.33 172.063C1008.03 172.203 1007.73 172.345 1007.43 172.485L1003.19 163.429C1003.49 163.287 1003.8 163.145 1004.1 163.004ZM2466.91 158.371C2467.21 158.511 2467.52 158.65 2467.82 158.79L2463.64 167.873C2463.34 167.734 2463.03 167.595 2462.73 167.456L2466.91 158.371ZM1014.09 158.369L1018.27 167.455C1017.97 167.594 1017.67 167.732 1017.37 167.871L1013.18 158.788C1013.49 158.648 1013.79 158.509 1014.09 158.369ZM2456.88 153.798C2457.19 153.935 2457.49 154.073 2457.79 154.211L2453.67 163.32C2453.37 163.183 2453.06 163.046 2452.76 162.909L2456.88 153.798ZM1024.12 153.796L1028.24 162.907C1027.94 163.044 1027.64 163.181 1027.33 163.318L1023.21 154.209C1023.51 154.071 1023.82 153.934 1024.12 153.796ZM2446.82 149.285C2447.12 149.421 2447.43 149.557 2447.73 149.693L2443.67 158.828C2443.36 158.693 2443.06 158.558 2442.76 158.423L2446.82 149.285ZM1034.19 149.284L1038.25 158.422C1037.94 158.557 1037.64 158.692 1037.34 158.827L1033.27 149.691C1033.57 149.556 1033.88 149.42 1034.19 149.284ZM2436.72 144.836C2437.03 144.97 2437.33 145.103 2437.64 145.237L2433.63 154.398C2433.33 154.265 2433.02 154.132 2432.72 153.999L2436.72 144.836ZM1044.28 144.834L1048.29 153.997C1047.98 154.13 1047.68 154.264 1047.37 154.397L1043.36 145.235C1043.67 145.101 1043.98 144.968 1044.28 144.834ZM2426.59 140.448C2426.9 140.58 2427.21 140.712 2427.51 140.844L2423.56 150.031C2423.26 149.9 2422.95 149.768 2422.65 149.637L2426.59 140.448ZM1054.41 140.446L1058.36 149.635C1058.05 149.766 1057.75 149.898 1057.44 150.029L1053.49 140.843C1053.8 140.711 1054.11 140.578 1054.41 140.446ZM2416.43 136.125C2416.74 136.255 2417.05 136.385 2417.36 136.515L2413.46 145.726C2413.16 145.597 2412.85 145.468 2412.55 145.339L2416.43 136.125ZM1064.57 136.124L1068.46 145.337C1068.15 145.466 1067.85 145.596 1067.54 145.725L1063.65 136.513C1063.96 136.383 1064.26 136.254 1064.57 136.124ZM2406.28 131.88C2406.59 132.008 2406.9 132.136 2407.21 132.264L2403.37 141.5C2403.07 141.373 2402.76 141.246 2402.45 141.119L2406.28 131.88ZM1074.72 131.878L1078.55 141.117C1078.25 141.244 1077.94 141.371 1077.63 141.498L1073.8 132.262C1074.11 132.134 1074.42 132.006 1074.72 131.878ZM2396.09 127.697C2396.4 127.823 2396.71 127.949 2397.02 128.075L2393.25 137.336C2392.94 137.211 2392.63 137.085 2392.33 136.96L2396.09 127.697ZM1084.91 127.695L1088.68 136.958C1088.37 137.083 1088.06 137.209 1087.76 137.334L1083.98 128.073C1084.29 127.947 1084.6 127.821 1084.91 127.695ZM2385.88 123.577C2386.19 123.701 2386.5 123.825 2386.81 123.949L2383.09 133.233C2382.78 133.11 2382.47 132.987 2382.17 132.864L2385.88 123.577ZM1095.13 123.576L1098.84 132.862C1098.53 132.985 1098.22 133.109 1097.91 133.232L1094.2 123.947C1094.51 123.823 1094.82 123.7 1095.13 123.576ZM2375.63 119.521C2375.94 119.642 2376.25 119.765 2376.56 119.887L2372.9 129.194C2372.59 129.073 2372.28 128.951 2371.98 128.83L2375.63 119.521ZM1105.38 119.519L1109.03 128.828C1108.72 128.949 1108.41 129.071 1108.1 129.192L1104.45 119.885C1104.76 119.763 1105.07 119.641 1105.38 119.519ZM2365.34 115.526C2365.66 115.646 2365.97 115.767 2366.28 115.887L2362.68 125.218C2362.37 125.098 2362.06 124.979 2361.75 124.859L2365.34 115.526ZM1115.66 115.524L1119.25 124.857C1118.94 124.977 1118.63 125.096 1118.32 125.216L1114.72 115.886C1115.04 115.766 1115.35 115.644 1115.66 115.524ZM2355.03 111.596C2355.34 111.714 2355.66 111.832 2355.97 111.95L2352.43 121.304C2352.12 121.186 2351.81 121.069 2351.5 120.951L2355.03 111.596ZM1125.97 111.595L1129.51 120.95C1129.19 121.068 1128.88 121.185 1128.57 121.303L1125.04 111.949C1125.35 111.831 1125.66 111.713 1125.97 111.595ZM2344.69 107.729C2345 107.845 2345.31 107.962 2345.63 108.078L2342.15 117.454C2341.84 117.338 2341.53 117.222 2341.21 117.106L2344.69 107.729ZM1136.32 107.728L1139.79 117.105C1139.48 117.221 1139.17 117.337 1138.85 117.452L1135.38 108.076C1135.69 107.96 1136 107.844 1136.32 107.728ZM2334.33 103.934C2334.65 104.047 2334.96 104.162 2335.27 104.275L2331.85 113.674C2331.54 113.561 2331.23 113.447 2330.92 113.334L2334.33 103.934ZM1146.67 103.933L1150.08 113.332C1149.77 113.445 1149.46 113.559 1149.15 113.672L1145.73 104.273C1146.05 104.16 1146.36 104.046 1146.67 103.933ZM2323.98 100.213C2324.29 100.325 2324.6 100.436 2324.92 100.548L2321.56 109.968C2321.25 109.856 2320.94 109.745 2320.62 109.634L2323.98 100.213ZM1157.03 100.211L1160.38 109.633C1160.07 109.744 1159.75 109.855 1159.44 109.967L1156.08 100.547C1156.4 100.435 1156.71 100.323 1157.03 100.211ZM2313.59 96.5547C2313.91 96.6645 2314.22 96.7747 2314.54 96.8848L2311.24 106.326C2310.92 106.217 2310.61 106.107 2310.3 105.998L2313.59 96.5547ZM1167.41 96.5537L1170.71 105.997C1170.39 106.106 1170.08 106.215 1169.77 106.324L1166.47 96.8838C1166.78 96.7738 1167.1 96.6636 1167.41 96.5537ZM2303.17 92.9619C2303.49 93.0698 2303.81 93.1771 2304.12 93.2852L2300.88 102.747C2300.57 102.64 2300.26 102.532 2299.94 102.425L2303.17 92.9619ZM1177.83 92.96L1181.06 102.424C1180.75 102.531 1180.43 102.639 1180.12 102.746L1176.88 93.2842C1177.2 93.1761 1177.51 93.0679 1177.83 92.96ZM2292.73 89.4326C2293.04 89.5386 2293.36 89.6438 2293.68 89.75L2290.5 99.2324C2290.19 99.1269 2289.87 99.0213 2289.56 98.916L2292.73 89.4326ZM1188.28 89.4307L1191.45 98.915C1191.13 99.0204 1190.82 99.1259 1190.5 99.2314L1187.33 89.749C1187.64 89.6429 1187.96 89.5366 1188.28 89.4307ZM2282.25 85.9668C2282.57 86.0708 2282.89 86.1751 2283.21 86.2793L2280.09 95.7822C2279.77 95.6787 2279.46 95.575 2279.14 95.4717L2282.25 85.9668ZM1198.75 85.9658L1201.86 95.4707C1201.55 95.5741 1201.23 95.6777 1200.91 95.7813L1197.8 86.2783C1198.12 86.1742 1198.43 86.0698 1198.75 85.9658ZM2271.75 82.5674C2272.07 82.6694 2272.39 82.7709 2272.7 82.873L2269.65 92.3955C2269.33 92.2939 2269.02 92.1923 2268.7 92.0908L2271.75 82.5674ZM1209.26 82.5664L1212.3 92.0898C1211.99 92.1913 1211.67 92.2929 1211.35 92.3945L1208.3 82.8721C1208.62 82.7699 1208.94 82.6684 1209.26 82.5664ZM2261.21 79.2314C2261.53 79.3315 2261.85 79.432 2262.17 79.5322L2259.18 89.0732C2258.86 88.9736 2258.54 88.8739 2258.23 88.7744L2261.21 79.2314ZM1219.79 79.2305L1222.78 88.7734C1222.46 88.8729 1222.14 88.9726 1221.82 89.0723L1218.83 79.5313C1219.15 79.431 1219.47 79.3305 1219.79 79.2305ZM2250.69 75.9736C2251.01 76.0712 2251.33 76.1689 2251.65 76.2666L2248.72 85.8271C2248.4 85.73 2248.08 85.6331 2247.77 85.5361L2250.69 75.9736ZM1230.31 75.9736L1233.24 85.5352C1232.92 85.6321 1232.6 85.729 1232.29 85.8262L1229.35 76.2666C1229.67 76.1689 1229.99 76.0712 1230.31 75.9736ZM2240.16 72.7871C2240.48 72.8827 2240.8 72.9784 2241.12 73.0742L2238.25 82.6523C2237.93 82.5571 2237.61 82.4622 2237.3 82.3672L2240.16 72.7871ZM1240.84 72.7861L1243.71 82.3662C1243.39 82.4612 1243.07 82.5562 1242.75 82.6514L1239.88 73.0732C1240.2 72.9775 1240.52 72.8817 1240.84 72.7861ZM1251.4 69.6641L1254.21 79.2617C1253.89 79.3548 1253.57 79.4487 1253.25 79.542L1250.44 69.9443C1250.76 69.8506 1251.08 69.7577 1251.4 69.6641ZM2229.6 69.6641C2229.92 69.7577 2230.24 69.8515 2230.56 69.9453L2227.75 79.542C2227.44 79.4487 2227.12 79.3558 2226.8 79.2627L2229.6 69.6641ZM2219.02 66.6074C2219.34 66.6991 2219.66 66.79 2219.98 66.8818L2217.23 76.4971C2216.91 76.4058 2216.59 76.3147 2216.27 76.2236L2219.02 66.6074ZM1261.99 66.6064L1264.73 76.2227C1264.41 76.3137 1264.09 76.4048 1263.77 76.4961L1261.02 66.8818C1261.34 66.79 1261.67 66.6981 1261.99 66.6064ZM2208.4 63.6152C2208.72 63.7049 2209.05 63.794 2209.37 63.8838L2206.68 73.5166C2206.36 73.4273 2206.04 73.3372 2205.72 73.248L2208.4 63.6152ZM1272.6 63.6143L1275.28 73.248C1274.96 73.3372 1274.64 73.4263 1274.32 73.5156L1271.63 63.8838C1271.96 63.794 1272.28 63.7039 1272.6 63.6143ZM1283.24 60.6875L1285.86 70.3379C1285.54 70.425 1285.22 70.5132 1284.9 70.6006L1282.27 60.9512C1282.6 60.8633 1282.92 60.7752 1283.24 60.6875ZM2197.76 60.6885C2198.08 60.7762 2198.41 60.8643 2198.73 60.9521L2196.1 70.6006C2195.78 70.5133 2195.46 70.426 2195.14 70.3389L2197.76 60.6885ZM2187.09 57.8281C2187.41 57.9138 2187.74 57.9991 2188.06 58.085L2185.5 67.751C2185.18 67.6656 2184.85 67.5803 2184.53 67.4951L2187.09 57.8281ZM1293.91 57.8271L1296.47 67.4941C1296.15 67.5793 1295.83 67.6647 1295.5 67.75L1292.94 58.085C1293.26 57.9991 1293.59 57.9128 1293.91 57.8271ZM1304.61 55.0322L1307.1 64.7158C1306.78 64.799 1306.46 64.8824 1306.14 64.9658L1303.63 55.2842C1303.96 55.2003 1304.28 55.1159 1304.61 55.0322ZM2176.4 55.0332C2176.72 55.1168 2177.04 55.2004 2177.37 55.2842L2174.87 64.9658C2174.54 64.8825 2174.22 64.799 2173.9 64.7158L2176.4 55.0332ZM1315.26 52.3203L1317.7 62.0195C1317.38 62.1002 1317.06 62.1809 1316.74 62.2617L1314.3 52.5635C1314.62 52.4822 1314.94 52.4014 1315.26 52.3203ZM2165.74 52.3203C2166.06 52.4015 2166.38 52.4831 2166.71 52.5645L2164.26 62.2617C2163.94 62.1809 2163.62 62.1002 2163.3 62.0195L2165.74 52.3203ZM1325.94 49.6748L1328.32 59.3896C1328 59.4684 1327.67 59.5471 1327.35 59.626L1324.97 49.9131C1325.3 49.8338 1325.62 49.754 1325.94 49.6748ZM2155.06 49.6748C2155.38 49.7539 2155.71 49.8338 2156.03 49.9131L2153.65 59.626C2153.33 59.5471 2153.01 59.4683 2152.68 59.3896L2155.06 49.6748ZM2144.35 47.0957C2144.68 47.1728 2145 47.2498 2145.33 47.3271L2143.01 57.0557C2142.69 56.9788 2142.36 56.9019 2142.04 56.8252L2144.35 47.0957ZM1336.65 47.0957L1338.96 56.8252C1338.64 56.9018 1338.31 56.9779 1337.99 57.0547L1335.67 47.3271C1336 47.2498 1336.32 47.1728 1336.65 47.0957ZM1347.38 44.582L1349.63 54.3262C1349.3 54.4009 1348.98 54.4759 1348.66 54.5508L1346.4 44.8076C1346.73 44.7323 1347.05 44.6572 1347.38 44.582ZM2133.62 44.582C2133.95 44.6572 2134.27 44.7333 2134.6 44.8086L2132.34 54.5508C2132.02 54.4759 2131.7 54.4009 2131.37 54.3262L2133.62 44.582ZM1358.13 42.1357L1360.32 51.8936C1360 51.9662 1359.67 52.0385 1359.35 52.1113L1357.15 42.3545C1357.48 42.2812 1357.81 42.2089 1358.13 42.1357ZM2122.87 42.1357C2123.19 42.2089 2123.52 42.2822 2123.85 42.3555L2121.65 52.1113C2121.33 52.0385 2121 51.9662 2120.68 51.8936L2122.87 42.1357ZM2112.09 39.7549C2112.41 39.826 2112.74 39.8974 2113.07 39.9688L2110.94 49.7393C2110.61 49.6684 2110.29 49.5971 2109.96 49.5264L2112.09 39.7549ZM1368.91 39.7549L1371.04 49.5264C1370.71 49.5971 1370.39 49.6674 1370.06 49.7383L1367.93 39.9688C1368.26 39.8975 1368.59 39.826 1368.91 39.7549ZM1379.72 37.4414L1381.78 47.2256C1381.46 47.2943 1381.13 47.3637 1380.8 47.4326L1378.74 37.6484C1379.06 37.5792 1379.39 37.5105 1379.72 37.4414ZM2101.28 37.4414C2101.61 37.5105 2101.94 37.5792 2102.27 37.6484L2100.2 47.4326C2099.87 47.3638 2099.55 47.2943 2099.22 47.2256L2101.28 37.4414ZM1390.54 35.1953L1392.54 44.9932C1392.22 45.0594 1391.89 45.126 1391.57 45.1924L1389.56 35.3955C1389.89 35.3287 1390.22 35.2619 1390.54 35.1953ZM2090.46 35.1953C2090.78 35.262 2091.11 35.3287 2091.44 35.3955L2089.43 45.1924C2089.11 45.1259 2088.78 45.0594 2088.46 44.9932L2090.46 35.1953ZM1401.32 33.0322L1403.25 42.8418C1402.93 42.906 1402.6 42.9708 1402.28 43.0352L1400.34 33.2256C1400.66 33.1609 1400.99 33.0968 1401.32 33.0322ZM2079.68 33.0322C2080.01 33.0968 2080.34 33.1609 2080.66 33.2256L2078.72 43.0352C2078.4 42.9708 2078.07 42.906 2077.75 42.8418L2079.68 33.0322ZM1412.11 30.9346L1413.99 40.7568C1413.66 40.819 1413.34 40.882 1413.01 40.9443L1411.13 31.1221C1411.46 31.0594 1411.79 30.9971 1412.11 30.9346ZM2068.89 30.9346C2069.21 30.9971 2069.54 31.0593 2069.87 31.1221L2067.99 40.9443C2067.66 40.882 2067.34 40.819 2067.01 40.7568L2068.89 30.9346ZM1422.93 28.9043L1424.75 38.7383C1424.42 38.7985 1424.09 38.8586 1423.77 38.9189L1421.95 29.0859C1422.28 29.0253 1422.61 28.9648 1422.93 28.9043ZM2058.06 28.9043C2058.39 28.9648 2058.72 29.0252 2059.05 29.0859L2057.23 38.9189C2056.9 38.8586 2056.58 38.7984 2056.25 38.7383L2058.06 28.9043ZM1433.78 26.9404L1435.53 36.7861C1435.2 36.8443 1434.88 36.9026 1434.55 36.9609L1432.79 27.1162C1433.12 27.0576 1433.45 26.9989 1433.78 26.9404ZM2047.22 26.9404C2047.55 26.9989 2047.88 27.0575 2048.21 27.1162L2046.45 36.96C2046.12 36.9017 2045.8 36.8442 2045.47 36.7861L2047.22 26.9404ZM1444.65 25.0439L1446.33 34.9004C1446.01 34.9565 1445.68 35.0121 1445.35 35.0684L1443.66 25.2129C1443.99 25.1563 1444.32 25.1004 1444.65 25.0439ZM2036.35 25.0439C2036.68 25.1004 2037.01 25.1563 2037.34 25.2129L2035.65 35.0684C2035.32 35.0121 2034.99 34.9565 2034.66 34.9004L2036.35 25.0439ZM1455.54 23.2139L1457.16 33.0811C1456.83 33.1351 1456.51 33.1899 1456.18 33.2441L1454.55 23.3779C1454.88 23.3233 1455.21 23.2683 1455.54 23.2139ZM2025.46 23.2139C2025.79 23.2683 2026.12 23.3233 2026.45 23.3779L2024.82 33.2441C2024.49 33.1899 2024.16 33.1351 2023.84 33.0811L2025.46 23.2139ZM1466.45 21.4521L1468.01 31.3301C1467.68 31.3821 1467.36 31.4341 1467.03 31.4863L1465.46 21.6104C1465.79 21.5578 1466.12 21.5045 1466.45 21.4521ZM2014.55 21.4521C2014.88 21.5045 2015.21 21.5568 2015.54 21.6094L2013.97 31.4863C2013.64 31.4341 2013.31 31.3811 2012.99 31.3291L2014.55 21.4521ZM1477.37 19.7607L1478.87 29.6484C1478.54 29.698 1478.22 29.7471 1477.89 29.7969L1476.38 19.9111C1476.71 19.8611 1477.04 19.8106 1477.37 19.7607ZM2003.63 19.7607C2003.96 19.8106 2004.29 19.8611 2004.61 19.9111L2003.11 29.7969C2002.78 29.7471 2002.45 29.6971 2002.13 29.6475L2003.63 19.7607ZM1488.24 18.1484L1489.67 28.0449C1489.35 28.0925 1489.02 28.1398 1488.69 28.1875L1487.25 18.292C1487.58 18.244 1487.91 18.1963 1488.24 18.1484ZM1992.76 18.1484C1993.09 18.1963 1993.42 18.244 1993.75 18.292L1992.31 28.1875C1991.98 28.1397 1991.65 28.0915 1991.32 28.0439L1992.76 18.1484ZM1499.12 16.6025L1500.5 26.5078C1500.17 26.5533 1499.84 26.5988 1499.51 26.6445L1498.13 16.7402C1498.46 16.6943 1498.79 16.6483 1499.12 16.6025ZM1981.87 16.6025C1982.2 16.6484 1982.53 16.6942 1982.86 16.7402L1981.48 26.6445C1981.16 26.5988 1980.83 26.5534 1980.5 26.5078L1981.87 16.6025ZM1510.03 15.124L1511.35 25.0381C1511.02 25.0816 1510.69 25.1253 1510.36 25.1689L1509.04 15.2559C1509.37 15.2119 1509.7 15.1678 1510.03 15.124ZM1970.96 15.124C1971.29 15.1678 1971.63 15.2119 1971.96 15.2559L1970.64 25.1689C1970.31 25.1253 1969.98 25.0816 1969.65 25.0381L1970.96 15.124ZM1520.96 13.7139L1522.21 23.6348C1521.88 23.6763 1521.55 23.7181 1521.22 23.7598L1519.97 13.8389C1520.3 13.797 1520.63 13.7556 1520.96 13.7139ZM1960.03 13.7129C1960.36 13.7546 1960.7 13.797 1961.03 13.8389L1959.77 23.7598C1959.44 23.7181 1959.11 23.6763 1958.78 23.6348L1960.03 13.7129ZM1531.92 12.3701L1533.1 22.2998C1532.77 22.3392 1532.44 22.3783 1532.11 22.418L1530.92 12.4893C1531.25 12.4494 1531.58 12.4098 1531.92 12.3701ZM1949.08 12.3701C1949.41 12.4098 1949.75 12.4494 1950.08 12.4893L1948.89 22.418C1948.56 22.3784 1948.23 22.3392 1947.9 22.2998L1949.08 12.3701ZM1542.89 11.0947L1544.01 21.0322C1543.68 21.0696 1543.35 21.107 1543.02 21.1445L1541.89 11.208C1542.22 11.1702 1542.56 11.1323 1542.89 11.0947ZM1938.11 11.0947C1938.44 11.1323 1938.77 11.1702 1939.11 11.208L1937.98 21.1436C1937.65 21.106 1937.32 21.0686 1936.99 21.0313L1938.11 11.0947ZM1553.88 9.8877L1554.94 19.832C1554.61 19.8674 1554.28 19.902 1553.95 19.9375L1552.88 9.99512C1553.22 9.95939 1553.55 9.92323 1553.88 9.8877ZM1927.12 9.8877C1927.45 9.92324 1927.78 9.95841 1928.12 9.99414L1927.05 19.9375C1926.72 19.902 1926.39 19.8664 1926.06 19.8311L1927.12 9.8877ZM1564.87 8.75098L1565.87 18.7012C1565.54 18.7341 1565.21 18.7676 1564.88 18.8008L1563.88 8.85156C1564.21 8.81824 1564.54 8.78412 1564.87 8.75098ZM1916.12 8.75098C1916.45 8.78413 1916.79 8.81724 1917.12 8.85059L1916.11 18.8008C1915.79 18.7676 1915.46 18.7341 1915.13 18.7012L1916.12 8.75098ZM1575.8 7.69141L1576.74 17.6475C1576.41 17.6784 1576.08 17.7091 1575.75 17.7402L1574.81 7.78418C1575.14 7.75289 1575.47 7.72251 1575.8 7.69141ZM1905.2 7.69043C1905.53 7.72154 1905.86 7.75289 1906.19 7.78418L1905.25 17.7402C1904.92 17.7091 1904.59 17.6774 1904.26 17.6465L1905.2 7.69043ZM1586.75 6.69824L1587.62 16.6602C1587.29 16.689 1586.96 16.718 1586.63 16.7471L1585.75 6.78516C1586.09 6.75594 1586.42 6.72728 1586.75 6.69824ZM1894.25 6.69727C1894.58 6.72632 1894.91 6.75591 1895.24 6.78516L1894.37 16.7471C1894.04 16.718 1893.7 16.6881 1893.37 16.6592L1894.25 6.69727ZM1597.72 5.77246L1598.53 15.7402C1598.2 15.7671 1597.87 15.7933 1597.54 15.8203L1596.72 5.85449C1597.05 5.8273 1597.39 5.79947 1597.72 5.77246ZM1883.28 5.77246C1883.61 5.79947 1883.94 5.82632 1884.28 5.85352L1883.46 15.8203C1883.13 15.7933 1882.8 15.7661 1882.47 15.7393L1883.28 5.77246ZM1608.71 4.91504L1609.45 14.8877C1609.12 14.9125 1608.79 14.9369 1608.46 14.9619L1607.71 4.99023C1608.04 4.96511 1608.37 4.93997 1608.71 4.91504ZM1872.29 4.91504C1872.62 4.93999 1872.96 4.9651 1873.29 4.99023L1872.54 14.9619C1872.21 14.9369 1871.88 14.9115 1871.54 14.8867L1872.29 4.91504ZM1619.71 4.12598L1620.4 14.1025C1620.06 14.1253 1619.73 14.148 1619.4 14.1709L1618.71 4.19531C1619.04 4.17224 1619.38 4.14886 1619.71 4.12598ZM1861.29 4.12598C1861.62 4.14885 1861.95 4.17128 1862.29 4.19434L1861.6 14.1709C1861.26 14.148 1860.93 14.1253 1860.6 14.1025L1861.29 4.12598ZM1630.74 3.40527L1631.36 13.3857C1631.03 13.4064 1630.69 13.4274 1630.36 13.4482L1629.73 3.46777C1630.07 3.44678 1630.4 3.42608 1630.74 3.40527ZM1850.26 3.40527C1850.59 3.42608 1850.93 3.44678 1851.26 3.46777L1850.64 13.4482C1850.3 13.4274 1849.97 13.4064 1849.64 13.3857L1850.26 3.40527ZM1641.78 2.75293L1642.34 12.7373C1642 12.7559 1641.67 12.7742 1641.34 12.793L1640.78 2.80957C1641.11 2.79067 1641.44 2.77164 1641.78 2.75293ZM1839.22 2.75293C1839.55 2.77164 1839.89 2.78969 1840.22 2.80859L1839.66 12.793C1839.32 12.7742 1838.99 12.7559 1838.66 12.7373L1839.22 2.75293ZM1652.82 2.16992L1653.32 12.1582C1652.99 12.1746 1652.66 12.1905 1652.33 12.207L1651.83 2.21973C1652.16 2.20307 1652.49 2.18639 1652.82 2.16992ZM1828.17 2.16992C1828.51 2.18639 1828.84 2.20307 1829.17 2.21973L1828.67 12.207C1828.34 12.1905 1828.01 12.1736 1827.68 12.1572L1828.17 2.16992ZM1663.78 1.66016L1664.22 11.6514C1663.89 11.6657 1663.56 11.6798 1663.23 11.6943L1662.79 1.7041C1663.12 1.6895 1663.45 1.67457 1663.78 1.66016ZM1817.21 1.66016C1817.54 1.67458 1817.88 1.6895 1818.21 1.7041L1817.77 11.6943C1817.44 11.6798 1817.11 11.6657 1816.78 11.6514L1817.21 1.66016ZM1674.76 1.21875L1675.13 11.2119C1674.8 11.2242 1674.47 11.2366 1674.14 11.249L1673.76 1.25586C1674.1 1.24332 1674.43 1.2311 1674.76 1.21875ZM1806.23 1.21875C1806.57 1.23111 1806.9 1.24331 1807.23 1.25586L1806.85 11.249C1806.52 11.2365 1806.19 11.2242 1805.86 11.2119L1806.23 1.21875ZM1685.76 0.844727L1686.07 10.8398C1685.74 10.8501 1685.41 10.8607 1685.07 10.8711L1684.76 0.875977C1685.09 0.865491 1685.43 0.855025 1685.76 0.844727ZM1795.24 0.844727C1795.57 0.855025 1795.9 0.865491 1796.24 0.875977L1795.92 10.8701C1795.59 10.8597 1795.26 10.8501 1794.93 10.8398L1795.24 0.844727ZM1696.77 0.538086L1697.02 10.5352C1696.69 10.5433 1696.36 10.5522 1696.02 10.5605L1695.77 0.563477C1696.11 0.555053 1696.44 0.546322 1696.77 0.538086ZM1784.22 0.538086C1784.55 0.546321 1784.89 0.555053 1785.22 0.563477L1784.97 10.5605C1784.64 10.5522 1784.31 10.5433 1783.97 10.5352L1784.22 0.538086ZM1707.81 0.300781L1707.99 10.2988C1707.66 10.305 1707.32 10.312 1706.99 10.3184L1706.8 0.319336C1707.14 0.312984 1707.47 0.306944 1707.81 0.300781ZM1773.19 0.300781C1773.52 0.306943 1773.86 0.312986 1774.19 0.319336L1774 10.3174C1773.67 10.3111 1773.34 10.305 1773 10.2988L1773.19 0.300781ZM1718.85 0.131836L1718.98 10.1309C1718.64 10.1349 1718.31 10.1393 1717.98 10.1436L1717.85 0.144531C1718.18 0.140259 1718.52 0.135919 1718.85 0.131836ZM1762.14 0.131836C1762.48 0.135917 1762.81 0.140261 1763.15 0.144531L1763.02 10.1436C1762.69 10.1393 1762.35 10.1349 1762.02 10.1309L1762.14 0.131836ZM1729.92 0.03125L1729.98 10.0313C1729.64 10.0332 1729.31 10.0349 1728.98 10.0371L1728.91 0.0380859C1729.25 0.0358986 1729.58 0.0332475 1729.92 0.03125ZM1751.08 0.03125C1751.41 0.0332455 1751.75 0.0359008 1752.08 0.0380859L1752.02 10.0371C1751.69 10.0349 1751.35 10.0332 1751.02 10.0313L1751.08 0.03125ZM1741 0L1741 10H1739.99L1739.99 0L1741 0Z" fill="#D8D8D8"/>
</svg>
