<svg width="1997" height="999" viewBox="0 0 1997 999" fill="none" xmlns="http://www.w3.org/2000/svg">
<path d="M3.70135e-05 997.995L10 998C9.99995 998.167 10 998.333 10 998.5H3.70135e-05C3.70135e-05 998.332 -4.62668e-05 998.163 3.70135e-05 997.995ZM1997 997.995C1997 998.163 1997 998.332 1997 998.5H1987C1987 998.333 1987 998.167 1987 998L1997 997.995ZM0.0664433 986.901L10.0655 987.016C10.0617 987.348 10.0582 987.68 10.0547 988.013L0.0547245 987.909C0.0582148 987.573 0.0626215 987.237 0.0664433 986.901ZM1996.93 986.901C1996.94 987.237 1996.94 987.573 1996.95 987.908L1986.95 988.013C1986.94 987.68 1986.94 987.347 1986.93 987.015L1996.93 986.901ZM0.25199 975.837L10.25 976.06C10.2427 976.391 10.2346 976.722 10.2276 977.054L0.230506 976.842C0.237632 976.507 0.244534 976.172 0.25199 975.837ZM1996.75 975.837C1996.76 976.172 1996.76 976.506 1996.77 976.841L1986.77 977.054C1986.77 976.722 1986.76 976.391 1986.75 976.06L1996.75 975.837ZM0.557654 964.801L10.5528 965.133C10.5418 965.463 10.5312 965.794 10.5205 966.125L0.525428 965.803C0.53617 965.469 0.546584 965.135 0.557654 964.801ZM1996.44 964.801C1996.45 965.135 1996.46 965.469 1996.47 965.803L1986.48 966.125C1986.47 965.794 1986.46 965.463 1986.45 965.133L1996.44 964.801ZM0.983435 953.796L10.9737 954.236C10.9591 954.566 10.9439 954.896 10.9297 955.226L0.93949 954.795C0.953836 954.462 0.968764 954.129 0.983435 953.796ZM1996.02 953.796C1996.03 954.129 1996.05 954.462 1996.06 954.795L1986.07 955.226C1986.06 954.896 1986.04 954.566 1986.03 954.236L1996.02 953.796ZM1.52933 942.775L11.5137 943.324C11.4954 943.656 11.477 943.989 11.459 944.321L1.47367 943.782C1.4918 943.447 1.51087 943.111 1.52933 942.775ZM1995.47 942.775C1995.49 943.111 1995.51 943.447 1995.53 943.782L1985.54 944.321C1985.52 943.989 1985.5 943.657 1985.49 943.324L1995.47 942.775ZM2.19828 931.715L12.1768 932.374C12.1549 932.705 12.1329 933.037 12.1114 933.368L2.13285 932.719C2.15462 932.384 2.17618 932.049 2.19828 931.715ZM1994.8 931.715C1994.82 932.049 1994.85 932.384 1994.87 932.719L1984.89 933.368C1984.87 933.037 1984.85 932.705 1984.82 932.374L1994.8 931.715ZM2.98734 920.688L12.958 921.456C12.9326 921.786 12.907 922.117 12.8819 922.447L2.91117 921.688C2.93655 921.355 2.96163 921.021 2.98734 920.688ZM1994.01 920.687C1994.04 921.02 1994.06 921.355 1994.09 921.688L1984.12 922.446C1984.09 922.116 1984.07 921.785 1984.04 921.455L1994.01 920.687ZM3.89554 909.692L13.8575 910.57C13.8284 910.9 13.7992 911.229 13.7705 911.559L3.80863 910.69C3.83761 910.358 3.86624 910.025 3.89554 909.692ZM1993.1 909.692C1993.13 910.025 1993.16 910.358 1993.19 910.69L1983.23 911.559C1983.2 911.229 1983.17 910.9 1983.14 910.57L1993.1 909.692ZM4.92191 898.732L14.8731 899.72C14.8405 900.048 14.8086 900.376 14.7764 900.704L4.82426 899.728C4.85682 899.396 4.88902 899.064 4.92191 898.732ZM1992.08 898.731C1992.11 899.063 1992.14 899.395 1992.18 899.727L1982.22 900.704C1982.19 900.376 1982.16 900.047 1982.13 899.719L1992.08 898.731ZM6.07621 887.724L16.0157 888.821C15.9792 889.152 15.9424 889.482 15.9063 889.812L5.96586 888.726C6.00236 888.392 6.03937 888.057 6.07621 887.724ZM1990.92 887.724C1990.96 888.057 1991 888.391 1991.03 888.725L1981.09 889.813C1981.06 889.482 1981.02 889.152 1980.98 888.821L1990.92 887.724ZM7.35062 876.729L17.2784 877.937C17.2383 878.266 17.198 878.595 17.1582 878.925L7.23051 877.728C7.27062 877.395 7.31018 877.062 7.35062 876.729ZM1989.65 876.729C1989.69 877.062 1989.73 877.395 1989.77 877.728L1979.84 878.925C1979.8 878.595 1979.76 878.266 1979.72 877.937L1989.65 876.729ZM8.74515 865.771L18.6582 867.088C18.6146 867.416 18.5706 867.745 18.5274 868.073L8.61332 866.767C8.65702 866.435 8.70112 866.103 8.74515 865.771ZM1988.25 865.771C1988.3 866.103 1988.34 866.434 1988.39 866.766L1978.47 868.073C1978.43 867.745 1978.39 867.416 1978.34 867.088L1988.25 865.771ZM10.2569 854.851L20.1543 856.277C20.1072 856.604 20.0605 856.932 20.0137 857.259L10.1143 855.842C10.1616 855.511 10.2093 855.181 10.2569 854.851ZM1986.74 854.851C1986.79 855.181 1986.84 855.511 1986.89 855.842L1976.99 857.258C1976.94 856.931 1976.89 856.604 1976.85 856.277L1986.74 854.851ZM11.8897 843.947L21.7705 845.482C21.7195 845.811 21.6689 846.14 21.6182 846.469L11.7354 844.943C11.7866 844.611 11.8381 844.279 11.8897 843.947ZM1985.11 843.947C1985.16 844.279 1985.21 844.611 1985.26 844.943L1975.38 846.469C1975.33 846.14 1975.28 845.811 1975.23 845.482L1985.11 843.947ZM13.6514 833.011L23.5147 834.656C23.4601 834.984 23.4059 835.311 23.3516 835.639L13.4864 834.004C13.5412 833.673 13.5962 833.342 13.6514 833.011ZM1983.35 833.011C1983.4 833.342 1983.46 833.673 1983.51 834.004L1973.65 835.639C1973.59 835.311 1973.54 834.984 1973.49 834.656L1983.35 833.011ZM15.5313 822.115L25.376 823.87C25.3179 824.196 25.26 824.522 25.2022 824.849L15.3555 823.104C15.4139 822.774 15.4726 822.445 15.5313 822.115ZM1981.47 822.115C1981.53 822.445 1981.59 822.774 1981.64 823.104L1971.8 824.849C1971.74 824.522 1971.68 824.196 1971.62 823.87L1981.47 822.115ZM17.5284 811.26L27.3526 813.124C27.2909 813.449 27.2293 813.774 27.168 814.099L17.3418 812.245C17.4038 811.917 17.4661 811.588 17.5284 811.26ZM1979.47 811.26C1979.53 811.588 1979.6 811.916 1979.66 812.244L1969.83 814.099C1969.77 813.773 1969.71 813.448 1969.65 813.123L1979.47 811.26ZM19.6416 800.445L29.4453 802.418C29.3802 802.742 29.3158 803.066 29.251 803.39L19.4453 801.427C19.5108 801.1 19.5758 800.772 19.6416 800.445ZM1977.36 800.445C1977.42 800.772 1977.49 801.1 1977.55 801.427L1967.75 803.39C1967.68 803.066 1967.62 802.742 1967.55 802.418L1977.36 800.445ZM21.8838 789.616L31.6651 791.698C31.5959 792.023 31.5269 792.348 31.458 792.673L21.6748 790.602C21.7444 790.273 21.814 789.944 21.8838 789.616ZM1975.12 789.616C1975.19 789.944 1975.26 790.273 1975.33 790.602L1965.54 792.673C1965.47 792.348 1965.4 792.023 1965.33 791.698L1975.12 789.616ZM24.2481 778.807L34.0049 780.998C33.9323 781.322 33.8595 781.645 33.7871 781.969L24.0284 779.788C24.1014 779.461 24.1747 779.134 24.2481 778.807ZM1972.75 778.807C1972.83 779.134 1972.9 779.461 1972.97 779.788L1963.21 781.969C1963.14 781.645 1963.07 781.321 1963 780.997L1972.75 778.807ZM26.7286 768.042L36.46 770.341C36.3839 770.663 36.3083 770.985 36.2325 771.308L26.4981 769.019C26.5747 768.693 26.6517 768.367 26.7286 768.042ZM1970.27 768.041C1970.35 768.367 1970.43 768.693 1970.5 769.019L1960.77 771.308C1960.69 770.985 1960.62 770.663 1960.54 770.341L1970.27 768.041ZM29.3243 757.32L39.0303 759.729C38.9507 760.049 38.8713 760.37 38.792 760.691L29.083 758.294C29.1631 757.97 29.2438 757.644 29.3243 757.32ZM1967.68 757.32C1967.76 757.644 1967.84 757.969 1967.92 758.293L1958.21 760.691C1958.13 760.37 1958.05 760.048 1957.97 759.728L1967.68 757.32ZM32.0391 746.63L41.7178 749.146C41.6342 749.467 41.5501 749.789 41.4668 750.11L31.7862 747.605C31.8703 747.28 31.9547 746.955 32.0391 746.63ZM1964.96 746.63C1965.05 746.955 1965.13 747.28 1965.21 747.604L1955.53 750.11C1955.45 749.789 1955.37 749.467 1955.28 749.146L1964.96 746.63ZM34.8829 735.932L44.5332 738.555C44.4462 738.875 44.3592 739.195 44.2725 739.516L34.6202 736.902C34.7078 736.579 34.7949 736.255 34.8829 735.932ZM1962.12 735.932C1962.21 736.255 1962.29 736.579 1962.38 736.902L1952.73 739.516C1952.64 739.195 1952.55 738.875 1952.47 738.555L1962.12 735.932ZM37.8428 725.28L47.4629 728.011C47.3724 728.33 47.2816 728.649 47.1914 728.968L37.5684 726.247C37.6595 725.925 37.7514 725.602 37.8428 725.28ZM1959.16 725.28C1959.25 725.602 1959.34 725.925 1959.43 726.247L1949.81 728.968C1949.72 728.649 1949.63 728.33 1949.54 728.011L1959.16 725.28ZM40.9161 714.678L50.5049 717.515C50.411 717.832 50.3172 718.149 50.2237 718.467L40.6319 715.64C40.7264 715.319 40.8212 714.998 40.9161 714.678ZM1956.08 714.677C1956.18 714.997 1956.27 715.318 1956.37 715.639L1946.78 718.467C1946.68 718.149 1946.59 717.832 1946.5 717.515L1956.08 714.677ZM44.1036 704.123L53.6602 707.067C53.5629 707.383 53.4661 707.699 53.3692 708.015L43.8096 705.08C43.9075 704.761 44.0053 704.442 44.1036 704.123ZM1952.9 704.123C1952.99 704.442 1953.09 704.761 1953.19 705.08L1943.63 708.015C1943.53 707.699 1943.44 707.383 1943.34 707.067L1952.9 704.123ZM47.419 693.573L56.9414 696.624C56.8402 696.94 56.7396 697.256 56.6387 697.572L47.1123 694.531C47.2143 694.212 47.3167 693.893 47.419 693.573ZM1949.58 693.573C1949.68 693.893 1949.79 694.212 1949.89 694.531L1940.36 697.572C1940.26 697.256 1940.16 696.94 1940.06 696.624L1949.58 693.573ZM50.8516 683.06L60.3399 686.217C60.2352 686.531 60.1308 686.846 60.0264 687.161L50.5342 684.014C50.6396 683.696 50.7459 683.377 50.8516 683.06ZM1946.15 683.06C1946.25 683.377 1946.36 683.696 1946.46 684.014L1936.97 687.16C1936.87 686.846 1936.76 686.531 1936.66 686.217L1946.15 683.06ZM54.3975 672.598L63.8496 675.86C63.7416 676.173 63.6341 676.487 63.5264 676.8L54.0704 673.547C54.1792 673.23 54.2884 672.914 54.3975 672.598ZM1942.6 672.598C1942.71 672.914 1942.82 673.23 1942.93 673.547L1933.47 676.8C1933.37 676.487 1933.26 676.173 1933.15 675.86L1942.6 672.598ZM58.0547 662.188L67.4707 665.556C67.3594 665.867 67.2478 666.179 67.1368 666.49L57.7178 663.133C57.83 662.818 57.9422 662.503 58.0547 662.188ZM1938.95 662.188C1939.06 662.503 1939.17 662.817 1939.28 663.132L1929.86 666.49C1929.75 666.179 1929.64 665.867 1929.53 665.556L1938.95 662.188ZM61.8301 651.815L71.208 655.287C71.0928 655.598 70.9773 655.91 70.8623 656.222L61.4815 652.759C61.5976 652.444 61.7137 652.13 61.8301 651.815ZM1935.17 651.815C1935.29 652.13 1935.4 652.444 1935.52 652.759L1926.14 656.222C1926.02 655.91 1925.91 655.599 1925.79 655.287L1935.17 651.815ZM65.7295 641.462L75.0674 645.039C74.9488 645.349 74.8303 645.659 74.712 645.969L65.3702 642.401C65.4897 642.088 65.6097 641.775 65.7295 641.462ZM1931.27 641.462C1931.39 641.775 1931.51 642.088 1931.63 642.401L1922.29 645.968C1922.17 645.658 1922.05 645.349 1921.93 645.039L1931.27 641.462ZM69.7393 631.164L79.0371 634.845C78.9152 635.153 78.7936 635.461 78.6719 635.77L69.3702 632.099C69.493 631.787 69.6161 631.475 69.7393 631.164ZM1927.26 631.164C1927.38 631.475 1927.51 631.786 1927.63 632.098L1918.33 635.77C1918.21 635.461 1918.08 635.153 1917.96 634.845L1927.26 631.164ZM73.8594 620.922L83.1162 624.706C82.9911 625.012 82.8661 625.319 82.7412 625.625L73.4805 621.851C73.6067 621.541 73.7329 621.231 73.8594 620.922ZM1923.14 620.922C1923.27 621.231 1923.39 621.541 1923.52 621.851L1914.26 625.625C1914.13 625.319 1914.01 625.012 1913.88 624.706L1923.14 620.922ZM78.0899 610.736L87.3037 614.622C87.1752 614.927 87.0462 615.232 86.918 615.537L77.7002 611.66C77.8298 611.352 77.9601 611.044 78.0899 610.736ZM1918.91 610.736C1919.04 611.044 1919.17 611.351 1919.3 611.659L1910.08 615.537C1909.95 615.232 1909.82 614.927 1909.7 614.622L1918.91 610.736ZM82.4444 600.569L91.6153 604.559C91.483 604.863 91.3498 605.166 91.2178 605.471L82.044 601.491C82.1773 601.184 82.3107 600.877 82.4444 600.569ZM1914.55 600.569C1914.69 600.877 1914.82 601.184 1914.96 601.491L1905.78 605.471C1905.65 605.166 1905.52 604.862 1905.38 604.558L1914.55 600.569ZM86.9112 590.457L96.0362 594.548C95.9006 594.85 95.7642 595.152 95.6289 595.455L86.5 591.374C86.6367 591.068 86.7742 590.763 86.9112 590.457ZM1910.09 590.457C1910.23 590.763 1910.36 591.068 1910.5 591.374L1901.37 595.455C1901.24 595.152 1901.1 594.85 1900.96 594.548L1910.09 590.457ZM91.4844 580.404L100.564 584.596C100.425 584.896 100.286 585.197 100.147 585.498L91.0645 581.315C91.2044 581.012 91.3442 580.708 91.4844 580.404ZM1905.52 580.403C1905.66 580.707 1905.8 581.012 1905.94 581.315L1896.85 585.498C1896.71 585.197 1896.58 584.896 1896.44 584.596L1905.52 580.403ZM96.1661 570.41L105.198 574.703C105.056 575.002 104.914 575.301 104.772 575.6L95.7364 571.316C95.8795 571.014 96.0226 570.712 96.1661 570.41ZM1900.83 570.41C1900.98 570.712 1901.12 571.014 1901.26 571.316L1892.23 575.6C1892.09 575.301 1891.94 575.002 1891.8 574.703L1900.83 570.41ZM100.964 560.46L109.947 564.853C109.802 565.151 109.655 565.449 109.51 565.747L100.522 561.363C100.669 561.062 100.817 560.761 100.964 560.46ZM1896.04 560.46C1896.18 560.761 1896.33 561.062 1896.48 561.363L1887.49 565.747C1887.34 565.449 1887.2 565.151 1887.05 564.853L1896.04 560.46ZM105.875 550.555L114.81 555.047C114.661 555.343 114.512 555.639 114.363 555.936L105.424 551.453C105.574 551.154 105.725 550.854 105.875 550.555ZM1891.12 550.555C1891.28 550.854 1891.43 551.153 1891.58 551.452L1882.64 555.936C1882.49 555.639 1882.34 555.343 1882.19 555.047L1891.12 550.555ZM110.893 540.712L119.776 545.303C119.624 545.597 119.473 545.892 119.321 546.187L110.433 541.604C110.586 541.307 110.739 541.009 110.893 540.712ZM1886.11 540.712C1886.26 541.009 1886.41 541.306 1886.57 541.604L1877.68 546.187C1877.53 545.892 1877.38 545.597 1877.22 545.303L1886.11 540.712ZM116.016 530.933L124.849 535.621C124.693 535.914 124.538 536.206 124.383 536.499L115.546 531.818C115.702 531.523 115.859 531.228 116.016 530.933ZM1880.98 530.932C1881.14 531.227 1881.3 531.523 1881.45 531.818L1872.62 536.499C1872.46 536.206 1872.31 535.914 1872.15 535.621L1880.98 530.932ZM121.245 521.213L130.025 526C129.867 526.291 129.707 526.583 129.549 526.874L120.765 522.096C120.925 521.801 121.085 521.507 121.245 521.213ZM1875.75 521.213C1875.92 521.507 1876.08 521.801 1876.24 522.096L1867.45 526.874C1867.29 526.583 1867.13 526.29 1866.97 525.999L1875.75 521.213ZM126.592 511.534L135.318 516.418C135.157 516.707 134.995 516.997 134.833 517.286L126.102 512.411C126.265 512.119 126.428 511.826 126.592 511.534ZM1870.41 511.534C1870.57 511.826 1870.74 512.119 1870.9 512.411L1862.17 517.286C1862.01 516.997 1861.84 516.707 1861.68 516.418L1870.41 511.534ZM132.043 501.922L140.714 506.902C140.549 507.19 140.384 507.477 140.22 507.765L131.543 502.793C131.709 502.502 131.876 502.212 132.043 501.922ZM1864.96 501.922C1865.12 502.212 1865.29 502.503 1865.46 502.793L1856.78 507.765C1856.62 507.477 1856.45 507.19 1856.29 506.902L1864.96 501.922ZM137.596 492.376L146.212 497.452C146.044 497.737 145.876 498.023 145.708 498.309L137.087 493.24C137.256 492.952 137.426 492.664 137.596 492.376ZM1859.4 492.376C1859.57 492.664 1859.74 492.952 1859.91 493.24L1851.29 498.308C1851.12 498.022 1850.96 497.737 1850.79 497.452L1859.4 492.376ZM143.251 482.897L151.811 488.068C151.639 488.352 151.468 488.635 151.297 488.919L142.732 483.756C142.905 483.47 143.078 483.184 143.251 482.897ZM1853.75 482.897C1853.92 483.184 1854.1 483.47 1854.27 483.756L1845.7 488.918C1845.53 488.635 1845.36 488.352 1845.19 488.068L1853.75 482.897ZM149.018 473.47L157.52 478.735C157.345 479.017 157.17 479.3 156.996 479.582L148.489 474.324C148.665 474.039 148.841 473.754 149.018 473.47ZM1847.98 473.47C1848.16 473.754 1848.33 474.039 1848.51 474.324L1840 479.581C1839.83 479.299 1839.66 479.017 1839.48 478.735L1847.98 473.47ZM154.889 464.107L163.332 469.466C163.154 469.746 162.976 470.026 162.799 470.306L154.351 464.955C154.53 464.672 154.709 464.39 154.889 464.107ZM1842.11 464.107C1842.29 464.39 1842.47 464.672 1842.65 464.955L1834.2 470.306C1834.02 470.026 1833.85 469.746 1833.67 469.466L1842.11 464.107ZM160.86 454.814L169.243 460.267C169.063 460.544 168.882 460.822 168.701 461.1L160.314 455.656C160.496 455.376 160.678 455.095 160.86 454.814ZM1836.14 454.814C1836.32 455.095 1836.5 455.376 1836.69 455.656L1828.3 461.1C1828.12 460.822 1827.94 460.544 1827.76 460.267L1836.14 454.814ZM166.931 445.592L175.253 451.137C175.069 451.412 174.886 451.688 174.703 451.964L166.375 446.428C166.56 446.149 166.745 445.87 166.931 445.592ZM1830.07 445.592C1830.25 445.87 1830.44 446.148 1830.62 446.427L1822.3 451.963C1822.11 451.687 1821.93 451.411 1821.75 451.136L1830.07 445.592ZM173.105 436.435L181.365 442.07C181.178 442.344 180.992 442.619 180.806 442.893L172.539 437.265C172.728 436.988 172.917 436.711 173.105 436.435ZM1823.89 436.435C1824.08 436.711 1824.27 436.988 1824.46 437.265L1816.19 442.893C1816.01 442.619 1815.82 442.344 1815.63 442.07L1823.89 436.435ZM179.384 427.34L187.582 433.066C187.392 433.338 187.202 433.61 187.013 433.882L178.81 428.163C179.001 427.889 179.192 427.614 179.384 427.34ZM1817.62 427.34C1817.81 427.614 1818 427.889 1818.19 428.163L1809.99 433.882C1809.8 433.61 1809.61 433.338 1809.42 433.066L1817.62 427.34ZM185.761 418.318L193.895 424.135C193.702 424.404 193.509 424.675 193.316 424.944L185.177 419.136C185.371 418.863 185.566 418.591 185.761 418.318ZM1811.24 418.318C1811.43 418.591 1811.63 418.863 1811.82 419.136L1803.68 424.944C1803.49 424.675 1803.3 424.404 1803.11 424.135L1811.24 418.318ZM192.234 409.371L200.304 415.277C200.108 415.545 199.912 415.812 199.717 416.079L191.642 410.182C191.839 409.911 192.037 409.641 192.234 409.371ZM1804.77 409.371C1804.96 409.641 1805.16 409.911 1805.36 410.181L1797.28 416.079C1797.09 415.812 1796.89 415.545 1796.7 415.277L1804.77 409.371ZM198.804 400.497L206.808 406.492C206.609 406.757 206.41 407.023 206.212 407.288L198.202 401.302C198.403 401.034 198.603 400.765 198.804 400.497ZM1798.2 400.497C1798.4 400.765 1798.6 401.034 1798.8 401.302L1790.79 407.288C1790.59 407.023 1790.39 406.757 1790.19 406.492L1798.2 400.497ZM205.478 391.688L213.415 397.771C213.213 398.035 213.012 398.298 212.811 398.562L204.867 392.486C205.071 392.22 205.274 391.954 205.478 391.688ZM1791.52 391.688C1791.73 391.954 1791.93 392.22 1792.13 392.486L1784.19 398.562C1783.99 398.298 1783.79 398.035 1783.58 397.771L1791.52 391.688ZM212.246 382.957L220.116 389.127C219.912 389.388 219.707 389.648 219.503 389.909L211.627 383.747C211.833 383.484 212.04 383.22 212.246 382.957ZM1784.75 382.957C1784.96 383.22 1785.17 383.484 1785.37 383.747L1777.5 389.909C1777.29 389.648 1777.09 389.388 1776.88 389.127L1784.75 382.957ZM219.108 374.302L226.91 380.559C226.703 380.817 226.495 381.075 226.288 381.334L218.48 375.086C218.69 374.825 218.899 374.563 219.108 374.302ZM1777.89 374.302C1778.1 374.563 1778.31 374.825 1778.52 375.086L1770.71 381.334C1770.5 381.075 1770.3 380.816 1770.09 380.558L1777.89 374.302ZM226.064 365.726L233.796 372.066C233.586 372.323 233.376 372.58 233.166 372.836L225.428 366.502C225.64 366.243 225.852 365.984 226.064 365.726ZM1770.94 365.726C1771.15 365.984 1771.36 366.243 1771.57 366.502L1763.83 372.836C1763.62 372.58 1763.41 372.323 1763.2 372.066L1770.94 365.726ZM233.116 357.222L240.778 363.648C240.565 363.902 240.352 364.156 240.14 364.41L232.472 357.992C232.687 357.735 232.901 357.478 233.116 357.222ZM1763.88 357.222C1764.1 357.478 1764.31 357.735 1764.53 357.992L1756.86 364.41C1756.65 364.156 1756.43 363.902 1756.22 363.648L1763.88 357.222ZM240.263 348.797L247.854 355.307C247.638 355.558 247.422 355.81 247.207 356.062L239.609 349.56C239.827 349.305 240.045 349.051 240.263 348.797ZM1756.74 348.797C1756.96 349.051 1757.17 349.305 1757.39 349.56L1749.79 356.062C1749.58 355.81 1749.36 355.558 1749.15 355.307L1756.74 348.797ZM247.5 340.451L255.019 347.045C254.8 347.294 254.582 347.544 254.363 347.793L246.839 341.207C247.059 340.955 247.279 340.703 247.5 340.451ZM1749.5 340.451C1749.72 340.703 1749.94 340.955 1750.16 341.207L1742.64 347.792C1742.42 347.543 1742.2 347.294 1741.98 347.045L1749.5 340.451ZM254.828 332.188L262.273 338.863C262.052 339.11 261.831 339.357 261.61 339.604L254.158 332.936C254.381 332.686 254.605 332.437 254.828 332.188ZM1742.17 332.188C1742.4 332.437 1742.62 332.686 1742.84 332.936L1735.39 339.604C1735.17 339.357 1734.95 339.11 1734.73 338.863L1742.17 332.188ZM262.246 324.005L269.618 330.762C269.394 331.006 269.17 331.251 268.946 331.495L261.567 324.745C261.793 324.498 262.02 324.252 262.246 324.005ZM1734.75 324.004C1734.98 324.251 1735.21 324.498 1735.43 324.745L1728.05 331.495C1727.83 331.251 1727.61 331.006 1727.38 330.762L1734.75 324.004ZM269.756 315.902L277.053 322.739C276.826 322.981 276.599 323.224 276.373 323.466L269.069 316.635C269.298 316.39 269.527 316.147 269.756 315.902ZM1727.24 315.901C1727.47 316.146 1727.7 316.39 1727.93 316.635L1720.63 323.466C1720.4 323.224 1720.17 322.981 1719.95 322.739L1727.24 315.901ZM277.353 307.883L284.574 314.801C284.345 315.04 284.116 315.279 283.887 315.519L276.658 308.608C276.89 308.366 277.121 308.125 277.353 307.883ZM1719.65 307.883C1719.88 308.124 1720.11 308.366 1720.34 308.608L1713.11 315.519C1712.88 315.279 1712.65 315.04 1712.43 314.801L1719.65 307.883ZM285.037 299.948L292.183 306.945C291.951 307.182 291.719 307.418 291.487 307.655L284.335 300.666C284.569 300.427 284.803 300.187 285.037 299.948ZM1711.96 299.948C1712.2 300.187 1712.43 300.427 1712.67 300.666L1705.51 307.655C1705.28 307.418 1705.05 307.182 1704.82 306.945L1711.96 299.948ZM292.809 292.099L299.876 299.174C299.642 299.408 299.408 299.643 299.174 299.877L292.099 292.81C292.335 292.573 292.572 292.335 292.809 292.099ZM1704.19 292.099C1704.43 292.335 1704.66 292.572 1704.9 292.809L1697.83 299.877C1697.59 299.643 1697.36 299.408 1697.12 299.174L1704.19 292.099ZM300.666 284.336L307.655 291.487C307.418 291.719 307.181 291.951 306.944 292.183L299.948 285.038C300.187 284.804 300.427 284.57 300.666 284.336ZM1696.33 284.335C1696.57 284.569 1696.81 284.804 1697.05 285.038L1690.05 292.183C1689.82 291.951 1689.58 291.719 1689.34 291.487L1696.33 284.335ZM308.608 276.658L315.519 283.887C315.279 284.116 315.04 284.345 314.801 284.574L307.883 277.353C308.125 277.121 308.367 276.889 308.608 276.658ZM1688.39 276.658C1688.63 276.889 1688.88 277.121 1689.12 277.353L1682.2 284.574C1681.96 284.345 1681.72 284.116 1681.48 283.887L1688.39 276.658ZM316.635 269.069L323.465 276.373C323.223 276.599 322.981 276.826 322.739 277.053L315.901 269.756C316.146 269.527 316.39 269.298 316.635 269.069ZM1680.37 269.069C1680.61 269.298 1680.85 269.527 1681.1 269.756L1674.26 277.053C1674.02 276.826 1673.78 276.599 1673.53 276.373L1680.37 269.069ZM324.745 261.568L331.494 268.946C331.25 269.17 331.006 269.394 330.762 269.618L324.004 262.246C324.251 262.02 324.498 261.794 324.745 261.568ZM1672.25 261.568C1672.5 261.794 1672.75 262.02 1673 262.246L1666.24 269.618C1665.99 269.394 1665.75 269.17 1665.5 268.946L1672.25 261.568ZM332.936 254.158L339.604 261.61C339.357 261.831 339.11 262.052 338.863 262.273L332.188 254.828C332.437 254.605 332.686 254.381 332.936 254.158ZM1664.06 254.158C1664.31 254.381 1664.56 254.605 1664.81 254.828L1658.14 262.273C1657.89 262.052 1657.64 261.831 1657.4 261.61L1664.06 254.158ZM341.207 246.839L347.792 254.363C347.543 254.581 347.294 254.8 347.045 255.019L340.451 247.5C340.703 247.279 340.955 247.059 341.207 246.839ZM1655.79 246.839C1656.04 247.059 1656.3 247.279 1656.55 247.5L1649.96 255.019C1649.71 254.8 1649.46 254.581 1649.21 254.363L1655.79 246.839ZM349.559 239.609L356.062 247.207C355.81 247.422 355.558 247.638 355.307 247.854L348.797 240.263C349.051 240.045 349.304 239.827 349.559 239.609ZM1647.44 239.609C1647.69 239.827 1647.95 240.045 1648.2 240.263L1641.69 247.854C1641.44 247.638 1641.19 247.422 1640.94 247.207L1647.44 239.609ZM357.992 232.472L364.41 240.14C364.156 240.352 363.902 240.565 363.648 240.778L357.222 233.117C357.478 232.902 357.735 232.687 357.992 232.472ZM1639.01 232.472C1639.26 232.687 1639.52 232.902 1639.78 233.117L1633.35 240.778C1633.1 240.565 1632.84 240.352 1632.59 240.14L1639.01 232.472ZM366.502 225.428L372.835 233.167C372.579 233.377 372.322 233.586 372.066 233.796L365.726 226.064C365.984 225.852 366.243 225.64 366.502 225.428ZM1630.5 225.428C1630.76 225.64 1631.02 225.852 1631.27 226.064L1624.93 233.796C1624.68 233.586 1624.42 233.376 1624.16 233.166L1630.5 225.428ZM375.086 218.48L381.334 226.288C381.075 226.495 380.816 226.703 380.558 226.91L374.302 219.108C374.563 218.899 374.825 218.69 375.086 218.48ZM1621.91 218.48C1622.18 218.69 1622.44 218.899 1622.7 219.108L1616.44 226.91C1616.18 226.703 1615.92 226.495 1615.67 226.288L1621.91 218.48ZM383.747 211.627L389.909 219.503C389.648 219.707 389.387 219.912 389.126 220.116L382.957 212.246C383.22 212.04 383.484 211.833 383.747 211.627ZM1613.25 211.627C1613.52 211.833 1613.78 212.04 1614.04 212.246L1607.87 220.116C1607.61 219.912 1607.35 219.707 1607.09 219.503L1613.25 211.627ZM392.486 204.867L398.562 212.811C398.298 213.012 398.035 213.213 397.772 213.415L391.689 205.478C391.954 205.274 392.22 205.071 392.486 204.867ZM1604.51 204.867C1604.78 205.071 1605.05 205.274 1605.31 205.478L1599.23 213.415C1598.97 213.213 1598.7 213.012 1598.44 212.811L1604.51 204.867ZM401.302 198.202L407.288 206.212C407.023 206.41 406.758 206.61 406.492 206.809L400.497 198.805C400.765 198.604 401.034 198.403 401.302 198.202ZM1595.7 198.202C1595.97 198.403 1596.23 198.603 1596.5 198.804L1590.51 206.808C1590.24 206.609 1589.98 206.41 1589.71 206.212L1595.7 198.202ZM410.181 191.642L416.079 199.717C415.812 199.912 415.545 200.108 415.277 200.304L409.371 192.234C409.641 192.037 409.911 191.839 410.181 191.642ZM1586.82 191.642C1587.09 191.839 1587.36 192.037 1587.63 192.234L1581.72 200.304C1581.46 200.108 1581.19 199.912 1580.92 199.717L1586.82 191.642ZM419.135 185.177L424.944 193.317C424.675 193.51 424.404 193.702 424.135 193.895L418.318 185.761C418.591 185.566 418.862 185.371 419.135 185.177ZM1577.86 185.177C1578.14 185.371 1578.41 185.566 1578.68 185.761L1572.87 193.895C1572.6 193.702 1572.33 193.51 1572.06 193.317L1577.86 185.177ZM428.163 178.81L433.882 187.013C433.61 187.202 433.338 187.392 433.066 187.582L427.34 179.384C427.614 179.192 427.889 179.001 428.163 178.81ZM1568.84 178.81C1569.11 179.001 1569.39 179.192 1569.66 179.384L1563.93 187.582C1563.66 187.392 1563.39 187.202 1563.12 187.013L1568.84 178.81ZM437.265 172.539L442.893 180.806C442.618 180.992 442.344 181.179 442.07 181.366L436.435 173.105C436.711 172.917 436.988 172.728 437.265 172.539ZM1559.74 172.539C1560.01 172.728 1560.29 172.917 1560.57 173.105L1554.93 181.365C1554.66 181.178 1554.38 180.992 1554.11 180.806L1559.74 172.539ZM446.427 166.375L451.963 174.703C451.687 174.886 451.411 175.069 451.136 175.253L445.592 166.931C445.87 166.745 446.148 166.56 446.427 166.375ZM1550.57 166.375C1550.85 166.56 1551.13 166.745 1551.41 166.931L1545.86 175.253C1545.59 175.069 1545.31 174.886 1545.04 174.703L1550.57 166.375ZM455.656 160.313L461.1 168.702C460.822 168.882 460.544 169.063 460.267 169.243L454.814 160.86C455.094 160.678 455.376 160.496 455.656 160.313ZM1541.34 160.313C1541.62 160.496 1541.91 160.678 1542.19 160.86L1536.73 169.243C1536.46 169.063 1536.18 168.881 1535.9 168.701L1541.34 160.313ZM464.955 154.352L470.306 162.799C470.026 162.976 469.746 163.154 469.466 163.332L464.106 154.889C464.389 154.709 464.672 154.531 464.955 154.352ZM1532.04 154.351C1532.33 154.53 1532.61 154.709 1532.89 154.889L1527.53 163.332C1527.25 163.154 1526.97 162.976 1526.69 162.799L1532.04 154.351ZM474.324 148.489L479.581 156.996C479.299 157.17 479.017 157.345 478.735 157.52L473.47 149.018C473.754 148.841 474.039 148.665 474.324 148.489ZM1522.68 148.489C1522.96 148.665 1523.25 148.841 1523.53 149.018L1518.26 157.52C1517.98 157.345 1517.7 157.17 1517.42 156.996L1522.68 148.489ZM483.756 142.732L488.918 151.297C488.635 151.468 488.352 151.639 488.068 151.811L482.897 143.251C483.183 143.078 483.47 142.905 483.756 142.732ZM1513.24 142.732C1513.53 142.905 1513.82 143.078 1514.1 143.251L1508.93 151.811C1508.65 151.639 1508.37 151.468 1508.08 151.297L1513.24 142.732ZM493.24 137.087L498.308 145.708C498.022 145.876 497.736 146.044 497.451 146.212L492.375 137.596C492.663 137.426 492.952 137.256 493.24 137.087ZM1503.76 137.087C1504.05 137.256 1504.34 137.426 1504.62 137.596L1499.55 146.212C1499.26 146.044 1498.98 145.876 1498.69 145.708L1503.76 137.087ZM502.793 131.543L507.765 140.22C507.477 140.384 507.189 140.549 506.901 140.714L501.922 132.043C502.212 131.876 502.503 131.709 502.793 131.543ZM1494.21 131.543C1494.5 131.709 1494.79 131.876 1495.08 132.043L1490.1 140.714C1489.81 140.549 1489.52 140.384 1489.24 140.22L1494.21 131.543ZM512.411 126.102L517.286 134.833C516.997 134.995 516.707 135.156 516.418 135.318L511.534 126.593C511.827 126.429 512.119 126.265 512.411 126.102ZM1484.59 126.102C1484.88 126.265 1485.17 126.428 1485.47 126.592L1480.58 135.318C1480.29 135.156 1480 134.995 1479.71 134.833L1484.59 126.102ZM522.096 120.765L526.874 129.55C526.583 129.708 526.29 129.867 525.999 130.025L521.213 121.246C521.507 121.086 521.801 120.925 522.096 120.765ZM1474.9 120.765C1475.2 120.925 1475.49 121.085 1475.79 121.245L1471 130.025C1470.71 129.867 1470.42 129.707 1470.13 129.549L1474.9 120.765ZM531.818 115.546L536.499 124.383C536.207 124.538 535.914 124.693 535.621 124.849L530.932 116.016C531.227 115.859 531.523 115.702 531.818 115.546ZM1465.18 115.546C1465.48 115.702 1465.77 115.859 1466.07 116.016L1461.38 124.849C1461.09 124.693 1460.79 124.538 1460.5 124.383L1465.18 115.546ZM541.604 110.433L546.186 119.321C545.891 119.473 545.597 119.624 545.303 119.776L540.712 110.893C541.009 110.739 541.306 110.586 541.604 110.433ZM1455.4 110.433C1455.69 110.586 1455.99 110.739 1456.29 110.893L1451.7 119.776C1451.4 119.624 1451.11 119.473 1450.81 119.321L1455.4 110.433ZM551.452 105.425L555.936 114.363C555.639 114.512 555.343 114.661 555.047 114.81L550.555 105.875C550.854 105.725 551.153 105.575 551.452 105.425ZM1445.55 105.424C1445.85 105.574 1446.15 105.725 1446.45 105.875L1441.95 114.81C1441.66 114.661 1441.36 114.512 1441.06 114.363L1445.55 105.424ZM561.363 100.522L565.747 109.511C565.449 109.656 565.151 109.802 564.853 109.947L560.46 100.964C560.761 100.817 561.062 100.669 561.363 100.522ZM1435.64 100.522C1435.94 100.669 1436.24 100.817 1436.54 100.964L1432.15 109.947C1431.85 109.802 1431.55 109.655 1431.25 109.51L1435.64 100.522ZM571.316 95.7363L575.6 104.772C575.301 104.914 575.002 105.056 574.703 105.198L570.41 96.166C570.712 96.0225 571.014 95.8795 571.316 95.7363ZM1425.68 95.7363C1425.99 95.8795 1426.29 96.0226 1426.59 96.166L1422.3 105.198C1422 105.056 1421.7 104.914 1421.4 104.772L1425.68 95.7363ZM581.315 91.0645L585.498 100.147C585.197 100.286 584.896 100.425 584.596 100.563L580.403 91.4854C580.707 91.3451 581.012 91.2044 581.315 91.0645ZM1415.68 91.0645C1415.99 91.2043 1416.29 91.3442 1416.6 91.4844L1412.4 100.563C1412.1 100.425 1411.8 100.286 1411.5 100.147L1415.68 91.0645ZM591.374 86.5L595.455 95.6299C595.153 95.7651 594.85 95.9006 594.548 96.0361L590.457 86.9111C590.763 86.7742 591.068 86.6367 591.374 86.5ZM1405.63 86.5C1405.93 86.6367 1406.24 86.7742 1406.54 86.9111L1402.45 96.0361C1402.15 95.9005 1401.85 95.7642 1401.54 95.6289L1405.63 86.5ZM601.491 82.0439L605.471 91.2188C605.166 91.3508 604.862 91.4829 604.558 91.6152L600.569 82.4453C600.877 82.3117 601.184 82.1773 601.491 82.0439ZM1395.51 82.0439C1395.82 82.1773 1396.12 82.3107 1396.43 82.4443L1392.44 91.6152C1392.14 91.4829 1391.83 91.3498 1391.53 91.2178L1395.51 82.0439ZM611.659 77.7002L615.536 86.918C615.231 87.0462 614.927 87.1752 614.622 87.3037L610.735 78.0898C611.043 77.96 611.351 77.8297 611.659 77.7002ZM1385.34 77.7002C1385.65 77.8297 1385.96 77.96 1386.26 78.0898L1382.38 87.3037C1382.07 87.1752 1381.77 87.0462 1381.46 86.918L1385.34 77.7002ZM621.851 73.4805L625.625 82.7412C625.319 82.8661 625.012 82.991 624.705 83.1162L620.922 73.8594C621.231 73.7329 621.541 73.6067 621.851 73.4805ZM1375.15 73.4805C1375.46 73.6067 1375.77 73.7329 1376.08 73.8594L1372.29 83.1162C1371.99 82.991 1371.68 82.8661 1371.38 82.7412L1375.15 73.4805ZM632.098 69.3701L635.769 78.6719C635.461 78.7934 635.153 78.9152 634.845 79.0371L631.164 69.7393C631.475 69.6161 631.786 69.493 632.098 69.3701ZM1364.9 69.3701C1365.21 69.493 1365.52 69.6161 1365.84 69.7393L1362.16 79.0371C1361.85 78.9152 1361.54 78.7935 1361.23 78.6719L1364.9 69.3701ZM642.401 65.3701L645.968 74.7119C645.658 74.8302 645.349 74.9488 645.039 75.0674L641.462 65.7295C641.775 65.6096 642.088 65.4897 642.401 65.3701ZM1354.6 65.3701C1354.91 65.4897 1355.23 65.6096 1355.54 65.7295L1351.96 75.0674C1351.65 74.9488 1351.34 74.8302 1351.03 74.7119L1354.6 65.3701ZM652.759 61.4814L656.222 70.8623C655.91 70.9773 655.599 71.0927 655.287 71.208L651.815 61.8301C652.13 61.7137 652.444 61.5975 652.759 61.4814ZM1344.24 61.4814C1344.56 61.5975 1344.87 61.7137 1345.18 61.8301L1341.71 71.208C1341.4 71.0927 1341.09 70.9773 1340.78 70.8623L1344.24 61.4814ZM663.132 57.7178L666.49 67.1367C666.179 67.2478 665.867 67.3593 665.556 67.4707L662.188 58.0547C662.502 57.9422 662.817 57.83 663.132 57.7178ZM1333.87 57.7178C1334.18 57.83 1334.5 57.9422 1334.81 58.0547L1331.44 67.4707C1331.13 67.3593 1330.82 67.2478 1330.51 67.1367L1333.87 57.7178ZM673.547 54.0703L676.8 63.5264C676.487 63.6341 676.173 63.7416 675.86 63.8496L672.598 54.3975C672.914 54.2883 673.231 54.1791 673.547 54.0703ZM1323.45 54.0703C1323.77 54.1792 1324.09 54.2883 1324.4 54.3975L1321.14 63.8496C1320.83 63.7416 1320.51 63.6341 1320.2 63.5264L1323.45 54.0703ZM684.013 50.5352L687.16 60.0264C686.846 60.1307 686.531 60.2352 686.217 60.3398L683.06 50.8516C683.377 50.7459 683.695 50.6405 684.013 50.5352ZM1312.99 50.5342C1313.3 50.6396 1313.62 50.7458 1313.94 50.8516L1310.78 60.3398C1310.47 60.2352 1310.15 60.1307 1309.84 60.0264L1312.99 50.5342ZM694.531 47.1123L697.572 56.6387C697.256 56.7396 696.94 56.8411 696.624 56.9424L693.573 47.4189C693.893 47.3167 694.212 47.2143 694.531 47.1123ZM1302.47 47.1123C1302.79 47.2143 1303.11 47.3167 1303.43 47.4189L1300.38 56.9414C1300.06 56.8402 1299.74 56.7396 1299.43 56.6387L1302.47 47.1123ZM705.08 43.8096L708.015 53.3691C707.699 53.4661 707.383 53.5629 707.067 53.6602L704.123 44.1035C704.442 44.0053 704.761 43.9075 705.08 43.8096ZM1291.92 43.8096C1292.24 43.9075 1292.56 44.0053 1292.88 44.1035L1289.93 53.6602C1289.62 53.5629 1289.3 53.4661 1288.99 53.3691L1291.92 43.8096ZM715.639 40.6318L718.467 50.2236C718.149 50.3172 717.832 50.411 717.515 50.5049L714.677 40.916C714.997 40.8212 715.318 40.7264 715.639 40.6318ZM1281.36 40.6318C1281.68 40.7263 1282 40.8212 1282.32 40.916L1279.49 50.5049C1279.17 50.411 1278.85 50.3172 1278.53 50.2236L1281.36 40.6318ZM726.246 37.5693L728.968 47.1914C728.649 47.2816 728.33 47.3724 728.011 47.4629L725.28 37.8428C725.602 37.7514 725.924 37.6604 726.246 37.5693ZM1270.75 37.5684C1271.08 37.6595 1271.4 37.7514 1271.72 37.8428L1268.99 47.4629C1268.67 47.3724 1268.35 47.2816 1268.03 47.1914L1270.75 37.5684ZM736.902 34.6201L739.516 44.2725C739.195 44.3592 738.875 44.4462 738.555 44.5332L735.932 34.8828C736.255 34.7949 736.579 34.7077 736.902 34.6201ZM1260.1 34.6201C1260.42 34.7077 1260.74 34.7949 1261.07 34.8828L1258.45 44.5332C1258.13 44.4462 1257.8 44.3592 1257.48 44.2725L1260.1 34.6201ZM747.605 31.7861L750.11 41.4668C749.789 41.55 749.467 41.6342 749.146 41.7178L746.63 32.0391C746.955 31.9546 747.28 31.8702 747.605 31.7861ZM1249.39 31.7861C1249.72 31.8703 1250.05 31.9546 1250.37 32.0391L1247.85 41.7178C1247.53 41.6342 1247.21 41.5501 1246.89 41.4668L1249.39 31.7861ZM758.293 29.083L760.69 38.792C760.37 38.8712 760.048 38.9507 759.728 39.0303L757.32 29.3242C757.645 29.2438 757.969 29.1631 758.293 29.083ZM1238.71 29.083C1239.03 29.1631 1239.36 29.2438 1239.68 29.3242L1237.27 39.0303C1236.95 38.9507 1236.63 38.8713 1236.31 38.792L1238.71 29.083ZM769.019 26.498L771.308 36.2324C770.985 36.3082 770.663 36.3838 770.341 36.46L768.041 26.7285C768.367 26.6516 768.693 26.5746 769.019 26.498ZM1227.98 26.498C1228.31 26.5746 1228.63 26.6516 1228.96 26.7285L1226.66 36.46C1226.34 36.3838 1226.01 36.3082 1225.69 36.2324L1227.98 26.498ZM779.787 24.0283L781.969 33.7871C781.645 33.8595 781.321 33.9322 780.997 34.0049L778.807 24.248C779.133 24.1747 779.46 24.1014 779.787 24.0283ZM1217.21 24.0283C1217.54 24.1014 1217.87 24.1746 1218.19 24.248L1216 34.0049C1215.68 33.9322 1215.35 33.8594 1215.03 33.7871L1217.21 24.0283ZM790.601 21.6748L792.673 31.458C792.348 31.5268 792.023 31.5959 791.698 31.665L789.616 21.8838C789.944 21.814 790.272 21.7443 790.601 21.6748ZM1206.4 21.6748C1206.73 21.7443 1207.06 21.8139 1207.38 21.8838L1205.3 31.665C1204.98 31.5959 1204.65 31.5268 1204.33 31.458L1206.4 21.6748ZM801.427 19.4453L803.39 29.251C803.066 29.3158 802.742 29.3802 802.418 29.4453L800.445 19.6426C800.772 19.5768 801.1 19.5108 801.427 19.4453ZM1195.57 19.4453C1195.9 19.5108 1196.23 19.5758 1196.55 19.6416L1194.58 29.4453C1194.26 29.3802 1193.93 29.3158 1193.61 29.251L1195.57 19.4453ZM812.244 17.3418L814.099 27.1689C813.774 27.2303 813.448 27.2909 813.123 27.3525L811.26 17.5283C811.588 17.4661 811.916 17.4037 812.244 17.3418ZM1184.75 17.3418C1185.08 17.4038 1185.41 17.466 1185.74 17.5283L1183.88 27.3525C1183.55 27.2909 1183.23 27.2293 1182.9 27.168L1184.75 17.3418ZM823.104 15.3555L824.849 25.2021C824.522 25.26 824.195 25.3178 823.869 25.376L822.115 15.5313C822.445 15.4725 822.774 15.4139 823.104 15.3555ZM1173.9 15.3555C1174.23 15.4139 1174.56 15.4725 1174.88 15.5313L1173.13 25.376C1172.8 25.3178 1172.48 25.26 1172.15 25.2021L1173.9 15.3555ZM834.004 13.4863L835.639 23.3516C835.311 23.4059 834.984 23.46 834.656 23.5146L833.011 13.6514C833.342 13.5962 833.673 13.5412 834.004 13.4863ZM1163 13.4863C1163.33 13.5412 1163.66 13.5962 1163.99 13.6514L1162.34 23.5146C1162.02 23.46 1161.69 23.4058 1161.36 23.3516L1163 13.4863ZM844.943 11.7354L846.469 21.6182C846.14 21.6689 845.811 21.7194 845.482 21.7705L843.947 11.8896C844.279 11.8381 844.611 11.7866 844.943 11.7354ZM1152.06 11.7354C1152.39 11.7866 1152.72 11.8381 1153.05 11.8896L1151.52 21.7705C1151.19 21.7194 1150.86 21.6689 1150.53 21.6182L1152.06 11.7354ZM855.842 10.1143L857.258 20.0137C856.931 20.0605 856.603 20.1072 856.276 20.1543L854.851 10.2568C855.181 10.2092 855.511 10.1615 855.842 10.1143ZM1141.16 10.1143C1141.49 10.1615 1141.82 10.2093 1142.15 10.2568L1140.72 20.1543C1140.4 20.1072 1140.07 20.0605 1139.74 20.0137L1141.16 10.1143ZM866.766 8.61328L868.072 18.5273C867.744 18.5706 867.416 18.6146 867.088 18.6582L865.772 8.74512C866.103 8.70111 866.434 8.65697 866.766 8.61328ZM1130.23 8.61328C1130.56 8.65699 1130.9 8.70109 1131.23 8.74512L1129.91 18.6582C1129.58 18.6146 1129.26 18.5706 1128.93 18.5273L1130.23 8.61328ZM877.728 7.23047L878.924 17.1582C878.595 17.1979 878.266 17.2383 877.937 17.2783L876.73 7.35059C877.062 7.31016 877.395 7.27057 877.728 7.23047ZM1119.27 7.23047C1119.61 7.27058 1119.94 7.31014 1120.27 7.35059L1119.06 17.2783C1118.73 17.2383 1118.4 17.1979 1118.08 17.1582L1119.27 7.23047ZM888.725 5.96582L889.813 15.9063C889.482 15.9424 889.151 15.9792 888.82 16.0156L887.724 6.07617C888.057 6.03935 888.391 6.00232 888.725 5.96582ZM1108.27 5.96582C1108.61 6.00233 1108.94 6.03934 1109.28 6.07617L1108.18 16.0156C1107.85 15.9792 1107.52 15.9424 1107.19 15.9063L1108.27 5.96582ZM899.727 4.82422L900.704 14.7764C900.376 14.8086 900.047 14.8405 899.719 14.873L898.732 4.92285C899.063 4.88996 899.395 4.85678 899.727 4.82422ZM1097.27 4.82422C1097.6 4.85678 1097.94 4.88899 1098.27 4.92188L1097.28 14.873C1096.95 14.8405 1096.62 14.8086 1096.3 14.7764L1097.27 4.82422ZM910.69 3.80859L911.559 13.7705C911.229 13.7992 910.9 13.8284 910.57 13.8574L909.692 3.89551C910.025 3.86619 910.358 3.83758 910.69 3.80859ZM1086.31 3.80859C1086.64 3.83758 1086.98 3.8662 1087.31 3.89551L1086.43 13.8574C1086.1 13.8284 1085.77 13.7992 1085.44 13.7705L1086.31 3.80859ZM921.688 2.91113L922.446 12.8818C922.116 12.907 921.785 12.9325 921.455 12.958L920.687 2.9873C921.02 2.9616 921.354 2.93651 921.688 2.91113ZM1075.31 2.91113C1075.65 2.93652 1075.98 2.96159 1076.31 2.9873L1075.54 12.958C1075.21 12.9326 1074.88 12.907 1074.55 12.8818L1075.31 2.91113ZM932.719 2.13281L933.368 12.1113C933.037 12.1329 932.704 12.1549 932.373 12.1768L931.715 2.19824C932.049 2.17615 932.384 2.15458 932.719 2.13281ZM1064.28 2.13281C1064.62 2.15458 1064.95 2.17615 1065.29 2.19824L1064.63 12.1768C1064.29 12.1549 1063.96 12.1329 1063.63 12.1113L1064.28 2.13281ZM943.782 1.47363L944.321 11.459C943.989 11.4769 943.657 11.4954 943.324 11.5137L942.774 1.5293C943.11 1.51083 943.447 1.49177 943.782 1.47363ZM1053.22 1.47363C1053.55 1.49176 1053.89 1.51084 1054.22 1.5293L1053.68 11.5137C1053.34 11.4954 1053.01 11.4769 1052.68 11.459L1053.22 1.47363ZM954.795 0.939453L955.225 10.9297C954.895 10.9439 954.565 10.9591 954.235 10.9736L953.796 0.983398C954.129 0.968729 954.462 0.953796 954.795 0.939453ZM1042.21 0.939453C1042.54 0.953799 1042.87 0.968727 1043.2 0.983398L1042.76 10.9736C1042.43 10.9591 1042.1 10.9439 1041.77 10.9297L1042.21 0.939453ZM965.803 0.525391L966.124 10.5205C965.794 10.5311 965.463 10.5418 965.133 10.5527L964.801 0.557617C965.135 0.546543 965.469 0.536137 965.803 0.525391ZM1031.2 0.525391C1031.53 0.536133 1031.87 0.546547 1032.2 0.557617L1031.87 10.5527C1031.54 10.5418 1031.21 10.5311 1030.88 10.5205L1031.2 0.525391ZM976.841 0.230469L977.054 10.2275C976.722 10.2346 976.39 10.2426 976.059 10.25L975.836 0.251953C976.171 0.244497 976.506 0.237596 976.841 0.230469ZM1020.16 0.230469C1020.49 0.237595 1020.83 0.244497 1021.16 0.251953L1020.94 10.25C1020.61 10.2426 1020.28 10.2346 1019.95 10.2275L1020.16 0.230469ZM987.908 0.0546875L988.013 10.0547C987.68 10.0581 987.347 10.0616 987.015 10.0654L986.901 0.0664063C987.237 0.0625863 987.573 0.0581763 987.908 0.0546875ZM1009.09 0.0546875C1009.43 0.0581778 1009.76 0.0625845 1010.1 0.0664063L1009.98 10.0654C1009.65 10.0616 1009.32 10.0581 1008.99 10.0547L1009.09 0.0546875ZM999.005 0L999 10H998L997.995 0L999.005 0Z" fill="#E1E1E1"/>
</svg>
