<svg width="24" height="24" viewBox="0 0 24 24" fill="none" xmlns="http://www.w3.org/2000/svg">
<path d="M21.5 5.8C21.4749 4.95926 21.1297 4.15984 20.5349 3.56508C19.9402 2.97032 19.1407 2.62511 18.3 2.6H18.2C17.3757 2.62349 16.5901 2.95472 15.9979 3.52847C15.4056 4.10221 15.0496 4.8769 15 5.7V18.3C15.026 19.1578 15.3851 19.9717 16.0012 20.5691C16.6173 21.1665 17.4418 21.5004 18.3 21.5C19.1407 21.4749 19.9402 21.1297 20.5349 20.5349C21.1297 19.9402 21.4749 19.1407 21.5 18.3C21.5004 17.4418 21.1665 16.6173 20.5691 16.0012C19.9717 15.3851 19.1578 15.026 18.3 15H5.7C4.85926 15.0251 4.05984 15.3703 3.46508 15.9651C2.87032 16.5598 2.52511 17.3593 2.5 18.2C2.52511 19.0407 2.87032 19.8402 3.46508 20.4349C4.05984 21.0297 4.85926 21.3749 5.7 21.4H5.8C6.62426 21.3765 7.40986 21.0453 8.00211 20.4715C8.59437 19.8978 8.95036 19.1231 9 18.3V5.7C8.97489 4.85926 8.62968 4.05984 8.03492 3.46508C7.44016 2.87032 6.64074 2.52511 5.8 2.5H5.7C4.85926 2.52511 4.05984 2.87032 3.46508 3.46508C2.87032 4.05984 2.52511 4.85926 2.5 5.7C2.49961 6.55816 2.83352 7.38272 3.43093 7.9988C4.02833 8.61487 4.84223 8.974 5.7 9H18.3C19.1407 8.97489 19.9402 8.62968 20.5349 8.03492C21.1297 7.44016 21.4749 6.64074 21.5 5.8Z" stroke="black"/>
</svg>
