<svg width="24" height="24" viewBox="0 0 24 24" fill="none" xmlns="http://www.w3.org/2000/svg">
<path fill-rule="evenodd" clip-rule="evenodd" d="M14.719 2.04564L3.6526 2.86303C2.75981 2.94023 2.44922 3.52362 2.44922 4.22281V16.3547C2.44922 16.8993 2.64261 17.3653 3.10921 17.988L5.71058 21.3706C6.13797 21.9152 6.52657 22.032 7.34256 21.9932L20.1938 21.2152C21.2804 21.1378 21.5918 20.6318 21.5918 19.7766V6.12819C21.5918 5.68619 21.4172 5.5588 20.9032 5.1816L17.2824 2.62883C16.4278 2.00744 16.0784 1.92904 14.719 2.04564ZM7.63315 5.90479C6.58377 5.97539 6.34577 5.99139 5.74978 5.5068L4.2346 4.30161C4.0806 4.14561 4.158 3.95102 4.54599 3.91222L15.1844 3.13482C16.0778 3.05683 16.543 3.36822 16.8924 3.64022L18.717 4.9622C18.795 5.0016 18.989 5.2342 18.7556 5.2342L7.76915 5.89559L7.63315 5.90479ZM6.40977 19.66V8.07357C6.40977 7.56757 6.56517 7.33417 7.03036 7.29498L19.649 6.55618C20.077 6.51758 20.2704 6.78958 20.2704 7.29477V18.804C20.2704 19.31 20.1924 19.738 19.4938 19.7766L7.41856 20.4766C6.71997 20.5152 6.40977 20.2826 6.40977 19.66ZM18.3296 8.69476C18.407 9.04475 18.3296 9.39475 17.9796 9.43475L17.3976 9.55015V18.1046C16.8922 18.3766 16.427 18.532 16.0382 18.532C15.4168 18.532 15.2616 18.3374 14.7962 17.7546L10.9903 11.7667V17.5601L12.1943 17.8326C12.1943 17.8326 12.1943 18.5326 11.2229 18.5326L8.54494 18.688C8.46694 18.532 8.54494 18.1434 8.81634 18.066L9.51573 17.872V10.2121L8.54514 10.1335C8.46714 9.78355 8.66114 9.27815 9.20514 9.23895L12.0785 9.04555L16.0384 15.1109V9.74495L15.029 9.62895C14.951 9.20035 15.2616 8.88896 15.6496 8.85096L18.3296 8.69476Z" fill="black"/>
</svg>
