<svg width="24" height="24" viewBox="0 0 24 24" fill="none" xmlns="http://www.w3.org/2000/svg">
<path d="M6.2 14.637C6.2 15.0523 6.07684 15.4584 5.84609 15.8037C5.61534 16.149 5.28736 16.4182 4.90364 16.5771C4.51991 16.7361 4.09767 16.7777 3.69031 16.6967C3.28295 16.6156 2.90877 16.4156 2.61508 16.1219C2.32139 15.8282 2.12138 15.4541 2.04035 15.0467C1.95932 14.6393 2.00091 14.2171 2.15985 13.8334C2.3188 13.4496 2.58796 13.1217 2.9333 12.8909C3.27865 12.6602 3.68466 12.537 4.1 12.537H6.2V14.637ZM7.259 14.637C7.259 14.08 7.48025 13.5459 7.87408 13.1521C8.2679 12.7583 8.80205 12.537 9.359 12.537C9.91596 12.537 10.4501 12.7583 10.8439 13.1521C11.2378 13.5459 11.459 14.08 11.459 14.637V19.9C11.459 20.457 11.2378 20.9911 10.8439 21.3849C10.4501 21.7788 9.91596 22 9.359 22C8.80205 22 8.2679 21.7788 7.87408 21.3849C7.48025 20.9911 7.259 20.457 7.259 19.9V14.637ZM9.362 6.2C8.94666 6.2 8.54065 6.07684 8.1953 5.84609C7.84996 5.61534 7.5808 5.28736 7.42185 4.90364C7.26291 4.51991 7.22132 4.09767 7.30235 3.69031C7.38338 3.28295 7.58339 2.90877 7.87708 2.61508C8.17077 2.32139 8.54495 2.12138 8.95231 2.04035C9.35967 1.95932 9.78191 2.00091 10.1656 2.15985C10.5494 2.3188 10.8773 2.58796 11.1081 2.9333C11.3388 3.27865 11.462 3.68466 11.462 4.1V6.2H9.362ZM9.362 7.259C9.91896 7.259 10.4531 7.48025 10.8469 7.87408C11.2408 8.2679 11.462 8.80205 11.462 9.359C11.462 9.91596 11.2408 10.4501 10.8469 10.8439C10.4531 11.2378 9.91896 11.459 9.362 11.459H4.1C3.54305 11.459 3.0089 11.2378 2.61508 10.8439C2.22125 10.4501 2 9.91596 2 9.359C2 8.80205 2.22125 8.2679 2.61508 7.87408C3.0089 7.48025 3.54305 7.259 4.1 7.259H9.362ZM17.797 9.359C17.797 8.94366 17.9202 8.53765 18.1509 8.1923C18.3817 7.84696 18.7096 7.5778 19.0934 7.41885C19.4771 7.25991 19.8993 7.21832 20.3067 7.29935C20.7141 7.38038 21.0882 7.58039 21.3819 7.87408C21.6756 8.16777 21.8756 8.54195 21.9566 8.94931C22.0377 9.35667 21.9961 9.77891 21.8371 10.1626C21.6782 10.5464 21.409 10.8743 21.0637 11.1051C20.7184 11.3358 20.3123 11.459 19.897 11.459H17.8L17.797 9.359ZM16.74 9.359C16.74 9.91596 16.5188 10.4501 16.1249 10.8439C15.7311 11.2378 15.197 11.459 14.64 11.459C14.083 11.459 13.5489 11.2378 13.1551 10.8439C12.7613 10.4501 12.54 9.91596 12.54 9.359V4.1C12.54 3.82422 12.5943 3.55115 12.6999 3.29637C12.8054 3.04158 12.9601 2.81008 13.1551 2.61508C13.3501 2.42007 13.5816 2.26539 13.8364 2.15985C14.0911 2.05432 14.3642 2 14.64 2C14.9158 2 15.1889 2.05432 15.4436 2.15985C15.6984 2.26539 15.9299 2.42007 16.1249 2.61508C16.3199 2.81008 16.4746 3.04158 16.5801 3.29637C16.6857 3.55115 16.74 3.82422 16.74 4.1V9.359ZM14.64 17.794C15.0553 17.794 15.4614 17.9172 15.8067 18.1479C16.152 18.3787 16.4212 18.7066 16.5801 19.0904C16.7391 19.4741 16.7807 19.8963 16.6997 20.3037C16.6186 20.7111 16.4186 21.0852 16.1249 21.3789C15.8312 21.6726 15.4571 21.8726 15.0497 21.9536C14.6423 22.0347 14.2201 21.9931 13.8364 21.8341C13.4526 21.6752 13.1247 21.406 12.8939 21.0607C12.6632 20.7154 12.54 20.3093 12.54 19.894V17.8L14.64 17.794ZM14.64 16.737C14.083 16.737 13.5489 16.5158 13.1551 16.1219C12.7613 15.7281 12.54 15.194 12.54 14.637C12.54 14.08 12.7613 13.5459 13.1551 13.1521C13.5489 12.7583 14.083 12.537 14.64 12.537H19.9C20.457 12.537 20.9911 12.7583 21.3849 13.1521C21.7788 13.5459 22 14.08 22 14.637C22 15.194 21.7788 15.7281 21.3849 16.1219C20.9911 16.5158 20.457 16.737 19.9 16.737H14.64Z" fill="black"/>
</svg>
