<svg width="1010" height="666" viewBox="0 0 1010 666" fill="none" xmlns="http://www.w3.org/2000/svg">
<mask id="mask0_865_5260" style="mask-type:luminance" maskUnits="userSpaceOnUse" x="0" y="0" width="1010" height="666">
<path d="M1009.67 0H0V665.963H1009.67V0Z" fill="white"/>
</mask>
<g mask="url(#mask0_865_5260)">
<path d="M777.92 401.486L777.788 401.513L777.461 401.518L777.175 401.791L776.978 401.905L776.669 402L776.341 402.154L776.246 402.425L776.237 402.621L776.184 402.84L775.652 403.158L775.504 403.125L775.401 403.007L775.244 403.031L775.138 403.09L775.012 403.082L774.871 403.154L774.686 403.132L774.516 403.031L774.418 403.005L774.301 403.004L774.279 403.123L774.453 403.585L774.498 403.796L773.929 404.418L773.992 404.818L773.838 405.125L773.494 405.372L772.849 406.008L772.558 406.022L772.339 406.166L771.861 407.208L771.856 407.565L771.781 407.826L771.797 408.076L771.588 408.568L771.37 408.776L771.322 409.044L771.631 409.595L771.666 409.692L771.846 409.988L771.933 410.199L772.071 410.41L772.568 410.957L772.79 411.124L773.057 411.237L773.541 411.729L773.785 412.042L773.674 412.255L773.729 412.706L773.384 412.573L773.424 412.626L773.835 412.873L774.449 413.737L774.984 414.163L775.527 414.647L775.697 415.106L776.187 415.41L776.732 415.85L776.709 415.949L776.856 416.067L777.222 416.3L777.445 416.547L777.531 416.781L777.666 416.819L777.819 416.761L777.971 416.74L778.079 416.757L778.243 417.014L778.472 417.243L778.582 417.454L778.672 417.426L778.746 417.458L778.765 417.634L778.798 417.75L779.105 418.089L779.251 418.406L779.617 418.922L779.888 419.215L780.08 419.38L780.301 419.521L780.517 420.092L780.634 420.61L780.865 421.184L781.04 421.434L781.046 421.904L781.188 422.389L781.339 422.716L781.384 423.05L781.431 423.216L781.489 423.341L781.654 423.906L781.611 424.169L781.496 423.912L781.511 424.671L781.612 425.072L781.567 425.562L781.672 425.734L781.86 426.289L781.993 426.488L781.981 427.165L782.051 427.507L781.873 427.303L781.744 427.072L781.571 427.194L781.416 427.375L781.657 428.103L781.383 428.034L781.407 429.012L781.521 429.24L781.529 429.349L781.496 429.479L781.42 429.336L781.404 429.189L781.361 429.222L781.363 429.298L781.271 429.47L781.244 429.684L781.343 429.865L781.36 430.003L781.289 430.174L781.175 430.355L780.914 430.379L780.854 430.733L780.765 431.108L780.299 431.168L779.961 431.499L779.543 431.622L779.17 431.949L778.759 432.253L778.491 432.292L778.262 432.357L777.999 432.859L777.561 432.917L776.774 433.327L776.509 433.525L776.268 433.602L775.923 433.773L775.849 433.712L775.734 433.565L775.436 433.49L775.29 433.324L775.248 433.112L775.209 433.029L775.145 433.149L775.095 433.654L775.042 433.767L774.915 433.817L774.664 433.674L774.425 433.383L774.084 433.585L774.188 433.608L774.343 433.592L774.463 433.642L774.565 433.836L774.561 433.941L774.508 434.064L774.189 434.085L773.763 434.041L773.685 434.057L774.074 434.246L774.429 434.355L774.586 434.474V434.573L774.387 434.732L774.233 434.927L774.23 435.048L774.227 435.184L774.054 435.299L773.947 435.276L773.643 435.073L772.766 434.274L772.898 434.5L773.807 435.408L773.967 435.707L773.989 435.918L773.895 436.024L773.741 436.149L773.443 436.158L772.955 435.822L772.174 435.011L771.908 434.901L772.698 435.827L772.828 436.052L772.961 436.311L772.923 436.465L772.855 436.61L770.983 437.467L770.703 437.836L770.481 438.291L770.113 438.544L769.897 438.775L769.273 438.905L768.932 438.865L769.286 438.444L769.067 438.288L769.056 437.205L769.142 436.016L769.305 435.422L769.54 435.274L769.836 435.184L769.843 435.059L769.814 434.915L769.655 434.712L769.481 434.618L769.221 434.577L769.021 434.328L768.869 434.339L768.633 434.421L768.49 434.314L768.437 434.147L768.218 433.939L767.966 433.737L768.08 433.705L768.212 433.589L768.354 433.44L768.706 433.419L769.059 433.426L769.158 433.387L769.301 433.229L769.532 433.026L769.708 432.913L769.75 432.822L769.68 432.608L769.641 432.388L769.706 432.319L770.025 432.358L770.376 432.461L770.461 432.507L770.662 432.237L770.717 432.204L770.849 432.205L771.197 432.155L771.537 432.085L771.698 432.096L771.854 432.277L771.973 432.455L772.035 432.469L772.212 432.393L772.358 432.488L772.664 432.643L772.847 432.65L772.756 432.289L772.858 432.033L772.838 431.962L772.666 431.844L772.082 431.372L771.982 431.231L771.996 431.009L771.976 430.684L771.924 430.478L771.933 430.358L771.969 430.262L772.076 430.224L772.18 430.211L772.263 430.128L772.403 429.912L772.675 429.931L773.057 430.053L773.339 430.129L773.506 430.115L773.543 430.083L773.538 429.967L773.558 429.473L773.547 429.368L773.788 429.32L774.156 429.309L774.35 429.28L774.531 429.072L774.997 429L775.334 428.719L775.638 428.43L775.787 428.353L775.976 428.303L776.118 428.31L776.296 428.477L776.443 428.376L776.613 428.18L776.702 427.988L776.751 427.679L776.718 427.205L776.628 426.835L776.543 426.556L776.526 426.279L776.722 425.719L776.891 425.11L776.859 424.87L776.675 424.49L776.488 424.027L776.284 423.517L776.207 423.441L776.152 423.299L776.121 423.133L776.202 422.612L776.214 422.438L776.449 422.199L776.575 421.927L776.693 421.626L776.648 421.467L776.632 421.143L776.662 420.986L776.606 420.859L776.538 420.674L776.583 420.554L776.748 420.451L776.845 420.274L776.969 420.067L777.024 419.878L776.935 419.72L776.774 419.483L776.48 419.27L776.141 418.995L775.975 418.826L775.843 418.654L775.722 418.454L775.656 418.294L775.72 418.189L776.202 417.948L776.29 417.861L776.341 417.727L776.303 417.596L776.173 417.525L776.022 417.477L775.8 417.326L775.386 416.908L775.196 416.815L774.996 416.695L774.89 416.569L774.774 416.223L774.721 416.192L774.606 416.297L774.46 416.406L774.338 416.387L774.227 416.289L774.174 416.158L774.051 415.977L773.917 415.829L773.882 415.333L773.861 415.171L773.795 414.945L773.691 414.865L773.581 414.804L773.321 414.392L773.141 414.179L772.403 413.599L772.311 413.507L772.112 413.267L771.766 412.928L771.519 412.655L771.339 412.372L771.255 412.126L771.23 411.934L771.034 411.659L770.865 411.434L770.701 411.36L770.514 411.329L770.345 411.195L770.036 410.891L769.899 410.697L769.818 410.564L769.822 410.428L769.896 410.202L769.986 410.073L769.989 409.972L769.901 409.891L769.558 409.744L768.782 409.523L768.492 409.354L768.224 409.138L768.022 408.991L767.076 408.366L766.789 408.262L766.543 408.151L766.468 408.043L766.481 407.939L766.582 407.862L766.85 407.701L766.95 407.517L766.918 407.276L766.812 407.033L766.864 406.948L766.951 406.938L767.131 406.931L767.504 406.917L768.308 407.139L768.424 407.115L768.861 406.712L769.025 406.471L769.063 406.27L769.149 406.142L769.379 405.932L769.382 405.74L769.269 405.483L769.154 405.384L769.055 405.341L768.736 405.375L768.674 405.317L768.632 405.126L768.617 405.009L768.512 404.872L768.167 404.755L767.875 404.722L767.807 404.673L767.919 404.541L768.118 404.411L768.269 404.335L768.388 404.201L768.41 404.062L768.262 403.939L768.069 403.802L767.756 403.541L767.322 403.264L767.058 403.169L766.92 403.182L766.442 403.421L766.185 403.576L765.971 403.852L765.748 403.91L765.522 403.788L765.266 403.663L764.557 403.481L764.258 403.329L763.639 402.399L763.548 402.21L763.607 401.996L763.65 401.689L763.712 401.49L763.821 401.3L763.851 401.132L763.824 400.965L763.735 400.87L763.618 400.842L763.531 400.804L763.449 400.586L763.399 400.615L763.323 400.879L763.232 400.974L763.111 401.021L763.017 400.979L762.957 400.873L762.931 400.693L762.869 400.451L762.793 400.293L762.526 400.132L762.4 399.923L762.004 399.468L761.672 399.149L761.517 398.862L761.653 398.755L761.824 398.6L762.008 398.358L762.214 398.054L762.3 397.868L762.361 397.793L762.482 397.738L762.612 397.768L762.84 397.891L763.184 398.048L763.491 398.234L763.615 398.421L763.786 398.6L763.917 398.654L763.983 398.641L764.18 398.505L764.35 398.37L764.354 398.217L764.51 398.079L764.714 397.852L764.811 397.698L764.884 397.682L764.967 397.727L765.289 398.203L765.351 398.232L765.442 398.161L765.569 397.789L765.709 397.645L765.757 397.681L766.536 398.382L766.61 398.378L766.694 398.346L766.749 398.238L766.81 397.995L766.926 397.735L767.176 397.59L767.371 397.562L767.443 397.686L767.612 397.857L767.817 397.882L768.253 397.578L768.396 397.53L768.548 397.535L768.703 397.523L768.851 397.408L769.007 397.254L769.06 396.952L769.093 396.681L769.2 396.572L769.328 396.498L769.568 396.395L770.11 396.132L770.25 396.007L770.353 395.938L770.564 396.051L770.816 396.271L770.968 396.438L771.07 396.616L771.119 396.766L771.52 396.895L771.776 397.079L771.946 397.22L772.114 397.214L772.282 397.176L772.39 397.063L772.579 397.061L772.803 397.078L772.903 397.123L773.088 397.383L773.171 397.419L773.336 397.401L773.653 397.309L773.908 397.266L774.138 397.369L774.576 397.658L774.453 397.865L774.355 398.086L774.163 398.242L774.021 398.281L773.931 398.498L773.891 398.818L773.94 398.981L774.05 399.033L774.172 399.141L774.222 399.284L774.239 399.6L774.232 399.956L774.249 400.074L774.344 400.052L774.434 400.01L774.616 400.065L774.842 400.158L774.985 400.253L775.113 400.24L775.213 400.332L775.25 400.508L775.368 400.632L775.696 400.862L775.959 400.882L776.181 401.188L776.411 401.087L776.517 401.219L776.994 401.173L777.326 401.049L777.445 401.078L777.744 401.332L777.92 401.486ZM776.882 402.358L776.478 402.733L776.323 402.727L776.461 402.303L776.527 402.202L776.77 402.348L776.882 402.358ZM776.653 403.227L776.496 403.304L776.31 403.296L776.533 403.149L776.646 402.968L776.737 402.905L776.736 403.063L776.653 403.227ZM774.812 403.557L774.78 403.615L774.637 403.474L774.542 403.413L774.614 403.223L774.782 403.431L774.812 403.557ZM775.278 403.762L775.162 403.774L774.939 403.533L775.059 403.404L775.312 403.494L775.371 403.553L775.369 403.605L775.308 403.72L775.278 403.762ZM775.66 433.776L775.425 433.947L775.409 433.803L775.613 433.71L775.685 433.637L775.737 433.638L775.66 433.776ZM766.95 433.794L767.003 433.935L766.983 434.266L766.874 434.589L766.906 434.729L766.822 434.819L766.635 434.214L766.4 433.952L766.348 433.852L766.485 433.858L766.73 433.692L766.848 433.688L766.95 433.794ZM774.116 438.623L774.037 438.629L773.977 438.572L774.231 438.386L774.206 438.509L774.215 438.572L774.116 438.623Z" fill="#A1FF62" stroke="#201D1D" stroke-width="0.25"/>
</g>
</svg>
