<svg width="1010" height="666" viewBox="0 0 1010 666" fill="none" xmlns="http://www.w3.org/2000/svg">
<path d="M840.875 494.647L840.773 494.391L840.818 494.327L840.87 494.293L840.935 494.301L841.195 494.575L841.309 494.65L841.474 494.849L841.849 494.873L842.299 494.659L842.51 494.746L842.609 494.73L842.94 494.527L843.154 494.469L843.299 494.319L843.445 494.481L843.771 494.669L843.874 494.866L844.012 494.959L844.057 495.021L843.859 495.228L843.833 495.451L843.62 495.436L843.365 495.802L842.409 496.416L841.549 495.892L841.177 495.538L840.927 495.048L840.875 494.647ZM859.341 507.33L859.374 507.475L859.526 507.616L859.646 507.482L859.583 507.366L859.563 507.148L859.409 506.951L859.344 507.118L859.281 507.157L859.221 507.29L859.341 507.33ZM865.669 510.214L865.792 510.216L865.992 510.15L866.096 510.01L866.205 510.046L866.422 509.79L866.568 509.664L866.956 509.622L866.693 509.297L866.646 509.274L866.284 509.4L865.818 509.483L865.638 509.658L865.453 509.945L865.411 510.201L865.443 510.282L865.669 510.214ZM873.887 491.38L873.955 491.185L873.833 491.09L873.69 491.289L873.813 491.457L873.887 491.38ZM858.258 494.856L858.659 494.333L858.768 493.815L858.63 493.85L858.617 494.078L858.57 494.231L858.508 494.286L858.398 494.383L858.148 494.799L858.042 494.902L858.055 495.03L858.258 494.856ZM846.737 494.245L846.961 494.684L847.018 494.64L847.119 494.26L847.028 494.082L847.018 493.773L846.977 493.691L846.862 493.86L846.711 493.885L846.802 494.109L846.737 494.245ZM857.641 495.438L857.898 495.228L857.922 495.105L857.838 495.165L857.326 495.419L857.083 495.705L857.526 495.493L857.641 495.438ZM858.953 507.044L858.999 507.023L859.076 506.933L859.039 506.683L858.951 506.803L858.953 507.044ZM873.784 492.76L873.768 492.839L873.8 493.019L873.953 493.104L874.187 492.941L873.971 492.621L873.784 492.76ZM857.989 506.916L858.021 507.044L858.068 507.059L858.236 507.047L858.297 506.803L858.223 506.773L858.044 506.8L857.989 506.916ZM859.062 502.917L858.786 502.804L858.682 502.681L858.669 502.559L858.789 502.194L858.865 502.084L858.943 502.053L859.12 501.853L859.078 501.737L859.021 501.671L858.95 501.634L858.836 501.897L858.705 501.905L858.583 501.786L858.531 501.563L858.547 501.435L858.417 501.419L858.214 501.549L858.076 501.757L857.768 501.962L857.732 502.382L857.778 502.713L857.677 502.855L857.518 502.959L857.596 503.008L857.869 503.024L858.4 503.156L858.718 503.135L859.086 503.192L859.19 503.057L859.245 502.879L859.198 502.864L859.062 502.917ZM899.343 531.216L899.408 531.175L899.505 531.047L899.443 530.889L899.315 530.665L899.348 530.467L899.268 530.417L899.18 530.426L899.085 530.349L898.841 530.257L898.766 530.469L899.19 531.11L899.343 531.216ZM904.434 537.373L904.505 537.288L904.523 537.076L904.685 536.551L905.271 535.163L905.296 534.9L905.124 534.708L905.078 534.164L905.008 534.135L904.914 534.168L904.794 534.246L904.69 534.4L904.81 534.455L904.966 534.731L904.925 534.987L904.818 535.187L904.395 535.564L904.458 535.901L904.432 536.062L904.286 536.353L904.223 536.671L904.307 537.221L904.434 537.373ZM905.469 542.218L905.529 542.171L905.484 541.811L905.598 541.298L905.5 541.273L905.354 541.334L905.312 541.614L905.344 541.917L905.469 542.218ZM905.412 542.768L905.398 543.27L905.484 543.4L905.557 543.417L905.799 542.55L905.752 542.506L905.51 542.452L905.412 542.768ZM897.318 526.809L897.409 526.762L897.333 526.525L897.239 526.472L897.229 526.644L897.166 526.765L897.237 526.816L897.318 526.809ZM895.667 526.419L895.667 526.287L895.622 525.984L895.518 526.06L895.502 526.29L895.568 526.51L895.667 526.419ZM884.968 514.817L885.179 515.024L885.304 515.282L885.481 515.382L885.56 515.276L885.602 515.133L885.481 514.916L885.422 514.637L885.341 514.621L885.289 514.666L885.166 514.707L884.919 514.697L884.968 514.817ZM874.201 491.664L874.367 491.488L874.255 491.341L874.031 491.367L873.964 491.508L874.023 491.611L874.201 491.664ZM892.882 520.305L892.94 520.26L892.973 519.991L892.87 520.064L892.799 520.162L892.745 520.286L892.818 520.318L892.882 520.305ZM893.026 520.756L893.117 520.758L893.185 520.725L893.188 520.683L893.075 520.516L893.008 520.314L892.891 520.701L893.026 520.756ZM866.286 511.177L866.143 511.298L866.18 511.418L866.284 511.368L866.598 511.309L866.568 511.156L866.38 511.006L866.286 511.177ZM883.201 578.973L883.033 578.828L882.664 578.845L882.638 578.924L882.622 579.101L882.779 579.209L883.201 578.973ZM891.091 584.854L891.013 584.785L890.755 584.682L890.257 584.023L890.068 583.908L889.805 584.292L889.602 584.433L889.729 584.579L889.909 584.561L889.992 584.801L889.95 584.958L890.326 585.533L890.388 585.682L890.464 585.785L890.554 585.863L890.848 585.759L891.098 585.535L891.137 585.539L891.164 585.433L890.961 585.268L891.07 585.143L891.091 584.854ZM890.921 586.793L890.869 586.756L890.797 586.749L890.585 586.816L890.612 586.899L890.783 587.078L890.921 586.793ZM882.197 579.59L882.596 579.562L882.831 579.695L882.815 579.628L882.716 579.459L882.643 579.393L882.447 579.345L882.197 579.59ZM881.231 586.762L881.249 586.518L881.227 586.498L881.138 586.628L881.023 586.683L881.128 587.066L881.231 586.762ZM857.026 501.593L856.955 501.64L856.921 501.719L856.922 501.823L857.177 501.878L857.244 501.846L857.349 501.75L857.299 501.507L857.182 501.387L857.026 501.593ZM920.838 645.243L920.667 646.2L920.693 646.42L920.786 646.229L920.974 645.577L921.012 645.082L920.838 645.243ZM891.172 586.028L890.812 586.215L890.421 586.212L890.284 586.299L890.312 586.385L890.542 586.559L890.856 586.581L891.151 586.497L891.245 586.727L891.39 586.688L891.586 586.489L891.437 586.249L891.172 586.028ZM891.213 592.734L891.177 592.593L891.102 592.466V592.331L891.141 592.043L891.063 591.623L891.089 590.988L891.062 590.647L891.07 590.311L891.133 589.881L891.115 589.447L891.075 589.23L891.057 589.01L891.078 588.386L890.859 588.045L890.348 587.772L890.167 587.767L889.898 588.111L889.742 588.108L889.193 588.008L889.073 588.122L888.852 588.45L888.724 588.589L888.536 588.529L888.346 588.422L888.201 588.434L888.06 588.522L887.744 588.562L887.419 588.555L887.221 588.649L887.044 588.799L886.987 588.988L887.021 589.206L886.846 589.004L886.671 588.872L886.466 589.014L886.252 589.111L885.531 589.189L884.951 589.021L884.138 588.674L884.01 588.572L883.893 588.442L883.758 588.357L883.451 588.228L883.331 588.08L883.195 588.038L883.039 588.059L882.813 587.941L882.627 587.733L882.461 587.715L882.278 587.809L881.953 587.795L881.323 587.555L881.042 587.373L881.018 587.781L880.839 588.513L880.885 588.876L880.984 589.291L881.172 589.852L881.177 590.033L881.211 590.14L881.596 590.981L881.99 591.666L882.503 592.391L882.562 592.721L882.495 593.059L882.661 593.037L882.765 592.871L882.789 593.036L882.846 593.175L883.284 593.655L883.315 593.782L883.148 594.179L883.055 593.851L882.88 593.594L882.393 593.187L882.5 594.037L882.586 594.374L883.203 595.829L883.286 595.923L883.427 595.987L883.546 596.103L883.747 596.4L884.086 597.044L884.284 597.23L884.57 597.171L884.992 597.302L885.135 597.266L885.224 597.321L885.276 597.471L884.947 597.468L884.625 597.551L884.591 597.676L884.679 597.817L884.763 598.212L885.166 598.079L885.802 598.105L886.182 598.063L886.604 598.422L886.984 598.489L887.094 598.463L887.322 598.038L887.463 597.527L887.549 597.332L887.667 597.166L887.414 596.947L887.406 596.836L887.44 596.708L887.934 597.09L888.135 596.936L888.177 596.593V596.381L888.237 596.23L888.361 596.16L888.411 595.972L888.424 595.827L888.297 595.499L888.284 595.31L888.594 595.703L888.719 596.236L888.956 596.095L888.99 596.011L888.953 595.642L889.059 595.519L889.395 595.619L889.693 595.833L889.714 595.932L889.695 596.032L889.62 596.12L889.378 596.03L889.266 596.186L889.411 596.576L889.654 596.95L889.802 596.854L890.102 596.803L890.201 596.708L890.138 595.956L890.018 595.406L890.01 594.805L890.044 594.478L890.182 594.226L890.283 593.96L890.27 593.617L890.32 593.293L890.443 592.957L890.615 592.706L890.695 592.648L890.653 592.578L890.726 592.361L890.856 592.202L890.935 592.397L890.831 592.473L890.77 592.558L890.974 592.701L891.034 592.828L891.055 592.968L891.034 593.142L891.072 593.276L891.187 593.301L891.219 593.126L891.185 592.914L891.213 592.734ZM905.904 545.088L905.565 544.48L905.49 544.003L905.37 543.595L904.844 542.449L904.615 541.788L904.742 541.124L904.523 539.003L904.75 537.947L904.641 537.818L904.367 537.655L904.247 537.488L904.065 537.092L904.046 536.299L903.695 535.811L903.318 535.588L903.062 535.188L902.89 534.855L902.865 534.67L902.762 534.357L902.471 534.142L902.273 534.04L901.846 533.727L901.637 533.411L901.208 532.512L901.008 532.273L900.612 532.015L900.289 532L900.08 531.936L899.338 531.364L899.107 531.239L898.921 530.971L898.643 530.683L898.482 530.471L898.234 530.246L898.065 529.391V528.561L898.012 527.572L897.755 527.095L897.615 526.941L897.464 526.992L897.451 527.3L897.494 527.51L897.387 527.52L897.005 527.248L896.526 526.958L896.268 526.634L896.081 526.33L895.924 526.342L895.815 526.39L895.705 526.764L895.883 527.409L895.796 527.497L895.645 527.348L895.37 527.011L895.227 527.121L895.037 527.164L894.872 526.826L894.734 526.613L894.533 525.908L894.352 525.132L894.336 524.571L893.984 524.263L893.848 523.734L893.739 523.587L893.635 523.212L893.231 522.722L892.815 522.376L892.469 522.049L892.172 521.586L892.302 521.251L892.513 521.322L892.737 521.29L892.559 520.949L892.385 520.72L891.94 520.291L891.732 520.183L891.284 520.12L890.786 519.729L890.482 519.56L890.266 519.533L890.018 519.472L889.841 519.251L889.531 519.178L889.093 518.741L888.878 518.301L888.77 518.139L888.622 518.017L888.406 518.09L888.229 518.123L887.836 518.061L887.708 517.882L887.455 517.655L886.968 517.595L886.583 517.452L886.289 517.311L885.99 517.131L885.716 516.831L885.474 516.43L885.516 515.916L885.576 515.583L885.266 515.454L884.732 514.757L884.706 514.472L884.849 513.89L884.995 512.888L884.783 512.144L884.367 511.237L884.396 510.777L884.187 510.771L883.955 510.681L883.628 510.234L883.38 509.94L883.213 509.669L883.031 509.302L883.06 509.008L883.104 508.81L883.122 508.286L882.891 507.777L882.818 507.256L882.599 506.605L882.659 506.173L882.612 505.817L882.544 505.509L882.615 505.313L882.643 505.064L882.341 504.815L882.018 504.625L881.599 504.289L880.849 503.765L880.675 503.369L880.357 503.015L879.932 503.152L879.62 503.217L879.328 503.484L878.924 503.681L878.531 503.503L878.346 503.353L878.208 502.823L878.029 502.245L877.877 501.955L877.763 501.605L877.87 500.752L877.71 500.351L877.659 499.752L877.508 499.068L877.339 498.726L877.351 498.451L877.036 498.048L876.937 497.759L876.758 497.655L876.533 497.49L876.5 497.269L876.518 497.108L876.653 496.841L876.726 496.495L876.411 496.409L876.192 496.394L876.039 496.285L875.867 496.116L875.805 495.578L875.81 495.008L875.766 494.652L875.672 494.387L875.606 494.107L875.447 493.809L874.969 493.422L875.003 493.266L875.115 493.064L874.945 492.948H874.698L874.557 493.218L874.331 493.45L873.888 493.627L873.805 494.555L873.531 495.575L873.281 496.328L873.326 496.556L873.307 496.779L873.172 496.679L873.052 496.554L872.87 496.852L872.542 497.625L872.512 498.026L872.705 498.134L872.839 498.24L873 498.275L873.073 498.374L873.115 498.568L873.219 498.735L873.193 498.916L873.068 498.845L872.805 498.846L872.671 499.003L872.331 499.317L872.421 500.221L872.262 500.697L872.109 501.066L871.935 501.766L871.958 502.137L872.112 502.401L872.276 502.787L872.177 503.319L872.076 503.7L872.302 504.804L872.365 505.392L872.24 505.793L871.877 506.979L871.713 507.847L871.766 508.326L871.607 508.766L871.427 509.47L871.224 510.002L870.513 511.076L870.372 511.596L870.133 512.244L869.622 512.622L869.237 512.858L868.391 513.092L867.903 513.087L867.651 512.944L867.505 512.82L866.93 512.613L866.232 512.145L865.693 511.993L865.427 511.523L865.401 511.328L865.305 511.074L865.023 510.74L864.492 510.627L863.945 510.386L863.609 510.42L862.878 510.213L862.391 509.918L861.945 509.509L861.359 508.801L860.861 508.61L860.224 508.317L859.857 508.073L859.635 507.955L859.39 507.772L859.166 507.813L858.779 507.818L858.536 507.646L858.505 507.511L858.542 507.405L858.555 507.212L858.471 507.183H858.385L858.313 507.235L858.214 507.273L857.872 507.125L857.393 506.878L857.304 506.661L857.153 506.396L856.49 506.011L856.107 505.693L855.258 505.232L855.042 505.009L854.971 504.814L854.908 504.533L855.098 504.241L855.283 504.034L855.859 503.175L856.033 503.025L856.25 502.792L856.448 502.165L856.547 501.807L856.378 501.265L856.372 500.355L857.042 500.002L857.229 499.956L857.403 499.878L857.601 499.988L857.734 500.159L857.872 500.128L858.245 499.494L858.185 499.23L858.031 499.005L858.085 498.866L859.237 497.625L859.096 497.321L858.924 497.251L858.596 497.272L858.287 497.007L858.094 496.506L857.822 496.488L857.336 497.002L857.279 497.12L857.396 497.187L857.5 497.499L857.31 497.865L857.12 497.868L856.807 497.832L856.666 497.571L856.602 497.173L856.404 497.061L856.177 497.136L855.99 497.276L855.859 497.316L855.749 497.225L855.742 497.059L856.028 496.783L856.266 496.606L856.286 496.54L856.112 496.486L856.138 496.358L856.359 496.131L856.255 496.119L855.984 496.362L855.695 496.502L855.312 496.8L854.76 496.995L854.383 497.259L853.856 497.179L853.365 496.919L853.258 496.782L853.016 496.581L852.477 496.799L852.138 496.776L851.951 496.699L851.632 496.647L851.357 496.454L850.698 496.146L849.997 496.087L849.656 496.101L849.404 495.942L849.159 495.851L848.68 495.787L848.482 495.548L848.231 495.067L848.05 494.938L847.76 494.892L847.451 495.113L847.27 495.217L846.917 494.822L846.289 494.414L846.089 494.358L845.984 494.457L845.909 494.645L845.789 494.663L845.651 494.578L845.406 494.337L845.245 494.293L844.826 494.55L844.854 494.638L845.198 494.769L845.557 495.128L845.729 495.202L846.133 495.108L846.687 495.176L847.245 495.624L847.164 495.847L847.122 496.157L847.137 496.495L847.124 496.724L847.354 496.976L847.25 496.995L846.99 496.938L846.786 497.008L846.593 497.127L846.507 497.466L846.398 497.306L846.063 497.154L845.865 497.271L845.534 497.425L845.232 497.363L845.039 497.285L844.586 497.417L843.776 497.413L843.507 497.223L843.427 496.897L843.365 496.817L843.291 496.963L843.164 497.131L842.674 497.165L842.602 497.234L842.63 497.397L842.612 497.602L842.424 497.617L842.192 497.671L842.216 497.922L842.26 498.118L842.174 498.216L841.919 498.037L841.805 497.844L841.625 497.784L841.486 497.853L841.45 498.025L841.471 498.469L841.344 498.519L841.013 498.502L840.861 498.586L840.632 499.144L840.211 499.357L840.146 499.648L840.119 499.896L840.469 500.345L840.299 500.575L840.122 500.763L839.943 500.843L839.565 500.916L839.287 501.121L839.171 501.337L839.148 501.543L839.072 501.807L838.951 502.12L838.927 502.289L838.674 502.457L838.224 502.96L837.997 503.475L838.292 503.755L838.641 503.956L838.893 503.95L838.896 504.001L838.632 504.208L838.796 504.42L839.049 504.618L839.203 504.647L839.315 504.731L839.076 504.778L838.723 504.795L838.654 505.011L838.698 505.26L838.76 505.476L838.716 505.629L838.585 505.524L838.526 505.362L838.223 505.032L838.005 504.931L837.685 504.853L837.589 504.953L837.602 505.456L837.539 505.687L837.427 505.556L837.398 505.188L837.098 504.89L835.911 504.592L835.744 504.573L835.468 504.612L835.279 504.73L835.26 504.846L835.133 504.94L834.929 505.047L834.74 505.211L834.619 505.348L834.612 505.519L834.765 505.84L834.854 505.933L834.841 506.086L834.693 505.927L834.563 505.876L834.44 506.126L834.323 506.176L834.354 505.478L834.477 505.005L834.576 504.726L834.687 504.508L834.633 504.393L833.812 503.74L833.464 503.205L833.208 502.905L832.812 502.616L832.604 502.434L832.143 502.156L831.599 501.963L831.338 501.702L831.049 501.609L830.69 501.736L830.661 501.979L830.706 502.215L830.421 502.601L830.114 502.807L829.869 502.571L829.646 502.399L829.421 502.523L829.352 502.736L829.24 502.815L829.154 502.67L829.031 502.35L828.849 502.223L828.666 502.279L828.721 502.533L828.826 502.673L828.797 502.875L828.664 502.968L828.64 503.159L828.56 503.413L828.573 503.768L828.364 503.843L828.208 504.124L828.094 504.064L828.065 503.881L828.008 503.694L827.781 503.623L827.697 503.797L827.646 503.856L827.565 503.868L827.62 503.726V503.46L827.685 503.182L827.469 503.082L827.383 503.144L827.387 503.384L827.335 503.734L827.12 503.789L826.93 503.946L826.65 503.949L826.507 504.025L826.456 504.21L826.208 504.401L826.214 504.63L826.38 504.862L826.391 505.064L826.786 505.269L826.763 505.475L826.706 505.571L826.557 505.533L826.239 505.355L825.914 505.317L825.815 505.235L825.776 505.294L825.775 505.431L825.648 505.531L825.468 505.541L825.257 505.688L825.406 505.918L825.38 506.009L825.453 506.119L825.776 506.139L825.912 506.11L825.927 506.306L825.885 506.502L825.755 506.572L825.63 506.392L825.008 506.047L824.846 506.014L824.812 506.122L824.841 506.263L824.71 506.434L824.479 506.658L824.322 506.597L824.135 506.65L824.016 507.033L823.974 507.416L824.18 507.684L824.318 508.037L824.604 507.603L824.721 507.553L824.723 507.741L824.611 507.936L824.544 508.176L824.523 508.447L824.335 508.454L824.124 508.418L824.073 508.504L823.994 508.706L824.039 508.985L824.18 509.09L824.505 509.08L824.781 509.1L825.029 509.201L825.07 509.286L824.846 509.238L824.391 509.264L824.174 509.226L823.742 509.252L823.422 509.093L823.265 508.934L823.026 508.893L822.792 508.957L822.662 509.18L822.505 509.234L822.141 508.682L821.911 508.645L821.799 508.774L821.909 509.12L821.851 509.333L821.726 509.492L821.568 509.482L821.469 509.549L821.547 509.695L821.797 510.066L822.003 510.228L822.185 510.453L822.278 510.647L822.497 510.638L822.549 510.795L822.422 511.023L822.427 511.385L822.336 511.404L822.21 511.324L821.958 511.101L821.828 511.058L821.76 511.122L821.74 511.275L821.8 511.675L821.672 512.246L821.698 512.413L821.674 512.555L821.568 512.452L821.438 512.231L821.169 511.888L820.841 511.141L820.492 510.635L820.304 510.204L820.013 509.393L819.862 509.381L819.669 509.73L819.456 510.189L819.31 510.415L818.966 510.64L818.755 510.868L818.5 510.948L818.221 511.208L818.021 511.431L817.739 511.951L817.69 512.286L817.703 512.639L817.826 513.14L817.956 513.868L818.146 513.946L818.3 514.069L818.258 514.289L818.023 514.428L817.305 515.117L816.823 515.363L816.685 515.536L816.508 515.901L816.252 516.362L816.135 516.653L815.867 517.217L815.429 517.847L814.986 518.315L814.474 518.69L814.14 518.869L812.891 519.393L812.226 519.593L811.023 519.739L810.513 519.976L809.875 519.899L809.161 519.848L808.169 520.64L807.348 520.833L806.62 520.978L806.307 521.108L805.591 521.565L805.174 521.774L804.396 522.008L804.076 521.984L803.646 521.769L803.242 521.819L802.797 521.788L802.432 521.808L802.15 521.986L800.481 522.932L800.151 523.19L799.807 523.565L799.315 523.912L798.922 524.312L798.096 524.729L797.247 525.045L796.826 525.308L796.528 525.665L796.007 526.625L795.896 526.868L795.688 527.121L795.412 527.213L795.234 527.295L795.297 526.813L795.098 526.385L795.237 525.568L795.185 525.324L794.901 525.483L794.721 525.657L794.262 526.841L793.948 527.764L794.185 528.294L794.263 528.602L794.262 528.933L794.177 529.409L794.184 529.719L794.156 530.132L793.583 531.09L793.406 531.507L793.214 532.309L793.19 532.681L793.205 533.238L793.445 533.726L793.63 534.028L793.914 534.902L794.257 535.483L794.82 536.654L795.44 537.604L795.481 537.968L795.411 538.458L795.445 538.965L795.333 539.114L795.094 539.289L794.818 539.064L794.679 538.869L794.503 538.151L794.43 538.11L794.312 538.424L794.182 538.561L794.065 538.468L793.974 538.349L793.953 538.225L793.992 538.077L794.036 537.539L793.778 537.232L793.549 536.902L793.302 536.821L793.15 536.97L793.145 537.175L793.476 537.749L793.688 538.371L794.018 538.76L794.211 538.86L794.429 539.097L794.382 539.622L794.224 539.818L794.094 539.918L793.667 539.802L793.568 539.424L793.234 538.681L793.125 538.393L793.034 538.315L792.997 538.457L793.003 538.713L792.942 538.823L792.877 538.812L792.745 538.678L792.625 538.606L792.554 538.631L792.684 538.816L792.969 539.364L794.026 540.708L794.921 542.274L795.117 542.894L795.216 544.258L795.305 544.588L795.833 545.267L796.351 546.054L796.503 546.446L796.5 546.782L796.604 547.101L797.247 547.967L797.533 548.897L797.568 549.237L797.486 549.821L797.56 550.854L797.633 551.416L797.865 552.53L798.143 553.334L798.473 553.834L798.922 554.946L799.607 556.23L799.718 556.865L799.682 558.558L799.633 559.11L799.484 559.205L799.383 559.438L799.529 560.552L799.562 561.188L799.341 561.788L799.091 562.321L798.653 562.685L798.156 562.697L797.924 562.485L797.63 562.268L797.578 563.237L797.572 564.069L797.661 564.386L797.672 564.76L798.005 565.051L798.193 564.938L798.425 564.922L799.232 565.334L799.685 565.674L800.416 566.588L801.062 566.829L801.904 567.245L802.882 567.377L803.664 567.401L804.893 567.62L805.156 567.542L805.682 567.474L806.083 567.332L806.445 567.241L807.526 566.392L808.578 565.518L809.099 565.449L809.567 565.439L810.137 565.141L810.654 564.238L810.919 564.037L811.27 563.812L812.266 563.68L812.854 563.773L813.167 563.627L813.964 563.464L815.622 563.314L816.533 563.435L817.141 563.415L817.463 563.475L817.714 563.87L819.474 563.53L819.974 563.506L820.286 563.563L820.68 563.858L821.122 563.579L821.52 563.616L821.922 563.347L822.533 562.541L822.81 562.038L823.255 560.979L823.586 560.599L823.948 560.41L824.375 560.349L825.031 560.158L826.456 559.267L827.01 559.075L827.302 558.907L828.283 558.216L828.898 558.083L830.701 558.262L831.557 558.216L832.219 558.108L833.224 557.736L834.318 557.456L835.661 556.868L836.783 556.26L837.461 556.12L838.531 556.013L840.104 555.855L841.938 555.937L842.401 555.812L842.63 555.701L842.951 555.582L843.346 555.665L843.651 555.755L844.57 556.24L845.956 557.261L846.263 557.304L847.174 557.071L847.479 557.094L848.755 557.844L849.284 557.86L849.708 557.841L850.028 557.922L850.367 558.126L850.771 558.598L851.624 559.051L851.667 559.417L851.604 559.655L851.411 559.664L851.249 559.715L851.453 560.482L851.812 561.102L852.672 561.186L852.984 561.403L853.185 561.648L853.343 562.037L853.46 562.646L853.891 563.154L854.292 563.588L854.387 563.767L854.576 564.382L854.648 564.562L854.805 565.171L855.034 565.867L854.971 565.938L854.835 565.923L854.593 565.746L854.38 565.549L854.266 565.58L854.135 565.715L854.117 565.882L854.307 565.838L854.417 565.862L854.68 566.075L854.925 566.323L855.12 566.468L855.588 567.086L855.771 566.948L855.995 566.825L856.351 567.161L856.492 567.228L856.573 567.099L856.438 566.496L856.304 566.35L856.271 566.136L856.438 565.983L856.52 565.8L856.917 565.349L857.786 564.002L858.052 563.848L858.361 563.553L858.776 563.328L859.206 563.061L859.481 562.957L859.75 562.902L860.05 562.655L860.378 561.987L860.625 561.196L860.89 560.848L861.294 560.477L861.604 559.962L861.58 559.559L861.583 559.148L861.807 559.465L861.948 559.787L862.172 560.864L861.981 561.101L861.779 561.22L861.818 561.598L861.953 562.091L862.003 562.486L861.578 562.903L861.213 563.427L860.773 564.445L860.745 564.753L860.677 565.181L860.703 565.558L860.771 565.923L860.662 566.489L860.486 566.995L860.253 567.008L860.096 566.989L859.749 567.034L859.429 567.004L859.062 568.11L859.294 568.162L859.473 568.099H859.794L860.153 567.901L860.677 567.739L860.977 567.796L861.33 567.778L861.841 566.362L861.969 565.441L862.229 565.028L862.31 564.743L862.445 564.473L862.718 564.937L862.937 565.388L863.419 566.12L863.57 566.485L863.63 567.373L863.317 568.403L863.128 568.698L862.901 568.955L862.711 569.388L863.286 569.498L863.659 569.49L864.242 569.175L864.357 569.133L864.651 569.128L864.763 568.963L865.049 568.806L865.263 568.622L865.541 568.477L865.792 568.573L865.849 568.656L865.912 568.749L865.82 568.953L865.812 569.384L865.646 569.337L865.5 569.081L865.315 569.147L865.188 569.34L864.912 569.279L864.958 569.405L865.106 569.652L865.687 570.128L866.307 570.759L866.539 571.057L867.044 572.008L867.404 573.019L867.375 573.318L867.198 573.858L867.072 574.407L867.083 574.695L867.2 575.06L867.455 575.434L868.401 576.455L868.901 577.355L869.565 577.822L870.643 577.994L871.211 578.332L871.802 579.014L871.99 579.072L872.278 579.1L872.646 578.685L873.206 578.729L873.945 579.141L874.383 579.043L874.697 579.094L875.135 579.327L875.776 579.788L876.456 580.02L876.859 580.369L877.174 580.421L877.737 580.648L878.151 580.454L878.503 580.21L879.315 579.365L879.953 578.958L880.287 578.8L880.557 578.73L880.898 578.466L880.685 578.28L880.484 578.311L880.141 578.206L880.336 578.084L880.542 577.993L881.531 577.365L881.794 577.551L881.977 577.759L882.174 578.044L882.026 578.447L881.893 578.637L881.589 578.942L881.221 578.954L881.046 578.929L881.409 579.271L881.723 579.501L882.372 579.083L882.534 578.754L882.658 578.563L882.864 578.521L883.172 578.585L883.291 578.826L883.357 579.12L883.135 579.2L883.026 579.418L882.951 579.625L883.339 579.891L883.537 580.06L883.778 580.056L884.055 580.097L884.265 580.488L884.461 580.939L884.693 580.814L884.838 580.696L885.086 580.809L885.356 581.164L885.575 581.567L885.596 581.737L885.765 581.815L885.924 581.695L886 581.525L885.994 581.212L885.951 580.718L885.839 580.643L885.586 580.911L885.443 580.717L885.249 580.511L885.252 580.312L885.463 580.213L885.641 580.256H885.865L887.047 580.083L888.56 578.498L889.221 577.917L889.909 577.486L890.622 577.209L890.992 577.12L892.904 576.971L893.9 577.019L894.411 576.91L894.648 576.764L895.05 576.365L895.333 576.121L895.679 576.053L895.763 575.755L895.763 575.436L895.83 575.103L895.729 574.478L895.755 573.657L895.833 573.229L896.042 572.628L896.135 572.011L896.229 571.137L896.312 570.619L896.416 570.146L896.687 569.625L896.917 569.288L897.46 568.02L897.648 567.895H897.805L897.872 567.818L897.893 567.748L897.848 567.697L897.779 567.55L897.825 567.431L897.99 567.313L898.042 567.358L898.125 567.333L898.138 567.268L898.06 566.921L898.174 566.435L898.313 565.586L898.471 565.205L898.563 564.902L898.927 564.447L899.323 563.999L899.211 563.951L899.025 563.917L899.145 563.81L899.24 563.778L899.361 563.849L899.461 563.652L899.482 563.343L899.58 562.887L899.494 562.49L899.677 562.366L899.887 562.291L899.974 561.875L900.033 561.708L900.162 561.553L900.38 561.222L900.552 560.877L900.956 560.219L901.352 559.95L901.943 559.742L902.008 559.623L901.859 559.55L901.865 559.478H902.086L902.177 559.248L902.411 559.078L902.802 558.686L902.932 558.326L903.013 558.038L903.052 557.387L903.688 556.533L904.13 555.38L904.237 554.641L904.348 554.242L904.422 553.658L904.354 553.05L904.374 552.541L904.815 551.249L904.917 550.716L905.052 550.374L905.262 549.101L905.266 548.441L905.586 547.673L905.984 547.048L906.018 546.47L905.885 546.026L905.904 545.088ZM840.107 496.126L840.628 495.975L841.148 496.157L841.44 496.103L841.43 495.98L841.365 495.877L841.26 495.78L841.029 495.713L840.955 495.464L840.822 495.23L840.797 494.974L840.693 494.738H840.568L840.445 494.805L840.169 495.138L840.266 495.32L840.296 495.653L840.132 495.763L839.943 495.717L839.862 496.021L839.956 496.129L840.107 496.126ZM792.398 537.912L792.398 537.696L792.297 537.487L791.979 536.574L791.878 536.609L791.771 536.728L791.927 537.388L792.466 538.355L792.541 538.227L792.443 537.981L792.398 537.912ZM798.731 522.438L798.893 522.205L798.924 521.992L798.861 521.848L798.635 522.081L798.507 522.274L798.533 522.392L798.731 522.438ZM824.37 506.449L824.471 506.474L824.576 506.392L824.598 506.261L824.484 506.129L824.445 506.012L824.357 506.004L824.313 506.076L824.253 506.215L824.369 506.337L824.37 506.449ZM826.263 504.018L826.249 503.94L826.262 503.716L826.154 503.662L826.036 503.766L825.963 504.054L826.085 504.198L826.263 504.018ZM888.438 596.416L888.367 596.547L888.344 596.665L888.281 596.728L888.398 596.811L888.429 596.999L888.492 597.031H888.669L888.565 596.561L888.438 596.416ZM888.326 597.183L888.245 597.178L888.106 597.376L888.065 597.533L888.005 597.563L887.966 597.673L887.906 597.759L887.742 597.692L887.742 597.762L887.88 598.028L888.098 597.963L888.315 598.031L888.448 597.631L888.409 597.436L888.326 597.183ZM890.656 594.645L890.46 594.558L890.318 594.738L890.341 594.825L890.338 595.021L890.391 595.038L890.547 595.004L890.536 594.891L890.729 594.781L890.656 594.645ZM861.99 569.768L861.729 569.892L861.057 569.811L861.062 569.754L861.167 569.528L861.025 569.403L860.872 569.351L860.32 569.308L859.641 569.553L858.37 569.846L858.201 570.052L858.094 570.333L858.232 570.489L858.697 570.827L859.138 570.873L859.456 570.794L859.797 570.847L859.971 570.651L860.456 570.784L860.641 570.971L861.039 570.806L861.13 570.499L861.266 570.36L861.729 570.256L862.224 570.393L862.377 570.369L862.536 570.202L862.32 569.867L861.99 569.768ZM879.369 584.123L879.286 583.588L879.031 583.378L878.885 583.391L878.859 583.661L878.69 583.813L878.641 583.951L878.651 584.264L878.576 584.555L878.714 584.845L878.682 585.138L878.745 585.344L878.828 585.329L879.128 585.191L879.344 584.986L879.425 584.736L879.328 584.445L879.369 584.123ZM821.763 497.869L821.762 497.84L821.698 497.835L821.701 497.864L821.763 497.869Z" fill="#A1FF62" stroke="#201D1D" stroke-width="0.25"/>
</svg>
