<svg width="1010" height="666" viewBox="0 0 1010 666" fill="none" xmlns="http://www.w3.org/2000/svg">
<path d="M489.581 285.969L489.462 285.904L490.093 285.717L490.492 285.66L490.563 285.685L489.842 285.931L489.581 285.969ZM490.982 285.665L491.536 285.588L491.533 285.559L491.387 285.512L490.915 285.52L490.764 285.553L490.795 285.608L490.982 285.665ZM492.67 285.344L492.551 285.324L492.205 285.424L492.181 285.47L492.277 285.504L492.67 285.344ZM489.233 286.296L489.004 286.286L488.67 286.585L488.714 286.64L489.233 286.296ZM493.982 284.803H493.852L493.611 284.897L493.536 285.022L493.796 285.006L493.982 284.803ZM486.153 295.062L485.795 295.248L485.327 295.183L484.971 295.047L484.512 295.073L484.3 295.144L484.384 295.532L484.448 295.655L484.531 295.735L484.641 295.751L484.768 295.655L484.945 295.554L485.23 295.601L485.437 295.694L485.511 295.791L485.648 295.883L485.848 295.905L486.235 295.729L486.607 295.46L486.716 295.273L486.757 295.104L486.435 295.22L486.153 295.062ZM495.095 286.417L494.704 286.332L494.452 286.207L494.295 285.981L494.025 285.672L493.316 285.704L492.726 285.793L491.909 285.831L491.38 285.981L490.422 286.481L490.181 286.736L489.935 287.285L489.101 287.917L488.615 288.16L488.478 288.067L488.281 288.006L488.124 288.327L488.027 288.616L487.701 290.309L487.479 290.921L487.18 291.435L486.71 292.063L486.494 292.277L486.362 292.358L486.197 292.66L486.065 293.022L485.975 293.191L486.502 293.813L486.568 293.991L486.637 294.095L486.138 294.16L486.35 294.361L486.617 294.505L486.796 294.574L486.894 294.719L486.702 294.786L486.521 294.79L485.805 294.257L485.407 294.159L484.859 294.19L484.721 294.246L484.579 294.408L484.78 294.654L484.966 294.799L485.265 294.818L485.625 295L486.143 294.848L486.515 295.035L486.76 295.102L486.98 295.214L487.174 295.238L487.259 295.188L487.205 294.917L487.363 294.772L487.538 294.705L487.617 294.823L487.778 294.943L487.904 294.944L488.246 294.632L488.326 294.694L488.4 294.805L488.416 294.894L488.429 294.988L488.506 295.027L488.775 295.007L488.912 294.838L489.019 294.732L489.099 294.804L489.138 295.012L489.212 295.283L489.533 295.585L489.804 295.671L490.137 295.612L490.269 295.558L490.358 295.603L490.447 295.763L490.639 295.946L491.042 296.075L491.166 296.148L491.252 296.271L491.227 296.446L491.035 296.881L491.01 297.009L491.036 297.052L490.998 297.132L490.748 297.423L490.726 297.526L490.809 297.693L490.878 297.831L491.028 297.898L491.169 297.92L491.436 297.929L491.721 297.938L491.874 297.253L491.757 297.053L491.612 296.951L491.443 296.901L491.365 296.806L491.338 296.697L491.368 296.63L491.567 296.65L491.629 296.579L492.103 296.175L492.123 296.097L492.057 296.053L491.971 296.03L491.949 295.945L491.952 295.833L492.205 295.248L492.28 294.998L492.297 294.821L492.281 294.646L492.135 294.371L491.994 294.151L491.989 293.976L491.886 293.884L491.594 293.413V293.231L491.759 293.089L491.99 292.999L492.067 292.924L492.205 292.877L492.572 293.013L492.736 293.131L492.782 293.107L492.93 292.979L493.19 292.999L493.819 292.741L493.913 292.617L493.983 292.485L493.989 292.427L493.745 292.172L493.738 292.078L493.77 291.972L493.839 291.888L493.983 291.831L494.136 291.719L494.479 291.401L494.598 291.125L494.635 290.825L494.642 290.601L494.548 290.423L494.453 290.308L494.324 290.326L494.073 290.317L493.838 290.217L493.709 290.055L493.677 289.913L493.736 289.823L493.754 289.713L493.716 289.602L493.731 289.509L493.837 289.434L494.58 289.436L494.636 289.354L494.686 288.922L494.872 288.263L495.047 287.895L495.076 287.74L495.073 286.865L495.095 286.417ZM485.369 293.791L485.614 293.72L485.985 294.022L486.333 293.924L486.312 293.84L486.253 293.761L485.979 293.514L485.53 293.483L485.276 293.559L485.277 293.648L485.369 293.791ZM488.331 287.735L488.609 287.405V286.88L488.198 287.309L488.112 287.567L488.161 287.644L488.331 287.735Z" fill="#A1FF62" stroke="#201D1D" stroke-width="0.25"/>
</svg>
