<svg width="1010" height="666" viewBox="0 0 1010 666" fill="none" xmlns="http://www.w3.org/2000/svg">
<path d="M471.905 298.202L471.67 298.354L471.596 298.533L471.539 298.603L471.384 298.649L471.23 298.65L470.644 298.292L470.509 298.308L470.643 298.144L471.007 298.01L471.212 297.833L471.685 298.004L471.905 298.202ZM463.117 286.232L463.235 286.319L463.531 286.305L463.433 286.499L463.107 286.715L462.888 286.928L462.623 287.106L462.495 286.901L462.346 286.909L462.118 286.515L462.077 285.925L462.375 285.771L462.787 285.78L463.117 286.232ZM457.004 277.02L457.4 277.143L457.695 277.141L457.957 277.498L458.097 278.06L458.424 278.614L458.852 279.094L458.869 279.387L458.716 279.544L458.397 279.739L458.398 279.948L458.609 279.843L458.791 279.795L459.229 279.841L459.382 280.053L459.488 280.37L459.544 280.63L459.506 280.912L459.388 280.822L459.268 280.57L459.135 280.454L458.98 280.391L459.05 280.738L459.022 281.201L459.089 281.244L459.297 281.252L459.16 281.724L458.875 281.852L458.544 281.9L458.464 282.067L458.404 282.282L458.231 282.602L458.003 282.783L457.721 282.746L457.445 282.603L457.204 282.574L457.036 282.659L456.927 282.738L456.821 282.724L456.518 282.754L456.233 282.748L456.192 282.623L456.241 282.247L456.177 282.145L455.905 282.093L455.804 282.003L455.647 281.743L455.616 281.621L455.594 281.453L455.428 281.236L455.227 281.08L455.109 281.072L454.874 281.326L454.68 281.583L454.748 281.712L454.811 281.881L454.706 282.003L454.387 282.281L454.337 282.389L454.251 282.448L454.099 282.371L453.72 282.389L453.546 282.34L453.343 282.135L452.848 281.998L452.765 281.669L452.67 281.607L452.109 281.042L452.034 280.853L452.107 280.74L452.316 280.569L453.019 280.285L453.13 280.171L453.153 280.07L452.946 279.955L452.76 279.827L452.697 279.744L452.692 279.671L452.798 279.576L453.01 279.569L453.178 279.612L453.311 279.527L453.545 279.441L453.702 279.333L453.837 279.054L453.98 278.803L453.995 278.667L454.12 278.188L454.189 278.069L454.633 277.755L454.745 277.927L454.964 277.969L455.16 277.811L455.395 277.312L455.558 277.281L455.738 277.322L456.092 277.259L456.72 277.026L457.004 277.02ZM460.567 276L460.213 276.004L460.085 275.961L459.932 275.841L459.76 275.161L459.822 274.92L459.892 274.802L459.97 274.71L460.157 274.672L460.343 274.801L460.413 274.921L460.569 275.381L460.598 275.775L460.567 276ZM457.695 273.606L457.796 274.247L457.895 274.643L457.902 274.778L457.809 274.966L457.346 275.216L457.2 275.217L457.194 275.156L457.298 274.902L457.208 274.613L457.252 274.393L457.209 274.353L457.119 274.384L456.787 274.733L456.676 274.767L456.664 274.696L456.746 274.41L456.756 274.214L456.805 274.094L456.895 273.983L457.002 273.9L457.089 273.888L457.181 273.974L457.449 273.734L457.695 273.606ZM458.141 274.186L458.082 274.239L457.94 274.224L457.887 274.143L457.858 274.019L457.855 273.792L457.941 273.629L458.305 273.383L458.14 273.296L458.134 273.234L458.228 273.029L458.619 272.71L458.724 272.652L458.828 272.661L458.626 273.227L458.141 274.186ZM458.68 271.527L457.562 271.808L457.177 271.783L457.142 271.645L457.219 271.553L457.538 271.464L457.667 270.787L457.185 270.474L457.16 270.387L457.198 270.238L457.254 270.171L457.546 270.013L457.669 269.978L457.769 269.999L457.975 270.182L458.207 270.565L458.518 270.626L458.729 270.788L458.68 271.527ZM456.351 270.307L456.192 270.335L456.18 270.263L456.457 269.919L456.636 269.862L456.699 269.896L456.569 270.096L456.351 270.307ZM454.08 268.362L453.833 268.432L453.742 268.391L453.726 268.326L453.782 268.149L453.971 268.086L454.108 268.182L454.13 268.269L454.08 268.362ZM457.274 268.366L457.191 268.432L457.086 268.419L456.982 268.334L456.844 268.092L457.154 267.924L457.278 268.023L457.325 268.136L457.327 268.261L457.274 268.366ZM454.549 267.59L454.43 267.619L454.275 267.591L454.179 267.511L454.082 267.194L454.064 267.002L454.107 266.644L454.097 266.215L454.417 266.202L454.5 266.264L454.555 267.535L454.549 267.59ZM457.651 265.57L457.647 265.8L457.597 266.071L457.661 266.358L457.676 266.563L457.794 266.628L457.866 266.722L458.392 266.827L458.881 266.797L458.975 266.881L458.986 267.015L458.909 267.162L458.63 267.43L458.298 267.863L458.199 267.953L458.092 267.957L458.015 267.918L457.96 267.148L457.6 267.247L457.31 267.236L457.151 267.142L457.04 266.961L456.815 266.495L456.161 266.311L455.976 266.053L455.92 265.897L455.943 265.811L456.079 265.619L456.249 265.687L456.354 265.645L456.418 265.559L456.417 265.488L456.328 265.321L456.324 265.269L456.993 265.057L457.052 264.725L457.197 264.698L457.363 264.807L457.59 265.152L457.651 265.57ZM454.673 264.64L454.99 264.934L454.738 265.422L454.351 265.42L453.806 265.064L453.804 264.991L453.849 264.884L453.931 264.799L454.016 264.779L454.151 264.837L454.339 264.743L454.489 264.773L454.673 264.64ZM457.499 261.041L457.142 261.97L457.002 261.993L456.879 262.225L456.499 262.48L456.831 262.485L456.924 262.57L456.926 262.753L456.863 262.859L456.434 263.281L456.139 263.441L455.821 263.881L455.66 263.886L455.501 264.165L455.371 264.288H455.297L455.213 264.226L455.016 263.953L455.374 263.684L455.407 263.533L455.652 263.375L455.631 263.326L455.242 263.104L455.089 262.955L455.103 262.877L455.29 262.705L455.202 262.683L455.142 262.59L455.034 262.554L455.001 262.468L454.981 262.24L455.01 262.007L455.123 261.904L455.169 261.794L455.215 261.76L455.39 261.819L455.568 262.006L455.776 261.934L456.017 261.969L456.022 261.926L455.845 261.467L455.877 261.373L455.973 261.266L456.529 260.937L457.222 260.383L457.39 260.296L457.441 260.372L457.511 260.659L457.499 261.041ZM466.168 260.226L466.192 260.664L466.159 260.797L466.092 260.961L465.88 261.266L465.322 261.701L464.301 262.697L463.697 263.189L463.614 263.425L463.569 263.753L463.93 263.818L464.07 263.929L463.984 264.095L463.449 264.672L463.292 265.192L463.702 265.173L464.04 265.073L464.713 264.749L465.346 264.508L465.65 264.498L466.241 264.69L466.375 264.696L466.626 264.607L466.88 264.591L468.598 264.651L469.076 264.538L469.392 264.673L469.656 265.009L469.907 265.628L469.899 265.731L469.747 266.012L469.467 266.364L469.226 266.848L469.156 267.108L469.109 267.393L469.033 267.656L468.554 268.886L468.087 269.564L467.879 270.044L467.622 270.425L467.374 270.665L467.11 270.825L466.346 270.995L466.132 271.117L465.877 271.326L465.609 271.43L465.923 271.417L466.234 271.301L466.801 271.259L467.453 271.659L467.392 271.986L467.13 272.244L466.534 272.285L465.977 272.858L465.726 273.034L465.46 273.121L465.128 273.095L464.525 272.942L464.261 272.782L464.499 273.043L464.77 273.179L466.339 273.5L466.434 273.466L466.934 273.128L467.601 273.123L468.87 273.745L469.235 274.22L469.759 274.897L470.044 275.161L470.25 275.4L470.377 275.757L470.623 276.933L470.904 278.075L471.271 279.305L471.438 279.645L471.657 279.883L472.765 280.429L473.012 280.61L473.442 281.134L473.857 281.691L474.243 282.118L474.66 282.463L474.458 282.642L474.32 282.923L474.424 283.304L474.593 283.667L474.926 284.247L475.22 284.878L475.112 284.783L474.998 284.731L474.842 284.747L474.69 284.717L474.409 284.519L474.139 284.276L473.602 284.374L473.304 284.33L473.045 284.337L473.536 284.477L474.073 284.487L475.257 285.544L475.657 286.168L475.895 286.989L475.733 287.357L475.481 287.595L475.246 287.866L475.025 288.173L475.682 288.622L475.824 288.609L475.969 288.546L476.109 288.393L476.344 288.02L476.465 287.888L476.874 287.84L477.217 287.869L477.558 287.952L477.859 287.926L478.464 288.086L478.775 288.23L479.546 288.877L479.713 289.231L479.79 289.687L479.799 290.191L479.669 290.65L479.52 291.064L479.428 291.597L479.363 291.789L479.272 291.939L478.864 292.358L478.593 292.53L478.479 292.455L478.356 292.465L478.343 292.566L478.472 292.779L478.473 293.036L478.232 293.226L477.987 293.307L477.577 293.206L477.008 293.56L477.417 293.742L477.5 293.935L477.398 294.274L477.141 294.425L476.855 294.492L476.563 294.508L476.321 294.591L476.089 294.751L476.38 294.667L476.582 294.741L476.709 295.025L476.824 295.107L477.394 295.228L477.746 295.227L478.426 295.158L478.753 295.159L478.869 295.211L478.871 295.446L478.821 296.022L478.731 296.141L477.83 296.623L477.645 296.959L477.594 297.162L477.067 297.126L476.82 297.341L476.393 297.484L476.063 297.635L475.74 297.826L475.474 297.883L474.327 297.656L473.634 297.675L472.695 297.873L472.453 297.84L472.091 297.651L471.719 297.523L471.292 297.467L470.923 297.291L471.153 297.628L470.642 297.953L470.406 298.017L470.161 298.007L469.661 298.095L469.196 298.047L469.266 298.277L469.39 298.478L469.289 298.565L469.183 298.587L468.301 298.436L468.176 298.464L468.067 298.604L467.746 298.529L467.434 298.294L467.103 298.135L466.755 298.06L466.479 298.086L465.342 298.458L465.115 298.83L465.001 299.357L464.837 299.824L464.569 300.183L464.25 300.23L463.95 299.981L463.38 299.707L463.186 299.521L463.124 299.51L463.06 299.576L462.836 299.66L462.605 299.664L462.248 299.738L461.627 299.961L461.376 300.112L460.837 300.529L460.727 300.644L460.531 301.063L460.232 301.137L459.958 300.869L459.646 300.775L459.317 300.866L459.118 301.009L459.025 300.893L459.022 300.655L459.262 300.371L459.903 300.156L460.466 299.597L460.742 299.256L460.852 299.063L460.987 298.94L461.163 298.894L461.254 298.681L462.035 297.823L462.099 297.626L462.138 297.272L462.202 296.931L462.838 296.71L463.142 295.991L463.226 295.934L464.113 295.802L464.771 295.813L465.425 295.954L465.76 295.967L466.096 295.918L466.36 295.723L466.811 295.019L467.065 294.708L467.356 294.427L467.628 294.106L468.069 293.51L467.771 293.716L467.411 294.042L467.202 294.231L466.538 294.421L466.252 294.615L465.751 295.052L465.655 295.088L464.899 294.983L464.337 294.416L463.978 294.184L463.83 294.157L463.676 294.226L463.348 294.297L463.014 294.285L463.185 294.022L463.417 293.875L462.897 293.773L462.752 293.693L462.587 293.508L462.179 293.477L461.985 293.524L461.657 293.768L461.139 294.027L460.514 293.668L460.392 293.511L460.395 293.206L460.301 292.964L460.128 292.879L460.349 292.564L460.617 292.354L461.205 292.145L462.096 291.648L462.596 291.436L463.06 291.07L463.252 290.846L463.391 290.539L463.529 290.163L463.726 289.856L463.535 289.783L463.449 289.552L463.472 289.317L463.56 289.108L463.481 288.846L463.34 288.572L463.348 288.358L463.386 288.129L463.028 288.141L462.671 288.213L462.347 288.375L462.033 288.595L461.754 288.636L461.758 288.46L461.879 288.242L462.195 287.93L462.533 287.671L462.653 287.474L462.748 287.245L462.916 287.061L463.358 286.713L464.205 286.321L464.331 286.298L464.663 286.344L464.99 286.284L465.276 286.143L465.561 286.113L466.203 286.52L466.012 285.89L466.295 285.739L466.705 286.309L466.857 286.369L467.179 286.286L467.055 286.19L466.91 286.184L466.72 286.098L466.56 285.915L466.294 285.333L466.309 284.987L466.488 284.627L466.686 284.295L466.52 284.229L466.387 284.102L466.349 283.769L466.401 283.474L466.757 283.214L466.862 282.818L466.906 282.381L466.847 282.18L466.493 282.212L466.321 282.294L466.167 282.423L466.009 282.415L465.572 281.931L465.323 281.564L464.876 280.786L464.813 280.319L465.17 279.309L465.722 278.66L466.372 278.433L466.246 278.39L465.255 278.381L464.928 278.461L464.625 278.727L464.454 278.809L464.274 278.839L464.11 278.971L463.95 279.154L463.783 279.272L463.452 279.241L463.292 279.28L463.177 279.174L463.08 278.999L462.954 278.952L462.813 279.006L462.515 279.242L462.213 279.381L461.848 279.232L461.369 278.954L461.275 279.056L461.169 279.314L461.108 279.715L460.768 279.366L460.479 278.899L460.381 278.605L460.374 278.273L460.531 278.144L460.702 278.262L460.956 277.473L461.462 276.441L461.641 276.138L461.766 275.741L461.745 275.481L461.634 275.261L461.163 274.761L461.169 274.352L461.219 273.89L461.347 273.612L461.401 273.559L462.026 273.566L461.782 273.422L461.296 273.003L461.305 272.854L461.419 272.465L461.366 272.504L461.262 272.684L461.063 273.119L460.942 273.22L460.598 273.323L460.535 273.536L460.48 273.592L460.309 273.616L460.256 273.815L460.218 273.828L460.169 273.614L460.164 273.258L460.232 272.93L460.362 272.673L460.866 272.088L460.621 272.269L460.065 272.81L459.781 273.165L459.705 273.285L459.682 273.386L459.683 273.502L459.81 274.123L459.773 274.41L459.294 276.295L459.203 276.483L459.12 276.581L459.041 276.604L458.805 276.568L458.7 276.427L458.701 276.268L458.745 276.029L458.944 275.136L459.03 274.887L459.158 274.655L459.44 274.249L459.433 274.222L459.245 274.302L459.165 274.276L459.107 274.195L459.144 272.984L459.297 272.584L459.354 272.001L459.486 271.5L459.639 271.134L459.756 270.665L459.931 270.456L459.978 270.136L460.175 269.789L460.327 269.426L460.245 269.462L459.272 270.406L459.024 270.577L458.686 270.531L458.428 270.425L458.226 270.202L458.136 269.773L457.887 269.762L457.674 269.688L457.676 269.63L457.951 269.396L458.392 269.316L458.805 268.94L458.438 268.686L458.469 268.605L458.789 268.388L459.196 267.659L459.278 266.986L459.084 266.669L459.014 266.461L458.625 266.229L458.56 265.932L458.605 265.765L458.732 265.602L458.923 265.476L459.223 265.354L458.951 265.224L458.849 265.07L458.772 264.847L458.765 264.718L458.906 264.142L458.988 263.904L459.149 263.6L459.877 263.617L459.961 263.483L460.044 263.478L460.416 263.601L460.361 263.469L459.752 262.744L459.697 262.606L459.871 262.214L459.883 262.039L459.858 261.852L459.908 261.709L460.101 261.642L460.689 261.648L460.834 261.582L460.768 261.392L460.631 261.142L460.604 260.932L460.636 260.746L460.643 260.371L460.67 260.205L460.81 259.956L460.925 259.882L461.068 259.839L461.391 259.922L461.514 260.022L461.656 260.259L461.76 260.24L462.162 259.982L462.283 259.945L462.448 260.244L463.135 260.006L464.058 259.9L464.613 259.743L465.197 259.686L465.742 259.507L466.32 259.589L466.34 259.693L466.31 259.837L466.168 260.226ZM466.675 259.009L466.648 259.025L466.545 258.926L466.377 258.571L466.642 258.5L466.767 258.544L466.72 258.695L466.675 259.009ZM466.013 258.725L465.852 258.797L465.693 258.792L465.445 258.479L465.351 258.251L465.368 258.1L465.472 258.049L465.712 258.123L465.836 258.384L465.852 258.553L465.881 258.619L466.03 258.686L466.013 258.725ZM466.315 257.448L466.277 257.582L466.49 257.579L466.799 257.693L466.986 257.707L467.142 257.849L467.056 258.114L466.963 258.189L466.858 258.204L466.49 257.939L466.008 258.049L465.912 258.015L465.849 257.942L465.823 257.851V257.665L465.797 257.61L465.622 257.786L465.546 257.765L465.503 257.681L465.484 257.507L465.503 257.256L465.606 256.897L465.779 256.825L466.037 256.867L466.333 257.07L466.422 257.195L466.42 257.295L466.315 257.448ZM467.742 256.346L467.425 256.352L467.589 256.028L467.78 255.946L468.141 255.982L468.077 256.128L467.742 256.346ZM467.236 256.59L466.995 256.726L466.892 256.614L466.865 256.262L466.578 256.111L466.438 256.017L466.33 255.839L466.357 255.784L466.544 255.711L466.864 256.034L466.995 256.294L467.232 256.371L467.262 256.411L467.236 256.59ZM471.224 249.052L471.282 249.453L471.427 249.349L471.646 249.733H471.758L471.942 249.581L471.905 249.938L471.714 250.925L471.66 251.092L471.624 251.391L471.586 251.45L471.53 252.053L471.401 252.251L471.293 252.723L471.249 252.769L471.091 252.588L471.249 251.867L471.314 251.447L471.272 251.229L471.183 251.032L470.941 251.026L470.737 251.117L470.694 251.001L470.688 250.845L470.639 250.793L470.368 250.804L470.288 250.761L470.235 250.617L470.225 250.502L470.47 250.412L470.7 250.446L471.036 250.217L470.826 249.448L470.547 249.375L470.483 249.3L470.537 249.169L470.69 249.098L470.925 248.705L471.066 248.643L471.241 248.654L471.224 249.052ZM471.97 249.187L471.899 249.252L471.625 248.673L471.828 248.008L472.074 248.029L472.113 248.203L472.089 248.364L471.964 248.378L471.953 248.427L471.992 248.736L471.994 249.094L471.97 249.187ZM472.722 247.481V247.547L472.576 248.031L472.578 248.216L472.343 248.198L472.306 248.139L472.262 247.862L472.292 247.567L472.325 247.49L472.393 247.459L472.467 247.517L472.584 247.367L472.645 247.37L472.722 247.481Z" fill="#A1FF62" stroke="#201D1D" stroke-width="0.25"/>
</svg>
