<svg width="1010" height="666" viewBox="0 0 1010 666" fill="none" xmlns="http://www.w3.org/2000/svg">
<path d="M542.688 216.237L541.944 216.395L541.385 216.078L541.106 216.237L540.619 216.244L540.065 216.369L539.878 216.616L539.731 216.715L539.218 216.366L538.733 215.787L538.379 216.228L538.15 216.311L537.943 215.912L537.763 215.847L537.666 215.98L537.581 216.333L537.445 216.61L537.409 216.785L537.386 217.489L537.351 217.652L536.88 217.561L536.908 217.746L537.011 217.839L537.053 217.956L536.882 218.109L536.415 218.094L536.367 218.257L536.498 218.513L536.395 218.738L536.3 218.826L535.741 218.965L535.418 218.933L535.325 219.078L535.3 219.266L535.361 219.451L535.504 219.549L535.551 219.666L535.541 219.919L535.422 219.965L535.086 219.52L534.983 219.543L535.06 219.774L535.252 220.026L535.363 220.283L535.46 220.591L535.441 220.825L535.023 221.577L534.655 222.05L534.381 222.475L534.219 222.925L534.407 223.151L534.615 223.477L534.762 224.102L534.937 224.658L535.29 225.187L535.219 225.492L535.137 225.729L534.55 226.25L533.884 227.032L533.166 229.016L532.927 229.281L532.299 229.614L532.068 229.936L531.6 230.318L530.783 230.646L530.413 231.102L530.246 231.572L530.06 231.606L529.875 231.422L529.629 231.285L529.597 231.592L529.608 231.817L529.214 231.484L529.028 231.79L528.883 232.299L528.316 232.983L527.705 232.86L527.637 232.98L527.799 233.067L527.824 233.176L527.713 233.234L527.545 233.228L527.286 233.363L527.116 233.353L527.035 233.675L526.903 234.064L526.558 234.225L526.38 234.258L526.292 234.479L526.823 234.525L526.781 234.712L526.769 234.899L526.714 235.099L526.11 235.387L526.017 235.613L525.891 235.753L525.622 235.745L525.632 235.615L525.676 235.468L525.276 235.481L525.151 235.156L525.075 235.239L525.12 235.501L525.224 235.773L525.341 236.172L525.246 236.423L525.141 236.548L525.218 236.663L525.431 236.751L525.517 236.908L525.264 237.042L524.948 237.502L524.62 237.513L524.42 237.817L524.207 237.816L524.034 237.625L523.757 237.468L523.668 237.744L523.654 237.964L523.81 238.519L524.108 238.947L524.384 239.132L524.185 239.257L524.037 239.533L523.858 240.393L523.761 240.731L523.656 241.325L523.722 241.825L523.776 242.07L523.911 242.403L523.544 242.36L523.156 242.166L523.21 242.569L522.972 243.045L523.016 243.463L523.066 243.734L522.992 244.183L523.104 244.324L523.165 244.591L523.064 244.788L523.108 244.957L523.125 245.554L523.201 246.485L523.173 246.681L523.386 247.485L523.337 247.766L523.308 248.123L523.614 248.466L523.886 248.461L524.162 248.456L524.267 248.541L524.373 248.783L524.458 249.069L524.685 249.046L525.048 248.814L525.284 248.759L525.44 249.205L525.864 249.793L526.111 250.056L526.53 250.195L526.972 250.667L526.91 251.235L527.094 251.424L527.615 251.647L527.8 251.948L527.889 252.204L528.026 252.416L528.187 253.055L528.131 253.448L527.921 253.583L527.424 254.003L527.203 254.316L527.03 254.51L526.537 254.927L526.356 255.002L526.183 255.218L526.016 255.313L525.866 255.259L525.306 255.65L524.928 255.542L524.769 255.349L524.87 254.581L524.807 254.333L524.734 254.208L524.486 254.351L524.53 254.645L524.101 254.657L523.697 254.408L523.645 254.898L522.777 254.492L522.538 254.595L522.155 254.391L521.906 254.635L521.61 254.547L521.405 254.257L521.121 254.767L520.501 254.912L519.918 254.993L520.199 255.163L521.507 255.131L521.877 255.257L522.358 255.173L522.784 255.573L523.091 255.669L523.454 256.128L523.64 256.003L523.932 256.022L524.202 256.153L525.059 256.136L525.35 255.816L525.779 255.886L525.998 255.803L526.166 255.607L526.35 255.562L526.517 255.599L526.695 255.444L526.835 255.382L526.979 255.457L527.14 255.828L526.806 256.02L526.569 256.029L526.453 256.635L526.31 256.895L526.207 257.02L525.682 257.277L525.335 257.602L524.926 257.863L524.748 257.806L524.479 258.071L523.882 258.384L523.575 258.806L522.888 259.182L522.538 259.488L521.587 259.504L520.679 259.437L520.394 259.582L520.686 259.627L520.89 259.769L521.135 259.709L521.711 259.78L522.007 259.858L522.387 260.356L522.108 260.532L521.624 260.668L521.806 261.37L521.955 261.842L521.759 262.126L521.744 263.413L521.469 263.437L521.352 263.967L521.438 264.237L521.431 264.862L521.488 265.246L521.623 265.599L521.563 265.966L521.128 266.823L521.137 267.224L521.216 267.462L521.274 267.841L521.076 268.568L520.937 269.173L520.771 269.681L520.4 270.288L520.215 270.741L519.783 272.148L519.569 272.426L519.306 272.639L519.013 272.442L518.744 272.335L518.416 272.348L517.902 272.51L517.129 272.402L516.374 272.454L516.183 272.593L516.298 273.1L516.019 273.166L515.747 273.022L515.507 273.194L515.307 273.382L514.914 273.828L514.782 274.102L514.748 274.617L514.955 275.078L515.138 275.617L514.667 276.264L514.404 276.286L513.636 276.106L512.275 276.511L511.053 276.191L511.206 275.844L511.201 275.589L511.27 275.196L511.311 274.793L511.3 274.523L511.21 274.234L510.909 273.856L510.23 272.575L510.029 272.032L509.889 271.805L509.99 271.793L510.55 272.085L510.68 272.049L510.817 271.94L510.65 271.521L510.506 271.332L510.409 271.048L510.736 270.971L510.973 270.988L511.147 270.668L511.046 270.149L510.792 269.989L510.58 269.919L510.173 269.099L509.749 268.673L508.992 267.022L508.715 265.88L508.458 265.989L508.333 265.49L508.243 265.015L508.225 264.666L507.821 264.466L507.805 264.22L507.732 263.12L507.299 262.972L507.019 262.352L506.969 261.173L506.684 260.958L506.455 261.018L506.466 260.725L506.521 260.449L506.387 259.351L506.342 258.344L506.234 258.038L506.172 257.68L506.227 257.37L506.309 257.191L506.588 257.144L506.849 257.418L507.08 258.108L507.284 258.198L507.562 258.018L507.757 257.515L507.868 256.758L507.998 256.033L507.844 255.255L507.68 254.569L507.668 254.367L508.099 253.785L508.231 253.311L508.374 252.858L508.532 252.704L508.766 252.669L509.039 252.584L509.383 252.28L509.692 251.872L509.928 251.497L510.008 250.753L510.011 250.378L510.115 250.099L510.215 249.553L510.117 249.013L509.812 248.191L509.445 247.028L509.388 246.39L509.555 246.271L509.874 246.165L510.479 246.134L510.543 246.059L510.604 245.778L510.741 245.397L510.886 245.119L510.986 244.72L511.034 244.358L510.688 243.811L510.235 243.249L509.928 243.062L509.382 242.588L508.998 242.191L509.218 240.67L509.382 239.529L509.408 239.251L509.414 238.819L508.884 236.964L508.905 236.549L508.955 236.174L508.898 235.533L508.867 234.958L508.958 234.783L509.174 234.457L508.967 233.951L508.95 233.909L508.56 232.651L509.156 231.396L509.052 230.743L509.407 230.268L510.055 229.176L510.419 228.558L510.496 228.45L510.784 228.178L511.331 227.855L511.937 227.697L512.207 227.699L513.249 227.918L514.062 228.088L514.181 227.917L514.351 227.566L514.57 227.065L514.589 226.506L514.51 225.682L514.391 225.187L513.819 224.864L513.192 224.421L513.963 223.01L514.497 222.024L515.163 220.531L515.37 219.906L515.52 219.657L515.716 217.327L515.846 216.67L515.955 216.325L515.956 215.971L515.885 215.372L515.698 214.012L516.75 213.843L517.092 213.747L517.41 213.584L518.032 213.16L518.337 212.784L518.167 211.496L518.543 211.058L519.461 209.524L520.453 208.043L520.918 207.479L520.966 207.203L521.004 206.758L520.797 206.056L520.575 205.62L520.142 204.791L520.328 204.21L520.647 204.097L521.068 203.868L521.397 203.369L521.429 203.305L521.985 201.329L523.07 200.319L523.503 199.766L524.177 200.182L525.165 200.808L525.604 199.887L525.749 199.544L525.894 199.038L525.836 198.158L525.811 197.009L525.855 196.545L526.249 196.338L526.461 196.285L527.559 196.763L527.835 196.755L528.353 196.819L528.932 197.028L530.145 197.584L530.646 197.813L530.926 197.857L531.168 197.599L531.685 196.934L530.924 196.44L531.425 195.939L531.685 195.432L531.908 194.807L531.989 194.073L531.958 193.677L531.804 193.406L531.339 192.73L532.392 192.633L532.757 192.605L533.523 193.051L533.557 193.148L533.562 193.38L533.589 193.62L534.332 194.227L534.546 194.548L535.003 195.034L535.124 195.296L535.547 195.602L535.85 195.929L536.204 196.193L536.617 196.603L537.172 196.929L537.64 197.035L538.82 197.592L539.021 197.772L539.361 198.159L539.705 198.605L539.943 199.519L540.324 199.566L540.428 199.879L540.761 200.414L541.223 200.885L541.206 201.043L540.838 201.475L540.798 202.059L540.833 202.802L540.949 203.406L540.937 203.582L540.846 203.79L540.737 204.115L540.697 204.398L540.707 204.536L540.744 204.612L540.938 204.618L541.285 204.685L541.489 204.81L541.605 205.497L541.566 205.629L541.274 205.939L541.188 206.185L541.18 206.545L541.232 206.941L541.333 207.382L541.562 207.853L541.872 208.344L542.076 208.746L542.172 209.028L542.207 209.226L542.068 209.474L541.943 209.963L541.92 210.521L541.863 210.884L541.591 211.383L541.402 211.559L541.348 211.821L541.325 212.26L541.381 212.794L541.4 213.154L541.458 213.413L541.544 213.582L541.981 213.879L542.226 214.487L542.379 214.974L542.688 216.237ZM527.083 255.033L527.013 255.216L526.942 254.992L526.97 254.948L527.018 254.727L527.154 254.606L527.371 254.679L527.37 254.734L527.162 254.913L527.083 255.033ZM526.58 257.451L526.455 257.503L526.393 257.487L526.47 257.234L526.527 257.125L526.716 257.023L526.774 257.041L526.58 257.451ZM528.658 263.379L528.607 263.708L528.461 263.683L528.328 263.44L528.597 263.069L529.008 263.089L529.149 263.167L528.658 263.379ZM528.433 263.836L528.201 263.961L528.065 264.332L527.877 264.395L527.697 264.518L527.633 265.684L527.962 266.125L527.781 266.187L527.616 266.319L527.498 266.514L527.377 266.933L526.924 267.17L526.753 267.345L526.5 267.734L526.368 268.297L526.112 268.537L525.824 268.594L525.992 268.134L526.213 267.758L526.001 267.499L525.873 267.094L525.707 266.782L525.839 266.433L525.774 265.861L525.795 265.3L525.987 265.017L526.207 264.786L526.549 264.253L526.92 263.865L527.438 263.691L527.672 263.852L527.773 263.499L527.94 263.418L528.097 263.5L528.433 263.836ZM521.283 271.799L521.138 272.053L521.01 272.035L520.925 271.696L520.905 270.822L520.956 270.388L521.568 268.816L521.841 268.687L522.225 267.717L522.329 267.283L522.496 266.892L522.594 266.541L522.677 266.399L522.856 266.465L522.936 266.53L522.747 266.734L522.769 266.999L522.756 267.108L522.279 268.257L522.152 268.999L521.983 269.18L521.283 271.799Z" fill="#A1FF62" stroke="#201D1D" stroke-width="0.25"/>
</svg>
