<svg width="720" height="450" viewBox="0 0 720 450" fill="none" xmlns="http://www.w3.org/2000/svg">
<path opacity="0.1" d="M377.357 193.629C374.345 196.653 369.195 194.512 369.195 190.235V129H350.068V201C350.068 208.953 343.646 215.4 335.724 215.4H264V234.6H325C329.26 234.6 331.394 239.77 328.381 242.794L285.927 285.412L299.452 298.988L341.906 256.371C344.909 253.356 350.038 255.476 350.068 259.727V321L369.195 321L369.195 249C369.195 241.047 375.617 234.6 383.539 234.6H455.263V215.4H394.225C390.002 215.369 387.891 210.251 390.855 207.233L390.882 207.206L433.336 164.588L419.811 151.012L377.357 193.629Z" fill="#818180"/>
</svg>
